<svg width="209" height="79" viewBox="0 0 209 79" fill="none" xmlns="http://www.w3.org/2000/svg">
<g opacity="0.9">
<path fill-rule="evenodd" clip-rule="evenodd" d="M130.26 23.5184C133.803 23.8638 138.081 26.9198 139.047 28.8525C139.519 29.7973 139.224 30.445 139.005 30.747C138.154 31.9246 137.798 34.4536 137.484 36.6849C137.065 39.6611 136.634 42.7206 134.902 43.8267C134.514 44.0744 134.061 44.2243 133.528 44.2533C133.416 44.2594 133.307 44.2485 133.203 44.2244C132.958 44.7915 132.684 45.3383 132.39 45.8725C135.907 50.9406 133.691 55.2183 132.064 58.3534C131.591 59.2661 131.143 60.1283 130.915 60.863C129.775 64.5303 127.814 67.3315 125.298 68.938C124.764 69.2788 124.206 69.5658 123.625 69.796C121.541 70.6213 119.685 70.8306 117.534 71.0733C115.798 71.2692 113.829 71.4911 111.213 72.0712C106.101 73.2045 102.097 72.7932 99.312 70.8486C98.9671 70.6076 98.6552 70.3475 98.3685 70.0763C93.2341 72.6579 86.5909 72.3442 85.8832 72.011C85.558 71.8576 85.3194 71.5577 85.2463 71.206C84.9276 69.6664 83.8509 68.6172 82.604 67.4021C81.0034 65.8422 79.1909 64.0747 78.9944 60.992C78.9037 60.944 78.8124 60.8985 78.7223 60.8477C75.6994 59.1461 73.1049 56.0108 71.0108 51.5292C69.4791 48.2503 68.809 45.4816 68.7814 45.3654C68.7385 45.1859 68.7396 44.9984 68.7846 44.8185C69.0347 43.8188 70.7462 37.2035 73.3973 32.5855C71.9502 30.8733 71.989 28.3863 72.0272 25.9762C72.0513 24.4517 72.0762 22.8753 71.6828 21.7402C71.5526 21.3649 71.6334 20.934 71.8847 20.6221C72.1858 20.2486 73.7264 19.159 75.4551 18.302C77.1966 17.4385 79.8026 16.4699 82.3474 16.7394C82.9153 14.1666 84.3599 11.7615 86.6409 9.63768C89.2572 7.20197 92.0418 5.99952 92.159 5.94945C92.5218 5.79468 92.9368 5.83287 93.2616 6.05073C93.3037 6.07853 97.7579 8.9812 104.284 8.65687C108.236 8.46039 111.187 9.65915 113.253 11.0659C115.227 10.6825 123.273 9.51098 128.584 14.5722C128.979 14.9485 129.011 14.9792 129.808 20.4565C129.948 21.4137 130.101 22.465 130.26 23.5184ZM73.5097 37.7605C73.3991 38.0374 73.2873 38.3247 73.1744 38.6227C73.0414 38.974 72.9135 39.3226 72.791 39.6656L74.4908 39.7898C74.3442 40.2063 74.1956 40.6475 74.0455 41.1146C73.9867 41.2971 73.9293 41.479 73.8732 41.6597L72.1195 41.6466C71.8686 42.4263 71.6565 43.1308 71.4885 43.7114L73.3038 43.606C73.0997 44.3458 72.923 45.0343 72.7753 45.637L71.3213 45.8174C71.4771 46.3345 71.6994 47.0234 71.9925 47.8198L72.4829 47.726C72.6553 48.2149 72.9013 48.8736 73.2223 49.6386L72.7691 49.7564C73.0316 50.3587 73.3257 50.9863 73.6526 51.6212L74.0586 51.4867C74.3382 52.0605 74.6494 52.6591 74.9925 53.2652L74.7143 53.378C74.429 52.9612 74.1523 52.5225 73.8846 52.0622C75.1458 54.411 76.8577 56.8026 79.0815 58.3344C79.0573 58.2961 79.0332 58.2579 79.0093 58.2196C78.9942 58.0563 78.9844 57.8891 78.9802 57.718L80.4224 56.7695C80.0707 56.2859 79.7501 55.7878 79.4591 55.2778L77.8994 56.1631C77.6324 55.5859 77.3955 54.9987 77.1876 54.4045L78.6633 53.6902C78.4253 53.1451 78.2173 52.5906 78.038 52.0299L76.6468 52.5942C76.4942 51.9833 76.37 51.3685 76.2728 50.7533L77.5821 50.3196C77.4576 49.742 77.3611 49.1613 77.2913 48.5806L76.0609 48.9005C76.0165 48.2805 75.9985 47.6634 76.0058 47.0524L77.1599 46.8317C77.142 46.2467 77.15 45.6651 77.1825 45.0902L76.1036 45.224C76.1619 44.6144 76.2453 44.0148 76.3525 43.429L77.3542 43.3709C77.4366 42.798 77.5433 42.236 77.6726 41.6882L76.754 41.6813C76.7955 41.5326 76.8385 41.3851 76.8832 41.239C76.5641 40.8327 76.271 40.3842 76.0061 39.9005L78.1386 40.0563C78.2532 39.7172 78.3769 39.3859 78.5093 39.0635C78.3247 38.8532 78.1507 38.6261 77.9876 38.3843L73.5097 37.7605ZM75.156 34.1728C74.8793 34.6862 74.5899 35.2681 74.2895 35.9281L77.0362 36.4959C76.8095 35.8846 76.6302 35.229 76.5004 34.544L75.156 34.1728ZM76.267 32.5539C76.264 32.4919 76.2613 32.4299 76.259 32.3678C76.2251 32.4158 76.1909 32.465 76.1563 32.5153L76.267 32.5539ZM78.5861 31.5195C78.5712 32.1493 78.5979 32.779 78.6687 33.3894L79.2977 33.6083C79.3345 34.2148 79.414 34.8133 79.5386 35.3828L79.0472 35.2471C79.2167 35.801 79.434 36.3141 79.7021 36.7663C79.9675 36.3615 80.2475 35.9918 80.5397 35.6592L80.1543 35.5527C80.6406 35.0988 81.1541 34.7269 81.6862 34.4393L81.8264 34.488C82.4048 34.081 83.0128 33.8007 83.6373 33.6568L82.8296 33.315C83.0118 32.8707 83.2143 32.4356 83.4357 32.0108L84.3444 32.4675C84.5365 32.0515 84.7487 31.6456 84.9796 31.251L84.1567 30.7675C84.415 30.3647 84.6911 29.9735 84.984 29.5951L85.7285 30.1008C85.9957 29.73 86.2804 29.3717 86.5812 29.0272L85.9082 28.5026C86.2305 28.1535 86.5681 27.8183 86.9197 27.4979L87.5273 28.0391C87.8562 27.7256 88.1996 27.427 88.5564 27.1443L88.0087 26.5882C88.3819 26.3028 88.7676 26.0329 89.1649 25.7797L89.6573 26.3498C90.0334 26.1036 90.4211 25.8739 90.8192 25.6619L90.3779 25.0776C90.788 24.8633 91.208 24.6658 91.6371 24.4865L92.0307 25.0855C92.4388 24.9136 92.8557 24.7597 93.2801 24.6248L92.9313 24.0098C93.234 23.9128 93.5404 23.8247 93.8501 23.7456C93.9832 23.7117 94.1162 23.6796 94.2492 23.6494L94.5556 24.2828C94.5977 24.2736 94.64 24.2645 94.6823 24.2556C95.0715 24.1738 95.4594 24.1095 95.8454 24.0623L95.5804 23.4086C96.0268 23.3485 96.4716 23.3095 96.9141 23.291L97.1384 23.9686C97.5701 23.9589 97.9984 23.9711 98.4223 24.0047L98.2386 23.2977C98.3528 23.3037 98.4668 23.311 98.5806 23.3197C98.8239 23.0346 99.0867 22.768 99.368 22.5206L99.6528 24.0108C99.9696 23.6221 100.327 23.2751 100.722 22.9711L100.559 21.653C100.966 21.4092 101.399 21.1964 101.857 21.0161L101.927 22.2306C102.333 22.0351 102.764 21.8739 103.218 21.7478L103.226 20.5908C103.68 20.4847 104.151 20.4063 104.639 20.3563L104.557 21.486C104.994 21.4336 105.448 21.4094 105.916 21.4139L106.242 19.0778C106.104 18.8633 105.92 18.6544 105.677 18.46C105.395 18.2337 105.11 18.055 104.817 17.9192L104.676 19.8434C104.604 19.7507 104.513 19.6615 104.401 19.5788C104.021 19.3006 103.64 19.1381 103.238 19.0659L103.249 17.575C102.762 17.5675 102.241 17.6341 101.668 17.7599L101.748 19.1332C101.657 19.1524 101.564 19.1737 101.47 19.1971C101.102 19.2887 100.713 19.4088 100.298 19.553L100.129 18.1862C99.6646 18.3345 99.169 18.5055 98.6368 18.6941L98.9017 20.08C98.5843 20.2064 98.2528 20.3412 97.9059 20.483C97.787 20.5317 97.6668 20.5808 97.5454 20.6302L97.1774 19.2143C96.7126 19.3781 96.2295 19.5443 95.7278 19.7073L96.2102 21.1645C95.7792 21.3325 95.334 21.5008 94.8738 21.6656L94.2611 20.1541C93.7724 20.2923 93.2677 20.4234 92.7466 20.5431L93.5122 22.1259C93.0543 22.2709 92.5828 22.4098 92.0973 22.5396L91.1458 20.8622C90.5837 20.9567 90.0042 21.0353 89.4071 21.0935L90.5942 22.8997C90.0634 23.0119 89.5174 23.1111 88.9553 23.1941L87.4677 21.2245C86.7648 21.2856 86.1186 21.4025 85.5245 21.5641L87.1115 23.4019C86.4238 23.4701 85.7974 23.5946 85.2269 23.7637L83.7366 22.2504C83.1498 22.5501 82.6324 22.8977 82.1764 23.2737L83.5261 24.4756C82.9745 24.7843 82.497 25.14 82.0836 25.5213L80.8869 24.5884C80.4761 25.1041 80.1468 25.6307 79.884 26.1309L80.9384 26.8471C80.5791 27.3695 80.3058 27.8958 80.0988 28.3833L79.1719 27.8387C78.9917 28.4097 78.8508 29.0229 78.752 29.6566L79.5648 30.0652C79.4406 30.6251 79.355 31.2192 79.3101 31.8258L78.5861 31.5195ZM74.4695 29.2939C74.5403 29.7284 74.6466 30.126 74.8039 30.4733C74.9158 30.3316 75.0289 30.1946 75.1431 30.0627L74.6437 29.8514C74.576 29.6697 74.5183 29.4837 74.4695 29.2939ZM74.3597 25.0114C74.3582 25.3385 74.3531 25.6657 74.348 25.9909C74.3401 26.4831 74.3326 26.9688 74.3377 27.4379L74.6495 27.5946L74.6496 27.5979C74.6674 28.1094 74.6793 28.6141 74.705 29.0968C74.8008 28.657 74.9148 28.2221 75.0475 27.7947L76.585 28.5675C76.7243 27.9128 76.9074 27.2675 77.136 26.6425L75.8019 25.8587C76.0793 25.273 76.4167 24.6624 76.8259 24.0537L77.961 24.8247C78.2598 24.2811 78.6213 23.717 79.0574 23.1623L78.118 22.43C78.3847 22.1463 78.671 21.8687 78.9782 21.6003C78.5132 21.7085 78.0531 21.8575 77.6077 22.0322L75.874 20.6808C75.126 21.085 74.5093 21.4825 74.102 21.7692C74.2904 22.6243 74.3474 23.5395 74.3582 24.4652C74.3658 24.3544 74.3732 24.2436 74.3802 24.1328C74.4313 24.4496 74.4716 24.7714 74.5044 25.0964L74.3597 25.0114ZM80.5873 19.0528C79.7525 19.1477 78.9134 19.3729 78.1203 19.6615L80.4223 21.7115C80.9014 21.2871 81.4388 20.8872 82.0412 20.5289L80.5873 19.0528ZM84.5718 17.3902C84.4363 18.0729 84.3778 18.7701 84.3965 19.4812C84.8612 19.3346 85.3526 19.2104 85.8727 19.1128L85.5013 18.6209C85.9471 18.5464 86.4113 18.4881 86.8948 18.4482C87.1402 18.4279 87.3823 18.4037 87.6209 18.3757L87.9517 18.8792C87.9614 18.8787 87.9711 18.8783 87.9807 18.8779C88.6523 18.8504 89.3001 18.7932 89.9262 18.7121L89.5562 18.06C90.1699 17.9318 90.7606 17.7819 91.3312 17.6172L91.7147 18.41C92.2913 18.2902 92.849 18.1532 93.3899 18.005L93.0131 17.0752C93.5776 16.8756 94.1227 16.667 94.6518 16.4572L95.0035 17.5194C95.55 17.3417 96.0798 17.1579 96.5955 16.9751L96.2886 15.7938C96.8549 15.5638 97.4109 15.3435 97.958 15.1418L98.199 16.403C98.7571 16.2061 99.3038 16.02 99.8401 15.8573L99.6807 14.571C100.282 14.3988 100.875 14.2631 101.46 14.1769L101.533 15.43C102.122 15.3182 102.699 15.2546 103.266 15.2583L103.275 14.0842C103.879 14.118 104.478 14.2223 105.073 14.4127L104.993 15.505C105.547 15.6687 106.092 15.9204 106.631 16.2795L106.78 15.212C106.962 15.3262 107.145 15.45 107.328 15.584C107.707 15.8621 108.035 16.159 108.318 16.469L108.077 17.6328C108.792 18.633 108.973 19.7466 108.905 20.7195L109.522 18.4809C109.546 18.5488 109.569 18.6167 109.59 18.6846C110.132 18.388 110.745 18.1006 111.419 17.8582L110.754 19.7711C111.333 19.502 111.991 19.2536 112.711 19.0728L113.449 17.3268C113.691 17.2869 113.938 17.2546 114.19 17.2309C114.054 17.0226 113.909 16.8141 113.754 16.6068L114.359 15.1744C114.061 14.8202 113.735 14.4735 113.38 14.1402C113.221 13.9908 113.051 13.8392 112.869 13.6872L112.387 15.0737C112.265 14.9586 112.139 14.8451 112.009 14.7336C111.662 14.4346 111.261 14.1274 110.805 13.833L111.171 12.5047C110.615 12.1869 109.997 11.8946 109.313 11.6512L109.051 12.9173C108.482 12.6836 107.858 12.4849 107.179 12.341L107.347 11.1366C106.716 11.027 106.042 10.9607 105.326 10.949L105.242 12.101C104.704 12.0795 104.14 12.0925 103.548 12.1466C103.461 12.1545 103.375 12.1619 103.289 12.1689L103.298 10.9938C102.596 10.9961 101.92 10.9664 101.27 10.9112L101.348 12.2507C100.67 12.2528 100.015 12.2273 99.384 12.1794L99.193 10.6391C98.4075 10.4995 97.6753 10.3272 97.0018 10.1379L97.3462 11.9401C96.5696 11.8163 95.8427 11.6627 95.1709 11.493L94.6049 9.31529C93.6861 8.93914 92.9852 8.57671 92.5344 8.3226C92.3943 8.39361 92.2295 8.47975 92.0445 8.58093L92.7627 10.7501C92.1435 10.5227 91.6148 10.2983 91.1859 10.1009C90.9496 10.2469 90.6828 10.4192 90.3952 10.6172L90.0707 9.81639C89.4877 10.2301 88.8692 10.7168 88.2637 11.276L88.6168 12.006C88.3181 12.2708 88.0175 12.5559 87.7222 12.8609C87.48 13.1111 87.2515 13.3637 87.037 13.6188L86.6756 12.9818C86.1625 13.6326 85.7355 14.3021 85.3951 14.9891L85.7314 15.5006C85.3273 16.2328 85.0302 16.9824 84.8426 17.7489L84.5718 17.3902ZM127.123 18.1726C126.979 17.2278 126.851 16.4384 126.768 16.0606C123.327 12.9576 118.433 12.8291 115.602 13.0766C115.67 13.1483 115.736 13.2208 115.802 13.2939C116.295 13.2988 116.827 13.3208 117.388 13.3684L116.805 14.5287C117.253 15.1435 117.653 15.7891 117.998 16.4513L118.745 15.1783C119.146 15.8556 119.494 16.5523 119.782 17.2556L118.887 18.5741C119.019 18.9873 119.128 19.4011 119.211 19.8124C119.455 19.9384 119.697 20.0757 119.936 20.2245L120.969 18.8994C121.495 19.2251 122.013 19.5978 122.523 20.0179L121.388 21.2938C121.828 21.6711 122.258 22.0907 122.678 22.5523L123.929 21.3203C124.046 21.4415 124.162 21.5655 124.279 21.6921C124.594 22.0357 124.927 22.3671 125.275 22.6888L123.874 23.899C124.29 24.3341 124.731 24.7539 125.185 25.1624L126.77 23.9652C126.936 24.0975 127.103 24.2286 127.271 24.3586C127.226 24.1394 127.18 23.9164 127.134 23.6899L127.786 23.1972C127.851 23.9199 127.92 24.6978 127.994 25.4861L126.619 26.3903C126.969 26.6793 127.32 26.9645 127.669 27.2475C127.831 27.3786 127.992 27.5094 128.152 27.6399L128.531 27.4252C128.219 25.6222 127.882 23.3545 127.512 20.8093C127.509 20.7935 127.507 20.7777 127.505 20.7618L126.689 21.4671C126.612 21.081 126.534 20.6875 126.455 20.2874V20.2872C126.376 19.8855 126.295 19.4737 126.215 19.0672L127.123 18.1726ZM134.138 35.9373C134.461 37.9854 134.415 39.7191 134.125 41.2571C134.655 40.1602 134.962 37.9775 135.186 36.3851C135.53 33.9422 135.885 31.4218 136.896 29.7577C136.289 28.7939 133.299 26.448 130.633 25.9088C130.689 26.2562 130.746 26.5954 130.802 26.9224C131.294 27.1718 131.776 27.4552 132.236 27.7594L131.057 28.3301C131.23 29.2195 131.393 29.9273 131.537 30.3306L133.622 29.4852L133.635 29.5304C134.159 30.0866 134.632 30.6689 135.04 31.2875L132.648 32.08C133.047 32.6609 133.383 33.2733 133.636 33.9294L135.528 33.4374C135.151 34.0304 134.857 34.8913 134.61 35.8469L134.138 35.9373ZM132.037 38.2833C132.018 37.6846 131.959 37.0505 131.854 36.3738L131.779 36.3883C131.727 36.1205 131.668 35.8457 131.6 35.5635C131.515 35.2131 131.386 34.879 131.22 34.5575L131.357 34.5219C131.097 33.9412 130.74 33.3883 130.313 32.8535L130.038 32.9444C129.935 32.8343 129.828 32.725 129.719 32.6163C129.353 32.2528 128.955 31.8984 128.534 31.5487L128.939 31.3845C128.473 30.9438 127.972 30.5095 127.452 30.0753L126.958 30.3141C126.652 30.0837 126.341 29.8529 126.027 29.6203C125.831 29.4747 125.634 29.3284 125.437 29.1812L125.981 28.8725C125.517 28.4963 125.051 28.1158 124.588 27.7256L124.018 28.1004C123.577 27.7544 123.139 27.3997 122.711 27.0326L123.297 26.5897C122.89 26.2143 122.493 25.8265 122.111 25.4224L121.509 25.9424C121.208 25.6509 120.914 25.3506 120.629 25.04C120.553 24.9572 120.477 24.8759 120.401 24.7965L121.019 24.1873C120.634 23.7579 120.241 23.3726 119.841 23.0318L119.228 23.7203C118.79 23.3718 118.346 23.0787 117.896 22.8432L118.498 22.071C117.999 21.7799 117.491 21.5531 116.974 21.3915L116.375 22.2739C116.014 22.1921 115.649 22.1468 115.281 22.1392C115.064 22.1348 114.852 22.1431 114.644 22.1621L115.27 21.0958C114.616 21.0703 113.994 21.1427 113.417 21.2739L112.505 23.0907C112.914 23.2852 113.323 23.4958 113.728 23.7219L114.415 22.5526C114.847 22.7742 115.277 23.0115 115.703 23.2639L114.911 24.4308C115.296 24.6779 115.676 24.9389 116.05 25.2136L116.952 24.0553C117.359 24.3311 117.761 24.6211 118.156 24.9249L117.139 26.0673C117.492 26.3624 117.838 26.6702 118.175 26.9901L119.31 25.8713C119.686 26.199 120.052 26.5399 120.409 26.8936L119.151 27.9803C119.465 28.3207 119.768 28.6728 120.06 29.0359L121.443 27.9909C121.776 28.3689 122.097 28.7592 122.405 29.1615L120.895 30.1546C121.159 30.537 121.41 30.9299 121.646 31.3331L123.284 30.4031C123.562 30.8279 123.825 31.2642 124.071 31.7117L122.304 32.5669C122.507 32.9849 122.693 33.4126 122.862 33.8495L124.754 33.0818C124.963 33.5459 125.154 34.0206 125.325 34.5056L123.31 35.1731C123.345 35.2959 123.38 35.4192 123.413 35.5432C123.499 35.8682 123.578 36.1962 123.647 36.5267L125.778 35.9728C125.911 36.4658 126.026 36.9651 126.125 37.4693L123.887 37.8972C123.951 38.3536 124 38.8136 124.034 39.2765L126.37 38.9865C126.435 39.4933 126.483 40.0038 126.514 40.5169L124.089 40.6577C124.093 41.1155 124.083 41.575 124.058 42.0352L126.56 42.0539C126.56 42.5652 126.543 43.0781 126.51 43.5914L123.943 43.4038C123.891 43.8559 123.825 44.308 123.746 44.759L126.365 45.1239C126.302 45.6323 126.222 46.14 126.128 46.6462L123.472 46.0969C123.367 46.5382 123.25 46.9775 123.12 47.4141L125.798 48.1534C125.673 48.6521 125.533 49.1481 125.378 49.6405L122.695 48.7069C122.541 49.1324 122.374 49.5543 122.196 49.972L124.867 51.1024C124.717 51.4943 124.556 51.883 124.386 52.2681C124.347 52.3571 124.307 52.4456 124.267 52.5338L121.625 51.2059C121.608 51.2401 121.591 51.2741 121.574 51.3082C121.386 51.6817 121.189 52.0474 120.984 52.4051L123.578 53.9292C123.331 54.3924 123.072 54.8436 122.8 55.282L120.273 53.5654C120.022 53.9485 119.762 54.3208 119.492 54.6817L121.933 56.5843C121.626 57.0136 121.307 57.4282 120.976 57.8274L118.641 55.7477C118.343 56.0973 118.036 56.4339 117.721 56.757L119.931 59.0015C119.729 59.2118 119.524 59.4169 119.316 59.6165C119.278 59.9268 119.232 60.232 119.176 60.5319L116.732 57.7016C116.57 57.8459 116.406 57.9869 116.24 58.1243C116.194 58.4534 116.136 58.7759 116.068 59.0915L117.545 61.0471C118.152 60.9964 118.757 60.8919 119.346 60.7293L119.325 60.7045C119.389 60.6972 119.453 60.6892 119.517 60.6805C121.875 59.981 123.953 58.3361 124.798 55.4751C125.818 52.023 127.402 49.5344 128.8 47.3389C130.425 44.786 131.8 42.6269 132.014 39.5359C132.037 39.1357 132.038 38.7201 132.015 38.286L132.037 38.2833ZM124.187 60.687C123.8 61.0347 123.381 61.3525 122.933 61.6388C122.85 61.6917 122.766 61.7435 122.682 61.7942L124.884 64.0306C124.736 64.114 124.585 64.1947 124.432 64.2728C123.96 64.5129 123.465 64.7244 122.954 64.9063L120.975 62.6152C120.384 62.838 119.763 63.0138 119.127 63.1412L120.881 65.464C120.174 65.5973 119.452 65.6786 118.727 65.7056L117.196 63.3764C116.54 63.4064 115.88 63.3867 115.228 63.3157L116.751 66.0006C116.348 66.507 115.903 66.977 115.417 67.408L113.736 63.9338C113.36 64.3724 112.947 64.7764 112.498 65.1432L113.88 68.5541C113.665 68.6882 113.445 68.8164 113.218 68.9381C113.007 69.0516 112.791 69.1593 112.572 69.2612C112.43 69.2697 112.287 69.2787 112.141 69.2885L111.087 66.1051C110.891 66.2159 110.689 66.3212 110.483 66.4204C110.18 66.566 109.868 66.6985 109.548 66.8177L110.233 69.4528C109.656 69.5146 109.042 69.5918 108.382 69.6906L107.924 67.2934C107.383 67.4122 106.825 67.4983 106.251 67.5513L106.547 69.9348C105.909 69.9982 105.294 70.0345 104.701 70.0438L104.56 67.6124C104.009 67.6026 103.447 67.5648 102.876 67.4987L102.857 69.9682C104.93 70.5564 107.6 70.5094 110.73 69.8154C113.467 69.2086 115.501 68.9792 117.295 68.7769C119.361 68.5439 120.993 68.3597 122.785 67.6494C125.432 66.6013 127.532 63.9551 128.7 60.1986C128.989 59.2665 129.483 58.3149 130.006 57.3076C131.458 54.5093 132.954 51.6243 131.045 48.1101C130.949 48.261 130.853 48.412 130.757 48.5634C130.534 48.9121 130.311 49.2628 130.089 49.6188C130.236 50.2188 130.309 50.7996 130.324 51.3613L129.262 50.9917C128.965 51.506 128.677 52.0383 128.401 52.5977L130.139 53.3331C130.002 53.9832 129.799 54.6033 129.558 55.1934L127.668 54.2435C127.451 54.7914 127.247 55.3671 127.063 55.9768L128.712 56.9455C128.455 57.4154 128.191 57.8618 127.942 58.285C127.872 58.4024 127.803 58.5189 127.736 58.6344L126.401 57.7279C126.127 58.295 125.806 58.8257 125.439 59.3172L126.815 60.3898C126.795 60.4396 126.776 60.4889 126.757 60.5377C126.528 61.1548 126.275 61.7428 125.998 62.2995L124.187 60.687ZM99.4519 67.8439C99.7654 68.2251 100.16 68.6051 100.657 68.9522C100.79 69.0451 100.928 69.1336 101.07 69.2175L101.215 67.2309C100.678 67.1203 100.137 66.986 99.5933 66.8289L99.4519 67.8439ZM97.121 63.4299C97.5792 63.6412 98.0372 63.835 98.4936 64.0112L98.5341 63.8151C99.0014 64.0255 99.4679 64.2185 99.9324 64.3936L99.9168 64.5052C100.41 64.6571 100.901 64.7878 101.386 64.8968L101.387 64.8855C101.438 64.9009 101.489 64.9159 101.539 64.9307C104.515 65.5728 107.293 65.3976 109.489 64.3407C109.788 64.1968 110.074 64.0377 110.345 63.8637L109.552 61.4666C109.097 61.5662 108.652 61.6416 108.217 61.6953L108.935 64.4595C108.407 64.5023 107.892 64.5165 107.391 64.5064L106.873 61.7963C106.414 61.8086 105.967 61.7975 105.534 61.7668L105.86 64.3987C105.339 64.3358 104.839 64.2485 104.359 64.1424L104.212 61.6082C103.764 61.5324 103.333 61.4368 102.922 61.3264L102.904 63.7481C102.407 63.5885 101.941 63.4125 101.508 63.2288L101.676 60.93C101.252 60.7737 100.854 60.6047 100.484 60.4302L100.182 62.5979C99.8638 62.4289 99.5732 62.2616 99.3123 62.1022C99.1859 62.0249 99.0607 61.9461 98.9369 61.8657L99.3559 59.8381C99.0592 59.6658 98.7903 59.4961 98.5509 59.3355C98.4661 59.2785 98.3819 59.2208 98.2984 59.1623L97.78 61.0415C97.4086 60.752 97.0537 60.4499 96.7178 60.1384L97.3182 58.4119C97.0036 58.1496 96.7035 57.8772 96.4199 57.5973L95.7566 59.1656C95.4491 58.825 95.1644 58.4777 94.9047 58.1272L95.6091 56.725C95.3499 56.42 95.1107 56.1099 94.8938 55.7975L94.1753 57.0211C94.0251 56.7614 93.8898 56.5021 93.7705 56.2445C93.6187 56.2476 93.4662 56.2484 93.3129 56.2469L94.2872 54.8117C94.0971 54.4568 93.9383 54.1033 93.8142 53.7555L91.9325 56.1708C91.4593 56.1203 90.9999 56.0422 90.5545 55.9368L92.9554 53.2393C92.515 53.2354 92.0685 53.2099 91.6167 53.162L89.2209 55.5228C88.7868 55.354 88.3683 55.1554 87.9656 54.9272L90.2775 52.9295C89.8345 52.8197 89.4092 52.679 89.0019 52.5077L86.8142 54.1611C86.4548 53.8834 86.1105 53.578 85.7817 53.2452L87.8294 51.8987C87.4632 51.6687 87.1148 51.409 86.7848 51.1199L84.8729 52.205C84.8102 52.1241 84.7482 52.042 84.6869 51.9587C84.4745 51.67 84.2747 51.3716 84.0872 51.065L85.8785 50.1979C85.6338 49.9103 85.402 49.6025 85.1831 49.2745C85.1582 49.2372 85.1335 49.1996 85.109 49.1619L83.4238 49.8454C83.2228 49.4289 83.0403 49.0015 82.8755 48.5662L84.4688 48.0385C84.2766 47.6526 84.1042 47.2551 83.9505 46.849L82.4336 47.2434C82.3029 46.7963 82.1885 46.3439 82.0891 45.8893L83.5444 45.611C83.4266 45.1917 83.3259 44.7666 83.2407 44.3384L81.8341 44.5129C81.7626 44.0474 81.7057 43.5824 81.662 43.1208L83.0301 43.0413C82.9741 42.6026 82.9328 42.1636 82.9047 41.7273L80.0612 41.706C79.9302 42.1995 79.8202 42.7098 79.7329 43.2328L81.4903 43.1307C81.3634 43.6017 81.2577 44.0911 81.1747 44.5947L79.5436 44.7972C79.5037 45.3199 79.4863 45.8506 79.4929 46.3857L80.9985 46.0978C80.9629 46.5999 80.9492 47.1108 80.9588 47.6269L79.5843 47.9843C79.6389 48.5158 79.7181 49.048 79.8234 49.5772L81.057 49.1686C81.1129 49.6817 81.1926 50.196 81.2974 50.708L80.2166 51.1463C80.3738 51.6617 80.5579 52.1709 80.7704 52.6703L81.6858 52.2273C81.8403 52.7272 82.0208 53.2214 82.2283 53.7061L81.4885 54.126C81.7535 54.5938 82.0472 55.049 82.3708 55.4882L82.929 55.1212C83.1877 55.577 83.4738 56.0202 83.7886 56.4477L83.4132 56.7314C83.8239 57.1573 84.2311 57.5065 84.6412 57.7997L84.8027 57.6603C85.0484 57.9186 85.2911 58.1478 85.5323 58.3522C86.5109 58.8747 87.5321 59.1703 88.6804 59.5027C90.0665 59.9041 91.6147 60.3523 93.3087 61.3045L93.3261 61.2699C93.7529 61.4256 94.1906 61.6026 94.6393 61.8078L94.5363 62.0512C94.9566 62.3066 95.3787 62.5473 95.8016 62.7734L95.9122 62.455C95.9808 62.4935 96.0495 62.5326 96.1184 62.5726C96.4763 62.7799 96.8351 62.9772 97.1942 63.1644L97.121 63.4299ZM86.6369 68.5112C86.8976 68.936 87.1221 69.3936 87.2946 69.8956C88.9647 69.9784 93.268 69.8931 96.9021 68.225C96.6032 67.7081 96.3785 67.1889 96.2201 66.6952L96.0661 67.2535C95.7287 67.3898 95.3861 67.5133 95.0403 67.625C94.7791 67.491 94.5186 67.3527 94.2589 67.21L95.0308 64.9901C94.5587 64.7464 94.089 64.487 93.6227 64.212L92.7092 66.3722C92.1515 66.1089 91.6111 65.9046 91.0835 65.7345L92.2646 63.383C91.7833 63.1063 91.3134 62.8768 90.8526 62.6798L89.3413 65.2536L89.2433 65.2295C88.4272 65.498 87.6188 65.6921 86.8195 65.8122L89.3277 62.1173C88.8838 61.9747 88.4463 61.8481 88.0131 61.7226L87.9211 61.6959C87.7943 61.7349 87.6678 61.772 87.5415 61.8072L84.372 65.8756C84.8537 66.3457 85.337 66.8245 85.7796 67.3441L86.07 66.9162C86.1999 67.0318 86.3315 67.1483 86.4644 67.2668C86.8342 67.5969 87.2047 67.9313 87.5646 68.2793L87.4006 68.5586C87.13 68.5467 86.8745 68.5305 86.6369 68.5112ZM81.826 62.8102C82.118 63.4115 82.5144 63.9427 82.9725 64.4556L84.923 62.2642C84.0932 62.3196 83.2792 62.2858 82.4828 62.1629L81.826 62.8102ZM80.3218 59.0675C80.9811 59.3952 81.654 59.634 82.3436 59.7852L82.8451 59.3518C82.4114 59.0079 81.9781 58.6093 81.5457 58.1427L80.3218 59.0675ZM81.1651 38.8269C81.1231 38.9063 81.0817 38.9871 81.0409 39.0693C80.8573 39.4379 80.6879 39.8263 80.5339 40.2314L82.8585 40.4013C82.8558 39.9491 82.8662 39.5032 82.888 39.067L81.1651 38.8269ZM83.1456 36.3786C82.7505 36.657 82.3619 37.0415 81.9933 37.5209L82.9925 37.7275C83.042 37.2619 83.1038 36.8133 83.1753 36.3867L83.1456 36.3786ZM85.9661 34.6422C85.9252 34.7655 85.8865 34.8897 85.8501 35.0145C85.7726 35.2801 85.7022 35.5469 85.6385 35.8144L87.0264 36.2973C86.9825 36.4496 86.9424 36.6029 86.9058 36.7572C86.8568 36.9641 86.8121 37.1717 86.7714 37.3795L85.3995 37.0007C85.3335 37.3987 85.2815 37.7966 85.2426 38.1927L86.5958 38.4725C86.5492 38.8388 86.5147 39.2047 86.4915 39.5689L85.1636 39.384C85.1498 39.7832 85.1486 40.1789 85.1593 40.5694L86.455 40.6641C86.4539 41.0311 86.4637 41.3948 86.4838 41.7541L85.2271 41.7446C85.2621 42.1399 85.3089 42.5275 85.3664 42.9057L86.5757 42.8355C86.6173 43.1992 86.6692 43.5563 86.7303 43.9053L85.5783 44.0483C85.6636 44.4355 85.7601 44.8092 85.8667 45.167L86.9485 44.9601C87.0342 45.3173 87.1296 45.663 87.2336 45.9953L86.2398 46.2537C86.3868 46.6274 86.5454 46.9758 86.7134 47.2951L87.5915 47.0042C87.7298 47.3495 87.8777 47.6744 88.0335 47.9758L87.318 48.2659C87.5518 48.5843 87.8036 48.8743 88.073 49.1356L88.5801 48.8902C88.6116 48.9354 88.6433 48.9796 88.6751 49.0229C88.8596 49.2735 89.0557 49.5037 89.2632 49.7131L88.9877 49.8694C89.326 50.0909 89.6855 50.2773 90.0655 50.4282L90.1005 50.4051C90.1459 50.4355 90.1919 50.465 90.2382 50.4938C90.735 50.6742 91.2657 50.7958 91.8295 50.8581C94.2602 51.1269 96.1858 50.6259 97.6871 49.8035L99.3298 47.3836C99.1419 47.3974 98.9524 47.4043 98.762 47.4043L96.9638 49.7125C96.7289 49.6576 96.4952 49.5942 96.2635 49.5224L98.1683 47.3823C97.9629 47.3671 97.7571 47.3442 97.5515 47.3135L95.56 49.276C95.3234 49.183 95.0897 49.0811 94.8598 48.9699L96.9156 47.1935C96.6975 47.1438 96.4806 47.0854 96.2656 47.0183L94.17 48.602C93.941 48.4678 93.7171 48.3238 93.4992 48.1701L95.6079 46.7834C95.3853 46.6935 95.1658 46.594 94.9506 46.485L92.8545 47.6747C92.6415 47.4967 92.4378 47.3106 92.2433 47.1172L94.3036 46.1199C94.0889 45.9856 93.8799 45.8411 93.678 45.6864L91.6751 46.4988C91.4925 46.2812 91.3201 46.0558 91.1581 45.8228L93.0843 45.1847C92.8898 45.0036 92.7059 44.8143 92.533 44.6173L90.6997 45.094C90.5572 44.8427 90.4255 44.584 90.305 44.3183L92.0356 43.9874C91.879 43.7664 91.7342 43.5374 91.6015 43.3009L89.9777 43.5024C89.8805 43.2257 89.7944 42.9424 89.7195 42.653L91.2372 42.5649C91.1281 42.3127 91.0313 42.0534 90.9468 41.7875L89.5306 41.7769C89.4795 41.4834 89.4393 41.1843 89.4101 40.8801L90.7315 40.9767C90.6727 40.7036 90.6258 40.4246 90.5908 40.1401L89.356 39.9681C89.3487 39.6649 89.352 39.3572 89.3657 39.0452L90.5226 39.2844C90.5118 38.9995 90.5122 38.7096 90.5241 38.4154L89.4367 38.1153C89.4699 37.8074 89.513 37.4958 89.5661 37.1808L90.5917 37.5377C90.6246 37.247 90.6682 36.9525 90.7224 36.6547L89.7515 36.2439L89.7708 36.1596C89.8366 35.8757 89.9162 35.5939 90.0092 35.3149L90.9126 35.769C90.9578 35.5862 91.0068 35.4024 91.0598 35.2176C91.0918 35.106 91.1264 34.9948 91.1634 34.8842L90.3602 34.4124C90.4914 34.1185 90.6375 33.8288 90.7978 33.5442L91.507 34.0259C91.6368 33.7479 91.7827 33.4747 91.9439 33.2074L91.3144 32.7168C91.4976 32.4504 91.6937 32.1896 91.9023 31.9352L92.4641 32.4355C92.6487 32.1887 92.8469 31.9482 93.0579 31.7151L92.5543 31.2037C92.7795 30.9705 93.016 30.7441 93.2632 30.5254L93.7161 31.0499C93.9431 30.8397 94.1813 30.637 94.4301 30.4427L94.0224 29.9029C94.2808 29.7068 94.5487 29.5184 94.8257 29.3384L95.1919 29.8955C95.4504 29.7249 95.7182 29.5628 95.9944 29.4098L95.6674 28.8332C95.9539 28.6744 96.2453 28.5257 96.541 28.3871L96.8308 28.9862C97.1148 28.8551 97.4029 28.7344 97.6945 28.6242L96.7519 26.2989C96.335 26.3246 95.9467 26.3723 95.5949 26.4311L96.4934 28.2888C96.1171 28.3292 95.7683 28.3885 95.4534 28.456L94.4486 26.6847C94.0681 26.7895 93.6932 26.9135 93.3253 27.0553L94.4273 28.7322C94.0871 28.8424 93.7527 28.9695 93.4254 29.1124L92.2356 27.5373C91.878 27.7164 91.5291 27.9127 91.1902 28.1248L92.4571 29.5919C92.1398 29.7684 91.831 29.9599 91.5318 30.1654L90.1987 28.812C89.8775 29.0576 89.5679 29.3182 89.2715 29.5922L90.6584 30.8274C90.3761 31.0631 90.1048 31.3116 89.846 31.5722L88.4185 30.4593C88.1468 30.7628 87.8902 31.0789 87.6502 31.4061L89.1036 32.3934C88.8681 32.6799 88.6466 32.9773 88.4405 33.2844L86.9777 32.425C86.7704 32.7762 86.5815 33.1374 86.4125 33.507L87.8667 34.238C87.691 34.5658 87.5324 34.9021 87.3919 35.2455L85.9661 34.6422ZM99.0464 26.406C98.6549 26.3436 98.2738 26.3066 97.9068 26.2897L98.5805 28.3248C98.8789 28.2356 99.1801 28.1569 99.4837 28.0888L99.0464 26.406ZM101.224 27.016C100.865 26.8686 100.508 26.7475 100.157 26.649L100.399 27.9165C100.705 27.8698 101.013 27.8336 101.322 27.808L101.224 27.016ZM103.2 24.1751C102.804 24.3377 102.425 24.5521 102.078 24.8312L102.081 24.8738C102.457 25.0278 102.828 25.201 103.19 25.3931L103.2 24.1751ZM105.595 23.7239C105.2 23.7309 104.792 23.7646 104.385 23.8371L104.226 26.0062C104.552 26.2202 104.87 26.4504 105.181 26.6968L105.324 25.6674C105.647 25.8821 105.964 26.111 106.275 26.354L106.049 27.4469C106.317 27.6978 106.577 27.9618 106.83 28.2386L107.148 27.088C107.407 27.3225 107.662 27.5674 107.911 27.8229L107.95 27.8359L107.622 28.7797C107.911 28.8926 108.189 29.0094 108.458 29.1302L108.866 28.1664C109.176 28.2871 109.476 28.4128 109.766 28.5431L109.273 29.5238C109.548 29.6663 109.811 29.8133 110.063 29.9644L110.646 28.9706C110.944 29.1262 111.229 29.2872 111.502 29.4531L110.821 30.4558C111.074 30.6329 111.314 30.8148 111.541 31.0009L112.325 29.994C112.6 30.1892 112.861 30.3899 113.109 30.5958L112.214 31.6011C112.434 31.8147 112.64 32.0331 112.831 32.2559L113.843 31.259C114.083 31.4948 114.309 31.7361 114.52 31.9821L113.385 32.9623C113.561 33.2091 113.722 33.4602 113.869 33.715L115.131 32.761C115.151 32.789 115.171 32.8169 115.191 32.845C115.362 33.0895 115.522 33.3379 115.671 33.5898L114.278 34.506C114.402 34.7763 114.513 35.0497 114.611 35.3259L116.134 34.4612C116.277 34.7593 116.406 35.0611 116.521 35.366L114.871 36.1647C114.946 36.4457 115.009 36.7287 115.062 37.0128L116.833 36.2946C116.925 36.6072 117.005 36.9221 117.075 37.2384L115.192 37.862C115.225 38.1429 115.25 38.4244 115.267 38.7058L117.251 38.1899C117.3 38.5073 117.339 38.8253 117.37 39.1433L115.296 39.5399C115.298 39.8149 115.295 40.089 115.286 40.362L117.438 40.0949C117.453 40.4118 117.461 40.7279 117.462 41.0425L115.243 41.1713C115.224 41.4392 115.201 41.7052 115.174 41.9687L117.448 41.9857C117.438 42.3019 117.422 42.6155 117.402 42.9257L115.084 42.7563C115.049 43.0193 115.009 43.279 114.962 43.5353L117.323 43.864C117.288 44.18 117.245 44.4918 117.195 44.7994L114.805 44.305C114.746 44.5621 114.681 44.8154 114.61 45.0647L117.018 45.7296C116.95 46.0422 116.874 46.3498 116.789 46.6522L114.376 45.8128C114.291 46.0622 114.2 46.3071 114.103 46.5476L116.505 47.5641C116.4 47.869 116.286 48.1681 116.164 48.4609L113.788 47.2667C113.675 47.5054 113.556 47.739 113.431 47.9674L115.764 49.3383C115.62 49.6295 115.467 49.9138 115.305 50.1909L113.032 48.6467C112.891 48.8705 112.743 49.0887 112.59 49.301L114.786 51.0129C114.601 51.2828 114.408 51.5448 114.206 51.7984L112.105 49.9266C111.935 50.131 111.76 50.3287 111.578 50.52L113.569 52.5414C113.346 52.782 113.115 53.0136 112.875 53.2361L111.011 51.0772C110.815 51.2568 110.614 51.4293 110.406 51.5947L112.13 53.8771C111.938 54.0292 111.742 54.1762 111.542 54.3176C111.474 54.3656 111.405 54.413 111.336 54.4598L109.765 52.0693C109.659 52.1419 109.552 52.2128 109.444 52.2818C109.328 52.356 109.211 52.4282 109.091 52.4983L110.499 54.9805C110.216 55.1424 109.924 55.2944 109.626 55.4363L108.389 52.8795C108.152 52.9978 107.909 53.1086 107.661 53.2115L108.72 55.8248C108.413 55.943 108.102 56.049 107.789 56.1429L106.912 53.4929C106.658 53.5783 106.402 53.6545 106.145 53.7216L106.838 56.3896C106.518 56.46 106.196 56.5182 105.874 56.5644L105.364 53.8971C105.101 53.9467 104.837 53.9872 104.573 54.0186L104.901 56.6669C104.575 56.6891 104.25 56.6991 103.927 56.6969L103.775 54.0856C103.508 54.0988 103.241 54.1028 102.976 54.0974L102.957 56.6535C102.633 56.6266 102.313 56.5874 101.997 56.5361L102.178 54.0531C101.911 54.0287 101.647 53.9948 101.386 53.9515L101.053 56.3438C100.741 56.2669 100.434 56.1775 100.133 56.0757L100.605 53.7915C100.346 53.7279 100.091 53.6546 99.8408 53.5717L98.9626 56.7551C99.2432 56.981 99.5416 57.2013 99.857 57.413L100.048 56.491C100.318 56.7394 100.613 56.985 100.931 57.2232L100.823 57.9985C101.135 58.1691 101.479 58.3399 101.853 58.5016L101.899 57.8785C102.194 58.0587 102.544 58.2536 102.943 58.4444L102.94 58.9124C103.298 59.0287 103.677 59.133 104.073 59.2196L104.055 58.9071C104.419 59.0367 104.809 59.1549 105.222 59.2536L105.242 59.4132C105.625 59.4566 106.022 59.4821 106.432 59.4858L106.429 59.4707C106.474 59.4762 106.519 59.4814 106.564 59.4863C107.627 59.4838 108.775 59.3342 109.993 58.9722C113.828 57.8323 117.294 54.667 119.502 50.287C120.63 48.049 121.346 45.6433 121.631 43.2347L121.576 43.2308C121.601 42.8253 121.613 42.4204 121.613 42.0169L121.738 42.0178C121.761 41.6083 121.772 41.1996 121.771 40.7923L121.575 40.8037C121.549 40.3986 121.51 39.9957 121.459 39.596L121.727 39.5627C121.699 39.1504 121.657 38.7405 121.603 38.334L121.263 38.399C121.184 38.0013 121.091 37.6077 120.985 37.2189L121.395 37.1125C121.328 36.7904 121.253 36.4711 121.169 36.155C121.147 36.0714 121.124 35.9881 121.1 35.905L120.623 36.0631C120.485 35.6831 120.331 35.3102 120.161 34.945L120.703 34.7252C120.552 34.3375 120.385 33.9569 120.203 33.5839L119.604 33.8736C119.405 33.5257 119.191 33.1859 118.965 32.8545L119.611 32.488C119.4 32.1312 119.174 31.7824 118.936 31.4424L118.253 31.8916C118.006 31.581 117.747 31.2792 117.479 30.9868L118.188 30.4506C117.928 30.1293 117.656 29.8171 117.375 29.5147L116.65 30.1414C116.366 29.8698 116.073 29.6079 115.774 29.356L116.504 28.6365C116.205 28.3529 115.896 28.0796 115.582 27.8172L114.858 28.6308C114.545 28.3986 114.227 28.1769 113.905 27.9662L114.613 27.0581C114.28 26.8138 113.942 26.5813 113.601 26.3612L112.921 27.3633C112.585 27.1715 112.247 26.9915 111.907 26.8238L112.549 25.7294C112.189 25.5279 111.826 25.3402 111.462 25.1669L110.867 26.351C110.512 26.2031 110.156 26.0691 109.803 25.9494L110.34 24.6799C109.954 24.5285 109.569 24.3939 109.187 24.2771L108.718 25.6264C108.346 25.5309 107.978 25.4526 107.616 25.3919L108.008 23.971C107.854 23.9385 107.702 23.9091 107.55 23.8829C107.325 23.8439 107.075 23.8075 106.807 23.7793L106.502 25.2572C106.155 25.2317 105.775 25.221 105.383 25.243L105.595 23.7239ZM111.485 21.973C111.223 22.103 110.985 22.2364 110.772 22.365C110.929 22.4219 111.086 22.4813 111.243 22.5432L111.485 21.973ZM115.6 16.9294L114.666 18.7869C114.966 18.7748 115.273 18.7772 115.586 18.7965C115.906 18.8162 116.223 18.8547 116.537 18.9084C116.306 18.2782 115.997 17.6064 115.6 16.9294ZM115.545 60.8636C115.525 60.9147 115.505 60.9656 115.485 61.0162C115.542 61.0227 115.599 61.0287 115.657 61.0343L115.545 60.8636ZM113.381 60.0608C113.383 60.0572 113.384 60.0536 113.385 60.05C113.383 60.0514 113.38 60.0528 113.377 60.0542L113.381 60.0608ZM112.145 60.6432C111.723 60.8218 111.297 60.9799 110.865 61.1163L111.579 62.8771C111.966 62.4938 112.31 62.0684 112.609 61.6029L112.145 60.6432ZM97.4095 55.2571C97.6323 55.517 97.8776 55.7775 98.1446 56.0349L99.0988 53.2909C98.8547 53.1865 98.6168 53.0722 98.3859 52.948L97.4095 55.2571ZM96.2334 53.5161C96.3757 53.8061 96.5538 54.1102 96.7664 54.4213L97.71 52.5427C97.6468 52.5006 97.5842 52.4576 97.5224 52.4138C97.2568 52.5191 96.9868 52.6143 96.7129 52.6995L96.2334 53.5161ZM99.8693 47.324L98.8641 49.036C99.271 48.7248 99.6365 48.3936 99.9632 48.0571L100.379 47.2293C100.211 47.267 100.041 47.2986 99.8693 47.324ZM101.153 44.3348C101.223 44.3534 101.294 44.3699 101.366 44.384L101.636 43.9855C101.686 44.0112 101.737 44.0349 101.788 44.0566L101.575 44.4188C101.601 44.4222 101.627 44.4254 101.653 44.4283C101.696 44.433 101.738 44.4368 101.78 44.4399L101.943 44.115C101.995 44.1323 102.048 44.1475 102.102 44.1608L101.98 44.4486C102.045 44.4495 102.11 44.4485 102.174 44.4457L102.262 44.1942C102.315 44.2031 102.368 44.2101 102.422 44.2151L102.362 44.4322C102.423 44.4261 102.484 44.4184 102.544 44.409L102.582 44.2243C102.635 44.2253 102.688 44.2244 102.741 44.2217L102.719 44.3767C102.776 44.3648 102.832 44.3514 102.888 44.3365L102.897 44.2078C102.948 44.2013 102.999 44.1929 103.05 44.1828L103.049 44.2891C103.101 44.2724 103.153 44.2544 103.204 44.2352L103.199 44.1473C103.247 44.1338 103.295 44.1187 103.343 44.1018L103.352 44.1753C103.4 44.1547 103.447 44.1329 103.494 44.1101L103.482 44.0469C103.526 44.0273 103.571 44.0061 103.614 43.9833L103.629 44.0402C103.672 44.0164 103.716 43.9916 103.758 43.9658L103.74 43.9119C103.781 43.8872 103.821 43.861 103.86 43.8334L103.882 43.8875C103.921 43.8611 103.961 43.8339 104 43.8056L103.972 43.7485C103.992 43.7318 104.013 43.7147 104.033 43.6972C104.048 43.6844 104.062 43.6712 104.077 43.658L104.112 43.7203C104.149 43.6913 104.184 43.6617 104.22 43.6316L104.174 43.5627C104.205 43.5303 104.235 43.497 104.264 43.4631L104.322 43.5398C104.356 43.5087 104.388 43.4771 104.42 43.4449L104.346 43.3596C104.372 43.3248 104.397 43.2892 104.421 43.253L104.513 43.3467C104.544 43.3136 104.574 43.2798 104.603 43.2455L104.488 43.1437C104.509 43.1071 104.529 43.0699 104.548 43.0322L104.687 43.1409C104.715 43.1056 104.741 43.0696 104.768 43.0332L104.6 42.9191C104.616 42.8815 104.63 42.8434 104.644 42.8048L104.844 42.9219C104.868 42.8842 104.892 42.8459 104.916 42.8072L104.682 42.6897C104.693 42.6516 104.703 42.6132 104.712 42.5743L104.983 42.6889C105.005 42.6486 105.026 42.6078 105.046 42.5667L104.736 42.4589C104.743 42.4208 104.749 42.3824 104.754 42.3438L105.105 42.4407C105.124 42.3978 105.142 42.3544 105.159 42.3106L104.765 42.2291L104.765 42.2259C104.768 42.1889 104.769 42.152 104.77 42.1153L105.208 42.1764C105.224 42.1306 105.238 42.0844 105.252 42.0378L104.769 42.0025C104.768 41.9651 104.765 41.9278 104.762 41.8908L105.29 41.8948C105.302 41.8459 105.313 41.7967 105.323 41.7472L104.75 41.7805C104.745 41.7439 104.739 41.7076 104.732 41.6716L105.35 41.5949C105.355 41.5611 105.36 41.5273 105.364 41.4933C105.366 41.4748 105.368 41.4563 105.37 41.4378L104.708 41.5644C104.699 41.5289 104.69 41.4937 104.679 41.4589L105.383 41.2759C105.386 41.2202 105.388 41.1647 105.388 41.1095L104.645 41.3555C104.633 41.3212 104.62 41.2875 104.606 41.254L105.384 40.9383C105.382 40.8795 105.377 40.8209 105.371 40.7629L104.561 41.1549C104.546 41.1221 104.529 41.0898 104.512 41.058L105.348 40.5835C105.338 40.522 105.327 40.461 105.314 40.4006L104.458 40.9636C104.439 40.9325 104.419 40.9019 104.399 40.8718L105.268 40.2148C105.25 40.1514 105.231 40.0888 105.21 40.0269L104.335 40.7828C104.313 40.7535 104.29 40.7248 104.266 40.6966L105.138 39.8377C105.111 39.7735 105.082 39.7103 105.052 39.6482L104.193 40.6136C104.167 40.5864 104.141 40.5598 104.114 40.5338L104.951 39.4595C104.915 39.396 104.876 39.3338 104.836 39.273L104.031 40.4576C104.003 40.4327 103.974 40.4086 103.944 40.3852L104.704 39.09C104.657 39.029 104.608 38.9697 104.557 38.9121L103.851 40.3168C103.82 40.2946 103.787 40.2732 103.754 40.2527L104.394 38.7411C104.336 38.6848 104.276 38.6306 104.214 38.5786L103.653 40.1933C103.618 40.1742 103.583 40.1561 103.547 40.1389L104.019 38.4266C103.951 38.3776 103.881 38.331 103.809 38.287L103.437 40.0899C103.399 40.0745 103.361 40.0601 103.322 40.0468L103.585 38.1619C103.507 38.1226 103.428 38.0862 103.346 38.0529L103.204 40.0098C103.163 39.9985 103.123 39.9883 103.081 39.9793L103.096 37.962C103.011 37.9348 102.924 37.911 102.836 37.8906L102.956 39.9559C102.913 39.9492 102.87 39.9439 102.827 39.9397L102.566 37.8401C102.528 37.8345 102.49 37.8296 102.451 37.8254C102.397 37.8194 102.344 37.8147 102.29 37.8114L102.695 39.9313C102.65 39.9297 102.606 39.9295 102.561 39.9308L102.009 37.8054C101.914 37.8073 101.819 37.8133 101.725 37.8232L102.425 39.9387C102.379 39.9428 102.333 39.9484 102.288 39.9556L101.441 37.8657C101.346 37.884 101.252 37.9066 101.159 37.9331L102.15 39.9817C102.103 39.9921 102.057 40.0041 102.012 40.0176L100.882 38.0257C100.79 38.0607 100.701 38.0998 100.612 38.1429L101.874 40.0634C101.829 40.0804 101.783 40.0991 101.739 40.1193L100.353 38.2841C100.327 38.2996 100.301 38.3155 100.276 38.3318C100.218 38.3688 100.161 38.4075 100.105 38.4481L101.605 40.1856C101.561 40.2094 101.518 40.2349 101.475 40.2619L99.8717 38.6336C99.796 38.6993 99.7237 38.7679 99.6547 38.8392L101.35 40.3485C101.308 40.3791 101.268 40.4113 101.229 40.445L99.4563 39.0635C99.3934 39.1414 99.3341 39.2219 99.2787 39.3048L101.113 40.551C101.075 40.5882 101.039 40.6267 101.005 40.6663L99.1235 39.5611C99.0757 39.6487 99.0319 39.7383 98.9922 39.8299L100.904 40.7908C100.871 40.834 100.841 40.8783 100.811 40.9237L98.8859 40.1089C98.8549 40.2028 98.8279 40.2984 98.8052 40.3953L100.729 41.0647C100.703 41.1131 100.679 41.1625 100.657 41.2128L98.7505 40.6865C98.747 40.711 98.7438 40.7358 98.7408 40.7605C98.7319 40.8336 98.7255 40.9067 98.7214 40.9796L100.596 41.3673C100.578 41.4198 100.562 41.4731 100.548 41.5271L98.7181 41.2722C98.7212 41.3695 98.7286 41.4661 98.7402 41.5619L100.511 41.6913C100.501 41.7466 100.494 41.8025 100.488 41.8589L98.7875 41.8461C98.8073 41.9393 98.8311 42.0315 98.859 42.1225L100.477 42.0285C100.476 42.0857 100.477 42.1426 100.48 42.1992L98.9533 42.3886C98.9881 42.4747 99.0266 42.5594 99.0689 42.6426L100.496 42.3697C100.504 42.4266 100.514 42.483 100.526 42.5389L99.2038 42.8827C99.2511 42.9592 99.3018 43.0343 99.3558 43.1074L100.569 42.7054C100.586 42.7604 100.605 42.8147 100.626 42.8681L99.5227 43.3158C99.5802 43.3821 99.6401 43.4458 99.7022 43.5068L100.696 43.0256C100.722 43.077 100.749 43.1275 100.779 43.1769L99.8926 43.68C99.9572 43.7342 100.024 43.7857 100.092 43.8346L100.873 43.3209C100.906 43.3673 100.941 43.4127 100.978 43.4567L100.298 43.9707C100.367 44.0125 100.437 44.0517 100.509 44.0882L101.093 43.5836C101.133 43.6244 101.175 43.6634 101.218 43.7006L100.723 44.1877C100.794 44.2175 100.866 44.2448 100.939 44.2696L101.35 43.8071C101.396 43.8407 101.442 43.8725 101.49 43.9023L101.153 44.3348ZM97.6065 44.9775C97.7189 45.0005 97.8314 45.0202 97.9438 45.0367C97.8924 44.9829 97.8418 44.9281 97.7922 44.8721L97.6065 44.9775ZM96.377 44.5916C96.5784 44.6783 96.7838 44.7541 96.9914 44.819L97.533 44.5569C97.449 44.4468 97.3696 44.3342 97.2948 44.2194L96.377 44.5916ZM95.2025 43.9232C95.3862 44.0577 95.578 44.1811 95.7758 44.2932L97.0797 43.8614C97.0117 43.7378 96.9485 43.6119 96.8904 43.4843L95.2025 43.9232ZM94.1942 42.9791C94.3415 43.1557 94.5006 43.324 94.6714 43.4834L95.4833 43.3282C95.5445 43.4005 95.6079 43.471 95.6738 43.5397C95.6572 43.4603 95.642 43.3805 95.6282 43.3005L96.7291 43.09C96.68 42.9554 96.6362 42.8189 96.5977 42.6809L95.5609 42.8096C95.5444 42.6459 95.5334 42.4813 95.5281 42.3158L96.4981 42.2595C96.4703 42.117 96.448 41.9733 96.4314 41.8285L95.5294 41.8217C95.5323 41.7435 95.5365 41.6651 95.5419 41.5866C95.5479 41.5007 95.5553 41.415 95.5643 41.3299L96.3987 41.3908C96.3935 41.2443 96.394 41.0971 96.4004 40.9494L95.6323 40.8424C95.6605 40.6805 95.6943 40.5203 95.7333 40.3618L96.4365 40.5072C96.4365 40.5066 96.4366 40.5061 96.4367 40.5057C96.4545 40.3579 96.478 40.2116 96.5069 40.0671L95.867 39.8905C95.9169 39.7351 95.9721 39.5818 96.0327 39.4307L96.6118 39.6322C96.6528 39.4879 96.6992 39.3456 96.7512 39.2057L96.2293 38.9848C96.2997 38.839 96.3752 38.6957 96.4556 38.555L96.9246 38.7908C96.988 38.6546 97.0568 38.521 97.131 38.3904L96.7103 38.1433C96.7993 38.0097 96.8932 37.879 96.9916 37.7514L97.3688 38.0076C97.453 37.8834 97.5423 37.7624 97.6366 37.645L97.2978 37.3809C97.4032 37.2618 97.5129 37.1458 97.6268 37.0332L97.932 37.3049C98.0342 37.1961 98.1411 37.0909 98.2526 36.9896L97.9767 36.7095C98.0969 36.6053 98.2199 36.5056 98.3454 36.4105L98.5959 36.7005C98.7142 36.6084 98.8354 36.5213 98.9592 36.4393L98.7314 36.1376C98.8628 36.051 98.9967 35.9691 99.1327 35.8918L99.3402 36.2075C99.4702 36.1353 99.6024 36.0684 99.7366 36.0068L99.5479 35.6741C99.6882 35.6065 99.8305 35.5435 99.9747 35.4854L100.145 35.8384C100.283 35.7879 100.423 35.7427 100.564 35.7032L100.411 35.3261C100.558 35.2782 100.706 35.235 100.855 35.1967L100.989 35.6014C101.131 35.5732 101.274 35.5504 101.418 35.5332L101.305 35.0972C101.455 35.0691 101.606 35.0458 101.758 35.0275L101.848 35.4981C101.99 35.4921 102.133 35.4912 102.276 35.4957L102.213 34.9874C102.363 34.9789 102.515 34.9752 102.667 34.9764L102.698 35.5245C102.709 35.5257 102.719 35.5267 102.729 35.5279C102.859 35.5422 102.988 35.561 103.114 35.5838L103.119 34.9939C103.269 35.0044 103.419 35.0197 103.567 35.0394L103.52 35.6725C103.654 35.7069 103.786 35.7461 103.915 35.7897L104.009 35.1127C104.156 35.1418 104.301 35.1754 104.444 35.2134L104.295 35.9339C104.42 35.9862 104.541 36.0428 104.66 36.1035L104.871 35.341C105.011 35.388 105.15 35.4393 105.287 35.4947L105.008 36.2965C105.12 36.3643 105.23 36.4358 105.337 36.511L105.691 35.6736C105.824 35.7375 105.954 35.8052 106.082 35.8768L105.646 36.7448C105.745 36.8253 105.841 36.909 105.934 36.9959L106.458 36.1032C106.581 36.1825 106.701 36.2654 106.819 36.3518L106.201 37.2621C106.285 37.3526 106.367 37.4458 106.446 37.5416L107.162 36.6213C107.274 36.7145 107.383 36.811 107.488 36.9106L106.668 37.8321C106.738 37.9299 106.805 38.0299 106.869 38.1321L107.795 37.2187C107.894 37.3243 107.99 37.4328 108.083 37.5441L107.047 38.4395C107.102 38.5421 107.154 38.6466 107.203 38.7528L108.349 37.8861C108.435 38.0025 108.517 38.1215 108.595 38.243L107.337 39.0704C107.377 39.1758 107.415 39.2827 107.449 39.3909L108.818 38.614C108.888 38.7397 108.955 38.8677 109.018 38.9977L107.541 39.7127C107.568 39.819 107.591 39.9264 107.612 40.0348L109.194 39.3929C109.249 39.5261 109.3 39.6613 109.346 39.7982L107.663 40.3558C107.677 40.4613 107.687 40.5677 107.695 40.6748L109.473 40.2124C109.511 40.3513 109.545 40.4919 109.575 40.6339L107.708 40.9907C107.71 41.0942 107.708 41.1982 107.704 41.3028L109.65 41.0613C109.67 41.204 109.687 41.3481 109.698 41.4932L107.683 41.6102C107.678 41.656 107.673 41.7019 107.668 41.7479C107.661 41.8029 107.654 41.8578 107.646 41.9124L109.721 41.9279C109.724 42.0724 109.722 42.2178 109.716 42.3641L107.593 42.2089C107.573 42.3065 107.551 42.4033 107.526 42.4992L109.685 42.8001C109.67 42.946 109.651 43.091 109.628 43.2347L107.444 42.7832C107.415 42.8764 107.383 42.9687 107.349 43.0601L109.544 43.6661C109.511 43.8097 109.474 43.9521 109.433 44.0928L107.24 43.3299C107.201 43.4184 107.161 43.5057 107.118 43.5921L109.295 44.5132C109.244 44.6525 109.189 44.7899 109.13 44.9255L106.983 43.8464C106.936 43.9297 106.887 44.0118 106.836 44.0926L108.939 45.328C108.871 45.4605 108.798 45.5908 108.722 45.7189L106.677 44.3304C106.623 44.4081 106.566 44.4844 106.507 44.5595L108.479 46.0966C108.394 46.2201 108.305 46.3412 108.211 46.4595L106.325 44.7797C106.263 44.8514 106.199 44.9218 106.133 44.9907L107.92 46.806C107.82 46.9185 107.715 47.028 107.607 47.1347L105.929 45.1924C105.86 45.258 105.788 45.3219 105.715 45.3844L107.271 47.4443C107.155 47.5449 107.036 47.6413 106.915 47.7334L105.491 45.5665C105.414 45.626 105.336 45.6833 105.257 45.7385L106.54 48.0005C106.411 48.086 106.28 48.167 106.146 48.2435L105.012 45.8996C104.929 45.9518 104.844 46.0017 104.758 46.0492L105.759 48.5197C105.66 48.7172 105.559 48.9086 105.456 49.0941L104.493 46.1867C104.403 46.2308 104.312 46.2723 104.219 46.3114L105.1 49.701C104.963 49.9231 104.824 50.1356 104.684 50.3383L103.938 46.4344C103.856 46.5912 103.773 46.7441 103.689 46.8929L104.199 51.0026C104.009 51.2483 103.82 51.4764 103.636 51.6869L103.387 47.3988C103.267 47.5912 103.145 47.776 103.022 47.9532L102.993 51.7957C103.208 51.8007 103.425 51.7981 103.642 51.7876L103.64 51.7548C103.761 51.7604 103.883 51.7631 104.006 51.7628C104.909 51.6833 105.822 51.4693 106.697 51.1158C108.148 50.5296 110.374 49.1885 111.736 46.2355L111.728 46.2314C111.801 46.0379 111.87 45.8375 111.934 45.6301L111.986 45.6518C112.061 45.4595 112.134 45.261 112.202 45.0563L112.103 45.0221C112.153 44.824 112.198 44.62 112.238 44.41L112.386 44.4508C112.442 44.2518 112.493 44.0472 112.541 43.837L112.342 43.7958C112.37 43.5958 112.395 43.3907 112.416 43.1805L112.668 43.2156C112.705 43.0111 112.738 42.8017 112.768 42.587L112.464 42.5649C112.477 42.3572 112.488 42.1518 112.497 41.9487L112.845 41.9512C112.869 41.7342 112.889 41.5194 112.907 41.3069L112.516 41.3296C112.519 41.119 112.519 40.911 112.516 40.7056L112.953 40.6515C112.965 40.426 112.973 40.2032 112.977 39.9832L112.495 40.0755C112.483 39.8603 112.467 39.6483 112.445 39.4396L112.976 39.3015C112.97 39.0667 112.959 38.8353 112.942 38.6073L112.361 38.7996C112.326 38.5821 112.285 38.3686 112.236 38.1591L112.868 37.9031C112.835 37.6625 112.794 37.4261 112.745 37.1939L112.063 37.5242C111.995 37.3122 111.919 37.1049 111.834 36.9024L112.565 36.4871C112.494 36.2506 112.413 36.0189 112.322 35.7921L111.545 36.3028C111.439 36.1085 111.323 35.9191 111.196 35.7347L112.01 35.1193C111.896 34.9008 111.769 34.6873 111.63 34.479L110.789 35.2058C110.646 35.0394 110.493 34.8781 110.329 34.7218L111.184 33.8795C111.027 33.6905 110.859 33.5062 110.678 33.3267L109.825 34.285C109.655 34.1508 109.476 34.0206 109.287 33.8947L110.122 32.8227C109.933 32.6669 109.734 32.5152 109.523 32.3677L108.722 33.548C108.536 33.4424 108.342 33.34 108.139 33.241L108.892 31.9589C108.682 31.8334 108.463 31.7114 108.234 31.5928L107.542 32.9692C107.347 32.8862 107.145 32.8059 106.937 32.728L107.555 31.2649C107.332 31.1642 107.1 31.0663 106.86 30.9712L106.323 32.5135C106.166 32.4617 106.005 32.4113 105.84 32.3621C105.795 32.3485 105.749 32.3352 105.704 32.3222L106.149 30.7073C106.124 30.6987 106.099 30.6901 106.074 30.6815C105.859 30.6072 105.641 30.5397 105.423 30.4791L105.074 32.1648C104.862 32.1188 104.649 32.0796 104.436 32.0472L104.679 30.3C104.428 30.2485 104.175 30.2057 103.922 30.1716L103.791 31.9702C103.574 31.9513 103.358 31.9393 103.141 31.9341L103.155 30.0949C102.898 30.0781 102.64 30.0701 102.382 30.0711L102.49 31.9393C102.273 31.9481 102.056 31.9636 101.84 31.9862L101.607 30.1006C101.348 30.1195 101.089 30.1474 100.833 30.1842L101.194 32.0747C100.979 32.1112 100.765 32.1547 100.553 32.2051L100.064 30.3221C99.809 30.3772 99.5559 30.4413 99.3053 30.5145L99.9219 32.3772C99.7132 32.4415 99.5066 32.5128 99.3025 32.5909L98.5606 30.7609C98.3154 30.852 98.0731 30.9521 97.8345 31.061L98.6978 32.8459C98.4993 32.9376 98.3036 33.0361 98.1112 33.1414L97.1312 31.414C96.8984 31.542 96.6734 31.6777 96.4569 31.8203L97.5457 33.4769C97.3591 33.5971 97.1789 33.7226 97.0061 33.8533L95.818 32.2804C95.6091 32.4448 95.4102 32.6162 95.2221 32.7938L96.4975 34.2707C96.3317 34.4186 96.1744 34.5715 96.0263 34.7291L94.6774 33.3594C94.5031 33.5591 94.3416 33.7649 94.1936 33.9758L95.5999 35.2281C95.4644 35.4035 95.3399 35.5832 95.227 35.7667L93.7816 34.64C93.6561 34.8717 93.5465 35.1082 93.4537 35.3482L94.9177 36.3426C94.8254 36.5426 94.7467 36.746 94.6829 36.9521L93.2192 36.0921C93.152 36.345 93.0936 36.5945 93.0438 36.8401L94.5271 37.5857C94.483 37.7991 94.4452 38.0095 94.4139 38.2167L92.9182 37.5838C92.8845 37.8343 92.8604 38.0804 92.8458 38.322L94.3378 38.841C94.3187 39.0506 94.3067 39.2564 94.3017 39.4583L92.8312 39.0524C92.8365 39.2977 92.8526 39.5375 92.8791 39.7717L94.309 40.0673C94.3192 40.2714 94.3374 40.471 94.3637 40.6656L92.9944 40.4749C93.0452 40.7087 93.1076 40.9357 93.1817 41.1557L94.47 41.2499C94.5151 41.4441 94.5693 41.6325 94.6325 41.815L93.4442 41.8061C93.5447 42.0178 93.6576 42.2215 93.7826 42.4171L94.8547 42.3549C94.9394 42.5308 95.034 42.6999 95.1385 42.862L94.1942 42.9791ZM102.248 27.7629C102.394 27.7608 102.54 27.7611 102.686 27.7637C102.535 27.6701 102.384 27.5819 102.233 27.4988L102.248 27.7629ZM101.704 51.6686C101.915 51.706 102.129 51.7353 102.346 51.7565L102.58 48.5535C102.402 48.7818 102.224 48.9948 102.049 49.1929L101.704 51.6686ZM100.456 51.3403C100.657 51.412 100.863 51.4754 101.073 51.5305L101.418 49.8587C101.191 50.082 100.976 50.2775 100.779 50.4459C100.746 50.4738 100.713 50.5016 100.68 50.5291L100.456 51.3403ZM119.588 13.7424L119.62 13.6873C119.805 13.7252 119.992 13.7664 120.179 13.8111C119.981 13.7842 119.784 13.7614 119.588 13.7424ZM125.674 16.4099L125.709 16.4385L125.686 16.465L125.674 16.4099ZM74.401 23.7841C74.4263 23.3205 74.4413 22.863 74.4312 22.427L75.4401 23.1124C75.054 23.3436 74.7038 23.5736 74.401 23.7841ZM76.3494 55.4267C76.2187 55.2875 76.0895 55.1446 75.9618 54.9978L76.0335 54.9631C76.1367 55.1183 76.242 55.2728 76.3494 55.4267Z" fill="#595959"/>
<path fill-rule="evenodd" clip-rule="evenodd" d="M58.6272 36.0947C57.4754 36.0947 56.407 35.9161 55.4219 35.559C54.4368 35.2018 53.6449 34.6547 53.0463 33.9176C52.4477 33.1804 52.1483 32.2344 52.1483 31.0793V30.8172C52.1483 30.7336 52.1559 30.6386 52.1711 30.5322H56.5812C56.5661 30.593 56.5585 30.6386 56.5585 30.669V30.8058C56.5585 31.0793 56.6229 31.3377 56.7517 31.5809C56.8806 31.824 57.0965 32.0254 57.3996 32.185C57.7027 32.3446 58.127 32.4244 58.6726 32.4244C59.294 32.4244 59.7563 32.3788 60.0593 32.2876C60.3624 32.1964 60.567 32.0748 60.6731 31.9228C60.7792 31.7709 60.8322 31.6113 60.8322 31.4441C60.8322 31.1249 60.6807 30.8779 60.3776 30.7032C60.0745 30.5284 59.6767 30.384 59.1841 30.2701C58.6916 30.1561 58.1498 30.0383 57.5587 29.9167C56.9677 29.7951 56.3729 29.6317 55.7742 29.4266C55.1756 29.2214 54.63 28.944 54.1375 28.5945C53.6449 28.2449 53.2471 27.7852 52.944 27.2153C52.6409 26.6453 52.4893 25.9272 52.4893 25.0609C52.4893 23.9515 52.7925 23.0244 53.3986 22.2797C54.0049 21.535 54.8119 20.9689 55.8197 20.5813C56.8275 20.1938 57.9376 20 59.15 20C60.317 20 61.374 20.171 62.3212 20.5129C63.2684 20.8549 64.0262 21.3754 64.5945 22.0745C65.1628 22.7736 65.447 23.6779 65.447 24.7874V25.0609H61.0823V24.9697C61.0823 24.6962 61.0217 24.4454 60.9004 24.2174C60.7792 23.9895 60.5784 23.8071 60.298 23.6703C60.0177 23.5335 59.6501 23.4651 59.1955 23.4651C58.7712 23.4651 58.4188 23.507 58.1384 23.5905C57.8581 23.6741 57.6497 23.7843 57.5133 23.9211C57.3769 24.0579 57.3087 24.2251 57.3087 24.4226C57.3087 24.757 57.4603 25.0191 57.7633 25.2091C58.0664 25.3991 58.468 25.5548 58.9681 25.6765C59.4683 25.7981 60.0214 25.9196 60.6276 26.0412C61.2339 26.1628 61.8363 26.3185 62.4349 26.5085C63.0335 26.6985 63.5829 26.9607 64.083 27.295C64.5831 27.6294 64.9848 28.0664 65.2878 28.6059C65.5909 29.1454 65.7425 29.8255 65.7425 30.6462C65.7425 31.938 65.4356 32.9829 64.8218 33.7808C64.208 34.5787 63.3669 35.1638 62.2985 35.5362C61.23 35.9085 60.0063 36.0947 58.6272 36.0947ZM73.4716 36.0947C72.244 36.0947 71.1869 35.8743 70.3004 35.4336C69.4138 34.9928 68.7356 34.3735 68.2658 33.5756C67.796 32.7777 67.5611 31.8544 67.5611 30.8058V20.228H72.3577V30.8286C72.3577 31.3301 72.5358 31.7405 72.8919 32.0596C73.2481 32.3788 73.6838 32.5384 74.199 32.5384C74.7143 32.5384 75.1463 32.3788 75.4948 32.0596C75.8434 31.7405 76.0176 31.3301 76.0176 30.8286V20.228H80.8142V30.8058C80.8142 31.8544 80.5414 32.7777 79.9959 33.5756C79.4503 34.3735 78.7001 34.9928 77.7453 35.4336C76.7905 35.8743 75.6918 36.0947 74.4491 36.0947H73.4716ZM83.2921 35.8667V20.228H91.6577C92.4306 20.228 93.1429 20.3648 93.7946 20.6383C94.4463 20.9119 94.9653 21.3184 95.3518 21.858C95.7382 22.3975 95.9314 23.07 95.9314 23.8755C95.9314 24.605 95.8102 25.2243 95.5677 25.7334C95.3253 26.2426 95.007 26.6567 94.6129 26.9759C94.219 27.295 93.787 27.5382 93.3172 27.7054V27.7966C93.6809 27.8878 94.0409 28.0245 94.397 28.2069C94.7532 28.3893 95.0752 28.6287 95.3631 28.925C95.6511 29.2214 95.8784 29.571 96.0451 29.9737C96.2118 30.3764 96.2952 30.8438 96.2952 31.3757C96.2952 32.2724 96.0754 33.0589 95.6359 33.7352C95.1965 34.4115 94.6281 34.9358 93.931 35.3082C93.2338 35.6806 92.4837 35.8667 91.6804 35.8667H83.2921ZM87.6795 32.356H90.2937C90.5817 32.356 90.8318 32.2952 91.0439 32.1736C91.2561 32.052 91.419 31.8735 91.5327 31.6379C91.6463 31.4023 91.7032 31.1173 91.7032 30.783C91.7032 30.479 91.6388 30.2396 91.5099 30.0649C91.3811 29.8901 91.2144 29.7609 91.0098 29.6773C90.8052 29.5938 90.5817 29.5519 90.3392 29.5519H87.6795V32.356ZM87.6795 26.2236H90.2937C90.5817 26.2236 90.8091 26.1552 90.9757 26.0184C91.1424 25.8816 91.2599 25.6993 91.3281 25.4713C91.3963 25.2433 91.4304 25.0077 91.4304 24.7646C91.4304 24.3086 91.3205 23.9933 91.1007 23.8185C90.881 23.6437 90.612 23.5563 90.2937 23.5563H87.6795V26.2236ZM109.412 36.0947C108.715 36.0947 108.131 35.9997 107.661 35.8097C107.192 35.6197 106.832 35.312 106.582 34.8864C106.332 34.4609 106.207 33.8834 106.207 33.1539C106.207 32.9259 106.191 32.6523 106.161 32.3332C106.131 32.014 106.051 31.7063 105.922 31.4099C105.794 31.1135 105.593 30.8628 105.32 30.6576C105.047 30.4524 104.668 30.3498 104.183 30.3498H102.865V35.8667H98.2047V20.228H106.934C107.677 20.228 108.378 20.3762 109.037 20.6725C109.696 20.9689 110.234 21.402 110.651 21.9719C111.068 22.5419 111.276 23.2524 111.276 24.1035C111.276 24.8178 111.147 25.4599 110.89 26.0298C110.632 26.5997 110.291 27.0785 109.867 27.466C109.442 27.8536 108.98 28.1462 108.48 28.3437V28.4577C108.919 28.5945 109.298 28.7845 109.616 29.0276C109.935 29.2708 110.192 29.5557 110.389 29.8825C110.586 30.2093 110.734 30.5474 110.833 30.897C110.931 31.2465 110.98 31.5885 110.98 31.9228C110.98 32.1508 110.988 32.413 111.003 32.7093C111.018 33.0057 111.06 33.2907 111.128 33.5642C111.196 33.8378 111.31 34.0809 111.469 34.2937C111.628 34.5065 111.852 34.6509 112.14 34.7269V35.6615C111.731 35.8287 111.284 35.9427 110.799 36.0035C110.314 36.0643 109.851 36.0947 109.412 36.0947ZM102.865 26.8619H105.184C105.411 26.8619 105.619 26.7897 105.809 26.6453C105.998 26.5009 106.146 26.3072 106.252 26.064C106.358 25.8209 106.411 25.5397 106.411 25.2205C106.411 24.7342 106.298 24.377 106.07 24.1491C105.843 23.9211 105.57 23.8071 105.252 23.8071H102.865V26.8619ZM119.937 36.0947C118.998 36.0947 118.115 35.9161 117.289 35.559C116.463 35.2018 115.739 34.7117 115.118 34.0885C114.496 33.4654 114.008 32.7397 113.652 31.9114C113.295 31.0831 113.117 30.1979 113.117 29.2556V26.8847C113.117 25.9424 113.295 25.0572 113.652 24.2288C114.008 23.4005 114.496 22.6749 115.118 22.0517C115.739 21.4286 116.463 20.9385 117.289 20.5813C118.115 20.2242 118.998 20.0456 119.937 20.0456H121.21C122.15 20.0456 123.033 20.2242 123.859 20.5813C124.684 20.9385 125.408 21.4286 126.029 22.0517C126.651 22.6749 127.14 23.4005 127.496 24.2288C127.852 25.0572 128.03 25.9424 128.03 26.8847V29.2556C128.03 30.1979 127.852 31.0831 127.496 31.9114C127.14 32.7397 126.651 33.4654 126.029 34.0885C125.408 34.7117 124.684 35.2018 123.859 35.559C123.033 35.9161 122.15 36.0947 121.21 36.0947H119.937ZM120.574 32.5384C120.922 32.5384 121.237 32.4776 121.517 32.356C121.797 32.2344 122.044 32.071 122.256 31.8658C122.468 31.6607 122.631 31.4213 122.745 31.1477C122.858 30.8742 122.915 30.5778 122.915 30.2587V25.8816C122.915 25.5625 122.858 25.2661 122.745 24.9925C122.631 24.719 122.468 24.4758 122.256 24.263C122.044 24.0502 121.797 23.8869 121.517 23.7729C121.237 23.6589 120.922 23.6019 120.574 23.6019C120.24 23.6019 119.93 23.6627 119.642 23.7843C119.354 23.9059 119.104 24.0693 118.891 24.2744C118.679 24.4796 118.516 24.719 118.403 24.9925C118.289 25.2661 118.232 25.5625 118.232 25.8816V30.2587C118.232 30.5778 118.289 30.8742 118.403 31.1477C118.516 31.4213 118.679 31.6644 118.891 31.8772C119.104 32.09 119.354 32.2534 119.642 32.3674C119.93 32.4814 120.24 32.5384 120.574 32.5384ZM135.782 36.0947C134.63 36.0947 133.562 35.9161 132.576 35.559C131.591 35.2018 130.8 34.6547 130.201 33.9176C129.602 33.1804 129.303 32.2344 129.303 31.0793V30.8172C129.303 30.7336 129.311 30.6386 129.326 30.5322H133.736C133.721 30.593 133.713 30.6386 133.713 30.669V30.8058C133.713 31.0793 133.778 31.3377 133.906 31.5809C134.035 31.824 134.251 32.0254 134.554 32.185C134.857 32.3446 135.282 32.4244 135.827 32.4244C136.449 32.4244 136.911 32.3788 137.214 32.2876C137.517 32.1964 137.722 32.0748 137.828 31.9228C137.934 31.7709 137.987 31.6113 137.987 31.4441C137.987 31.1249 137.835 30.8779 137.532 30.7032C137.229 30.5284 136.831 30.384 136.339 30.2701C135.846 30.1561 135.304 30.0383 134.713 29.9167C134.122 29.7951 133.527 29.6317 132.929 29.4266C132.33 29.2214 131.785 28.944 131.292 28.5945C130.8 28.2449 130.402 27.7852 130.099 27.2153C129.796 26.6453 129.644 25.9272 129.644 25.0609C129.644 23.9515 129.947 23.0244 130.553 22.2797C131.16 21.535 131.967 20.9689 132.974 20.5813C133.982 20.1938 135.092 20 136.305 20C137.472 20 138.529 20.171 139.476 20.5129C140.423 20.8549 141.181 21.3754 141.749 22.0745C142.317 22.7736 142.602 23.6779 142.602 24.7874V25.0609H138.237V24.9697C138.237 24.6962 138.176 24.4454 138.055 24.2174C137.934 23.9895 137.733 23.8071 137.453 23.6703C137.172 23.5335 136.805 23.4651 136.35 23.4651C135.926 23.4651 135.573 23.507 135.293 23.5905C135.013 23.6741 134.804 23.7843 134.668 23.9211C134.531 24.0579 134.463 24.2251 134.463 24.4226C134.463 24.757 134.615 25.0191 134.918 25.2091C135.221 25.3991 135.623 25.5548 136.123 25.6765C136.623 25.7981 137.176 25.9196 137.782 26.0412C138.388 26.1628 138.991 26.3185 139.589 26.5085C140.188 26.6985 140.737 26.9607 141.238 27.295C141.738 27.6294 142.139 28.0664 142.442 28.6059C142.746 29.1454 142.897 29.8255 142.897 30.6462C142.897 31.938 142.59 32.9829 141.976 33.7808C141.363 34.5787 140.522 35.1638 139.453 35.5362C138.385 35.9085 137.161 36.0947 135.782 36.0947ZM144.829 35.8667V20.228H156.537L156.082 23.8755H149.512V26.1552H155.832V29.6431H149.512V32.2192H156.082L156.537 35.8667H144.829ZM58.2998 58.2556C57.1799 58.2556 56.1409 58.0819 55.1831 57.7346C54.2252 57.3873 53.4552 56.8553 52.8731 56.1386C52.291 55.4219 52 54.502 52 53.3788V53.1239C52 53.0426 52.0073 52.9502 52.0221 52.8468H56.3104C56.2957 52.9059 56.2883 52.9502 56.2883 52.9798V53.1128C56.2883 53.3788 56.3509 53.63 56.4762 53.8664C56.6014 54.103 56.8115 54.2987 57.1061 54.4539C57.4009 54.6091 57.8135 54.6867 58.344 54.6867C58.9482 54.6867 59.3977 54.6423 59.6924 54.5537C59.9872 54.465 60.1861 54.3467 60.2892 54.199C60.3924 54.0512 60.4439 53.896 60.4439 53.7334C60.4439 53.4231 60.2966 53.183 60.0019 53.0131C59.7072 52.8431 59.3203 52.7027 58.8414 52.5918C58.3624 52.481 57.8356 52.3665 57.2609 52.2483C56.6862 52.13 56.1078 51.9712 55.5257 51.7717C54.9436 51.5722 54.4131 51.3025 53.9342 50.9626C53.4552 50.6227 53.0684 50.1756 52.7737 49.6214C52.4789 49.0673 52.3316 48.3691 52.3316 47.5267C52.3316 46.4478 52.6263 45.5464 53.2157 44.8223C53.8052 44.0981 54.5899 43.5477 55.5699 43.1708C56.5498 42.7939 57.6293 42.6056 58.8082 42.6056C59.9429 42.6056 60.9708 42.7718 61.8918 43.1043C62.8128 43.4368 63.5497 43.943 64.1023 44.6228C64.6549 45.3025 64.9312 46.1818 64.9312 47.2607V47.5267H60.6871V47.438C60.6871 47.172 60.6281 46.9281 60.5103 46.7065C60.3924 46.4848 60.1971 46.3075 59.9245 46.1745C59.6519 46.0415 59.2945 45.975 58.8524 45.975C58.4398 45.975 58.0972 46.0156 57.8246 46.0969C57.552 46.1781 57.3493 46.2853 57.2167 46.4183C57.0841 46.5513 57.0177 46.7139 57.0177 46.906C57.0177 47.2311 57.1651 47.486 57.4599 47.6707C57.7545 47.8555 58.1451 48.007 58.6314 48.1252C59.1177 48.2434 59.6556 48.3616 60.245 48.4798C60.8345 48.5981 61.4203 48.7496 62.0024 48.9343C62.5845 49.119 63.1186 49.3739 63.605 49.699C64.0912 50.0242 64.4817 50.449 64.7765 50.9736C65.0712 51.4983 65.2186 52.1596 65.2186 52.9576C65.2186 54.2137 64.9201 55.2298 64.3233 56.0056C63.7265 56.7815 62.9086 57.3504 61.8697 57.7125C60.8308 58.0746 59.6408 58.2556 58.2998 58.2556ZM70.6563 58.0339V52.204L65.6386 42.8272H70.8552L73.132 47.8148H73.2426L75.5635 42.8272H80.316L75.3204 52.204V58.0339H70.6563ZM86.9695 58.2556C85.8496 58.2556 84.8106 58.0819 83.8527 57.7346C82.8949 57.3873 82.1249 56.8553 81.5428 56.1386C80.9608 55.4219 80.6697 54.502 80.6697 53.3788V53.1239C80.6697 53.0426 80.677 52.9502 80.6918 52.8468H84.9801C84.9653 52.9059 84.958 52.9502 84.958 52.9798V53.1128C84.958 53.3788 85.0206 53.63 85.1459 53.8664C85.2711 54.103 85.4811 54.2987 85.7759 54.4539C86.0706 54.6091 86.4832 54.6867 87.0137 54.6867C87.6179 54.6867 88.0674 54.6423 88.3621 54.5537C88.6569 54.465 88.8557 54.3467 88.9589 54.199C89.0621 54.0512 89.1137 53.896 89.1137 53.7334C89.1137 53.4231 88.9663 53.183 88.6715 53.0131C88.3769 52.8431 87.99 52.7027 87.5111 52.5918C87.0321 52.481 86.5053 52.3665 85.9306 52.2483C85.3559 52.13 84.7774 51.9712 84.1953 51.7717C83.6133 51.5722 83.0827 51.3025 82.6039 50.9626C82.1249 50.6227 81.7381 50.1756 81.4433 49.6214C81.1487 49.0673 81.0013 48.3691 81.0013 47.5267C81.0013 46.4478 81.296 45.5464 81.8855 44.8223C82.4749 44.0981 83.2596 43.5477 84.2396 43.1708C85.2196 42.7939 86.299 42.6056 87.4779 42.6056C88.6126 42.6056 89.6405 42.7718 90.5615 43.1043C91.4825 43.4368 92.2193 43.943 92.772 44.6228C93.3246 45.3025 93.6009 46.1818 93.6009 47.2607V47.5267H89.3568V47.438C89.3568 47.172 89.2979 46.9281 89.18 46.7065C89.0621 46.4848 88.8668 46.3075 88.5942 46.1745C88.3216 46.0415 87.9642 45.975 87.5221 45.975C87.1095 45.975 86.7669 46.0156 86.4943 46.0969C86.2216 46.1781 86.019 46.2853 85.8864 46.4183C85.7538 46.5513 85.6875 46.7139 85.6875 46.906C85.6875 47.2311 85.8348 47.486 86.1295 47.6707C86.4242 47.8555 86.8148 48.007 87.3011 48.1252C87.7874 48.2434 88.3253 48.3616 88.9147 48.4798C89.5042 48.5981 90.0899 48.7496 90.672 48.9343C91.2541 49.119 91.7883 49.3739 92.2746 49.699C92.7609 50.0242 93.1514 50.449 93.4462 50.9736C93.7409 51.4983 93.8882 52.1596 93.8882 52.9576C93.8882 54.2137 93.5898 55.2298 92.993 56.0056C92.3962 56.7815 91.5783 57.3504 90.5394 57.7125C89.5005 58.0746 88.3105 58.2556 86.9695 58.2556ZM98.6407 58.0339V46.4848H94.8388V42.8272H107.129V46.4848H103.305V58.0339H98.6407ZM108.72 58.0339V42.8272H120.104L119.662 46.374H113.274V48.5907H119.419V51.9822H113.274V54.4872H119.662L120.104 58.0339H108.72ZM121.983 58.0339V42.8272H129.587L131.776 50.9404H131.864L134.008 42.8272H141.656V58.0339H137.014V48.2803H136.926L134.273 58.0339H128.946L126.316 48.2803H126.205V58.0339H121.983ZM149.769 58.2556C148.649 58.2556 147.61 58.0819 146.652 57.7346C145.694 57.3873 144.924 56.8553 144.342 56.1386C143.76 55.4219 143.469 54.502 143.469 53.3788V53.1239C143.469 53.0426 143.476 52.9502 143.491 52.8468H147.779C147.765 52.9059 147.757 52.9502 147.757 52.9798V53.1128C147.757 53.3788 147.82 53.63 147.945 53.8664C148.07 54.103 148.28 54.2987 148.575 54.4539C148.87 54.6091 149.282 54.6867 149.813 54.6867C150.417 54.6867 150.867 54.6423 151.161 54.5537C151.456 54.465 151.655 54.3467 151.758 54.199C151.861 54.0512 151.913 53.896 151.913 53.7334C151.913 53.4231 151.765 53.183 151.471 53.0131C151.176 52.8431 150.789 52.7027 150.31 52.5918C149.831 52.481 149.305 52.3665 148.73 52.2483C148.155 52.13 147.577 51.9712 146.995 51.7717C146.413 51.5722 145.882 51.3025 145.403 50.9626C144.924 50.6227 144.537 50.1756 144.243 49.6214C143.948 49.0673 143.8 48.3691 143.8 47.5267C143.8 46.4478 144.095 45.5464 144.685 44.8223C145.274 44.0981 146.059 43.5477 147.039 43.1708C148.019 42.7939 149.098 42.6056 150.277 42.6056C151.412 42.6056 152.44 42.7718 153.361 43.1043C154.282 43.4368 155.019 43.943 155.571 44.6228C156.124 45.3025 156.4 46.1818 156.4 47.2607V47.5267H152.156V47.438C152.156 47.172 152.097 46.9281 151.979 46.7065C151.861 46.4848 151.666 46.3075 151.393 46.1745C151.121 46.0415 150.763 45.975 150.321 45.975C149.909 45.975 149.566 46.0156 149.293 46.0969C149.021 46.1781 148.818 46.2853 148.686 46.4183C148.553 46.5513 148.487 46.7139 148.487 46.906C148.487 47.2311 148.634 47.486 148.929 47.6707C149.223 47.8555 149.614 48.007 150.1 48.1252C150.587 48.2434 151.125 48.3616 151.714 48.4798C152.303 48.5981 152.889 48.7496 153.471 48.9343C154.053 49.119 154.588 49.3739 155.074 49.699C155.56 50.0242 155.951 50.449 156.245 50.9736C156.54 51.4983 156.688 52.1596 156.688 52.9576C156.688 54.2137 156.389 55.2298 155.792 56.0056C155.195 56.7815 154.378 57.3504 153.339 57.7125C152.3 58.0746 151.11 58.2556 149.769 58.2556Z" fill="white"/>
</g>
</svg>
