<?xml version="1.0" encoding="UTF-8" standalone="no"?><!DOCTYPE svg PUBLIC "-//W3C//DTD SVG 1.1//EN" "http://www.w3.org/Graphics/SVG/1.1/DTD/svg11.dtd"><svg width="100%" height="100%" viewBox="0 0 720 600" version="1.1" xmlns="http://www.w3.org/2000/svg" xmlns:xlink="http://www.w3.org/1999/xlink" xml:space="preserve" xmlns:serif="http://www.serif.com/" style="fill-rule:evenodd;clip-rule:evenodd;stroke-linejoin:round;stroke-miterlimit:2;"><rect id="Artboard3" x="0" y="0" width="720" height="600" style="fill:none;"/><path d="M97.882,350.371c-3.779,-9.56 -7.058,-19.244 -9.703,-28.899c-13.491,-49.247 -0.312,-95.472 38.226,-111.383c1.323,-0.547 8.007,-3.305 17.258,-4.803c-5.989,4.307 -10.207,8.705 -11.014,9.546l-0.002,0.002c-33.905,35.372 -19.483,86.333 -17.394,93.715c4.157,14.688 9.491,28.775 15.881,41.981l-33.252,-0.159Zm92.717,0.441c-6.578,-10.347 -12.437,-23.012 -16.86,-38.224c-1.195,-4.107 -8.657,-29.772 11.424,-51.868c14.13,-15.541 41.368,-26.347 80.349,-21.196c0.775,0.102 41.666,4.536 71.671,21.316c31.743,17.751 48.748,46.668 59.136,66.511c1.794,3.427 9.285,17.736 11.922,36.018c-1.369,1.132 -2.685,2.33 -3.95,3.595c-1,1 -1.958,2.032 -2.875,3.097c-0.399,-0.628 -0.818,-1.24 -1.257,-1.839c-4.046,-5.518 -9.255,-9.732 -15.656,-12.601c-3.798,-1.703 -7.749,-2.863 -11.856,-3.473c-1.183,-6.244 -3.327,-12.64 -6.582,-19.033c-19.763,-38.819 -73.823,-65.633 -114.506,-61.964c-23.953,2.163 -38.518,14.455 -45.061,28.36c-1.868,3.967 -10.461,22.217 -0.54,51.374l-15.359,-0.073Zm274.434,1.368c-4.468,-17.853 -11.686,-30.77 -14.341,-35.577c-12.138,-21.975 -35.517,-58.27 -81.569,-85.903c-22.745,-13.648 -58.701,-29.68 -107.596,-39.244c-24.764,-13.851 -44.949,-21.925 -48.982,-23.538c10.247,-2.13 24.643,-1.096 26.785,-0.942c55.423,3.986 158.248,41.519 210.614,85.825c39.159,33.134 58.426,69.379 64.986,102.708c-7.811,3.307 -14.083,8.007 -18.927,13.941c-0.429,0.525 -0.842,1.059 -1.241,1.602c-1.165,-1.418 -2.401,-2.781 -3.709,-4.088c-5.07,-5.071 -10.968,-9.069 -17.708,-11.976c-2.698,-1.163 -5.468,-2.1 -8.312,-2.808Zm109.258,5.726c-9.483,-59.902 -50.993,-101.347 -82.101,-125.943c-49.185,-38.888 -133.227,-75.927 -197.467,-96.204c1.142,-0.255 6.786,-1.513 14.582,-1.438c29.306,0.281 67.568,19.97 74.806,23.621c32.792,16.545 77.183,30.081 84.064,32.179c52.255,15.936 52.038,15.801 56.275,17.258c3.034,1.043 25.369,8.721 36.217,17.38c40.359,32.214 38.025,53.635 36.181,83.732c-0.462,7.544 -2.74,31.446 3.046,59.596l-5.682,17.021c-1.235,-6.591 -3.885,-12.191 -7.707,-16.879c-3.35,-4.11 -7.408,-7.571 -12.214,-10.323Zm81.788,-6.26c-1.858,-12.477 -1.623,-22.28 -1.564,-24.747c15.832,14.096 15.515,36.457 16.311,47.028c0.035,0.46 0.114,1.512 0.242,2.973l-8.431,-25.254l-6.558,-0Zm-516.364,15c5.537,9.478 11.659,18.374 18.311,26.563l0,36.938c0,3.004 1.07,5.462 3.209,7.374c2.14,1.912 4.757,2.868 7.853,2.868c3.095,-0 5.69,-0.956 7.784,-2.868c2.094,-1.912 3.14,-4.37 3.14,-7.374l0,-14.193c8.861,7.631 18.354,14.15 28.396,19.367c-0.678,4.137 -2.177,7.897 -4.497,11.281c-3.278,4.78 -7.784,8.49 -13.52,11.13c-5.636,2.594 -12.108,3.914 -19.415,3.959c-13.773,-12.42 -28.395,-30.14 -41.764,-50.771l-0,-44.274l10.503,-0Zm-23.536,22.473c-2.559,-4.65 -5.033,-9.393 -7.403,-14.205c0.935,0.871 1.807,1.802 2.615,2.793c2.544,3.121 4.14,6.926 4.788,11.412Zm-44.323,36.133c-1.35,-4.941 -2.518,-9.782 -3.501,-14.492c2.885,5.395 5.798,10.604 8.728,15.629c-1.657,-0.372 -3.399,-0.751 -5.227,-1.137Zm12.699,13.506c4.331,6.917 8.684,13.445 13.03,19.593c-4.072,1.414 -8.519,2.379 -13.341,2.895c-2.998,-7.26 -5.675,-14.468 -8.017,-21.541c3.526,-0.02 6.166,-0.293 7.92,-0.819c0.139,-0.041 0.275,-0.084 0.408,-0.128Zm52.769,66.427c6.694,6.412 13.121,11.847 19.151,16.346l-10.379,-0l-8.772,-16.346Zm-32.12,-1.688c-5.646,-9.651 -10.763,-19.501 -15.313,-29.344c2.741,0.504 5.355,1.204 7.843,2.1c5.69,2.048 10.243,5.166 13.657,9.354c3.414,4.188 5.121,9.605 5.121,16.251l-0,1.639l-11.308,-0Zm-63.693,13.105l-0,-17.72c3.567,7.591 7.363,15.157 11.38,22.649l-7.88,-0c-1.334,-1.449 -2.501,-3.092 -3.5,-4.929Zm165.599,-33.73c-7.977,-2.177 -14.581,-5.563 -19.159,-8.326l23.607,-0l-4.448,8.326Zm16.602,-40.786c1.235,0.454 2.476,0.888 3.725,1.303c20.635,6.86 42.362,7.488 60.351,3.435c-2.669,4.545 -6.02,9.04 -10.081,13.288c-1.181,0.143 -2.382,0.215 -3.604,0.215l-50.391,-0l0,-18.241Zm37.302,31.292c-6.593,3.952 -14.175,7.276 -22.793,9.669c-5.348,1.485 -10.522,2.078 -15.427,2.042c3.432,-3.609 7.766,-6.418 13.004,-8.427c6.054,-2.321 12.723,-3.482 20.006,-3.482c1.779,0 3.516,0.066 5.21,0.198Zm28.776,-102.779c-3.007,-0.467 -6.554,-1.494 -10.379,-3.553c2.594,0.395 5.058,1.08 7.392,2.058c1.053,0.441 2.049,0.939 2.987,1.495Zm-25.568,-19.436c-4.472,-9.75 -1.403,-16.351 -0.809,-17.629l0.004,-0.008l1.063,-1.925c0.631,-0.976 3.985,-6.162 12.463,-7.426c12.534,-1.868 28.699,6.671 34.654,18.931c1.495,3.08 2.156,5.88 2.35,8.293l-49.725,-0.236Zm144.313,34.624c-0.849,6.516 -2.614,13.169 -5.643,19.73c0.119,-5.271 1.185,-10.239 3.197,-14.905c0.724,-1.679 1.539,-3.287 2.446,-4.825Zm-20.852,40.889c-4.423,4.266 -13.389,11.861 -26.318,17.162c-0.01,-1.316 -0.101,-2.876 -0.273,-4.678c-0.182,-1.912 -0.66,-3.756 -1.433,-5.531c-0.48,-1.101 -1.126,-2.097 -1.939,-2.987c0.904,-6.994 1.563,-15.803 1.159,-25.482c0.033,-0.024 0.065,-0.048 0.097,-0.072c1.138,-0.865 2.025,-2.026 2.663,-3.483c0.344,-0.786 0.595,-1.638 0.753,-2.557c1.517,-2.082 2.482,-3.664 2.753,-4.108l3.452,-6.518c2.84,-6.254 4.634,-13.285 5.073,-20.772c1.603,0.42 3.169,0.973 4.697,1.659c3.961,1.775 7.193,4.37 9.696,7.784c2.504,3.414 3.756,7.67 3.756,12.768c-0,4.279 -0.774,8.125 -2.322,11.539c-1.547,3.414 -3.596,6.282 -6.145,8.604c-2.549,2.321 -5.326,4.074 -8.33,5.257l-0,0.683c2.64,0.82 4.916,1.958 6.828,3.414c1.912,1.457 3.459,3.164 4.643,5.121c0.437,0.723 0.834,1.456 1.19,2.197Zm49.055,34.42c0.425,-0.471 0.846,-0.943 1.262,-1.418c7.902,-9.009 13.018,-17.398 14.609,-20.094c0.248,-0.088 0.491,-0.184 0.731,-0.288c1.684,-0.728 3.163,-1.707 4.438,-2.936c1.274,-1.229 2.253,-2.663 2.936,-4.302c0.683,-1.638 1.024,-3.414 1.024,-5.326l0,-6.177c6.922,-18.528 8.002,-36.142 6.329,-51.501c4.688,2.112 8.814,4.951 12.38,8.516c3.733,3.733 6.669,8.08 8.808,13.042c2.14,4.962 3.209,10.265 3.209,15.909l0,14.203c0,5.644 -1.069,10.947 -3.209,15.909c-2.139,4.962 -5.075,9.309 -8.808,13.042c-3.733,3.732 -8.08,6.668 -13.042,8.808c-4.961,2.139 -10.265,3.209 -15.909,3.209l-7.647,0c-2.434,0 -4.804,-0.199 -7.111,-0.596Zm80.382,-89.998c1.367,16.117 0.038,31.88 -3.523,46.696c-0.521,-0.331 -1.033,-0.674 -1.536,-1.03c-2.959,-2.094 -5.349,-4.848 -7.17,-8.262c-1.82,-3.414 -2.731,-7.716 -2.731,-12.905c0,-6.646 1.821,-12.2 5.463,-16.661c2.566,-3.144 5.732,-5.757 9.497,-7.838Zm-6.492,57.273c-1.958,6.083 -4.299,11.968 -6.987,17.611c-2.353,-3.959 -3.529,-8.736 -3.529,-14.333l-0,-1.571c-0,-0.5 0.045,-1.069 0.136,-1.707l10.38,0Zm-25.25,46.175c-2.692,3.212 -5.523,6.264 -8.478,9.141c-2.588,2.518 -5.232,4.886 -7.924,7.109l-0,-16.25l16.402,-0Zm-48.542,35.506c-16.57,6.762 -33.668,9.526 -49.797,9.233l0,-22.909c12.945,-5.567 25.058,-13.036 35.645,-21.83l34.684,-0l-2.731,21.85l-39.466,-0l-0,13.656l21.665,-0Zm-83.254,4.196c-10.372,-2.92 -17.356,-6.179 -19.262,-7.068c6.43,0.137 12.873,-0.288 19.262,-1.221l-0,8.289Zm236.933,7.283l-17.857,-0c0.784,-3.609 1.155,-6.139 1.311,-7.204c2.283,-1.077 8.403,-3.965 16.546,-8.834l0,16.038Zm14.061,-25.243c8.03,-5.739 16.792,-12.88 25.274,-21.517c4.36,-1.061 9.002,-1.591 13.924,-1.591c7.01,0 13.36,1.024 19.05,3.073c1.321,0.475 2.58,1.008 3.778,1.599c-1.079,1.535 -2.236,3.062 -3.476,4.576l-0.001,0.001c-3.471,4.242 -7.637,8.652 -12.029,12.956c-0.139,-0.075 -0.28,-0.148 -0.426,-0.219c-1.684,-0.819 -3.892,-1.229 -6.623,-1.229c-2.549,0 -4.666,0.251 -6.35,0.751c-1.684,0.501 -2.936,1.161 -3.755,1.981c-0.82,0.819 -1.23,1.82 -1.23,3.004c0,2.003 0.911,3.573 2.732,4.711c1.1,0.688 2.417,1.301 3.95,1.839c-7.315,6.454 -14.134,11.968 -18.355,15.308l-10.939,-0c-1.382,-1.502 -2.584,-3.211 -3.607,-5.129c-1.821,-3.414 -2.731,-7.716 -2.731,-12.905c-0,-2.566 0.271,-4.969 0.814,-7.209Zm45.28,-46.309c1.385,-2.141 2.276,-3.648 2.598,-4.192c7.885,-13.329 11.922,-26.033 13.214,-37.69l12.821,38.407l0,4.337c-0.687,3.12 -1.588,6.292 -2.744,9.486l-22.412,-0l-3.477,-10.348Zm-441.029,-77.363c-2.04,-1.822 -4.073,-3.811 -6.082,-5.97l6.082,-0l-0,5.97Zm398.223,21.405c4.53,19.837 -5.121,36.341 -16.013,47.97l16.013,-47.97Zm-40.784,62.095l-2.55,-5.944c4.931,-12.945 8.385,-26.267 10.403,-39.428c1.956,1.703 3.598,3.732 4.925,6.088c1.821,3.232 2.731,7.306 2.731,12.222c0,7.738 -1.843,13.998 -5.531,18.777c-2.63,3.411 -5.957,6.172 -9.978,8.285Zm9.551,-60.519c0.382,-5.427 0.516,-10.788 0.404,-16.046c2.519,3.895 3.779,8.697 3.779,14.407l-0,1.639l-4.183,-0Zm-534.306,-323.108l-0,-53.15l10.117,-0c23.436,6.041 47.362,9.768 70.444,10.392c29.937,0.81 69.056,12.483 108.93,34.96c20.177,11.374 35.439,22.642 38.383,24.815c-3.522,0.099 -25.153,0.704 -42.37,11.553c-2.926,-3.138 -16.992,-18.219 -42.93,-32.039c-56.322,-30.012 -88.398,-21.346 -123.092,-5.475c-2.567,1.174 -9.533,4.789 -19.482,8.944Zm-0,72.884c31.433,-8.673 55.838,-22.566 67.549,-28.649c2.43,-1.262 20.239,-10.511 31.556,-13.307c13.921,-3.439 25.274,0.174 34.49,4.948c6.196,3.211 9.317,7.147 9.951,7.946c-2.219,0.138 -42.342,0.853 -51.698,32.263c-27.454,-1.579 -45.444,4.665 -49.179,5.962c-18.27,6.34 -32.448,17.3 -42.669,31.678l-0,-40.841Zm543.108,50.285c-2.68,-1.341 -14.231,-7.124 -34.546,-14.384l-2.822,-2.046l-0.002,-0.002c-1.576,-0.983 -5.989,-3.734 -18.555,-13.998c3.883,0.608 26.625,4.169 48.042,10.495c1.326,8.028 7.055,18.432 7.883,19.935Zm-131.825,-45.926c-27.37,-9.672 -43.733,-17.852 -47.41,-19.69c-33.916,-16.956 -57.442,-25.045 -62.588,-26.814c-4.023,-3.808 -21.563,-20.407 -54.422,-42.727c31.168,2.664 66.829,11.337 99.187,25.181c2.747,2.663 2.611,2.708 33.958,33.684l0.001,0.001c16.993,16.789 28.747,27.963 31.274,30.365Z" style="fill:#fff;"/><path d="M493.169,103.002c-0.663,-5.119 -1.297,-10.231 -1.874,-14.884c-3.301,-26.629 -3.461,-26.771 -5.416,-28.51c-26.3,-23.392 -67.353,-15.515 -77.437,-13.112c-10.31,-6.346 -25.139,-11.437 -45.255,-9.425c-33.211,3.322 -55.451,-9.72 -55.661,-9.845c-1.621,-0.981 -3.725,-1.058 -5.59,-0.203c-0.602,0.276 -14.919,6.908 -28.55,19.538c-11.884,11.013 -19.556,23.183 -22.794,35.941c-12.897,-0.645 -26.274,4.793 -35.244,9.487c-8.903,4.659 -16.882,10.407 -18.464,12.317c-1.32,1.595 -1.79,3.729 -1.18,5.533c1.845,5.458 1.502,13.189 1.171,20.667c-0.525,11.82 -1.063,24.017 6.057,32.024c-14.107,23.333 -23.713,56.205 -25.121,61.171c-0.253,0.893 -0.284,1.812 -0.091,2.68c0.125,0.562 3.15,13.952 10.486,29.613c10.028,21.406 22.785,36.081 37.915,43.617c0.451,0.225 0.909,0.424 1.363,0.635c0.576,15.054 9.545,23.234 17.467,30.453c6.17,5.623 11.498,10.48 12.907,17.939c0.323,1.704 1.495,3.111 3.127,3.776c3.55,1.445 37.27,1.219 63.719,-12.795c1.42,1.253 2.97,2.445 4.69,3.534c13.885,8.79 34.179,9.743 60.318,2.832c13.376,-3.537 23.411,-5.147 32.263,-6.568c10.961,-1.76 20.427,-3.279 31.128,-7.876c2.985,-1.283 5.863,-2.837 8.623,-4.649c13.004,-8.54 23.358,-22.788 29.654,-41.062c1.262,-3.66 3.654,-8.004 6.185,-12.602c8.699,-15.795 20.544,-37.346 3.365,-61.248c1.568,-2.696 3.034,-5.448 4.358,-8.292c0.526,0.091 1.078,0.115 1.65,0.055c2.712,-0.284 5.035,-1.138 7.04,-2.454c8.954,-5.881 11.563,-20.988 14.102,-35.683c1.902,-11.018 4.059,-23.506 8.546,-29.502c1.15,-1.538 2.742,-4.791 0.47,-9.295c-4.643,-9.215 -25.966,-23.055 -43.927,-23.807Z" style="fill-rule:nonzero;"/><path d="M483.207,91.883c-0.337,-5.151 -0.647,-10.292 -0.928,-14.973c-1.608,-26.785 -1.758,-26.937 -3.599,-28.796c-24.766,-25.011 -66.235,-19.75 -76.451,-17.991c-9.887,-6.985 -24.364,-13.005 -44.567,-12.271c-33.355,1.211 -54.724,-13.213 -54.926,-13.351c-1.555,-1.082 -3.65,-1.292 -5.566,-0.557c-0.618,0.238 -15.327,5.949 -29.73,17.691c-12.558,10.238 -20.985,21.897 -25.025,34.424c-12.83,-1.46 -26.525,3.12 -35.774,7.236c-9.18,4.086 -17.507,9.317 -19.207,11.123c-1.418,1.509 -2.022,3.608 -1.527,5.447c1.494,5.564 0.663,13.258 -0.141,20.7c-1.273,11.763 -2.583,23.902 4.016,32.343c-15.556,22.393 -27.225,54.591 -28.944,59.457c-0.31,0.875 -0.399,1.791 -0.261,2.669c0.089,0.569 2.26,14.124 8.589,30.218c8.652,21.998 20.454,37.452 35.077,45.931c0.435,0.253 0.879,0.48 1.319,0.72c-0.378,15.06 8.055,23.792 15.503,31.498c5.802,6.003 10.812,11.187 11.745,18.721c0.215,1.721 1.295,3.199 2.882,3.966c3.452,1.667 37.118,3.577 64.402,-8.734c1.338,1.341 2.808,2.628 4.456,3.825c13.301,9.651 33.493,11.887 60.018,6.646c13.573,-2.683 23.689,-3.654 32.614,-4.512c11.051,-1.062 20.594,-1.978 31.564,-5.888c3.06,-1.091 6.031,-2.46 8.9,-4.094c13.519,-7.699 24.755,-21.262 32.196,-39.1c1.491,-3.574 4.153,-7.758 6.971,-12.186c9.681,-15.212 22.868,-35.969 7.237,-60.911c1.735,-2.592 3.372,-5.245 4.874,-8c0.519,0.124 1.069,0.183 1.644,0.16c2.725,-0.112 5.096,-0.817 7.181,-2.004c9.308,-5.302 12.869,-20.213 16.333,-34.718c2.597,-10.875 5.541,-23.201 10.398,-28.902c1.245,-1.461 3.04,-4.607 1.058,-9.246c-4.05,-9.49 -24.454,-24.653 -42.331,-26.541Z" style="fill-rule:nonzero;"/><g><path d="M483.775,95.307c-0.749,-4.968 -1.472,-9.927 -2.129,-14.441c-3.762,-25.834 -3.914,-25.979 -5.777,-27.754c-25.058,-23.871 -63.018,-18.345 -72.33,-16.537c-9.749,-6.635 -23.668,-12.289 -42.317,-11.362c-30.788,1.529 -51.802,-12.161 -52.001,-12.292c-1.532,-1.028 -3.49,-1.208 -5.202,-0.478c-0.553,0.236 -13.69,5.908 -26.034,17.395c-10.761,10.018 -17.577,21.362 -20.256,33.496c-12.006,-1.271 -24.301,3.297 -32.517,7.37c-8.156,4.042 -15.424,9.181 -16.845,10.943c-1.185,1.471 -1.567,3.503 -0.953,5.273c1.857,5.354 1.739,12.789 1.626,19.979c-0.181,11.367 -0.364,23.097 6.464,31.173c-12.508,21.78 -20.583,52.982 -21.763,57.697c-0.212,0.848 -0.217,1.733 -0.015,2.579c0.131,0.548 3.292,13.607 10.518,29.071c9.88,21.138 22.121,35.926 36.383,43.951c0.424,0.24 0.855,0.455 1.283,0.681c0.927,14.539 9.478,22.876 17.03,30.233c5.882,5.731 10.962,10.68 12.466,17.941c0.345,1.659 1.47,3.074 3.005,3.797c3.338,1.571 34.68,3.051 58.904,-9.125c1.353,1.279 2.824,2.506 4.451,3.643c13.138,9.171 32.029,11.111 56.15,5.766c12.342,-2.736 21.629,-3.783 29.822,-4.707c10.144,-1.145 18.905,-2.132 28.733,-6.024c2.742,-1.086 5.377,-2.439 7.895,-4.047c11.868,-7.577 21.123,-20.789 26.501,-38.086c1.077,-3.465 3.188,-7.531 5.422,-11.836c7.676,-14.787 18.128,-34.962 1.535,-58.866c1.388,-2.52 2.679,-5.099 3.836,-7.773c0.491,0.113 1.005,0.164 1.536,0.136c2.514,-0.137 4.65,-0.844 6.48,-2.012c8.171,-5.217 10.205,-19.647 12.182,-33.684c1.482,-10.524 3.163,-22.452 7.178,-28.006c1.029,-1.425 2.424,-4.48 0.195,-8.936c-4.556,-9.116 -24.739,-23.529 -41.456,-25.158Zm-16.475,-35.175c0.732,3.324 2.2,13.4 3.509,22.397c1.953,13.408 3.707,25.182 5.319,34.096c-1.508,-1.241 -3.036,-2.482 -4.576,-3.73c-7.523,-6.101 -15.303,-12.41 -21.406,-19.692c-5.753,-6.866 -11.938,-11.992 -18.497,-15.376c-2.258,-11.139 -8.457,-22.666 -17.028,-31.769c13.356,-1.167 36.444,-0.561 52.679,14.074Zm9.587,147.524c-6.595,10.355 -14.07,22.092 -18.88,38.374c-6.205,21.002 -26.499,28.111 -43.938,26.135c1.68,-4.21 2.877,-8.772 3.56,-13.64c9.991,-8.278 18.656,-19.232 25.167,-32.148c11.842,-23.485 15.003,-50.587 8.676,-74.355c-8.163,-30.663 -34.626,-53.073 -59.636,-62.155c4.927,-2.983 12.814,-6.513 21.927,-5.951c9.99,0.617 19.394,6.106 27.95,16.316c6.768,8.078 14.957,14.719 22.878,21.141c12.275,9.955 23.872,19.358 26.193,31.589c4.805,25.329 -3.448,38.287 -13.897,54.694Zm-163.982,67.942c-9.355,-5.957 -17.825,-8.409 -25.297,-10.571c-10.288,-2.978 -18.415,-5.33 -27.106,-15.569c-20.13,-23.716 -19.628,-59.334 -8.937,-80.806c2.943,-5.91 6.465,-10.308 10.096,-12.806c-2.973,17.568 -2.449,43.121 9.447,60.939c7.165,10.733 17.273,16.89 30.045,18.302c3.369,0.373 6.676,0.482 9.906,0.342c2.524,9.77 11.357,20.925 23.117,28.809c9.907,6.643 30.491,16.611 57.021,8.729c4.437,-1.318 8.772,-3.125 12.966,-5.359c-3.468,9.163 -9.691,16.057 -18.381,20.237c-18.851,9.068 -46.775,4.374 -72.877,-12.247Zm-69.32,-162.344c3.887,-10.34 14.392,-27.85 41.067,-28.943c19.312,-0.791 34.946,-6.393 47.508,-10.895c17.294,-6.197 26.733,-9.099 35.637,-1.967c5.936,4.756 4.44,11.332 3.489,14.006c-13.91,-0.73 -25.437,3.768 -32.417,12.811c-7.381,-1.274 -15.105,-1.13 -22.945,0.518c-23.455,4.929 -43.071,22.044 -50.975,44.112c-7.296,1.262 -14.164,6.456 -19.701,14.895c-6.783,-11.445 -6.699,-31.143 -1.663,-44.537Zm144.573,149.271c-22.219,6.6 -39.49,-1.77 -47.808,-7.346c-9.908,-6.644 -16.227,-15.077 -18.315,-21.285c2.495,-0.6 4.927,-1.367 7.288,-2.302c12.506,8.858 31.138,10.509 47.316,3.974c3.154,-1.273 6.135,-2.812 8.93,-4.596c14.707,-9.39 24.272,-25.59 26.717,-45.803c2.829,-23.393 1.064,-51.924 -37.526,-65.876c-6.919,-8.074 -15.116,-14.024 -24.104,-17.661c7.839,-6.442 19.268,-5.765 25.979,-4.604c25.168,4.357 56.082,27.198 64.251,57.881c5.652,21.233 2.785,45.527 -7.867,66.654c-10.415,20.658 -26.767,35.587 -44.861,40.964Zm-113.903,-112.997c5.739,-19.67 23.355,-35.776 43.833,-40.079c8.192,-1.722 21.968,-2.56 35.597,5.881c-10.486,-0.186 -20.946,2.198 -30.307,7.084c-12.332,6.441 -21.277,16.669 -24.545,28.072c-5.932,20.702 -1.488,38.654 12.191,49.251c9.69,7.507 22.877,10.031 33.604,6.934c-7.197,9.302 -20.382,19.991 -42.164,17.584c-9.432,-1.043 -16.909,-5.606 -22.219,-13.561c-8.041,-12.046 -12.873,-37.576 -5.99,-61.166Zm74.556,44.4c-4.173,-0.461 -7.9,-2.515 -10.495,-5.782c-2.595,-3.267 -3.748,-7.358 -3.245,-11.517c0.503,-4.159 2.601,-7.89 5.908,-10.505c0.43,-0.341 0.876,-0.657 1.334,-0.95c3.047,-1.946 6.635,-2.79 10.264,-2.388c8.616,0.952 14.779,8.713 13.741,17.299c-0.504,4.16 -2.601,7.891 -5.907,10.505c-3.305,2.614 -7.427,3.8 -11.6,3.338Zm16.098,6.783c0.775,-0.495 1.53,-1.032 2.261,-1.611c5.608,-4.434 9.166,-10.761 10.019,-17.814c1.76,-14.56 -8.692,-27.721 -23.3,-29.336c-7.077,-0.783 -14.065,1.228 -19.67,5.663c-5.607,4.434 -9.165,10.761 -10.018,17.814c-0.853,7.054 1.1,13.99 5.501,19.531c0.51,0.642 1.049,1.254 1.61,1.84c-4.766,-0.7 -9.568,-2.632 -13.513,-5.688c-10.158,-7.87 -13.155,-21.268 -8.439,-37.727c2.439,-8.513 9.374,-16.284 19.03,-21.326c12.601,-6.577 27.647,-7.658 41.28,-2.966c30.583,10.525 34.809,29.549 31.746,54.874c-3.304,27.323 -19.466,37.731 -28.809,41.505c-10.782,4.355 -22.794,4.221 -32.012,0.016c1.4,-0.989 2.767,-2.043 4.091,-3.176c4.206,-3.595 10.191,-9.801 14.942,-18.993c1.837,-0.668 3.607,-1.537 5.281,-2.606Zm-79.71,-162.733c7.962,-7.469 16.503,-12.27 20.591,-14.342c7.164,4.037 27.706,13.864 55.875,12.464c20.831,-1.035 34.595,7.572 42.474,14.975c7.491,7.04 12.272,15.332 14.893,22.489c-1.482,-0.253 -2.977,-0.435 -4.489,-0.528c-14.19,-0.876 -25.807,5.617 -31.566,9.652c0.579,-6.276 -0.986,-13.924 -8.268,-19.757c-14.07,-11.27 -28.945,-5.939 -46.17,0.233c-12.471,4.469 -26.607,9.535 -44.232,10.256c-6.349,0.26 -11.954,1.282 -16.911,2.845c-0.367,-13.981 5.597,-26.836 17.803,-38.287Zm-65.211,68.99c0.107,-6.737 0.217,-13.665 -1.16,-19.911c6.279,-4.42 23.116,-14.413 37.621,-12.887c-0.042,2.241 0.045,4.502 0.272,6.78c-13.511,7.853 -20.209,20.125 -23.384,28.568c-1.284,3.413 -2.277,6.961 -2.992,10.562c-2.864,1.982 -5.605,4.737 -8.206,8.03c-2.393,-5.283 -2.279,-13.029 -2.151,-21.142Zm-15.281,90.021c1.07,-4.048 4.584,-16.826 9.745,-30.443c5.542,-14.623 10.502,-23.772 14.553,-29.501c0.461,12.55 4.156,24.222 10.616,31.58c-10.373,25.257 -9.465,62.05 12.49,87.916c4,4.713 8.023,8.113 12.041,10.684c-6.293,-0.333 -12.276,-2.102 -18.045,-5.344c-26.87,-15.101 -39.289,-57.073 -41.4,-64.892Zm61.931,97.469c-5.734,-5.588 -10.833,-10.559 -12.893,-17.82c9.562,2.404 19.697,1.986 30.28,-1.267c0.145,0.042 0.29,0.084 0.434,0.126c7.101,2.055 14.444,4.179 22.485,9.301c4.908,3.125 9.919,5.877 14.965,8.249c0.006,0.148 0.015,0.296 0.033,0.445c0.47,3.724 1.877,8.217 4.455,12.673c-17.146,7.868 -37.448,8.27 -45.328,7.88c-2.856,-8.31 -8.728,-14.031 -14.431,-19.587Zm215.938,-39.784c-2.466,4.75 -4.796,9.239 -6.162,13.634c-5.51,17.719 -15.417,30.199 -27.903,35.143c-8.458,3.35 -16.155,4.218 -25.901,5.317c-8.465,0.954 -18.06,2.036 -30.974,4.898c-20.704,4.589 -37.137,3.181 -47.524,-4.071c-5.136,-3.586 -7.956,-7.916 -9.501,-11.417c5.617,1.89 11.214,3.276 16.699,4.121c14.622,2.25 28.161,0.644 39.158,-4.645c1.779,-0.856 3.482,-1.804 5.105,-2.841c5.162,-3.295 9.525,-7.487 13.007,-12.443c0.095,0.023 0.189,0.049 0.286,0.067c11.536,2.076 24.002,0.614 34.199,-4.011c2.162,-0.982 4.21,-2.09 6.142,-3.324c9.379,-5.988 15.995,-14.893 19.302,-26.086c4.372,-14.799 11.101,-25.366 17.609,-35.585c0.455,-0.714 0.908,-1.426 1.359,-2.138c9.01,16.575 1.949,30.182 -4.901,43.381Zm24.442,-98.682c-1.058,7.511 -2.507,17.806 -5.006,22.979c1.511,-8.002 1.617,-17.128 -0.471,-28.13c-1.572,-8.286 -5.801,-15.115 -11.421,-21.324c0.027,-0.677 -0.061,-1.367 -0.304,-2.042c-1.228,-3.403 -2.752,-11.506 -4.281,-20.894c12.579,2.544 26.687,13.608 29.547,18.153c-4.766,7.849 -6.441,19.737 -8.064,31.258Z" style="fill:#fff;fill-rule:nonzero;"/><clipPath id="_clip1"><path d="M473.297,106.856c-0.439,-4.639 -0.853,-9.266 -1.231,-13.479c-2.156,-24.11 -2.289,-24.253 -3.914,-26.004c-21.851,-23.552 -57.058,-20.681 -65.717,-19.558c-8.635,-6.71 -21.157,-12.759 -38.362,-13.002c-28.406,-0.402 -47.05,-14.3 -47.226,-14.433c-1.358,-1.041 -3.151,-1.323 -4.763,-0.749c-0.52,0.186 -12.895,4.656 -24.832,14.55c-10.407,8.628 -17.251,18.716 -20.328,29.778c-10.983,-1.883 -22.526,1.616 -30.292,4.897c-7.708,3.257 -14.655,7.58 -16.051,9.125c-1.165,1.291 -1.619,3.148 -1.143,4.82c1.438,5.06 0.954,11.928 0.487,18.571c-0.74,10.5 -1.5,21.335 4.374,29.206c-12.608,19.402 -21.612,47.777 -22.936,52.068c-0.238,0.772 -0.288,1.589 -0.144,2.384c0.092,0.515 2.342,12.776 8.21,27.502c8.024,20.128 18.54,34.524 31.258,42.786c0.378,0.247 0.764,0.471 1.146,0.706c0.119,13.499 7.567,21.711 14.144,28.96c5.123,5.646 9.547,10.522 10.564,17.325c0.233,1.554 1.198,2.929 2.573,3.688c2.993,1.65 31.756,4.867 54.659,-4.964c1.18,1.263 2.472,2.484 3.912,3.631c11.625,9.256 28.909,12.164 51.372,8.644c11.495,-1.802 20.093,-2.222 27.678,-2.593c9.392,-0.461 17.502,-0.857 26.742,-3.876c2.577,-0.843 5.07,-1.939 7.468,-3.277c11.302,-6.306 20.485,-17.977 26.306,-33.654c1.166,-3.141 3.314,-6.777 5.587,-10.625c7.809,-13.22 18.444,-31.26 4.383,-54.342c1.404,-2.248 2.722,-4.557 3.922,-6.962c0.446,0.134 0.916,0.212 1.406,0.217c2.32,0.021 4.322,-0.506 6.064,-1.478c7.782,-4.343 10.381,-17.566 12.909,-30.429c1.896,-9.644 4.044,-20.575 8.019,-25.474c1.018,-1.256 2.456,-3.999 0.63,-8.251c-3.732,-8.698 -21.575,-23.216 -36.874,-25.708Z" clip-rule="nonzero"/></clipPath><g clip-path="url(#_clip1)"><path d="M247.039,28.151l5.088,-3.466l103.356,157.215l-92.852,-163.638l5.404,-2.95l5.497,-2.772l81.951,169.36l-70.699,-174.358l5.743,-2.219l5.812,-2.031l59.144,178.608l-47.336,-182.094l5.984,-1.451l6.027,-1.255l35.325,184.8l-23.163,-186.715l6.122,-0.657l6.14,-0.458l10.901,187.83l1.407,-188.14l6.155,0.146l6.147,0.348l-13.709,187.646l25.952,-186.347l6.083,0.949l6.049,1.147l-38.084,184.251l50.053,-181.365l5.908,1.734l5.847,1.927l-61.808,177.704l73.298,-173.281l5.63,2.491l5.546,2.674l-84.474,168.116l95.289,-162.231l5.257,3.205l5.149,3.375l-105.695,155.651l115.649,-148.405l4.794,3.863l4.664,4.018l-125.107,140.524l134.03,-132.04l4.249,4.456l4.1,4.592l-142.379,122.992l150.118,-113.416l3.631,4.972l3.466,5.089l-157.215,103.355l163.638,-92.851l2.95,5.403l2.772,5.498l-169.36,81.95l174.358,-70.698l2.219,5.743l2.031,5.812l-178.608,59.143l182.094,-47.335l1.451,5.983l1.255,6.028l-184.8,35.324l186.715,-23.162l0.657,6.122l0.458,6.14l-187.83,10.9l188.14,1.408l-0.146,6.155l-0.348,6.147l-187.646,-13.71l186.347,25.953l-0.949,6.083l-1.147,6.049l-184.251,-38.085l181.366,50.054l-1.735,5.907l-1.927,5.848l-177.704,-61.809l173.281,73.299l-2.491,5.63l-2.674,5.546l-168.116,-84.475l162.231,95.289l-3.205,5.258l-3.375,5.149l-155.651,-105.696l148.405,115.65l-3.863,4.793l-4.018,4.665l-140.524,-125.108l132.04,134.031l-4.456,4.249l-4.592,4.1l-122.992,-142.38l113.416,150.119l-4.972,3.631l-5.089,3.466l-103.355,-157.216l92.851,163.639l-5.403,2.95l-5.498,2.772l-81.95,-169.361l70.698,174.358l-5.743,2.22l-5.812,2.031l-59.143,-178.609l47.335,182.095l-5.983,1.451l-6.028,1.255l-35.324,-184.801l23.162,186.715l-6.122,0.658l-6.139,0.458l-10.901,-187.831l-1.407,188.141l-6.156,-0.146l-6.146,-0.349l13.709,-187.646l-25.953,186.348l-6.083,-0.949l-6.049,-1.147l38.085,-184.252l-50.054,181.366l-5.907,-1.734l-5.848,-1.928l61.809,-177.704l-73.299,173.281l-5.63,-2.491l-5.546,-2.673l84.475,-168.117l-95.289,162.232l-5.257,-3.205l-5.15,-3.375l105.696,-155.652l-115.65,148.406l-4.793,-3.863l-4.665,-4.019l125.108,-140.524l-134.031,132.041l-4.249,-4.456l-4.1,-4.593l142.38,-122.992l-150.119,113.417l-3.631,-4.972l-3.466,-5.089l157.216,-103.356l-163.639,92.852l-2.95,-5.404l-2.772,-5.497l169.361,-81.951l-174.358,70.699l-2.22,-5.743l-2.031,-5.812l178.609,-59.144l-182.095,47.336l-1.451,-5.984l-1.255,-6.027l184.801,-35.325l-186.715,23.163l-0.658,-6.122l-0.457,-6.14l187.83,-10.901l-188.141,-1.407l0.147,-6.155l0.348,-6.147l187.646,13.709l-186.348,-25.952l0.949,-6.083l1.147,-6.049l184.252,38.084l-181.366,-50.053l1.734,-5.907l1.928,-5.848l177.704,61.808l-173.281,-73.298l2.491,-5.63l2.674,-5.546l168.116,84.474l-162.232,-95.289l3.205,-5.257l3.375,-5.149l155.652,105.695l-148.406,-115.649l3.863,-4.794l4.019,-4.664l140.524,125.107l-132.041,-134.03l4.456,-4.249l4.593,-4.1l122.992,142.379l-113.417,-150.118l4.973,-3.631Z" style="fill:#fff;"/></g><path d="M469.672,99.27c-5.045,-3.905 -9.93,-8.013 -14.116,-12.577c-6.093,-6.643 -12.511,-11.696 -19.171,-15.207c-2.379,-7.791 -6.431,-15.601 -11.705,-22.656c11.475,-0.11 25.514,1.956 36.929,10.58c1.022,4.402 2.695,12.926 4.218,20.657l-0,0.001c1.353,6.869 2.636,13.322 3.845,19.202Zm-111.773,129.199c3.441,-3.892 7.254,-9.093 10.504,-15.684c1.469,-0.737 2.889,-1.587 4.25,-2.546c0.937,-0.661 1.848,-1.375 2.725,-2.139c6.747,-5.874 10.804,-14.022 11.421,-22.946c1.276,-18.422 -12.673,-34.448 -31.095,-35.725c-8.924,-0.617 -17.558,2.276 -24.303,8.15c-6.747,5.874 -10.804,14.023 -11.421,22.946c-0.217,3.13 -0.002,6.224 0.622,9.212c-6.425,-6.695 -7.981,-17.074 -5.092,-29.533c1.722,-7.43 7.501,-14.247 15.576,-18.938c11.177,-6.492 24.84,-8.027 37.481,-4.248c11.331,3.387 18.979,8.017 23.864,14.032c7.359,9.064 8.295,20.983 7.324,35.001c-1.728,24.947 -15.614,35.168 -23.895,38.946c-5.777,2.636 -12.05,3.792 -17.961,3.472Zm-112.198,-106.39c3,-9.415 11.633,-25.439 35.406,-27.404c20.526,-1.696 36.89,-8.317 50.026,-13.684c6.652,-2.719 12.091,-4.891 16.814,-6.065c5.433,-1.351 9.65,-1.261 13.827,1.8c1.434,1.051 2.11,2.323 2.379,3.553c-12.563,1.006 -22.89,5.953 -29.838,14.091c-7.294,-0.559 -14.79,0.088 -22.317,2.009c-24.791,6.323 -45.008,25.013 -53.32,48.613c-4.796,1.723 -9.362,4.824 -13.447,9.237c-2.927,-10.027 -2.54,-22.703 0.47,-32.15Zm-1.737,139.931c-6.354,-5.233 -11.756,-11.925 -16.286,-18.79c-9.356,-14.179 -14.975,-29.244 -17.03,-35.303c1.152,-5.304 3.885,-17.093 7.913,-29.618c1.827,-5.679 3.602,-10.544 5.306,-14.711c2.016,5.832 4.748,11.054 8.083,15.298c-7.571,24.769 -5.455,57.59 12.014,83.124Zm80.584,44.653c0.522,1.977 1.249,4.072 2.201,6.214c-12.531,5.058 -26.002,6.48 -33.95,6.765c-3.919,-7.342 -9.802,-12.78 -15.647,-17.996c-2.359,-2.106 -4.645,-4.076 -6.648,-6.171c6.455,-0.092 13.051,-1.232 19.759,-3.438c6.507,1.601 13.267,3.364 20.728,7.685c4.472,2.59 9.004,4.904 13.557,6.941Zm41.278,10.486c14.139,0.689 27.013,-1.959 37.547,-7.62c2.001,-1.076 3.908,-2.255 5.719,-3.533c4.717,-3.326 8.785,-7.321 12.154,-11.897c12.146,1.015 24.734,-1.337 35.032,-6.574c2.435,-1.238 4.728,-2.619 6.882,-4.138c10.515,-7.417 17.687,-18.075 20.857,-31.257c2.547,-10.591 6.416,-19.08 10.57,-26.848c1.432,10.045 -3.119,19.191 -7.211,28.158c-2.445,5.355 -4.719,10.427 -5.974,15.34c-4.192,16.401 -12.296,28.419 -23.433,33.408l-0.001,-0c-8.008,3.588 -15.421,4.672 -24.785,6.127c-8.82,1.371 -18.816,2.931 -32.196,6.501c-13.909,3.712 -25.852,4.619 -35.161,2.333Zm42.133,-251.497c-8.551,0.804 -15.967,3.72 -21.702,6.857c-1.625,-5.208 -4.881,-10.38 -10.673,-14.625c-16.895,-12.382 -33.779,-6.49 -53.287,1.481c-12.082,4.936 -25.757,10.594 -43.114,12.028c-3.76,0.311 -7.273,0.855 -10.558,1.594c1.133,-9.898 6.024,-19.233 14.462,-27.946c5.837,-6.028 12.119,-10.41 16.342,-13.017c9.895,4.552 31.044,12.143 58.321,9.648c19.176,-1.754 32.302,5.642 39.922,12.201c4.233,3.644 7.637,7.718 10.287,11.779Zm-70.064,181.778c14.183,6.083 32.121,5.913 47.662,-1.178c3.52,-1.606 6.827,-3.507 9.909,-5.681c16.01,-11.293 26.005,-29.956 27.595,-52.905c1.097,-15.843 -0.021,-33.631 -10.381,-48.37c-6.768,-9.631 -17.472,-18.076 -34.346,-23.687c-4.597,-4.716 -9.591,-8.678 -14.882,-11.862c4.237,-0.655 8.473,-0.298 11.534,0.104c24.195,3.177 54.79,23.78 64.067,52.813c6.491,20.316 4.869,43.93 -4.356,64.793c-8.87,20.063 -23.491,35.059 -40.378,40.884c-20.152,6.949 -36.45,-0.15 -44.373,-4.989c-4.938,-3.017 -9.012,-6.496 -12.051,-9.922Zm58.958,38.563c-1.399,1.095 -2.913,2.082 -4.539,2.956c-17.436,9.371 -44.059,5.357 -69.615,-9.443c-10.524,-6.094 -19.872,-8.44 -28.133,-10.469c-9.576,-2.352 -17.222,-4.049 -25.673,-13.148c-18.304,-19.708 -20.997,-49.375 -14.58,-70.258c1.163,15.186 5.315,31.398 14.453,43.814c9.032,12.271 21.243,19.009 36.283,20.051c2.222,0.154 4.413,0.207 6.573,0.163c4.568,9.863 14.1,20.27 26.146,27.628c10.769,6.579 32.268,16.011 59.085,8.706Zm-44.163,-93.05l-0.001,0c-2.699,-0.186 -5.163,-1.414 -6.939,-3.454c-1.776,-2.04 -2.651,-4.651 -2.464,-7.349c0.186,-2.699 1.413,-5.164 3.453,-6.94l0.004,-0.003c0.268,-0.233 0.545,-0.45 0.832,-0.652c1.893,-1.336 4.171,-1.97 6.514,-1.808c5.571,0.386 9.79,5.233 9.404,10.804c-0.187,2.699 -1.414,5.163 -3.454,6.939c-2.039,1.775 -4.651,2.65 -7.349,2.463Zm-73.455,-35.195c4.364,-18.42 19.867,-33.97 38.537,-38.733c2.297,-0.586 5.095,-1.117 8.246,-1.349c-2.277,1.009 -4.502,2.142 -6.666,3.4l-0.001,0c-13.881,8.067 -23.493,20.468 -26.599,33.863c-5.651,24.375 1.022,44.911 17.504,56.587c6.655,4.715 14.507,7.508 22.324,8.331c-6.341,4.222 -14.8,7.114 -25.915,6.345c-7.904,-0.547 -14.319,-4.121 -19.082,-10.593c-8.183,-11.117 -13.716,-35.195 -8.348,-57.851Zm229.465,-21.831c-2.375,-4.437 -5.439,-8.474 -9,-12.255l-0.464,-1.539l-0.001,-0.001c-0.831,-1.996 -1.835,-5.694 -2.935,-10.339c6.545,2.747 12.644,6.816 16.007,9.869c-1.652,4.225 -2.775,9.096 -3.607,14.265Zm-287.027,-14.3c-0.121,-2.276 -0.177,-4.657 -0.262,-7.069c-0.209,-5.961 -0.46,-12.053 -1.513,-17.75c5.129,-3.601 13.357,-8.542 21.935,-10.538c-10.448,9.128 -15.77,20.508 -18.389,28.724c-0.693,2.174 -1.282,4.39 -1.771,6.633Zm257.637,83.091c-6.473,11.383 -13.762,24.306 -18.007,41.959c-3.771,15.677 -16.824,22.876 -29.994,24.12c0.34,-1.705 0.619,-3.447 0.834,-5.224c9.675,-9.268 17.902,-21.044 23.921,-34.658c11.542,-26.102 13.422,-55.756 5.244,-81.351c-8.894,-27.834 -31.418,-48.807 -54.838,-60.069c2.081,-0.467 4.304,-0.731 6.636,-0.683c8.835,0.181 17.232,4.957 25.234,13.682c7.639,8.33 16.69,15.091 25.466,21.603c6.323,4.692 12.486,9.235 17.417,14.13c4.269,4.238 7.612,8.684 8.874,13.901c5.786,23.937 -1.669,36.553 -10.787,52.59Z"/></g><g><path d="M75.543,461.692c-6.919,0 -13.337,-1.07 -19.255,-3.209c-5.918,-2.14 -10.674,-5.417 -14.271,-9.832c-3.596,-4.416 -5.394,-10.083 -5.394,-17.002l0,-1.571c0,-0.5 0.046,-1.069 0.137,-1.707l26.493,0c-0.091,0.364 -0.137,0.638 -0.137,0.82l0,0.819c0,1.639 0.387,3.186 1.161,4.643c0.774,1.457 2.071,2.663 3.892,3.619c1.821,0.956 4.37,1.434 7.647,1.434c3.733,-0 6.51,-0.273 8.331,-0.82c1.82,-0.546 3.049,-1.274 3.687,-2.185c0.637,-0.91 0.956,-1.866 0.956,-2.867c-0,-1.912 -0.911,-3.392 -2.732,-4.439c-1.82,-1.047 -4.21,-1.911 -7.169,-2.594c-2.959,-0.683 -6.214,-1.389 -9.764,-2.117c-3.551,-0.728 -7.124,-1.707 -10.72,-2.936c-3.596,-1.229 -6.874,-2.891 -9.833,-4.984c-2.958,-2.094 -5.348,-4.848 -7.169,-8.262c-1.821,-3.414 -2.731,-7.716 -2.731,-12.905c-0,-6.646 1.821,-12.2 5.462,-16.661c3.642,-4.461 8.49,-7.852 14.544,-10.174c6.054,-2.321 12.723,-3.482 20.006,-3.482c7.01,0 13.36,1.024 19.05,3.073c5.69,2.048 10.243,5.166 13.657,9.354c3.414,4.188 5.121,9.605 5.121,16.251l-0,1.639l-26.22,-0l-0,-0.547c-0,-1.638 -0.364,-3.141 -1.093,-4.506c-0.728,-1.366 -1.934,-2.458 -3.619,-3.278c-1.684,-0.819 -3.892,-1.229 -6.623,-1.229c-2.549,0 -4.666,0.251 -6.35,0.751c-1.684,0.501 -2.936,1.161 -3.755,1.981c-0.82,0.819 -1.229,1.82 -1.229,3.004c-0,2.003 0.91,3.573 2.731,4.711c1.821,1.138 4.233,2.071 7.238,2.8c3.004,0.728 6.327,1.456 9.969,2.185c3.641,0.728 7.26,1.661 10.856,2.799c3.596,1.138 6.897,2.709 9.901,4.712c3.004,2.002 5.417,4.62 7.238,7.852c1.82,3.232 2.731,7.306 2.731,12.222c-0,7.738 -1.844,13.998 -5.531,18.777c-3.687,4.78 -8.74,8.285 -15.158,10.515c-6.419,2.231 -13.77,3.346 -22.055,3.346Zm89.175,0c-7.375,0 -13.725,-1.32 -19.051,-3.96c-5.326,-2.64 -9.4,-6.35 -12.222,-11.13c-2.822,-4.78 -4.233,-10.31 -4.233,-16.592l-0,-63.364l28.814,-0l0,63.501c0,3.004 1.07,5.462 3.209,7.374c2.14,1.912 4.757,2.868 7.853,2.868c3.095,-0 5.69,-0.956 7.784,-2.868c2.094,-1.912 3.14,-4.37 3.14,-7.374l0,-63.501l28.815,-0l-0,63.364c-0,6.282 -1.639,11.812 -4.916,16.592c-3.278,4.78 -7.784,8.49 -13.52,11.13c-5.735,2.64 -12.336,3.96 -19.801,3.96l-5.872,0Zm58.994,-1.365l0,-93.681l50.255,-0c4.643,-0 8.922,0.819 12.836,2.458c3.915,1.638 7.033,4.074 9.355,7.306c2.321,3.232 3.482,7.26 3.482,12.085c-0,4.37 -0.728,8.08 -2.185,11.13c-1.457,3.05 -3.368,5.531 -5.736,7.443c-2.367,1.912 -4.961,3.368 -7.784,4.37l0,0.546c2.185,0.546 4.348,1.366 6.487,2.458c2.14,1.092 4.074,2.526 5.804,4.302c1.73,1.775 3.095,3.869 4.097,6.281c1.001,2.413 1.502,5.213 1.502,8.399c-0,5.371 -1.32,10.083 -3.96,14.134c-2.64,4.051 -6.055,7.192 -10.242,9.423c-4.188,2.23 -8.695,3.346 -13.52,3.346l-50.391,-0Zm26.356,-21.031l15.705,0c1.73,0 3.232,-0.364 4.506,-1.092c1.275,-0.729 2.254,-1.798 2.936,-3.21c0.683,-1.411 1.025,-3.118 1.025,-5.121c-0,-1.82 -0.387,-3.254 -1.161,-4.301c-0.774,-1.047 -1.775,-1.821 -3.004,-2.322c-1.23,-0.501 -2.572,-0.751 -4.029,-0.751l-15.978,0l0,16.797Zm0,-36.735l15.705,0c1.73,0 3.095,-0.41 4.097,-1.229c1.001,-0.819 1.707,-1.912 2.116,-3.277c0.41,-1.366 0.615,-2.777 0.615,-4.234c-0,-2.731 -0.66,-4.62 -1.98,-5.667c-1.32,-1.047 -2.936,-1.57 -4.848,-1.57l-15.705,-0l0,15.977Zm130.553,59.131c-4.188,0 -7.693,-0.569 -10.515,-1.707c-2.823,-1.138 -4.985,-2.981 -6.487,-5.531c-1.502,-2.549 -2.253,-6.008 -2.253,-10.378c-0,-1.366 -0.091,-3.005 -0.274,-4.916c-0.182,-1.912 -0.66,-3.756 -1.433,-5.531c-0.774,-1.775 -1.981,-3.278 -3.619,-4.507c-1.639,-1.229 -3.915,-1.843 -6.828,-1.843l-7.921,-0l0,33.048l-27.995,-0l0,-93.681l52.44,-0c4.461,-0 8.671,0.887 12.631,2.663c3.961,1.775 7.193,4.37 9.696,7.784c2.504,3.414 3.756,7.67 3.756,12.768c-0,4.279 -0.774,8.125 -2.322,11.539c-1.547,3.414 -3.596,6.282 -6.145,8.604c-2.549,2.321 -5.326,4.074 -8.33,5.257l-0,0.683c2.64,0.82 4.916,1.958 6.828,3.414c1.912,1.457 3.459,3.164 4.643,5.121c1.183,1.958 2.071,3.983 2.663,6.077c0.592,2.094 0.887,4.143 0.887,6.145c0,1.366 0.046,2.937 0.137,4.712c0.091,1.775 0.341,3.482 0.751,5.121c0.41,1.639 1.093,3.095 2.049,4.37c0.955,1.274 2.298,2.139 4.028,2.594l0,5.599c-2.458,1.002 -5.144,1.685 -8.057,2.049c-2.913,0.364 -5.69,0.546 -8.33,0.546Zm-39.33,-55.307l13.929,-0c1.366,-0 2.618,-0.433 3.756,-1.297c1.138,-0.865 2.025,-2.026 2.663,-3.483c0.637,-1.456 0.956,-3.141 0.956,-5.053c-0,-2.913 -0.683,-5.052 -2.049,-6.418c-1.365,-1.365 -3.004,-2.048 -4.916,-2.048l-14.339,-0l0,18.299Zm102.558,55.307c-5.645,0 -10.948,-1.07 -15.91,-3.209c-4.962,-2.14 -9.309,-5.076 -13.041,-8.808c-3.733,-3.733 -6.669,-8.08 -8.809,-13.042c-2.139,-4.962 -3.209,-10.265 -3.209,-15.909l0,-14.203c0,-5.644 1.07,-10.947 3.209,-15.909c2.14,-4.962 5.076,-9.309 8.809,-13.042c3.732,-3.732 8.079,-6.668 13.041,-8.808c4.962,-2.139 10.265,-3.209 15.91,-3.209l7.647,0c5.644,0 10.948,1.07 15.909,3.209c4.962,2.14 9.309,5.076 13.042,8.808c3.733,3.733 6.669,8.08 8.808,13.042c2.14,4.962 3.209,10.265 3.209,15.909l0,14.203c0,5.644 -1.069,10.947 -3.209,15.909c-2.139,4.962 -5.075,9.309 -8.808,13.042c-3.733,3.732 -8.08,6.668 -13.042,8.808c-4.961,2.139 -10.265,3.209 -15.909,3.209l-7.647,0Zm3.823,-21.303c2.094,-0 3.983,-0.365 5.668,-1.093c1.684,-0.728 3.163,-1.707 4.438,-2.936c1.274,-1.229 2.253,-2.663 2.936,-4.302c0.683,-1.638 1.024,-3.414 1.024,-5.326l0,-26.219c0,-1.912 -0.341,-3.687 -1.024,-5.326c-0.683,-1.639 -1.662,-3.096 -2.936,-4.37c-1.275,-1.275 -2.754,-2.253 -4.438,-2.936c-1.685,-0.683 -3.574,-1.024 -5.668,-1.024c-2.003,-0 -3.869,0.364 -5.599,1.092c-1.73,0.728 -3.232,1.707 -4.506,2.936c-1.275,1.229 -2.254,2.663 -2.936,4.302c-0.683,1.639 -1.025,3.414 -1.025,5.326l0,26.219c0,1.912 0.342,3.688 1.025,5.326c0.682,1.639 1.661,3.096 2.936,4.37c1.274,1.275 2.776,2.254 4.506,2.936c1.73,0.683 3.596,1.025 5.599,1.025Zm91.36,21.303c-6.92,0 -13.338,-1.07 -19.256,-3.209c-5.917,-2.14 -10.674,-5.417 -14.27,-9.832c-3.596,-4.416 -5.394,-10.083 -5.394,-17.002l-0,-1.571c-0,-0.5 0.045,-1.069 0.136,-1.707l26.493,0c-0.091,0.364 -0.136,0.638 -0.136,0.82l-0,0.819c-0,1.639 0.386,3.186 1.16,4.643c0.774,1.457 2.071,2.663 3.892,3.619c1.821,0.956 4.37,1.434 7.648,1.434c3.732,-0 6.509,-0.273 8.33,-0.82c1.821,-0.546 3.05,-1.274 3.687,-2.185c0.637,-0.91 0.956,-1.866 0.956,-2.867c0,-1.912 -0.91,-3.392 -2.731,-4.439c-1.821,-1.047 -4.211,-1.911 -7.17,-2.594c-2.958,-0.683 -6.213,-1.389 -9.764,-2.117c-3.55,-0.728 -7.124,-1.707 -10.72,-2.936c-3.596,-1.229 -6.873,-2.891 -9.832,-4.984c-2.959,-2.094 -5.349,-4.848 -7.17,-8.262c-1.82,-3.414 -2.731,-7.716 -2.731,-12.905c0,-6.646 1.821,-12.2 5.463,-16.661c3.641,-4.461 8.489,-7.852 14.543,-10.174c6.055,-2.321 12.723,-3.482 20.006,-3.482c7.011,0 13.361,1.024 19.051,3.073c5.69,2.048 10.242,5.166 13.656,9.354c3.414,4.188 5.121,9.605 5.121,16.251l-0,1.639l-26.22,-0l0,-0.547c0,-1.638 -0.364,-3.141 -1.092,-4.506c-0.729,-1.366 -1.935,-2.458 -3.619,-3.278c-1.684,-0.819 -3.892,-1.229 -6.623,-1.229c-2.55,0 -4.666,0.251 -6.35,0.751c-1.685,0.501 -2.937,1.161 -3.756,1.981c-0.819,0.819 -1.229,1.82 -1.229,3.004c0,2.003 0.91,3.573 2.731,4.711c1.821,1.138 4.234,2.071 7.238,2.8c3.004,0.728 6.327,1.456 9.969,2.185c3.642,0.728 7.26,1.661 10.857,2.799c3.596,1.138 6.896,2.709 9.9,4.712c3.005,2.002 5.417,4.62 7.238,7.852c1.821,3.232 2.731,7.306 2.731,12.222c0,7.738 -1.843,13.998 -5.531,18.777c-3.687,4.78 -8.739,8.285 -15.158,10.515c-6.418,2.231 -13.77,3.346 -22.054,3.346Zm45.884,-1.365l31.273,-93.681l35.642,-0l31.273,93.681l-29.771,-0l-5.599,-16.661l-29.77,0l-5.463,16.661l-27.585,-0Zm39.603,-36.462l16.66,-0l-7.92,-28.405l-0.683,0l-8.057,28.405Zm-548.976,145.727c-6.919,0 -13.337,-1.069 -19.255,-3.209c-5.918,-2.139 -10.674,-5.417 -14.271,-9.832c-3.596,-4.416 -5.394,-10.083 -5.394,-17.002l0,-1.571c0,-0.5 0.046,-1.069 0.137,-1.707l26.493,0c-0.091,0.365 -0.137,0.638 -0.137,0.82l0,0.819c0,1.639 0.387,3.187 1.161,4.643c0.774,1.457 2.071,2.663 3.892,3.619c1.821,0.956 4.37,1.434 7.647,1.434c3.733,-0 6.51,-0.273 8.331,-0.819c1.82,-0.547 3.049,-1.275 3.687,-2.185c0.637,-0.911 0.956,-1.867 0.956,-2.868c-0,-1.912 -0.911,-3.391 -2.732,-4.438c-1.82,-1.047 -4.21,-1.912 -7.169,-2.595c-2.959,-0.683 -6.214,-1.388 -9.764,-2.117c-3.551,-0.728 -7.124,-1.707 -10.72,-2.936c-3.596,-1.229 -6.874,-2.89 -9.833,-4.984c-2.958,-2.094 -5.348,-4.848 -7.169,-8.262c-1.821,-3.414 -2.731,-7.716 -2.731,-12.905c-0,-6.646 1.821,-12.2 5.462,-16.661c3.642,-4.461 8.49,-7.852 14.544,-10.174c6.054,-2.321 12.723,-3.482 20.006,-3.482c7.01,0 13.36,1.024 19.05,3.073c5.69,2.048 10.243,5.166 13.657,9.354c3.414,4.188 5.121,9.605 5.121,16.251l-0,1.639l-26.22,-0l-0,-0.547c-0,-1.638 -0.364,-3.14 -1.093,-4.506c-0.728,-1.366 -1.934,-2.458 -3.619,-3.278c-1.684,-0.819 -3.892,-1.229 -6.623,-1.229c-2.549,0 -4.666,0.251 -6.35,0.751c-1.684,0.501 -2.936,1.161 -3.755,1.981c-0.82,0.819 -1.229,1.82 -1.229,3.004c-0,2.003 0.91,3.573 2.731,4.711c1.821,1.138 4.233,2.072 7.238,2.8c3.004,0.728 6.327,1.456 9.969,2.185c3.641,0.728 7.26,1.661 10.856,2.799c3.596,1.138 6.897,2.709 9.901,4.712c3.004,2.003 5.417,4.62 7.238,7.852c1.82,3.232 2.731,7.306 2.731,12.222c-0,7.739 -1.844,13.998 -5.531,18.777c-3.687,4.78 -8.74,8.285 -15.158,10.516c-6.419,2.23 -13.77,3.345 -22.055,3.345Zm76.338,-1.365l-0,-35.916l-30.999,-57.765l32.228,-0l14.066,30.726l0.683,-0l14.338,-30.726l29.361,-0l-30.863,57.765l0,35.916l-28.814,-0Zm100.782,1.365c-6.919,0 -13.337,-1.069 -19.255,-3.209c-5.918,-2.139 -10.675,-5.417 -14.271,-9.832c-3.596,-4.416 -5.394,-10.083 -5.394,-17.002l0,-1.571c0,-0.5 0.046,-1.069 0.137,-1.707l26.492,0c-0.091,0.365 -0.136,0.638 -0.136,0.82l-0,0.819c-0,1.639 0.387,3.187 1.161,4.643c0.774,1.457 2.071,2.663 3.892,3.619c1.82,0.956 4.37,1.434 7.647,1.434c3.733,-0 6.51,-0.273 8.33,-0.819c1.821,-0.547 3.05,-1.275 3.687,-2.185c0.638,-0.911 0.956,-1.867 0.956,-2.868c0,-1.912 -0.91,-3.391 -2.731,-4.438c-1.821,-1.047 -4.21,-1.912 -7.169,-2.595c-2.959,-0.683 -6.214,-1.388 -9.764,-2.117c-3.551,-0.728 -7.124,-1.707 -10.72,-2.936c-3.597,-1.229 -6.874,-2.89 -9.833,-4.984c-2.959,-2.094 -5.348,-4.848 -7.169,-8.262c-1.821,-3.414 -2.732,-7.716 -2.732,-12.905c0,-6.646 1.821,-12.2 5.463,-16.661c3.642,-4.461 8.489,-7.852 14.544,-10.174c6.054,-2.321 12.723,-3.482 20.006,-3.482c7.01,0 13.36,1.024 19.05,3.073c5.69,2.048 10.242,5.166 13.656,9.354c3.414,4.188 5.121,9.605 5.121,16.251l0,1.639l-26.219,-0l-0,-0.547c-0,-1.638 -0.365,-3.14 -1.093,-4.506c-0.728,-1.366 -1.935,-2.458 -3.619,-3.278c-1.684,-0.819 -3.892,-1.229 -6.623,-1.229c-2.549,0 -4.666,0.251 -6.35,0.751c-1.684,0.501 -2.936,1.161 -3.756,1.981c-0.819,0.819 -1.229,1.82 -1.229,3.004c0,2.003 0.911,3.573 2.732,4.711c1.82,1.138 4.233,2.072 7.237,2.8c3.005,0.728 6.328,1.456 9.969,2.185c3.642,0.728 7.261,1.661 10.857,2.799c3.596,1.138 6.896,2.709 9.901,4.712c3.004,2.003 5.417,4.62 7.237,7.852c1.821,3.232 2.732,7.306 2.732,12.222c-0,7.739 -1.844,13.998 -5.531,18.777c-3.687,4.78 -8.74,8.285 -15.158,10.516c-6.419,2.23 -13.77,3.345 -22.055,3.345Zm72.104,-1.365l0,-71.149l-23.488,0l-0,-22.532l75.928,-0l-0,22.532l-23.625,0l-0,71.149l-28.815,-0Zm62.272,-0l0,-93.681l70.329,-0l-2.731,21.85l-39.466,-0l-0,13.656l37.964,-0l-0,20.893l-37.964,0l-0,15.432l39.466,-0l2.731,21.85l-70.329,-0Zm81.937,-0l-0,-93.681l46.977,-0l13.519,49.981l0.547,0l13.246,-49.981l47.25,-0l0,93.681l-28.678,-0l0,-60.087l-0.546,-0l-16.387,60.087l-32.912,-0l-16.25,-60.087l-0.683,-0l-0,60.087l-26.083,-0Zm171.657,1.365c-6.919,0 -13.337,-1.069 -19.255,-3.209c-5.918,-2.139 -10.675,-5.417 -14.271,-9.832c-3.596,-4.416 -5.394,-10.083 -5.394,-17.002l0,-1.571c0,-0.5 0.046,-1.069 0.137,-1.707l26.493,0c-0.091,0.365 -0.137,0.638 -0.137,0.82l-0,0.819c-0,1.639 0.387,3.187 1.161,4.643c0.774,1.457 2.071,2.663 3.892,3.619c1.821,0.956 4.37,1.434 7.647,1.434c3.733,-0 6.51,-0.273 8.33,-0.819c1.821,-0.547 3.05,-1.275 3.688,-2.185c0.637,-0.911 0.955,-1.867 0.955,-2.868c0,-1.912 -0.91,-3.391 -2.731,-4.438c-1.821,-1.047 -4.21,-1.912 -7.169,-2.595c-2.959,-0.683 -6.214,-1.388 -9.764,-2.117c-3.551,-0.728 -7.124,-1.707 -10.72,-2.936c-3.596,-1.229 -6.874,-2.89 -9.833,-4.984c-2.959,-2.094 -5.348,-4.848 -7.169,-8.262c-1.821,-3.414 -2.731,-7.716 -2.731,-12.905c-0,-6.646 1.82,-12.2 5.462,-16.661c3.642,-4.461 8.49,-7.852 14.544,-10.174c6.054,-2.321 12.723,-3.482 20.006,-3.482c7.01,0 13.36,1.024 19.05,3.073c5.69,2.048 10.242,5.166 13.656,9.354c3.414,4.188 5.121,9.605 5.121,16.251l0,1.639l-26.219,-0l-0,-0.547c-0,-1.638 -0.365,-3.14 -1.093,-4.506c-0.728,-1.366 -1.934,-2.458 -3.619,-3.278c-1.684,-0.819 -3.892,-1.229 -6.623,-1.229c-2.549,0 -4.666,0.251 -6.35,0.751c-1.684,0.501 -2.936,1.161 -3.755,1.981c-0.82,0.819 -1.23,1.82 -1.23,3.004c0,2.003 0.911,3.573 2.732,4.711c1.821,1.138 4.233,2.072 7.237,2.8c3.005,0.728 6.328,1.456 9.969,2.185c3.642,0.728 7.261,1.661 10.857,2.799c3.596,1.138 6.896,2.709 9.901,4.712c3.004,2.003 5.417,4.62 7.237,7.852c1.821,3.232 2.732,7.306 2.732,12.222c-0,7.739 -1.844,13.998 -5.531,18.777c-3.687,4.78 -8.74,8.285 -15.158,10.516c-6.419,2.23 -13.77,3.345 -22.055,3.345Z" style="fill:#fff;"/></g></svg>