<?xml version="1.0" encoding="UTF-8" standalone="no"?><!DOCTYPE svg PUBLIC "-//W3C//DTD SVG 1.1//EN" "http://www.w3.org/Graphics/SVG/1.1/DTD/svg11.dtd"><svg width="100%" height="100%" viewBox="0 0 720 600" version="1.1" xmlns="http://www.w3.org/2000/svg" xmlns:xlink="http://www.w3.org/1999/xlink" xml:space="preserve" xmlns:serif="http://www.serif.com/" style="fill-rule:evenodd;clip-rule:evenodd;stroke-linejoin:round;stroke-miterlimit:2;"><rect id="Artboard3" x="0" y="0" width="720" height="600" style="fill:none;"/><path d="M84.244,461.246c-2.776,0.297 -5.676,0.446 -8.701,0.446c-6.919,0 -13.337,-1.07 -19.255,-3.209c-5.918,-2.14 -10.674,-5.417 -14.271,-9.832c-3.596,-4.416 -5.394,-10.083 -5.394,-17.002l0,-1.571c0,-0.5 0.046,-1.069 0.137,-1.707l26.493,0c-0.091,0.364 -0.137,0.638 -0.137,0.82l0,0.819c0,1.639 0.387,3.186 1.161,4.643c0.774,1.457 2.071,2.663 3.892,3.619c1.821,0.956 4.37,1.434 7.647,1.434c0.139,-0 0.276,-0.001 0.411,-0.001c3.526,-0.02 6.166,-0.293 7.92,-0.819c0.139,-0.041 0.275,-0.084 0.408,-0.128c1.597,-0.531 2.69,-1.216 3.279,-2.057c0.637,-0.91 0.956,-1.866 0.956,-2.867c-0,-1.912 -0.911,-3.392 -2.732,-4.439c-1.82,-1.047 -4.21,-1.911 -7.169,-2.594c-0.59,-0.136 -1.192,-0.274 -1.806,-0.412c-1.657,-0.372 -3.399,-0.751 -5.227,-1.137c-0.89,-0.188 -1.8,-0.377 -2.731,-0.568c-3.551,-0.728 -7.124,-1.707 -10.72,-2.936c-3.596,-1.229 -6.874,-2.891 -9.833,-4.984c-2.958,-2.094 -5.348,-4.848 -7.169,-8.262c-1.821,-3.414 -2.731,-7.716 -2.731,-12.905c-0,-6.646 1.821,-12.2 5.462,-16.661c3.642,-4.461 8.49,-7.852 14.544,-10.174c6.054,-2.321 12.723,-3.482 20.006,-3.482c7.01,-0 13.36,1.024 19.05,3.073c4.344,1.563 8.025,3.751 11.042,6.561c0.935,0.871 1.807,1.802 2.615,2.793c2.544,3.121 4.14,6.926 4.788,11.412c0.222,1.534 0.333,3.146 0.333,4.839l-0,1.639l-26.22,-0l-0,-0.547c-0,-1.638 -0.364,-3.141 -1.093,-4.506c-0.728,-1.366 -1.934,-2.458 -3.619,-3.278c-1.684,-0.819 -3.892,-1.229 -6.623,-1.229c-2.549,0 -4.666,0.251 -6.35,0.751c-1.684,0.501 -2.936,1.161 -3.755,1.981c-0.82,0.819 -1.229,1.82 -1.229,3.004c-0,2.003 0.91,3.573 2.731,4.711c1.821,1.138 4.233,2.071 7.238,2.8c3.004,0.728 6.327,1.456 9.969,2.185c3.641,0.728 7.26,1.661 10.856,2.799c3.596,1.138 6.897,2.709 9.901,4.712c3.004,2.002 5.417,4.62 7.238,7.852c1.82,3.232 2.731,7.306 2.731,12.222c-0,7.738 -1.844,13.998 -5.531,18.777c-3.687,4.78 -8.74,8.285 -15.158,10.515c-0.005,0.002 -0.009,0.003 -0.013,0.005c-4.072,1.414 -8.519,2.379 -13.341,2.895Zm44.968,-31.236l-0,-63.364l28.814,-0l0,63.501c0,3.004 1.07,5.462 3.209,7.374c2.14,1.912 4.757,2.868 7.853,2.868c3.095,-0 5.69,-0.956 7.784,-2.868c2.094,-1.912 3.14,-4.37 3.14,-7.374l0,-63.501l28.815,-0l-0,63.364c-0,1.834 -0.14,3.605 -0.419,5.311c-0.678,4.137 -2.177,7.897 -4.497,11.281c-3.278,4.78 -7.784,8.49 -13.52,11.13c-5.636,2.594 -12.108,3.914 -19.415,3.959c-0.129,0.001 -0.257,0.001 -0.386,0.001l-5.872,0c-7.375,0 -13.725,-1.32 -19.051,-3.96c-5.326,-2.64 -9.4,-6.35 -12.222,-11.13c-2.822,-4.78 -4.233,-10.31 -4.233,-16.592Zm94.5,30.317l0,-93.681l50.255,-0c1.874,-0 3.689,0.133 5.444,0.4c2.594,0.395 5.058,1.08 7.392,2.058c1.053,0.441 2.049,0.939 2.987,1.495c2.548,1.512 4.671,3.448 6.368,5.811c2.321,3.232 3.482,7.26 3.482,12.085c-0,4.37 -0.728,8.08 -2.185,11.13c-1.457,3.05 -3.368,5.531 -5.736,7.443c-2.367,1.912 -4.961,3.368 -7.784,4.37l0,0.546c2.185,0.546 4.348,1.366 6.487,2.458c2.14,1.092 4.074,2.526 5.804,4.302c1.73,1.775 3.095,3.869 4.097,6.281c1.001,2.413 1.502,5.213 1.502,8.399c-0,5.371 -1.32,10.083 -3.96,14.134c-2.64,4.051 -6.055,7.192 -10.242,9.423c-3.128,1.665 -6.433,2.709 -9.916,3.131c-1.181,0.143 -2.382,0.215 -3.604,0.215l-50.391,-0Zm26.356,-57.766l15.705,0c1.73,0 3.095,-0.41 4.097,-1.229c1.001,-0.819 1.707,-1.912 2.116,-3.277c0.41,-1.366 0.615,-2.777 0.615,-4.234c-0,-2.731 -0.66,-4.62 -1.98,-5.667c-1.32,-1.047 -2.936,-1.57 -4.848,-1.57l-15.705,-0l0,15.977Zm0,36.735l15.705,0c1.73,0 3.232,-0.364 4.506,-1.092c1.275,-0.729 2.254,-1.798 2.936,-3.21c0.683,-1.411 1.025,-3.118 1.025,-5.121c-0,-1.82 -0.387,-3.254 -1.161,-4.301c-0.774,-1.047 -1.775,-1.821 -3.004,-2.322c-1.23,-0.501 -2.572,-0.751 -4.029,-0.751l-15.978,0l0,16.797Zm107.652,-8.654c-0.497,-0.546 -1.058,-1.053 -1.68,-1.52c-1.639,-1.229 -3.915,-1.843 -6.828,-1.843l-7.921,-0l0,33.048l-27.995,-0l0,-93.681l52.44,-0c2.739,-0 5.383,0.334 7.934,1.004c1.603,0.42 3.169,0.973 4.697,1.659c3.961,1.775 7.193,4.37 9.696,7.784c2.504,3.414 3.756,7.67 3.756,12.768c-0,4.279 -0.774,8.125 -2.322,11.539c-1.547,3.414 -3.596,6.282 -6.145,8.604c-2.549,2.321 -5.326,4.074 -8.33,5.257l-0,0.683c2.64,0.82 4.916,1.958 6.828,3.414c1.912,1.457 3.459,3.164 4.643,5.121c0.437,0.723 0.834,1.456 1.19,2.197c0.609,1.266 1.1,2.56 1.473,3.88c0.592,2.094 0.887,4.143 0.887,6.145c0,1.366 0.046,2.937 0.137,4.712c0.091,1.775 0.341,3.482 0.751,5.121c0.41,1.639 1.093,3.095 2.049,4.37c0.955,1.274 2.298,2.139 4.028,2.594l0,5.599c-2.458,1.002 -5.144,1.685 -8.057,2.049c-2.913,0.364 -5.69,0.546 -8.33,0.546c-4.188,0 -7.693,-0.569 -10.515,-1.707c-2.823,-1.138 -4.985,-2.981 -6.487,-5.531c-1.502,-2.549 -2.253,-6.008 -2.253,-10.378c-0,-0.078 -0.001,-0.158 -0.001,-0.238c-0.01,-1.316 -0.101,-2.876 -0.273,-4.678c-0.182,-1.912 -0.66,-3.756 -1.433,-5.531c-0.48,-1.101 -1.126,-2.097 -1.939,-2.987Zm4.672,-31.594c0.135,-0.784 0.203,-1.615 0.203,-2.496c-0,-2.913 -0.683,-5.052 -2.049,-6.418c-1.365,-1.365 -3.004,-2.048 -4.916,-2.048l-14.339,-0l0,18.299l13.929,-0c1.327,-0 2.547,-0.409 3.659,-1.225c0.033,-0.024 0.065,-0.048 0.097,-0.072c1.138,-0.865 2.025,-2.026 2.663,-3.483c0.344,-0.786 0.595,-1.638 0.753,-2.557Zm74.346,62.048c-3.043,-0.525 -5.976,-1.396 -8.799,-2.613c-4.962,-2.14 -9.309,-5.076 -13.041,-8.808c-3.733,-3.733 -6.669,-8.08 -8.809,-13.042c-2.139,-4.962 -3.209,-10.265 -3.209,-15.909l0,-14.203c0,-0.336 0.004,-0.671 0.012,-1.004c0.119,-5.271 1.185,-10.239 3.197,-14.905c0.724,-1.679 1.539,-3.287 2.446,-4.825c1.772,-3.008 3.893,-5.747 6.363,-8.217c3.732,-3.732 8.079,-6.668 13.041,-8.808c4.962,-2.139 10.265,-3.209 15.91,-3.209l7.647,0c5.644,0 10.948,1.07 15.909,3.209c0.222,0.096 0.443,0.193 0.662,0.292c4.688,2.112 8.814,4.951 12.38,8.516c3.733,3.733 6.669,8.08 8.808,13.042c2.14,4.962 3.209,10.265 3.209,15.909l0,14.203c0,5.644 -1.069,10.947 -3.209,15.909c-2.139,4.962 -5.075,9.309 -8.808,13.042c-3.733,3.732 -8.08,6.668 -13.042,8.808c-4.961,2.139 -10.265,3.209 -15.909,3.209l-7.647,0c-2.434,0 -4.804,-0.199 -7.111,-0.596Zm25,-34.364l0,-26.219c0,-1.912 -0.341,-3.687 -1.024,-5.326c-0.683,-1.639 -1.662,-3.096 -2.936,-4.37c-1.275,-1.275 -2.754,-2.253 -4.438,-2.936c-1.685,-0.683 -3.574,-1.024 -5.668,-1.024c-2.003,-0 -3.869,0.364 -5.599,1.092c-1.73,0.728 -3.232,1.707 -4.506,2.936c-1.275,1.229 -2.254,2.663 -2.936,4.302c-0.683,1.639 -1.025,3.414 -1.025,5.326l0,26.219c0,1.912 0.342,3.688 1.025,5.326c0.682,1.639 1.661,3.096 2.936,4.37c1.274,1.275 2.776,2.254 4.506,2.936c1.73,0.683 3.596,1.025 5.599,1.025c1.797,-0 3.442,-0.268 4.937,-0.805c0.248,-0.088 0.491,-0.184 0.731,-0.288c1.684,-0.728 3.163,-1.707 4.438,-2.936c1.274,-1.229 2.253,-2.663 2.936,-4.302c0.683,-1.638 1.024,-3.414 1.024,-5.326Zm41.903,19.25c-2.353,-3.959 -3.529,-8.736 -3.529,-14.333l-0,-1.571c-0,-0.5 0.045,-1.069 0.136,-1.707l26.493,0c-0.091,0.364 -0.136,0.638 -0.136,0.82l-0,0.819c-0,1.639 0.386,3.186 1.16,4.643c0.774,1.457 2.071,2.663 3.892,3.619c1.821,0.956 4.37,1.434 7.648,1.434c3.732,-0 6.509,-0.273 8.33,-0.82c1.821,-0.546 3.05,-1.274 3.687,-2.185c0.637,-0.91 0.956,-1.866 0.956,-2.867c0,-1.912 -0.91,-3.392 -2.731,-4.439c-1.821,-1.047 -4.211,-1.911 -7.17,-2.594c-2.958,-0.683 -6.213,-1.389 -9.764,-2.117c-3.55,-0.728 -7.124,-1.707 -10.72,-2.936c-2.985,-1.02 -5.75,-2.338 -8.296,-3.954c-0.521,-0.331 -1.033,-0.674 -1.536,-1.03c-2.959,-2.094 -5.349,-4.848 -7.17,-8.262c-1.82,-3.414 -2.731,-7.716 -2.731,-12.905c0,-6.646 1.821,-12.2 5.463,-16.661c2.566,-3.144 5.732,-5.757 9.497,-7.838c1.577,-0.872 3.259,-1.65 5.046,-2.336c6.055,-2.321 12.723,-3.482 20.006,-3.482c7.011,0 13.361,1.024 19.051,3.073c5.69,2.048 10.242,5.166 13.656,9.354c0.481,0.59 0.928,1.205 1.342,1.844c2.519,3.895 3.779,8.697 3.779,14.407l-0,1.639l-26.22,-0l0,-0.547c0,-1.638 -0.364,-3.141 -1.092,-4.506c-0.729,-1.366 -1.935,-2.458 -3.619,-3.278c-1.684,-0.819 -3.892,-1.229 -6.623,-1.229c-2.55,0 -4.666,0.251 -6.35,0.751c-1.685,0.501 -2.937,1.161 -3.756,1.981c-0.819,0.819 -1.229,1.82 -1.229,3.004c0,2.003 0.91,3.573 2.731,4.711c1.821,1.138 4.234,2.071 7.238,2.8c3.004,0.728 6.327,1.456 9.969,2.185c3.642,0.728 7.26,1.661 10.857,2.799c3.596,1.138 6.896,2.709 9.9,4.712c0.815,0.542 1.586,1.131 2.313,1.764c1.956,1.703 3.598,3.732 4.925,6.088c1.821,3.232 2.731,7.306 2.731,12.222c0,7.738 -1.843,13.998 -5.531,18.777c-2.63,3.411 -5.957,6.172 -9.978,8.285c-1.615,0.848 -3.341,1.591 -5.18,2.23c-6.418,2.231 -13.77,3.346 -22.054,3.346c-6.92,0 -13.338,-1.07 -19.256,-3.209c-5.917,-2.14 -10.674,-5.417 -14.27,-9.832c-0.687,-0.844 -1.309,-1.734 -1.865,-2.669Zm149.692,14.345l-5.599,-16.661l-29.77,0l-5.463,16.661l-27.585,-0l31.273,-93.681l35.642,-0l31.273,93.681l-29.771,-0Zm-28.814,-36.462l16.66,-0l-7.92,-28.405l-0.683,0l-8.057,28.405Zm-508.007,79.632l-26.22,-0l-0,-0.547c-0,-1.638 -0.364,-3.14 -1.093,-4.506c-0.728,-1.366 -1.934,-2.458 -3.619,-3.278c-1.684,-0.819 -3.892,-1.229 -6.623,-1.229c-2.549,0 -4.666,0.251 -6.35,0.751c-1.684,0.501 -2.936,1.161 -3.755,1.981c-0.82,0.819 -1.229,1.82 -1.229,3.004c-0,2.003 0.91,3.573 2.731,4.711c1.821,1.138 4.233,2.072 7.238,2.8c3.004,0.728 6.327,1.456 9.969,2.185c3.641,0.728 7.26,1.661 10.856,2.799c3.596,1.138 6.897,2.709 9.901,4.712c3.004,2.003 5.417,4.62 7.238,7.852c1.82,3.232 2.731,7.306 2.731,12.222c-0,7.739 -1.844,13.998 -5.531,18.777c-3.687,4.78 -8.74,8.285 -15.158,10.516c-6.419,2.23 -13.77,3.345 -22.055,3.345c-6.919,0 -13.337,-1.069 -19.255,-3.209c-5.918,-2.139 -10.674,-5.417 -14.271,-9.832c-3.596,-4.416 -5.394,-10.083 -5.394,-17.002l0,-1.571c0,-0.5 0.046,-1.069 0.137,-1.707l26.493,0c-0.091,0.365 -0.137,0.638 -0.137,0.82l0,0.819c0,1.639 0.387,3.187 1.161,4.643c0.774,1.457 2.071,2.663 3.892,3.619c1.821,0.956 4.37,1.434 7.647,1.434c3.733,-0 6.51,-0.273 8.331,-0.819c1.82,-0.547 3.049,-1.275 3.687,-2.185c0.637,-0.911 0.956,-1.867 0.956,-2.868c-0,-1.912 -0.911,-3.391 -2.732,-4.438c-1.82,-1.047 -4.21,-1.912 -7.169,-2.595c-2.959,-0.683 -6.214,-1.388 -9.764,-2.117c-3.551,-0.728 -7.124,-1.707 -10.72,-2.936c-3.596,-1.229 -6.874,-2.89 -9.833,-4.984c-1.296,-0.918 -2.483,-1.962 -3.561,-3.133c-1.334,-1.449 -2.501,-3.092 -3.5,-4.929c-0.036,-0.067 -0.072,-0.133 -0.108,-0.2c-1.821,-3.414 -2.731,-7.716 -2.731,-12.905c-0,-6.646 1.821,-12.2 5.462,-16.661c3.642,-4.461 8.49,-7.852 14.544,-10.174c6.054,-2.321 12.723,-3.482 20.006,-3.482c3.945,0 7.68,0.324 11.207,0.973c2.741,0.504 5.355,1.204 7.843,2.1c5.69,2.048 10.243,5.166 13.657,9.354c3.414,4.188 5.121,9.605 5.121,16.251l-0,1.639Zm35.369,28.814l-30.999,-57.765l32.228,-0l14.066,30.726l0.683,-0l14.338,-30.726l29.361,-0l-30.863,57.765l0,35.916l-28.814,-0l-0,-35.916Zm109.133,-58.933c4.981,0.388 9.594,1.346 13.84,2.875c5.69,2.048 10.242,5.166 13.656,9.354c3.414,4.188 5.121,9.605 5.121,16.251l0,1.639l-26.219,-0l-0,-0.547c-0,-1.638 -0.365,-3.14 -1.093,-4.506c-0.728,-1.366 -1.935,-2.458 -3.619,-3.278c-1.684,-0.819 -3.892,-1.229 -6.623,-1.229c-2.549,0 -4.666,0.251 -6.35,0.751c-1.684,0.501 -2.936,1.161 -3.756,1.981c-0.819,0.819 -1.229,1.82 -1.229,3.004c0,2.003 0.911,3.573 2.732,4.711c1.82,1.138 4.233,2.072 7.237,2.8c3.005,0.728 6.328,1.456 9.969,2.185c3.642,0.728 7.261,1.661 10.857,2.799c3.596,1.138 6.896,2.709 9.901,4.712c3.004,2.003 5.417,4.62 7.237,7.852c1.821,3.232 2.732,7.306 2.732,12.222c-0,7.739 -1.844,13.998 -5.531,18.777c-3.687,4.78 -8.74,8.285 -15.158,10.516c-6.419,2.23 -13.77,3.345 -22.055,3.345c-6.919,0 -13.337,-1.069 -19.255,-3.209c-5.918,-2.139 -10.675,-5.417 -14.271,-9.832c-3.596,-4.416 -5.394,-10.083 -5.394,-17.002l0,-1.571c0,-0.5 0.046,-1.069 0.137,-1.707l26.492,0c-0.091,0.365 -0.136,0.638 -0.136,0.82l-0,0.819c-0,1.639 0.387,3.187 1.161,4.643c0.774,1.457 2.071,2.663 3.892,3.619c1.82,0.956 4.37,1.434 7.647,1.434c3.733,-0 6.51,-0.273 8.33,-0.819c1.821,-0.547 3.05,-1.275 3.687,-2.185c0.638,-0.911 0.956,-1.867 0.956,-2.868c0,-1.912 -0.91,-3.391 -2.731,-4.438c-1.821,-1.047 -4.21,-1.912 -7.169,-2.595c-2.959,-0.683 -6.214,-1.388 -9.764,-2.117c-3.551,-0.728 -7.124,-1.707 -10.72,-2.936c-3.597,-1.229 -6.874,-2.89 -9.833,-4.984c-2.959,-2.094 -5.348,-4.848 -7.169,-8.262c-1.821,-3.414 -2.732,-7.716 -2.732,-12.905c0,-6.646 1.821,-12.2 5.463,-16.661c0.491,-0.602 1.004,-1.184 1.54,-1.747c3.432,-3.609 7.766,-6.418 13.004,-8.427c6.054,-2.321 12.723,-3.482 20.006,-3.482c1.779,0 3.516,0.066 5.21,0.198Zm92.568,23.7l-0,71.149l-28.815,-0l0,-71.149l-23.488,0l-0,-22.532l75.928,-0l-0,22.532l-23.625,0Zm33.457,71.149l0,-93.681l70.329,-0l-2.731,21.85l-39.466,-0l-0,13.656l37.964,-0l-0,20.893l-37.964,0l-0,15.432l39.466,-0l2.731,21.85l-70.329,-0Zm81.937,-0l-0,-93.681l46.977,-0l13.519,49.981l0.547,0l13.246,-49.981l47.25,-0l0,93.681l-28.678,-0l0,-60.087l-0.546,-0l-16.387,60.087l-32.912,-0l-16.25,-60.087l-0.683,-0l-0,60.087l-26.083,-0Zm170.418,-62.004c1.003,0.353 2.099,0.673 3.287,0.961c3.005,0.728 6.328,1.456 9.969,2.185c3.642,0.728 7.261,1.661 10.857,2.799c3.596,1.138 6.896,2.709 9.901,4.712c3.004,2.003 5.417,4.62 7.237,7.852c1.821,3.232 2.732,7.306 2.732,12.222c-0,7.739 -1.844,13.998 -5.531,18.777c-3.687,4.78 -8.74,8.285 -15.158,10.516c-6.419,2.23 -13.77,3.345 -22.055,3.345c-6.919,0 -13.337,-1.069 -19.255,-3.209c-5.918,-2.139 -10.675,-5.417 -14.271,-9.832c-3.596,-4.416 -5.394,-10.083 -5.394,-17.002l0,-1.571c0,-0.5 0.046,-1.069 0.137,-1.707l26.493,0c-0.091,0.365 -0.137,0.638 -0.137,0.82l-0,0.819c-0,1.639 0.387,3.187 1.161,4.643c0.774,1.457 2.071,2.663 3.892,3.619c1.821,0.956 4.37,1.434 7.647,1.434c3.733,-0 6.51,-0.273 8.33,-0.819c1.821,-0.547 3.05,-1.275 3.688,-2.185c0.637,-0.911 0.955,-1.867 0.955,-2.868c0,-1.912 -0.91,-3.391 -2.731,-4.438c-1.821,-1.047 -4.21,-1.912 -7.169,-2.595c-2.959,-0.683 -6.214,-1.388 -9.764,-2.117c-3.551,-0.728 -7.124,-1.707 -10.72,-2.936c-3.596,-1.229 -6.874,-2.89 -9.833,-4.984c-1.296,-0.918 -2.484,-1.962 -3.562,-3.133c-1.382,-1.502 -2.584,-3.211 -3.607,-5.129c-1.821,-3.414 -2.731,-7.716 -2.731,-12.905c-0,-2.566 0.271,-4.969 0.814,-7.209c0.863,-3.562 2.412,-6.713 4.648,-9.452c3.642,-4.461 8.49,-7.852 14.544,-10.174c1.962,-0.752 3.99,-1.383 6.082,-1.891c4.36,-1.061 9.002,-1.591 13.924,-1.591c7.01,0 13.36,1.024 19.05,3.073c1.321,0.475 2.58,1.008 3.778,1.599c3.964,1.954 7.257,4.539 9.878,7.755c3.414,4.188 5.121,9.605 5.121,16.251l0,1.639l-26.219,-0l-0,-0.547c-0,-1.638 -0.365,-3.14 -1.093,-4.506c-0.665,-1.248 -1.73,-2.268 -3.193,-3.059c-0.139,-0.075 -0.28,-0.148 -0.426,-0.219c-1.684,-0.819 -3.892,-1.229 -6.623,-1.229c-2.549,0 -4.666,0.251 -6.35,0.751c-1.684,0.501 -2.936,1.161 -3.755,1.981c-0.82,0.819 -1.23,1.82 -1.23,3.004c0,2.003 0.911,3.573 2.732,4.711c1.1,0.688 2.417,1.301 3.95,1.839Zm-449.322,-433.875c-1.92,-1.113 -3.916,-2.225 -5.987,-3.328c-56.322,-30.012 -88.398,-21.346 -123.092,-5.475c-2.567,1.174 -9.533,4.789 -19.482,8.944l-0,-53.15l10.117,-0c23.436,6.041 47.362,9.768 70.444,10.392c27.072,0.732 61.654,10.349 97.512,28.804c-4.802,1.381 -9.231,3.108 -12.943,4.76c-6.749,3.004 -13.037,6.627 -16.569,9.053Zm320.374,130.65c10.586,3.226 11.545,3.536 14.004,4.381c3.034,1.043 25.369,8.721 36.217,17.38c40.359,32.214 38.025,53.635 36.181,83.732c-0.462,7.544 -2.74,31.446 3.046,59.596l-5.682,17.021c-1.235,-6.591 -3.885,-12.191 -7.707,-16.879c-3.35,-4.11 -7.408,-7.571 -12.214,-10.323c-7.86,-49.647 -37.719,-86.616 -65.422,-111.821c2.021,-10.468 0.773,-21.984 -7.939,-34.105c1.568,-2.696 3.034,-5.448 4.358,-8.292c0.526,0.091 1.078,0.115 1.65,0.055c1.25,-0.131 2.416,-0.382 3.508,-0.745Zm-22.306,91.09c14.457,20.659 22.88,41.558 26.79,61.421c-7.811,3.307 -14.083,8.007 -18.927,13.941c-0.429,0.525 -0.842,1.059 -1.241,1.602c-1.165,-1.418 -2.401,-2.781 -3.709,-4.088c-5.07,-5.071 -10.968,-9.069 -17.708,-11.976c-2.698,-1.163 -5.468,-2.1 -8.312,-2.808c-2.225,-8.893 -5.133,-16.561 -7.82,-22.612c1.537,-0.818 3.042,-1.71 4.513,-2.676c10.974,-7.207 20.061,-18.478 26.414,-32.804Zm-85.059,48.719c2.056,5.792 4.043,12.821 5.16,20.562c-1.369,1.132 -2.685,2.33 -3.95,3.595c-1,1 -1.958,2.032 -2.875,3.097c-0.399,-0.628 -0.818,-1.24 -1.257,-1.839c-4.046,-5.518 -9.255,-9.732 -15.656,-12.601c-3.798,-1.703 -7.749,-2.863 -11.856,-3.473c-0.162,-0.854 -0.342,-1.712 -0.54,-2.573c5.534,-0.754 11.405,-1.951 17.605,-3.59c4.864,-1.286 9.285,-2.318 13.369,-3.178Zm-90.639,2.227c0.91,2.326 1.352,4.465 1.505,6.365l-26.015,-0.124c7.64,-1.217 16.15,-3.187 24.51,-6.241Zm-101.256,-53.324c-1.867,2.499 -3.427,5.12 -4.688,7.801c-1.868,3.967 -10.461,22.217 -0.54,51.374l-15.359,-0.073c-6.578,-10.347 -12.437,-23.012 -16.86,-38.224c-1.195,-4.107 -8.657,-29.772 11.424,-51.868c0.925,-1.018 1.907,-2.016 2.945,-2.99c0.66,0.748 1.328,1.477 2.004,2.186c5.348,10.609 11.415,19.42 18.155,26.377c0.834,1.928 1.824,3.724 2.919,5.417Zm-26.436,-175.384c-4.335,0.195 -42.32,1.797 -51.391,32.248c-27.454,-1.579 -45.444,4.665 -49.179,5.962c-18.27,6.34 -32.448,17.3 -42.669,31.678l-0,-40.841c31.433,-8.673 55.838,-22.566 67.549,-28.649c2.43,-1.262 20.239,-10.511 31.556,-13.307c13.921,-3.439 25.274,0.174 34.49,4.948c5.485,2.843 8.561,6.254 9.634,7.553c0.003,0.136 0.006,0.272 0.01,0.408Zm-86.868,234.045c-3.779,-9.56 -7.058,-19.244 -9.703,-28.899c-13.491,-49.247 -0.312,-95.472 38.226,-111.383c1.323,-0.547 8.007,-3.305 17.258,-4.803c-5.989,4.307 -10.207,8.705 -11.014,9.546l-0.002,0.002c-33.905,35.372 -19.483,86.333 -17.394,93.715c4.157,14.688 9.491,28.775 15.881,41.981l-33.252,-0.159Zm520.082,1.275c48.638,-12.286 82.029,0.829 53.104,25.254l-8.431,-25.254l-44.673,-0Zm-33.345,-155.988c-2.68,-1.341 -14.231,-7.124 -34.546,-14.384l-2.822,-2.046l-0.002,-0.002c-1.576,-0.983 -5.989,-3.734 -18.555,-13.998c3.883,0.608 26.625,4.169 48.042,10.495c1.326,8.028 7.055,18.432 7.883,19.935Zm-100.844,-100.351c16.717,1.629 36.9,16.042 41.456,25.158c2.229,4.456 0.834,7.511 -0.195,8.936c-4.015,5.554 -5.696,17.482 -7.178,28.006c-1.977,14.037 -4.011,28.467 -12.182,33.684c-1.83,1.168 -3.966,1.875 -6.48,2.012c-0.531,0.028 -1.045,-0.023 -1.536,-0.136c-1.157,2.674 -2.448,5.253 -3.836,7.773c16.593,23.904 6.141,44.079 -1.535,58.866c-2.234,4.305 -4.345,8.371 -5.422,11.836c-5.378,17.297 -14.633,30.509 -26.501,38.086c-2.518,1.608 -5.153,2.961 -7.895,4.047c-9.828,3.892 -18.589,4.879 -28.733,6.024c-8.193,0.924 -17.48,1.971 -29.822,4.707c-24.121,5.345 -43.012,3.405 -56.15,-5.766c-1.627,-1.137 -3.098,-2.364 -4.451,-3.643c-24.224,12.176 -55.566,10.696 -58.904,9.125c-1.535,-0.723 -2.66,-2.138 -3.005,-3.797c-1.504,-7.261 -6.584,-12.21 -12.466,-17.941c-7.552,-7.357 -16.103,-15.694 -17.03,-30.233c-0.428,-0.226 -0.859,-0.441 -1.283,-0.681c-14.262,-8.025 -26.503,-22.813 -36.383,-43.951c-7.226,-15.464 -10.387,-28.523 -10.518,-29.071c-0.202,-0.846 -0.197,-1.731 0.015,-2.579c1.18,-4.715 9.255,-35.917 21.763,-57.697c-6.828,-8.076 -6.645,-19.806 -6.464,-31.173c0.113,-7.19 0.231,-14.625 -1.626,-19.979c-0.614,-1.77 -0.232,-3.802 0.953,-5.273c1.421,-1.762 8.689,-6.901 16.845,-10.943c8.216,-4.073 20.511,-8.641 32.517,-7.37c2.679,-12.134 9.495,-23.478 20.256,-33.496c12.344,-11.487 25.481,-17.159 26.034,-17.395c1.712,-0.73 3.67,-0.55 5.202,0.478c0.199,0.131 21.213,13.821 52.001,12.292c18.649,-0.927 32.568,4.727 42.317,11.362c9.312,-1.808 47.272,-7.334 72.33,16.537c1.863,1.775 2.015,1.92 5.777,27.754c0.657,4.514 1.38,9.473 2.129,14.441Zm-160.533,141.484c0.671,1.368 1.511,2.802 2.514,4.269l4.452,-8.86c-0.298,-0.199 -0.593,-0.401 -0.885,-0.608c-1.253,0.496 -2.527,0.945 -3.819,1.347l-2.262,3.852Zm0.678,-42.092c0.95,0.408 1.918,0.766 2.898,1.072l2.555,-1.236c-0.396,-0.52 -0.771,-1.05 -1.124,-1.592l-4.329,1.756Zm-103.358,-72.152c0.334,2.049 0.835,3.924 1.577,5.563c0.528,-0.669 1.062,-1.315 1.601,-1.937l-2.356,-0.997c-0.32,-0.857 -0.592,-1.734 -0.822,-2.629Zm146.845,-26.271c-1.861,0.033 -3.787,0.192 -5.708,0.534l-0.747,10.231c1.536,1.009 3.038,2.095 4.503,3.257l0.676,-4.855c1.523,1.012 3.019,2.092 4.486,3.238l-1.065,5.154c1.262,1.184 2.491,2.429 3.685,3.735l1.497,-5.427c1.225,1.106 2.426,2.261 3.6,3.466l0.184,0.061l-1.548,4.452c1.364,0.532 2.678,1.083 3.946,1.653l1.923,-4.546c1.466,0.57 2.882,1.162 4.247,1.777l-2.324,4.625c1.297,0.672 2.538,1.366 3.725,2.079l2.753,-4.688c1.404,0.734 2.749,1.493 4.037,2.276l-3.212,4.729c1.194,0.836 2.325,1.693 3.396,2.571l3.701,-4.749c1.298,0.92 2.528,1.867 3.696,2.838l-4.221,4.742c1.038,1.008 2.008,2.038 2.913,3.088l4.772,-4.702c1.134,1.113 2.197,2.251 3.193,3.411l-5.352,4.623c0.827,1.164 1.586,2.348 2.28,3.55l5.956,-4.5c0.095,0.132 0.188,0.265 0.281,0.397c0.811,1.153 1.565,2.325 2.265,3.513l-6.572,4.321c0.586,1.274 1.109,2.565 1.573,3.867l7.187,-4.078c0.672,1.405 1.279,2.829 1.825,4.267l-7.785,3.767c0.352,1.326 0.652,2.66 0.903,4l8.354,-3.387c0.434,1.474 0.811,2.959 1.138,4.451l-8.881,2.941c0.158,1.325 0.274,2.653 0.354,3.98l9.361,-2.433c0.23,1.497 0.416,2.997 0.561,4.497l-9.786,1.87c0.012,1.297 -0.006,2.59 -0.049,3.877l10.156,-1.259c0.071,1.495 0.107,2.986 0.113,4.469l-10.47,0.608c-0.089,1.263 -0.199,2.518 -0.325,3.761l10.73,0.08c-0.049,1.491 -0.123,2.97 -0.216,4.434l-10.941,-0.8c-0.163,1.241 -0.354,2.466 -0.571,3.674l11.135,1.551c-0.164,1.49 -0.364,2.961 -0.6,4.411l-11.278,-2.331c-0.279,1.212 -0.586,2.407 -0.92,3.583l11.363,3.136c-0.323,1.474 -0.684,2.925 -1.083,4.352l-11.383,-3.96c-0.402,1.176 -0.832,2.332 -1.291,3.466l11.334,4.794c-0.497,1.438 -1.033,2.849 -1.609,4.23l-11.21,-5.633c-0.532,1.126 -1.093,2.228 -1.683,3.305l11.008,6.466c-0.681,1.374 -1.404,2.715 -2.167,4.021l-10.725,-7.283c-0.666,1.056 -1.362,2.085 -2.087,3.086l10.362,8.074c-0.87,1.273 -1.781,2.509 -2.733,3.705l-9.916,-8.828c-0.799,0.964 -1.627,1.897 -2.484,2.799l9.392,9.534c-1.05,1.134 -2.141,2.227 -3.271,3.276l-8.796,-10.182c-0.923,0.847 -1.876,1.661 -2.856,2.441l8.133,10.764c-0.903,0.718 -1.828,1.411 -2.773,2.078c-0.321,0.226 -0.645,0.45 -0.972,0.671l-7.412,-11.275c-0.498,0.342 -1.002,0.677 -1.513,1.003c-0.548,0.349 -1.102,0.69 -1.664,1.02l6.643,11.708c-1.339,0.763 -2.713,1.48 -4.123,2.149l-5.835,-12.059c-1.12,0.558 -2.264,1.081 -3.433,1.566l4.998,12.326c-1.45,0.557 -2.916,1.057 -4.394,1.5l-4.139,-12.499c-1.197,0.403 -2.404,0.762 -3.619,1.079l3.271,12.584c-1.511,0.332 -3.03,0.607 -4.551,0.824l-2.405,-12.581c-1.241,0.235 -2.487,0.426 -3.732,0.574l1.549,12.491c-1.536,0.104 -3.07,0.151 -4.596,0.141l-0.715,-12.316c-1.262,0.062 -2.521,0.081 -3.772,0.055l-0.091,12.056c-1.524,-0.126 -3.036,-0.311 -4.529,-0.554l0.855,-11.711c-1.257,-0.115 -2.503,-0.274 -3.735,-0.479l-1.571,11.284c-1.473,-0.363 -2.921,-0.785 -4.34,-1.265l2.227,-10.773c-1.223,-0.3 -2.426,-0.646 -3.606,-1.037l-4.144,15.014c1.324,1.066 2.731,2.105 4.22,3.104l0.899,-4.349c1.275,1.172 2.666,2.33 4.166,3.454l-0.509,3.656c1.474,0.805 3.098,1.61 4.861,2.373l0.214,-2.939c1.394,0.85 3.045,1.769 4.929,2.669l-0.016,2.207c1.691,0.549 3.476,1.041 5.347,1.449l-0.085,-1.474c1.716,0.612 3.554,1.169 5.505,1.635l0.093,0.752c1.808,0.205 3.681,0.325 5.615,0.343l-0.014,-0.071c0.212,0.026 0.424,0.05 0.638,0.073c5.015,-0.011 10.431,-0.717 16.177,-2.424c18.094,-5.377 34.446,-20.306 44.861,-40.964c5.322,-10.556 8.701,-21.902 10.045,-33.262l-0.258,-0.019c0.117,-1.912 0.176,-3.822 0.175,-5.725l0.588,0.004c0.112,-1.931 0.164,-3.859 0.156,-5.78l-0.925,0.054c-0.122,-1.911 -0.305,-3.811 -0.549,-5.696l1.266,-0.157c-0.132,-1.945 -0.327,-3.878 -0.586,-5.795l-1.604,0.306c-0.372,-1.876 -0.809,-3.732 -1.309,-5.566l1.933,-0.502c-0.313,-1.519 -0.668,-3.025 -1.065,-4.516c-0.105,-0.394 -0.214,-0.787 -0.326,-1.179l-2.252,0.746c-0.648,-1.792 -1.377,-3.551 -2.18,-5.273l2.557,-1.037c-0.708,-1.829 -1.496,-3.624 -2.357,-5.383l-2.824,1.366c-0.941,-1.641 -1.948,-3.244 -3.016,-4.806l3.047,-1.729c-0.997,-1.683 -2.061,-3.328 -3.183,-4.932l-3.222,2.119c-1.169,-1.465 -2.389,-2.888 -3.655,-4.268l3.348,-2.529c-1.23,-1.515 -2.511,-2.987 -3.837,-4.413l-3.421,2.955c-1.341,-1.28 -2.72,-2.516 -4.132,-3.704l3.445,-3.394c-1.415,-1.337 -2.868,-2.626 -4.352,-3.864l-3.417,3.837c-1.474,-1.095 -2.974,-2.14 -4.494,-3.134l3.338,-4.283c-1.568,-1.152 -3.161,-2.249 -4.774,-3.287l-3.209,4.726c-1.583,-0.905 -3.179,-1.753 -4.782,-2.544l3.032,-5.162c-1.702,-0.95 -3.415,-1.836 -5.133,-2.653l-2.806,5.585c-1.676,-0.698 -3.352,-1.33 -5.019,-1.894l2.533,-5.988c-1.821,-0.714 -3.636,-1.349 -5.438,-1.9l-2.214,6.364c-1.755,-0.45 -3.492,-0.819 -5.201,-1.106l1.85,-6.701c-0.724,-0.154 -1.443,-0.292 -2.157,-0.416c-1.062,-0.184 -2.243,-0.355 -3.508,-0.489l-1.441,6.971c-1.637,-0.12 -3.43,-0.171 -5.276,-0.067l0.997,-7.165Zm47.202,-32.046l-4.402,8.761c1.415,-0.057 2.862,-0.046 4.336,0.045c1.512,0.093 3.007,0.275 4.489,0.528c-1.088,-2.973 -2.549,-6.141 -4.423,-9.334Zm-62.99,51.096c0.688,-0.009 1.377,-0.008 2.066,0.004c-0.713,-0.442 -1.426,-0.858 -2.138,-1.249l0.072,1.245Zm117.355,-45.232c-0.677,-4.457 -1.281,-8.18 -1.674,-9.962c-16.235,-14.635 -39.323,-15.241 -52.679,-14.074c0.319,0.339 0.634,0.68 0.946,1.025c2.322,0.023 4.835,0.127 7.482,0.351l-2.75,5.473c2.113,2.9 4,5.945 5.624,9.068l3.526,-6.004c1.893,3.194 3.536,6.48 4.893,9.797l-4.223,6.219c0.624,1.949 1.137,3.901 1.53,5.84c1.152,0.595 2.292,1.243 3.421,1.944l4.87,-6.25c2.483,1.537 4.93,3.294 7.335,5.276l-5.357,6.018c2.076,1.779 4.107,3.758 6.088,5.936l5.899,-5.811c0.553,0.571 1.103,1.156 1.651,1.753c1.486,1.621 3.061,3.184 4.7,4.701l-6.608,5.708c1.964,2.052 4.043,4.032 6.187,5.959l7.474,-5.647c0.782,0.624 1.571,1.243 2.363,1.856c-0.212,-1.034 -0.427,-2.086 -0.645,-3.154l3.077,-2.324c0.305,3.409 0.634,7.078 0.98,10.796l-6.487,4.264c1.651,1.363 3.309,2.708 4.955,4.043c0.763,0.619 1.524,1.235 2.28,1.851l1.785,-1.012c-1.47,-8.505 -3.059,-19.2 -4.808,-31.205l-0.032,-0.223l-3.851,3.326c-0.361,-1.821 -0.727,-3.677 -1.099,-5.564l-0,-0.001c-0.374,-1.895 -0.756,-3.837 -1.135,-5.754l4.282,-4.219Zm-35.547,-20.896l0.153,-0.259c0.872,0.178 1.751,0.373 2.633,0.583c-0.934,-0.127 -1.864,-0.234 -2.786,-0.324Zm28.711,12.582l0.167,0.135l-0.111,0.125l-0.056,-0.26Zm39.932,92.1c1.527,9.66 1.311,17.838 -0.058,25.091c2.499,-5.173 3.948,-15.468 5.006,-22.979c1.623,-11.521 3.298,-23.409 8.064,-31.258c-2.86,-4.545 -16.968,-15.609 -29.547,-18.153c0.267,1.639 0.533,3.239 0.799,4.781c2.322,1.176 4.596,2.513 6.766,3.948l-5.562,2.691c0.812,4.195 1.583,7.533 2.264,9.436l9.834,-3.988l0.064,0.213c2.471,2.623 4.702,5.37 6.63,8.288l-11.289,3.738c1.884,2.739 3.467,5.628 4.662,8.722l8.926,-2.32c-1.779,2.797 -3.163,6.857 -4.329,11.364l-2.23,0.426Zm-278.27,-8.321c-1.305,2.421 -2.67,5.166 -4.088,8.278l12.959,2.678c-1.069,-2.883 -1.915,-5.975 -2.528,-9.206l-6.343,-1.75Zm25.625,-71.314c-3.939,0.448 -7.897,1.509 -11.639,2.871l10.861,9.669c2.26,-2.002 4.795,-3.888 7.637,-5.578l-6.859,-6.962Zm97.028,119.242c0.331,0.088 0.666,0.166 1.004,0.233l1.276,-1.88c0.234,0.121 0.472,0.233 0.715,0.335l-1.004,1.708c0.122,0.017 0.245,0.032 0.367,0.045c0.2,0.022 0.4,0.041 0.6,0.055l0.77,-1.532c0.246,0.081 0.495,0.153 0.747,0.216l-0.574,1.357c0.307,0.004 0.612,-0 0.917,-0.013l0.412,-1.187c0.25,0.042 0.503,0.075 0.758,0.099l-0.283,1.024c0.287,-0.029 0.573,-0.066 0.857,-0.11l0.18,-0.871c0.251,0.005 0.5,0.001 0.748,-0.012l-0.102,0.731c0.267,-0.056 0.532,-0.119 0.794,-0.189l0.045,-0.608c0.242,-0.03 0.483,-0.07 0.721,-0.118l-0.003,0.502c0.245,-0.079 0.488,-0.164 0.73,-0.255l-0.024,-0.414c0.229,-0.064 0.456,-0.135 0.68,-0.215l0.043,0.347c0.224,-0.097 0.447,-0.2 0.668,-0.307l-0.057,-0.299c0.212,-0.092 0.42,-0.192 0.626,-0.299l0.069,0.268c0.206,-0.112 0.409,-0.229 0.61,-0.351l-0.084,-0.254c0.191,-0.117 0.379,-0.241 0.563,-0.371l0.104,0.256c0.187,-0.125 0.372,-0.254 0.556,-0.387l-0.131,-0.269c0.097,-0.079 0.193,-0.159 0.288,-0.242c0.07,-0.061 0.139,-0.122 0.207,-0.185l0.166,0.294c0.173,-0.137 0.342,-0.276 0.508,-0.418l-0.214,-0.325c0.147,-0.153 0.288,-0.31 0.424,-0.47l0.274,0.362c0.157,-0.147 0.311,-0.296 0.462,-0.448l-0.347,-0.402c0.122,-0.164 0.24,-0.332 0.352,-0.503l0.436,0.442c0.143,-0.156 0.283,-0.316 0.419,-0.477l-0.539,-0.481c0.099,-0.172 0.192,-0.347 0.281,-0.525l0.658,0.513c0.13,-0.167 0.256,-0.337 0.379,-0.509l-0.792,-0.538c0.075,-0.177 0.145,-0.357 0.211,-0.539l0.94,0.553c0.117,-0.179 0.23,-0.359 0.339,-0.542l-1.102,-0.554c0.053,-0.179 0.101,-0.361 0.144,-0.544l1.277,0.54c0.103,-0.19 0.203,-0.382 0.298,-0.576l-1.462,-0.508c0.032,-0.18 0.059,-0.361 0.082,-0.544l1.657,0.458c0.089,-0.203 0.174,-0.407 0.254,-0.614l-1.859,-0.384l0.001,-0.015c0.012,-0.175 0.02,-0.349 0.023,-0.522l2.067,0.288c0.074,-0.216 0.143,-0.434 0.207,-0.653l-2.278,-0.167c-0.006,-0.177 -0.017,-0.352 -0.032,-0.527l2.492,0.019c0.057,-0.23 0.108,-0.463 0.155,-0.696l-2.706,0.157c-0.024,-0.173 -0.052,-0.344 -0.085,-0.514l2.917,-0.362c0.024,-0.159 0.046,-0.318 0.065,-0.479c0.01,-0.087 0.02,-0.174 0.029,-0.261l-3.122,0.597c-0.042,-0.168 -0.087,-0.334 -0.137,-0.498l3.32,-0.863c0.015,-0.263 0.022,-0.524 0.024,-0.785l-3.505,1.16c-0.058,-0.161 -0.119,-0.32 -0.185,-0.478l3.673,-1.489c-0.013,-0.278 -0.034,-0.554 -0.062,-0.828l-3.82,1.849c-0.074,-0.154 -0.152,-0.307 -0.233,-0.457l3.944,-2.238c-0.045,-0.29 -0.099,-0.577 -0.161,-0.862l-4.039,2.655c-0.09,-0.147 -0.183,-0.291 -0.279,-0.433l4.101,-3.099c-0.083,-0.298 -0.175,-0.594 -0.276,-0.886l-4.127,3.565c-0.104,-0.138 -0.212,-0.274 -0.324,-0.406l4.112,-4.051c-0.125,-0.303 -0.26,-0.601 -0.405,-0.894l-4.054,4.553c-0.119,-0.128 -0.242,-0.254 -0.369,-0.376l3.949,-5.067c-0.172,-0.299 -0.354,-0.593 -0.546,-0.88l-3.794,5.588c-0.135,-0.118 -0.273,-0.232 -0.413,-0.342l3.588,-6.109c-0.222,-0.287 -0.454,-0.567 -0.695,-0.839l-3.329,6.625c-0.15,-0.104 -0.302,-0.205 -0.458,-0.302l3.016,-7.129c-0.272,-0.266 -0.554,-0.521 -0.846,-0.767l-2.648,7.616c-0.164,-0.09 -0.331,-0.175 -0.501,-0.256l2.229,-8.077c-0.321,-0.231 -0.652,-0.451 -0.991,-0.658l-1.758,8.504c-0.178,-0.073 -0.358,-0.141 -0.54,-0.204l1.238,-8.89c-0.366,-0.186 -0.741,-0.357 -1.123,-0.514l-0.675,9.229c-0.19,-0.053 -0.382,-0.101 -0.576,-0.143l0.071,-9.515c-0.403,-0.128 -0.813,-0.241 -1.23,-0.337l0.565,9.741c-0.2,-0.031 -0.403,-0.057 -0.608,-0.076l-1.228,-9.903c-0.18,-0.026 -0.361,-0.049 -0.543,-0.069c-0.254,-0.029 -0.507,-0.051 -0.761,-0.066l1.911,9.998c-0.211,-0.007 -0.422,-0.008 -0.632,-0.002l-2.606,-10.025c-0.449,0.009 -0.896,0.038 -1.339,0.084l3.304,9.978c-0.218,0.02 -0.434,0.046 -0.648,0.08l-3.997,-9.857c-0.448,0.086 -0.892,0.193 -1.33,0.318l4.676,9.662c-0.22,0.049 -0.437,0.106 -0.652,0.169l-5.33,-9.395c-0.431,0.166 -0.856,0.35 -1.272,0.553l5.955,9.058c-0.217,0.081 -0.43,0.169 -0.641,0.264l-6.539,-8.656c-0.122,0.074 -0.243,0.149 -0.363,0.225c-0.273,0.175 -0.542,0.357 -0.805,0.549l7.079,8.194c-0.209,0.113 -0.413,0.233 -0.614,0.361l-7.566,-7.68c-0.357,0.309 -0.699,0.633 -1.024,0.969l7.996,7.119c-0.194,0.144 -0.385,0.296 -0.571,0.455l-8.361,-6.516c-0.297,0.368 -0.576,0.748 -0.838,1.138l8.655,5.878c-0.178,0.176 -0.349,0.357 -0.512,0.544l-8.875,-5.213c-0.226,0.413 -0.432,0.836 -0.62,1.268l9.019,4.532c-0.153,0.204 -0.298,0.413 -0.435,0.627l-9.085,-3.843c-0.146,0.443 -0.273,0.894 -0.38,1.351l9.076,3.157c-0.122,0.228 -0.236,0.461 -0.34,0.698l-8.995,-2.482c-0.016,0.116 -0.032,0.232 -0.046,0.349c-0.042,0.345 -0.072,0.69 -0.091,1.034l8.846,1.828c-0.086,0.248 -0.163,0.499 -0.23,0.754l-8.632,-1.202c0.015,0.458 0.05,0.914 0.105,1.366l8.356,0.611c-0.047,0.26 -0.084,0.523 -0.111,0.789l-8.022,-0.06c0.093,0.44 0.206,0.875 0.337,1.304l7.635,-0.443c-0.007,0.269 -0.002,0.538 0.012,0.805l-7.202,0.893c0.164,0.406 0.346,0.806 0.545,1.198l6.734,-1.287c0.036,0.268 0.083,0.535 0.141,0.798l-6.238,1.621c0.223,0.362 0.462,0.715 0.717,1.06l5.726,-1.896c0.079,0.26 0.169,0.515 0.269,0.767l-5.208,2.112c0.272,0.313 0.554,0.613 0.847,0.901l4.691,-2.27c0.12,0.243 0.25,0.481 0.389,0.714l-4.181,2.373c0.304,0.255 0.618,0.499 0.94,0.729l3.686,-2.423c0.156,0.219 0.321,0.433 0.496,0.641l-3.209,2.424c0.325,0.197 0.657,0.382 0.996,0.555l2.756,-2.381c0.189,0.193 0.384,0.377 0.586,0.552l-2.332,2.298c0.333,0.14 0.672,0.269 1.016,0.386l1.942,-2.181c0.214,0.158 0.434,0.308 0.66,0.448l-1.59,2.04Zm9.654,-95.083c-1.866,0.767 -3.654,1.779 -5.291,3.095l0.012,0.201c1.778,0.726 3.524,1.543 5.236,2.449l0.043,-5.745Zm-19.594,10.522c-1.847,-0.294 -3.645,-0.468 -5.376,-0.548l3.178,9.598c1.408,-0.42 2.829,-0.792 4.261,-1.113l-2.063,-7.937Zm3.883,98.66l-4.743,8.075c1.92,-1.468 3.644,-3.03 5.186,-4.617l1.962,-3.905c-0.792,0.178 -1.594,0.327 -2.405,0.447Zm73.954,63.859c-0.092,0.241 -0.185,0.481 -0.281,0.72c0.27,0.031 0.54,0.059 0.811,0.085l-0.53,-0.805Zm-139.549,-123.673c-0.192,0.582 -0.375,1.168 -0.546,1.756c-0.366,1.253 -0.698,2.511 -0.999,3.773l6.548,2.277c-0.207,0.719 -0.396,1.442 -0.569,2.17c-0.231,0.976 -0.442,1.954 -0.634,2.935l-6.473,-1.787c-0.311,1.877 -0.556,3.754 -0.74,5.622l6.384,1.32c-0.219,1.727 -0.382,3.453 -0.492,5.171l-6.264,-0.872c-0.066,1.883 -0.071,3.749 -0.021,5.591l6.114,0.447c-0.006,1.73 0.041,3.446 0.135,5.14l-5.929,-0.044c0.165,1.864 0.386,3.692 0.657,5.476l5.706,-0.331c0.196,1.715 0.441,3.4 0.729,5.046l-5.435,0.674c0.402,1.826 0.858,3.589 1.361,5.276l5.104,-0.975c0.404,1.684 0.854,3.315 1.344,4.882l-4.688,1.219c0.694,1.763 1.442,3.406 2.234,4.911l4.143,-1.372c0.653,1.629 1.351,3.161 2.086,4.583l-3.376,1.369c1.103,1.501 2.291,2.869 3.562,4.102l2.393,-1.158c0.148,0.213 0.297,0.421 0.448,0.626c0.87,1.182 1.795,2.267 2.774,3.255l-1.299,0.737c1.596,1.045 3.291,1.924 5.084,2.635l0.165,-0.108c0.215,0.143 0.432,0.282 0.65,0.418c2.344,0.851 4.848,1.425 7.507,1.719c11.468,1.267 20.553,-1.096 27.636,-4.975l7.75,-11.413c-0.886,0.065 -1.78,0.097 -2.678,0.097l-8.484,10.887c-1.108,-0.259 -2.211,-0.558 -3.304,-0.896l8.986,-10.094c-0.968,-0.072 -1.939,-0.18 -2.909,-0.325l-9.396,9.256c-1.117,-0.438 -2.219,-0.919 -3.304,-1.443l9.7,-8.378c-1.029,-0.235 -2.053,-0.511 -3.067,-0.827l-9.887,7.47c-1.08,-0.634 -2.137,-1.313 -3.165,-2.037l9.949,-6.541c-1.051,-0.424 -2.086,-0.893 -3.101,-1.408l-9.89,5.612c-1.004,-0.84 -1.965,-1.717 -2.883,-2.63l9.72,-4.703c-1.013,-0.634 -1.999,-1.316 -2.951,-2.045l-9.45,3.831c-0.862,-1.026 -1.675,-2.089 -2.439,-3.188l9.088,-3.009c-0.918,-0.854 -1.785,-1.747 -2.601,-2.676l-8.65,2.248c-0.672,-1.185 -1.293,-2.405 -1.862,-3.658l8.165,-1.561c-0.739,-1.043 -1.422,-2.123 -2.048,-3.238l-7.661,0.95c-0.459,-1.305 -0.865,-2.641 -1.218,-4.006l7.16,-0.415c-0.514,-1.19 -0.971,-2.413 -1.37,-3.667l-6.681,-0.05c-0.241,-1.384 -0.431,-2.795 -0.569,-4.23l6.234,0.456c-0.277,-1.288 -0.499,-2.604 -0.663,-3.946l-5.826,-0.812c-0.034,-1.429 -0.019,-2.881 0.046,-4.352l5.458,1.128c-0.051,-1.344 -0.049,-2.711 0.007,-4.098l-5.13,-1.416c0.156,-1.452 0.36,-2.922 0.61,-4.407l4.839,1.683c0.155,-1.371 0.361,-2.76 0.616,-4.165l-4.58,-1.937c0.03,-0.133 0.06,-0.265 0.091,-0.398c0.31,-1.339 0.686,-2.668 1.124,-3.984l4.263,2.142c0.213,-0.862 0.445,-1.729 0.694,-2.601c0.151,-0.527 0.314,-1.051 0.489,-1.572l-3.789,-2.226c0.619,-1.386 1.308,-2.752 2.065,-4.094l3.345,2.271c0.613,-1.311 1.301,-2.599 2.061,-3.86l-2.969,-2.314c0.864,-1.257 1.789,-2.487 2.773,-3.686l2.651,2.36c0.871,-1.165 1.806,-2.299 2.801,-3.398l-2.376,-2.413c1.063,-1.099 2.179,-2.167 3.345,-3.199l2.137,2.474c1.07,-0.991 2.194,-1.947 3.368,-2.864l-1.923,-2.545c1.219,-0.926 2.483,-1.814 3.79,-2.663l1.727,2.627c1.22,-0.804 2.483,-1.569 3.786,-2.29l-1.543,-2.72c1.352,-0.749 2.727,-1.45 4.122,-2.104l1.367,2.826c1.34,-0.619 2.699,-1.188 4.075,-1.708l-4.447,-10.967c-1.967,0.121 -3.798,0.346 -5.459,0.624l4.24,8.761c-1.776,0.191 -3.421,0.47 -4.907,0.789l-4.74,-8.354c-1.796,0.494 -3.565,1.079 -5.3,1.748l5.199,7.909c-1.605,0.52 -3.183,1.119 -4.727,1.793l-5.613,-7.429c-1.687,0.845 -3.334,1.77 -4.933,2.771l5.977,6.92c-1.496,0.832 -2.954,1.735 -4.365,2.705l-6.289,-6.384c-1.516,1.158 -2.976,2.387 -4.375,3.68l6.544,5.826c-1.333,1.111 -2.612,2.284 -3.833,3.512l-6.735,-5.248c-1.282,1.431 -2.492,2.922 -3.625,4.465l6.857,4.656c-1.111,1.352 -2.156,2.755 -3.128,4.203l-6.902,-4.053c-0.978,1.656 -1.869,3.36 -2.666,5.103l6.86,3.448c-0.828,1.546 -1.577,3.132 -2.239,4.752l-6.728,-2.846Zm71.986,-35.969c-1.695,-0.695 -3.377,-1.266 -5.034,-1.731l1.142,5.979c1.445,-0.221 2.898,-0.391 4.355,-0.512l-0.463,-3.736Zm145.371,53.143c-0.087,-2.825 -0.365,-5.815 -0.86,-9.006l-0.357,0.068c-0.242,-1.264 -0.523,-2.559 -0.844,-3.89c-0.4,-1.653 -1.009,-3.229 -1.79,-4.745l0.646,-0.168c-1.228,-2.739 -2.911,-5.346 -4.929,-7.869l-1.295,0.429c-0.487,-0.52 -0.99,-1.035 -1.506,-1.548c-1.728,-1.714 -3.606,-3.386 -5.589,-5.035l1.91,-0.775c-2.198,-2.078 -4.562,-4.126 -7.017,-6.174l-2.327,1.126c-1.447,-1.087 -2.916,-2.176 -4.394,-3.272c-0.926,-0.687 -1.855,-1.377 -2.785,-2.071l2.566,-1.457c-2.186,-1.774 -4.388,-3.569 -6.569,-5.409l-2.69,1.768c-2.082,-1.632 -4.146,-3.305 -6.169,-5.036l2.766,-2.089c-1.918,-1.771 -3.792,-3.6 -5.595,-5.506l-2.839,2.452c-1.421,-1.374 -2.808,-2.791 -4.151,-4.255c-0.358,-0.391 -0.718,-0.774 -1.078,-1.149l2.917,-2.873c-1.818,-2.026 -3.671,-3.843 -5.559,-5.45l-2.891,3.247c-2.069,-1.644 -4.163,-3.026 -6.284,-4.137l2.838,-3.642c-2.352,-1.373 -4.749,-2.442 -7.187,-3.205l-2.826,4.163c-1.705,-0.387 -3.426,-0.6 -5.164,-0.636c-1.023,-0.021 -2.026,0.018 -3.004,0.108l2.954,-5.029c-3.085,-0.121 -6.022,0.221 -8.743,0.84l-4.306,8.569c1.932,0.917 3.86,1.91 5.774,2.977l3.239,-5.515c2.04,1.045 4.069,2.164 6.079,3.354l-3.737,5.504c1.813,1.165 3.606,2.397 5.371,3.692l4.257,-5.463c1.922,1.301 3.818,2.669 5.681,4.101l-4.798,5.389c1.667,1.392 3.298,2.843 4.887,4.352l5.357,-5.277c1.77,1.546 3.5,3.154 5.181,4.822l-5.934,5.125c1.482,1.606 2.914,3.266 4.29,4.979l6.523,-4.929c1.572,1.783 3.087,3.624 4.538,5.522l-7.124,4.684c1.246,1.803 2.43,3.656 3.543,5.558l7.73,-4.386c1.312,2.003 2.552,4.061 3.712,6.172l-8.334,4.033c0.954,1.972 1.833,3.989 2.629,6.049l8.93,-3.621c0.985,2.19 1.884,4.429 2.691,6.716l-9.507,3.148c0.169,0.579 0.331,1.161 0.487,1.746c0.408,1.533 0.777,3.08 1.106,4.639l10.051,-2.613c0.627,2.325 1.173,4.68 1.64,7.058l-10.559,2.018c0.302,2.153 0.532,4.323 0.69,6.506l11.024,-1.368c0.304,2.39 0.531,4.798 0.681,7.218l-11.442,0.664c0.019,2.16 -0.031,4.327 -0.148,6.497l11.807,0.088c-0.004,2.412 -0.083,4.831 -0.237,7.252l-12.113,-0.885c-0.245,2.133 -0.554,4.265 -0.927,6.392l12.357,1.721c-0.301,2.398 -0.675,4.793 -1.122,7.18l-12.531,-2.59c-0.491,2.08 -1.044,4.152 -1.657,6.212l12.634,3.487c-0.589,2.352 -1.251,4.691 -1.984,7.013l-12.659,-4.403c-0.726,2.007 -1.51,3.997 -2.353,5.967l12.603,5.332c-0.709,1.848 -1.466,3.681 -2.269,5.498c-0.185,0.419 -0.373,0.837 -0.562,1.253l-12.464,-6.263c-0.081,0.161 -0.161,0.322 -0.242,0.482c-0.888,1.762 -1.816,3.487 -2.783,5.174l12.239,7.188c-1.166,2.185 -2.39,4.313 -3.67,6.381l-11.923,-8.097c-1.184,1.808 -2.413,3.563 -3.685,5.265l11.516,8.974c-1.449,2.025 -2.955,3.98 -4.513,5.863l-11.018,-9.809c-1.406,1.649 -2.855,3.237 -4.342,4.761l10.428,10.585c-0.951,0.993 -1.919,1.96 -2.902,2.901c-0.177,1.464 -0.397,2.903 -0.66,4.318l-11.531,-13.349c-0.766,0.68 -1.54,1.345 -2.323,1.993c-0.217,1.553 -0.487,3.074 -0.809,4.562l6.969,9.224c2.861,-0.239 5.717,-0.732 8.498,-1.499l-0.101,-0.117c0.302,-0.035 0.604,-0.073 0.906,-0.114c11.125,-3.298 20.928,-11.057 24.915,-24.551c4.81,-16.282 12.285,-28.019 18.88,-38.374c7.668,-12.041 14.154,-22.224 15.164,-36.803c0.108,-1.887 0.115,-3.847 0.007,-5.895l0.1,-0.012Zm-37.032,105.666c-1.828,1.64 -3.803,3.139 -5.919,4.49c-0.39,0.249 -0.785,0.493 -1.185,0.732l10.391,10.548c-0.699,0.394 -1.411,0.775 -2.135,1.143c-2.226,1.132 -4.56,2.13 -6.973,2.987l-9.334,-10.805c-2.791,1.05 -5.717,1.879 -8.72,2.481l8.277,10.955c-3.335,0.629 -6.743,1.012 -10.164,1.14l-7.222,-10.987c-3.096,0.142 -6.211,0.049 -9.287,-0.285l7.185,12.663c-1.9,2.388 -4,4.605 -6.293,6.638l-7.928,-16.386c-1.774,2.069 -3.724,3.974 -5.844,5.704l6.524,16.087c-1.015,0.633 -2.057,1.237 -3.126,1.812c-0.995,0.535 -2.012,1.043 -3.048,1.524c-0.667,0.04 -1.345,0.082 -2.033,0.128l-4.972,-15.014c-0.927,0.523 -1.878,1.019 -2.852,1.487c-1.427,0.687 -2.898,1.311 -4.408,1.873l3.23,12.429c-2.722,0.291 -5.619,0.656 -8.733,1.122l-2.161,-11.306c-2.551,0.56 -5.185,0.966 -7.892,1.216l1.394,11.242c-3.006,0.298 -5.909,0.47 -8.706,0.514l-0.665,-11.468c-2.602,-0.046 -5.254,-0.224 -7.948,-0.536l-0.087,11.647c9.778,2.774 22.374,2.553 37.144,-0.721c12.914,-2.862 22.509,-3.944 30.974,-4.898c9.746,-1.099 17.443,-1.967 25.901,-5.317c12.486,-4.944 22.393,-17.424 27.903,-35.143c1.366,-4.395 3.696,-8.884 6.162,-13.634c6.85,-13.199 13.911,-26.806 4.901,-43.381c-0.451,0.712 -0.904,1.424 -1.359,2.138c-1.047,1.645 -2.1,3.299 -3.149,4.978c0.693,2.83 1.04,5.569 1.108,8.219l-5.011,-1.743c-1.398,2.425 -2.76,4.936 -4.06,7.574l8.2,3.469c-0.645,3.066 -1.603,5.99 -2.74,8.774l-8.917,-4.481c-1.028,2.585 -1.986,5.3 -2.855,8.176l7.779,4.569c-1.213,2.216 -2.456,4.321 -3.635,6.317c-0.327,0.554 -0.652,1.104 -0.972,1.648l-6.295,-4.275c-1.293,2.675 -2.809,5.177 -4.541,7.495l6.493,5.06c-0.096,0.235 -0.186,0.467 -0.272,0.697c-1.081,2.911 -2.278,5.684 -3.582,8.31l-8.543,-7.606Zm-186.903,-204.209c-0.639,3.22 -0.915,6.509 -0.827,9.862c2.193,-0.691 4.511,-1.277 6.965,-1.737l-1.752,-2.32c2.103,-0.352 4.293,-0.626 6.574,-0.815c1.158,-0.095 2.3,-0.21 3.426,-0.342l1.561,2.375l0.137,-0.006c3.168,-0.13 6.224,-0.4 9.178,-0.782l-1.745,-3.076c2.895,-0.604 5.682,-1.311 8.374,-2.088l1.809,3.739c2.72,-0.565 5.351,-1.211 7.904,-1.91l-1.778,-4.385c2.663,-0.941 5.235,-1.925 7.731,-2.915l1.659,5.01c2.579,-0.838 5.078,-1.705 7.511,-2.568l-1.448,-5.571c2.672,-1.085 5.295,-2.124 7.876,-3.075l1.137,5.948c2.634,-0.928 5.213,-1.806 7.743,-2.574l-0.752,-6.066c2.839,-0.813 5.634,-1.453 8.394,-1.859l0.343,5.91c2.778,-0.527 5.502,-0.827 8.179,-0.81l0.041,-5.537c2.851,0.159 5.674,0.651 8.484,1.549l-0.377,5.152c2.611,0.772 5.183,1.959 7.727,3.653l0.702,-5.035c0.862,0.539 1.723,1.123 2.585,1.754c1.79,1.312 3.338,2.712 4.67,4.175l-1.135,5.489c3.371,4.717 4.225,9.97 3.905,14.558l2.914,-10.558c0.112,0.32 0.219,0.64 0.319,0.961c2.558,-1.4 5.451,-2.755 8.63,-3.898l-3.138,9.022c2.733,-1.269 5.836,-2.441 9.232,-3.294l3.484,-8.235c1.142,-0.188 2.307,-0.34 3.494,-0.452c-0.642,-0.982 -1.327,-1.966 -2.058,-2.944l2.858,-6.755c-1.409,-1.671 -2.947,-3.306 -4.62,-4.878c-0.75,-0.705 -1.553,-1.42 -2.41,-2.137l-2.274,6.54c-0.577,-0.543 -1.172,-1.078 -1.783,-1.605c-1.638,-1.41 -3.531,-2.859 -5.684,-4.247l1.729,-6.265c-2.623,-1.499 -5.541,-2.877 -8.766,-4.025l-1.235,5.971c-2.687,-1.103 -5.629,-2.04 -8.832,-2.718l0.791,-5.681c-2.978,-0.517 -6.155,-0.829 -9.535,-0.884l-0.397,5.433c-2.537,-0.102 -5.201,-0.04 -7.993,0.215c-0.408,0.037 -0.814,0.072 -1.219,0.105l0.041,-5.542c-3.31,0.01 -6.502,-0.13 -9.566,-0.39l0.367,6.318c-3.199,0.01 -6.291,-0.111 -9.267,-0.336l-0.901,-7.265c-3.706,-0.659 -7.161,-1.471 -10.338,-2.364l1.625,8.5c-3.664,-0.584 -7.093,-1.308 -10.263,-2.109l-2.67,-10.271c-4.335,-1.774 -7.642,-3.483 -9.769,-4.682c-0.661,0.335 -1.438,0.741 -2.311,1.219l3.388,10.23c-2.921,-1.072 -5.415,-2.13 -7.438,-3.061c-1.116,0.688 -2.375,1.501 -3.731,2.434l-1.531,-3.776c-2.75,1.951 -5.669,4.246 -8.525,6.884l1.666,3.443c-1.41,1.249 -2.828,2.593 -4.221,4.032c-1.143,1.18 -2.221,2.372 -3.233,3.575l-1.705,-3.005c-2.421,3.07 -4.435,6.227 -6.041,9.467l1.586,2.413c-1.906,3.453 -3.308,6.989 -4.193,10.604l-1.278,-1.692Zm61.497,130.116c0.53,0.108 1.061,0.201 1.592,0.279c-0.243,-0.254 -0.482,-0.513 -0.716,-0.776l-0.876,0.497Zm-77.569,-29.009c-0.198,0.374 -0.393,0.755 -0.586,1.142c-0.866,1.739 -1.665,3.571 -2.392,5.482l10.967,0.801c-0.012,-2.133 0.037,-4.236 0.14,-6.293l-8.129,-1.132Zm9.344,-11.548c-1.864,1.313 -3.698,3.126 -5.437,5.388l4.715,0.974c0.233,-2.196 0.525,-4.312 0.862,-6.324l-0.14,-0.038Zm142.649,111.697l0.019,-0.051l-0.037,0.02l0.018,0.031Zm-75.354,-22.657c1.052,1.226 2.209,2.455 3.469,3.669l4.501,-12.942c-1.151,-0.493 -2.274,-1.032 -3.363,-1.617l-4.607,10.89Zm-50.824,62.513c1.23,2.004 2.289,4.162 3.103,6.53c7.88,0.39 28.182,-0.012 45.328,-7.88c-1.41,-2.438 -2.47,-4.887 -3.218,-7.215l-0.727,2.633c-1.591,0.643 -3.208,1.226 -4.839,1.752c-1.232,-0.632 -2.461,-1.284 -3.687,-1.957l3.642,-10.47c-2.227,-1.149 -4.444,-2.373 -6.643,-3.67l-4.31,10.189c-2.631,-1.242 -5.181,-2.206 -7.67,-3.008l5.572,-11.091c-2.27,-1.305 -4.487,-2.387 -6.661,-3.316l-7.131,12.139l-0.462,-0.114c-3.85,1.266 -7.664,2.181 -11.435,2.749l11.834,-17.427c-2.095,-0.673 -4.159,-1.271 -6.203,-1.862c-0.144,-0.042 -0.289,-0.084 -0.434,-0.126c-0.598,0.184 -1.195,0.359 -1.791,0.525l-14.953,19.188c2.273,2.218 4.553,4.476 6.641,6.927l1.37,-2.019c0.612,0.545 1.234,1.095 1.86,1.654c1.745,1.557 3.493,3.134 5.191,4.775l-0.773,1.318c-1.277,-0.057 -2.482,-0.133 -3.604,-0.224Zm35.655,-120.422c0.695,0.833 1.446,1.627 2.252,2.379l3.83,-0.732c0.288,0.341 0.588,0.673 0.899,0.997c-0.078,-0.374 -0.15,-0.75 -0.216,-1.128l5.194,-0.993c-0.231,-0.635 -0.438,-1.278 -0.619,-1.929l-4.892,0.607c-0.078,-0.772 -0.13,-1.549 -0.154,-2.329l4.576,-0.266c-0.132,-0.672 -0.237,-1.35 -0.315,-2.033l-4.255,-0.032c0.013,-0.369 0.033,-0.738 0.059,-1.109c0.028,-0.405 0.063,-0.809 0.105,-1.211l3.937,0.288c-0.025,-0.691 -0.022,-1.385 0.007,-2.082l-3.623,-0.505c0.133,-0.763 0.292,-1.519 0.476,-2.266l3.318,0.685l0.001,-0.007c0.084,-0.697 0.195,-1.387 0.331,-2.068l-3.019,-0.833c0.236,-0.733 0.496,-1.456 0.782,-2.169l2.732,0.951c0.193,-0.681 0.413,-1.352 0.658,-2.012l-2.463,-1.042c0.333,-0.688 0.689,-1.364 1.068,-2.027l2.213,1.112c0.299,-0.643 0.624,-1.272 0.973,-1.889l-1.984,-1.165c0.42,-0.63 0.863,-1.246 1.327,-1.849l1.78,1.209c0.397,-0.586 0.818,-1.156 1.263,-1.71l-1.598,-1.246c0.497,-0.561 1.014,-1.108 1.552,-1.639l1.439,1.281c0.483,-0.513 0.987,-1.009 1.513,-1.487l-1.301,-1.322c0.566,-0.491 1.147,-0.961 1.739,-1.41l1.182,1.368c0.558,-0.434 1.13,-0.845 1.714,-1.232l-1.075,-1.423c0.62,-0.408 1.252,-0.795 1.894,-1.159l0.979,1.489c0.612,-0.341 1.236,-0.656 1.87,-0.946l-0.891,-1.57c0.662,-0.319 1.334,-0.616 2.014,-0.89l0.806,1.665c0.65,-0.238 1.308,-0.451 1.974,-0.638l-0.721,-1.778c0.692,-0.226 1.39,-0.43 2.096,-0.611l0.632,1.909c0.669,-0.133 1.344,-0.24 2.023,-0.322l-0.534,-2.056c0.707,-0.132 1.42,-0.242 2.137,-0.329l0.425,2.22c0.67,-0.029 1.342,-0.033 2.017,-0.011l-0.297,-2.398c0.711,-0.04 1.425,-0.057 2.142,-0.052l0.15,2.586l0.146,0.016c0.612,0.067 1.218,0.155 1.816,0.263l0.02,-2.782c0.712,0.05 1.417,0.121 2.114,0.214l-0.218,2.987c0.631,0.162 1.251,0.347 1.861,0.552l0.445,-3.193c0.692,0.138 1.377,0.296 2.053,0.475l-0.702,3.399c0.585,0.246 1.159,0.513 1.721,0.799l0.993,-3.596c0.664,0.222 1.318,0.464 1.962,0.725l-1.315,3.782c0.53,0.319 1.048,0.657 1.552,1.011l1.67,-3.949c0.626,0.301 1.241,0.621 1.844,0.958l-2.057,4.094c0.467,0.38 0.921,0.775 1.36,1.184l2.473,-4.21c0.58,0.374 1.147,0.765 1.701,1.172l-2.916,4.294c0.4,0.427 0.785,0.866 1.155,1.318l3.383,-4.34c0.527,0.439 1.039,0.894 1.537,1.364l-3.869,4.347c0.33,0.461 0.645,0.932 0.945,1.414l4.373,-4.308c0.467,0.498 0.92,1.01 1.356,1.535l-4.889,4.223c0.261,0.484 0.506,0.977 0.736,1.478l5.411,-4.088c0.403,0.549 0.789,1.11 1.158,1.684l-5.936,3.902c0.192,0.497 0.369,1.001 0.531,1.511l6.457,-3.664c0.333,0.593 0.648,1.197 0.944,1.81l-6.969,3.372c0.127,0.502 0.238,1.008 0.335,1.519l7.467,-3.027c0.257,0.628 0.497,1.266 0.716,1.912l-7.941,2.629c0.064,0.498 0.114,1 0.15,1.505l8.39,-2.181c0.179,0.655 0.338,1.318 0.478,1.988l-8.805,1.683c0.007,0.488 0.001,0.979 -0.02,1.472l9.18,-1.139c0.097,0.673 0.174,1.352 0.23,2.037l-9.51,0.552c-0.021,0.216 -0.044,0.432 -0.07,0.649c-0.032,0.26 -0.067,0.518 -0.106,0.776l9.79,0.073c0.014,0.682 0.007,1.368 -0.021,2.057l-10.016,-0.732c-0.094,0.461 -0.2,0.918 -0.318,1.37l10.188,1.419c-0.07,0.688 -0.16,1.372 -0.271,2.049l-10.302,-2.129c-0.139,0.44 -0.289,0.875 -0.45,1.306l10.355,2.858c-0.154,0.678 -0.329,1.349 -0.524,2.013l-10.345,-3.598c-0.182,0.417 -0.374,0.829 -0.576,1.236l10.271,4.345c-0.239,0.657 -0.498,1.305 -0.777,1.944l-10.129,-5.089c-0.221,0.392 -0.452,0.78 -0.693,1.161l9.919,5.827c-0.321,0.625 -0.663,1.239 -1.025,1.843l-9.644,-6.549c-0.258,0.367 -0.526,0.727 -0.804,1.081l9.303,7.25c-0.401,0.582 -0.821,1.153 -1.261,1.711l-8.899,-7.922c-0.294,0.338 -0.597,0.67 -0.909,0.995l8.435,8.562c-0.476,0.53 -0.969,1.047 -1.481,1.55l-7.913,-9.161c-0.328,0.309 -0.664,0.611 -1.009,0.906l7.34,9.715c-0.547,0.475 -1.107,0.929 -1.679,1.364l-6.719,-10.22c-0.363,0.28 -0.731,0.55 -1.105,0.811l6.053,10.668c-0.608,0.404 -1.227,0.786 -1.857,1.147l-5.349,-11.055c-0.396,0.246 -0.796,0.481 -1.201,0.705l4.724,11.652c-0.467,0.931 -0.945,1.834 -1.432,2.709l-4.54,-13.712c-0.427,0.207 -0.858,0.403 -1.294,0.588l4.156,15.987c-0.648,1.048 -1.305,2.05 -1.964,3.006l-3.52,-18.413c-0.383,0.74 -0.775,1.461 -1.173,2.162l2.404,19.384c-0.896,1.159 -1.786,2.234 -2.653,3.228l-1.174,-20.225c-0.568,0.907 -1.145,1.779 -1.726,2.614l-0.135,18.124c1.014,0.023 2.036,0.011 3.062,-0.039l-0.009,-0.154c0.572,0.026 1.148,0.039 1.725,0.037c4.262,-0.375 8.569,-1.384 12.696,-3.051c6.845,-2.765 17.349,-9.09 23.776,-23.018l-0.039,-0.02c0.345,-0.912 0.669,-1.857 0.972,-2.836l0.243,0.103c0.358,-0.907 0.698,-1.843 1.02,-2.809l-0.464,-0.161c0.232,-0.935 0.445,-1.897 0.637,-2.887l0.698,0.193c0.261,-0.939 0.505,-1.904 0.731,-2.896l-0.942,-0.194c0.135,-0.943 0.252,-1.91 0.35,-2.902l1.189,0.166c0.175,-0.965 0.333,-1.953 0.472,-2.965l-1.434,-0.105c0.062,-0.979 0.114,-1.948 0.155,-2.906l1.643,0.012c0.111,-1.023 0.209,-2.036 0.293,-3.039l-1.848,0.107c0.017,-0.993 0.019,-1.974 0.004,-2.943l2.059,-0.255c0.058,-1.064 0.097,-2.114 0.117,-3.152l-2.278,0.435c-0.056,-1.015 -0.133,-2.015 -0.233,-2.999l2.504,-0.651c-0.027,-1.108 -0.08,-2.199 -0.161,-3.275l-2.739,0.907c-0.165,-1.025 -0.361,-2.032 -0.59,-3.02l2.978,-1.208c-0.156,-1.135 -0.348,-2.25 -0.579,-3.345l-3.219,1.558c-0.318,-1 -0.677,-1.977 -1.08,-2.933l3.452,-1.958c-0.335,-1.116 -0.716,-2.209 -1.148,-3.278l-3.665,2.409c-0.499,-0.917 -1.047,-1.81 -1.646,-2.68l3.841,-2.903c-0.542,-1.03 -1.139,-2.037 -1.794,-3.02l-3.969,3.428c-0.673,-0.785 -1.395,-1.545 -2.169,-2.282l4.033,-3.973c-0.738,-0.892 -1.533,-1.761 -2.386,-2.608l-4.025,4.521c-0.801,-0.634 -1.648,-1.247 -2.541,-1.841l3.94,-5.056c-0.888,-0.735 -1.828,-1.451 -2.823,-2.147l-3.78,5.567c-0.879,-0.498 -1.795,-0.98 -2.752,-1.448l3.552,-6.047c-0.988,-0.591 -2.022,-1.167 -3.104,-1.727l-3.262,6.492c-0.92,-0.391 -1.872,-0.77 -2.858,-1.137l2.919,-6.901c-1.054,-0.475 -2.148,-0.937 -3.282,-1.385l-2.53,7.274c-0.742,-0.244 -1.501,-0.482 -2.278,-0.714c-0.215,-0.064 -0.43,-0.127 -0.646,-0.188l2.102,-7.617c-0.117,-0.04 -0.235,-0.081 -0.353,-0.122c-1.017,-0.35 -2.043,-0.668 -3.075,-0.954l-1.643,7.95c-1,-0.217 -2.005,-0.401 -3.012,-0.554l1.148,-8.241c-1.186,-0.243 -2.377,-0.445 -3.572,-0.605l-0.619,8.483c-1.021,-0.089 -2.043,-0.146 -3.064,-0.17l0.065,-8.675c-1.215,-0.079 -2.432,-0.117 -3.647,-0.113l0.511,8.812c-1.025,0.041 -2.048,0.115 -3.067,0.221l-1.103,-8.893c-1.222,0.089 -2.44,0.22 -3.652,0.394l1.704,8.916c-1.014,0.173 -2.021,0.378 -3.021,0.615l-2.309,-8.88c-1.203,0.259 -2.397,0.562 -3.579,0.907l2.909,8.785c-0.985,0.304 -1.959,0.64 -2.923,1.008l-3.499,-8.631c-1.157,0.43 -2.3,0.902 -3.426,1.416l4.073,8.418c-0.937,0.432 -1.86,0.897 -2.768,1.394l-4.623,-8.148c-1.099,0.604 -2.16,1.244 -3.182,1.917l5.137,7.813c-0.881,0.567 -1.73,1.159 -2.546,1.775l-5.605,-7.418c-0.986,0.775 -1.924,1.584 -2.811,2.421l6.017,6.966c-0.783,0.698 -1.525,1.419 -2.223,2.162l-6.364,-6.46c-0.822,0.942 -1.585,1.912 -2.283,2.907l6.635,5.907c-0.639,0.827 -1.227,1.674 -1.759,2.54l-6.819,-5.314c-0.593,1.093 -1.11,2.208 -1.548,3.34l6.907,4.69c-0.435,0.943 -0.806,1.903 -1.107,2.875l-6.906,-4.056c-0.317,1.193 -0.593,2.369 -0.827,3.528l6.998,3.516c-0.208,1.007 -0.387,1.999 -0.535,2.976l-7.056,-2.985c-0.159,1.182 -0.273,2.343 -0.341,3.482l7.039,2.448c-0.09,0.988 -0.147,1.959 -0.171,2.911l-6.937,-1.914c0.025,1.157 0.1,2.288 0.226,3.392l6.746,1.395c0.048,0.963 0.134,1.904 0.257,2.822l-6.459,-0.9c0.239,1.103 0.534,2.174 0.883,3.211l6.078,0.444c0.213,0.916 0.469,1.805 0.767,2.666l-5.606,-0.042c0.474,0.998 1.006,1.959 1.596,2.882l5.058,-0.294c0.4,0.83 0.846,1.628 1.339,2.392l-4.455,0.552Zm-73.637,-54.049c-0.071,2.97 0.055,5.941 0.389,8.82l2.968,1.032c0.173,2.86 0.548,5.683 1.136,8.369l-2.318,-0.64c0.799,2.613 1.825,5.032 3.089,7.166c1.253,-1.91 2.574,-3.653 3.953,-5.222l-1.819,-0.502c2.294,-2.141 4.717,-3.895 7.228,-5.252l0.661,0.23c2.729,-1.92 5.597,-3.242 8.544,-3.92l-3.811,-1.612c0.86,-2.096 1.815,-4.148 2.859,-6.152l4.288,2.155c0.906,-1.963 1.907,-3.877 2.997,-5.738l-3.883,-2.281c1.219,-1.9 2.522,-3.745 3.903,-5.53l3.513,2.386c1.26,-1.749 2.604,-3.439 4.023,-5.064l-3.176,-2.474c1.521,-1.646 3.114,-3.228 4.773,-4.739l2.866,2.552c1.552,-1.478 3.172,-2.886 4.855,-4.22l-2.584,-2.622c1.761,-1.347 3.581,-2.62 5.455,-3.814l2.323,2.69c1.775,-1.162 3.604,-2.245 5.482,-3.245l-2.082,-2.756c1.935,-1.011 3.916,-1.942 5.941,-2.788l1.857,2.825c1.925,-0.811 3.892,-1.536 5.895,-2.172l-1.646,-2.902c1.428,-0.457 2.873,-0.873 4.335,-1.245c0.628,-0.16 1.255,-0.312 1.883,-0.454l1.445,2.987c0.199,-0.043 0.398,-0.086 0.598,-0.128c1.836,-0.386 3.666,-0.689 5.487,-0.912l-1.25,-3.083c2.106,-0.283 4.205,-0.468 6.292,-0.554l1.059,3.195c2.036,-0.045 4.057,0.012 6.057,0.17l-0.867,-3.334c0.539,0.028 1.077,0.063 1.613,0.104c1.148,-1.345 2.389,-2.602 3.716,-3.769l1.343,7.028c1.495,-1.833 3.183,-3.47 5.046,-4.904l-0.771,-6.216c1.92,-1.15 3.965,-2.154 6.123,-3.004l0.333,5.728c1.912,-0.922 3.946,-1.683 6.088,-2.277l0.041,-5.457c2.138,-0.5 4.362,-0.871 6.665,-1.106l-0.39,5.328c2.067,-0.247 4.208,-0.361 6.416,-0.34l1.534,-11.018c-0.649,-1.012 -1.517,-1.997 -2.662,-2.914c-1.333,-1.068 -2.678,-1.91 -4.059,-2.551l-0.663,9.076c-0.341,-0.437 -0.769,-0.858 -1.301,-1.248c-1.79,-1.312 -3.589,-2.079 -5.487,-2.419l0.053,-7.032c-2.295,-0.035 -4.756,0.279 -7.459,0.872l0.376,6.477c-0.429,0.09 -0.865,0.191 -1.31,0.302c-1.737,0.431 -3.571,0.998 -5.527,1.678l-0.799,-6.447c-2.191,0.7 -4.529,1.506 -7.04,2.396l1.249,6.537c-1.497,0.596 -3.06,1.232 -4.697,1.901c-0.561,0.229 -1.128,0.46 -1.701,0.694l-1.736,-6.678c-2.193,0.772 -4.472,1.556 -6.84,2.325l2.276,6.873c-2.033,0.792 -4.134,1.586 -6.305,2.363l-2.89,-7.129c-2.306,0.652 -4.687,1.27 -7.146,1.835l3.612,7.465c-2.16,0.684 -4.384,1.339 -6.675,1.951l-4.489,-7.911c-2.652,0.446 -5.386,0.817 -8.203,1.091l5.601,8.519c-2.504,0.529 -5.081,0.997 -7.733,1.388l-7.018,-9.289c-3.316,0.288 -6.365,0.839 -9.168,1.601l7.487,8.668c-3.244,0.322 -6.199,0.909 -8.891,1.707l-7.031,-7.137c-2.768,1.413 -5.209,3.052 -7.361,4.826l6.368,5.669c-2.602,1.456 -4.855,3.133 -6.805,4.931l-5.646,-4.399c-1.939,2.432 -3.492,4.916 -4.732,7.275l4.974,3.378c-1.694,2.463 -2.984,4.946 -3.961,7.245l-4.373,-2.568c-0.85,2.693 -1.515,5.585 -1.981,8.574l3.835,1.927c-0.586,2.641 -0.99,5.443 -1.201,8.304l-3.416,-1.445Zm98.443,171.324c1.478,1.798 3.34,3.59 5.685,5.227c0.628,0.439 1.278,0.856 1.95,1.251l0.685,-9.369c-2.536,-0.522 -5.09,-1.156 -7.654,-1.897l-0.666,4.788Zm-83.158,-23.742c1.378,2.836 3.248,5.342 5.409,7.761l9.202,-10.336c-3.915,0.261 -7.755,0.102 -11.512,-0.478l-3.099,3.053Zm72.16,2.923c2.162,0.997 4.323,1.911 6.476,2.742l0.191,-0.925c2.205,0.993 4.406,1.902 6.597,2.728l-0.073,0.527c2.329,0.716 4.642,1.333 6.931,1.847l0.004,-0.053c0.24,0.072 0.48,0.143 0.721,0.213c14.037,3.028 27.143,2.202 37.506,-2.783c1.411,-0.679 2.758,-1.429 4.038,-2.249l-3.744,-11.307c-2.143,0.47 -4.243,0.825 -6.297,1.079l3.39,13.037c-2.494,0.202 -4.925,0.269 -7.286,0.222l-2.443,-12.783c-2.169,0.058 -4.277,0.006 -6.321,-0.139l1.54,12.413c-2.456,-0.296 -4.819,-0.708 -7.082,-1.208l-0.694,-11.953c-2.114,-0.357 -4.145,-0.808 -6.086,-1.329l-0.086,11.422c-2.341,-0.753 -4.54,-1.583 -6.585,-2.449l0.792,-10.842c-2,-0.738 -3.877,-1.535 -5.621,-2.358l-1.424,10.224c-1.503,-0.797 -2.874,-1.586 -4.105,-2.338c-0.597,-0.364 -1.187,-0.736 -1.771,-1.115l1.977,-9.564c-1.4,-0.812 -2.669,-1.613 -3.798,-2.37c-0.401,-0.269 -0.798,-0.541 -1.192,-0.817l-2.446,8.863c-1.752,-1.365 -3.426,-2.79 -5.011,-4.259l2.832,-8.143c-1.484,-1.237 -2.899,-2.522 -4.238,-3.842l-3.128,7.396c-1.451,-1.606 -2.795,-3.244 -4.02,-4.897l3.323,-6.613c-1.222,-1.439 -2.351,-2.902 -3.374,-4.375l-3.39,5.771c-0.709,-1.225 -1.347,-2.448 -1.91,-3.663c-0.716,0.015 -1.436,0.019 -2.159,0.012l4.597,-6.77c-0.897,-1.673 -1.646,-3.341 -2.232,-4.981l-8.877,11.392c-2.233,-0.239 -4.4,-0.607 -6.502,-1.104l11.327,-12.723c-2.077,-0.018 -4.184,-0.139 -6.316,-0.364l-11.302,11.135c-2.048,-0.797 -4.023,-1.734 -5.923,-2.81l10.907,-9.422c-2.09,-0.518 -4.096,-1.181 -6.018,-1.989l-10.321,7.798c-1.696,-1.31 -3.32,-2.75 -4.871,-4.32l9.66,-6.351c-1.727,-1.084 -3.371,-2.309 -4.928,-3.673l-9.02,5.118c-0.296,-0.382 -0.588,-0.769 -0.878,-1.162c-1.002,-1.362 -1.944,-2.769 -2.829,-4.215l8.451,-4.09c-1.154,-1.356 -2.248,-2.808 -3.28,-4.355c-0.118,-0.176 -0.235,-0.353 -0.35,-0.531l-7.951,3.224c-0.948,-1.964 -1.809,-3.98 -2.586,-6.033l7.517,-2.489c-0.907,-1.82 -1.72,-3.695 -2.446,-5.611l-7.156,1.861c-0.617,-2.109 -1.157,-4.243 -1.625,-6.387l6.865,-1.313c-0.555,-1.977 -1.031,-3.982 -1.432,-6.002l-6.637,0.823c-0.337,-2.195 -0.606,-4.389 -0.812,-6.566l6.455,-0.374c-0.264,-2.069 -0.459,-4.14 -0.592,-6.198l-13.415,-0.1c-0.618,2.327 -1.137,4.734 -1.549,7.201l8.291,-0.482c-0.598,2.222 -1.097,4.53 -1.489,6.905l-7.695,0.955c-0.188,2.466 -0.27,4.969 -0.239,7.492l7.103,-1.358c-0.168,2.368 -0.233,4.778 -0.187,7.212l-6.485,1.686c0.257,2.507 0.631,5.017 1.128,7.513l5.82,-1.927c0.264,2.42 0.64,4.846 1.134,7.26l-5.099,2.068c0.742,2.431 1.61,4.832 2.613,7.188l4.319,-2.09c0.729,2.358 1.58,4.689 2.559,6.975l-3.49,1.98c1.25,2.207 2.636,4.354 4.162,6.426l2.634,-1.732c1.22,2.15 2.57,4.241 4.055,6.256l-1.77,1.338c1.937,2.009 3.858,3.657 5.793,5.04l0.762,-0.658c1.159,1.218 2.304,2.299 3.442,3.263c4.617,2.464 9.435,3.859 14.853,5.427c6.539,1.893 13.843,4.007 21.836,8.498l0.081,-0.163c2.014,0.734 4.079,1.569 6.196,2.537l-0.486,1.148c1.983,1.204 3.974,2.34 5.97,3.406l0.522,-1.502c0.323,0.182 0.647,0.366 0.972,0.555c1.689,0.977 3.381,1.908 5.076,2.791l-0.346,1.252Zm-9.051,-92.003c0.867,0.634 1.772,1.217 2.705,1.745l6.152,-2.037c-0.321,-0.583 -0.619,-1.176 -0.894,-1.778l-7.963,2.07Zm-70.205,71.428c3.11,1.546 6.285,2.672 9.538,3.385l2.366,-2.044c-2.046,-1.622 -4.09,-3.502 -6.13,-5.703l-5.774,4.362Zm94.993,-36.445c0.947,0.338 1.917,0.637 2.907,0.897l1.629,-7.885c-1.07,1.053 -2.086,1.975 -3.016,2.769c-0.154,0.132 -0.309,0.263 -0.464,0.393l-1.056,3.826Zm55.143,43.877c-1.987,0.842 -4,1.588 -6.035,2.231l3.368,8.305c1.825,-1.808 3.446,-3.814 4.857,-6.01l-2.19,-4.526Zm-49.257,-42.329c0.995,0.177 2.005,0.315 3.027,0.415l1.103,-15.107c-0.839,1.077 -1.678,2.082 -2.504,3.016l-1.626,11.676Zm46.143,-140.059c-1.232,0.613 -2.357,1.242 -3.359,1.849c0.739,0.269 1.48,0.549 2.222,0.84l1.137,-2.689Zm-179.162,74.462c-0.521,1.306 -1.049,2.661 -1.581,4.066c-0.628,1.657 -1.232,3.301 -1.809,4.919l8.019,0.586c-0.692,1.965 -1.392,4.045 -2.101,6.248c-0.277,0.861 -0.548,1.719 -0.812,2.571l-8.274,-0.062c-1.184,3.678 -2.185,7.001 -2.977,9.739l8.564,-0.497c-0.963,3.489 -1.797,6.736 -2.494,9.579l-6.859,0.851c0.735,2.439 1.784,5.688 3.167,9.444l2.313,-0.442c0.813,2.306 1.975,5.413 3.489,9.021l-2.138,0.555c1.238,2.841 2.625,5.801 4.168,8.796l1.916,-0.635c1.318,2.707 2.786,5.53 4.405,8.388l-1.312,0.533c-1.346,-1.966 -2.652,-4.035 -3.915,-6.206c5.951,11.078 14.027,22.358 24.519,29.582c-0.114,-0.18 -0.228,-0.36 -0.341,-0.541c-0.071,-0.77 -0.117,-1.559 -0.137,-2.366l6.804,-4.473c-1.659,-2.281 -3.172,-4.631 -4.545,-7.036l-7.359,4.176c-1.259,-2.723 -2.376,-5.493 -3.357,-8.295l6.962,-3.369c-1.123,-2.571 -2.104,-5.186 -2.95,-7.831l-6.564,2.662c-0.72,-2.882 -1.306,-5.781 -1.764,-8.683l6.177,-2.045c-0.588,-2.724 -1.043,-5.464 -1.372,-8.203l-5.805,1.509c-0.21,-2.924 -0.294,-5.834 -0.26,-8.716l5.445,-1.041c-0.084,-2.759 -0.047,-5.503 0.106,-8.214l-5.09,0.631c0.275,-2.875 0.669,-5.703 1.175,-8.466l4.725,-0.274c0.389,-2.702 0.893,-5.353 1.503,-7.937l-4.334,-0.032c0.196,-0.701 0.399,-1.397 0.61,-2.086c-1.506,-1.916 -2.889,-4.032 -4.138,-6.313l10.06,0.735c0.541,-1.599 1.125,-3.162 1.749,-4.683c-0.871,-0.992 -1.692,-2.063 -2.461,-3.203l-21.127,-2.942Zm13.398,83.322c-0.616,-0.656 -1.226,-1.331 -1.829,-2.023l0.339,-0.163c0.486,0.731 0.983,1.461 1.49,2.186Zm-0.389,-107.88c-0.014,-0.292 -0.026,-0.584 -0.037,-0.877c-0.16,0.226 -0.322,0.458 -0.485,0.696l0.522,0.181Zm-8.998,-35.573c-0.007,1.542 -0.031,3.086 -0.056,4.619c-0.036,2.322 -0.072,4.613 -0.048,6.825l1.471,0.739l0,0.016c0.085,2.412 0.141,4.793 0.262,7.069c0.452,-2.074 0.99,-4.125 1.616,-6.141l7.254,3.645c0.657,-3.088 1.521,-6.132 2.599,-9.079l-6.294,-3.697c1.309,-2.763 2.9,-5.642 4.831,-8.514l5.356,3.637c1.409,-2.564 3.115,-5.224 5.172,-7.841l-4.432,-3.453c1.259,-1.339 2.609,-2.648 4.058,-3.914c-2.193,0.51 -4.364,1.213 -6.466,2.037l-8.179,-6.373c-3.529,1.906 -6.439,3.78 -8.36,5.133c0.889,4.033 1.158,8.349 1.209,12.716c0.036,-0.523 0.071,-1.046 0.104,-1.568c0.24,1.494 0.431,3.012 0.585,4.544l-0.682,-0.4Zm0.195,-5.789c0.119,-2.187 0.19,-4.344 0.142,-6.401l4.76,3.233c-1.821,1.091 -3.474,2.175 -4.902,3.168Z" style="fill:#fff;"/></svg>