<?xml version="1.0" encoding="UTF-8" standalone="no"?><!DOCTYPE svg PUBLIC "-//W3C//DTD SVG 1.1//EN" "http://www.w3.org/Graphics/SVG/1.1/DTD/svg11.dtd"><svg width="100%" height="100%" viewBox="0 0 100 100" version="1.1" xmlns="http://www.w3.org/2000/svg" xmlns:xlink="http://www.w3.org/1999/xlink" xml:space="preserve" xmlns:serif="http://www.serif.com/" style="fill-rule:evenodd;clip-rule:evenodd;stroke-linejoin:round;stroke-miterlimit:2;"><rect id="Artboard1" x="0" y="0" width="100" height="100" style="fill:none;"/><g><path d="M11.437,30c7.234,-13.873 21.753,-23.354 38.469,-23.354c16.716,-0 31.235,9.481 38.468,23.354l-3.082,0c-6.985,-12.323 -20.222,-20.646 -35.386,-20.646c-15.165,0 -28.401,8.323 -35.386,20.646l-3.083,0Zm76.937,40c-7.233,13.873 -21.752,23.354 -38.468,23.354c-16.716,0 -31.235,-9.481 -38.469,-23.354l3.083,0c6.985,12.323 20.221,20.646 35.386,20.646c15.164,-0 28.401,-8.323 35.386,-20.646l3.082,-0Z" style="fill:#fff;"/></g><path d="M25.769,44c2.691,-10.904 12.544,-19 24.274,-19c11.73,0 21.584,8.096 24.274,19l-48.548,-0Zm48.548,12c-2.69,10.904 -12.544,19 -24.274,19c-11.73,0 -21.583,-8.096 -24.274,-19l48.548,-0Z" style="fill:#f00;"/><path d="M24.163,44c2.722,-11.775 13.283,-20.562 25.88,-20.562c12.598,-0 23.158,8.787 25.881,20.562l-3.22,0c-2.653,-10.033 -11.799,-17.437 -22.661,-17.437c-10.862,-0 -20.008,7.404 -22.661,17.437l-3.219,0Zm51.761,12c-2.723,11.775 -13.283,20.563 -25.881,20.563c-12.597,-0 -23.158,-8.788 -25.88,-20.563l3.219,0c2.653,10.033 11.799,17.438 22.661,17.438c10.862,-0 20.008,-7.405 22.661,-17.438l3.22,0Z" style="fill:#fff;"/></svg>