<?xml version="1.0" encoding="UTF-8" standalone="no"?><!DOCTYPE svg PUBLIC "-//W3C//DTD SVG 1.1//EN" "http://www.w3.org/Graphics/SVG/1.1/DTD/svg11.dtd"><svg width="100%" height="100%" viewBox="0 0 24 24" version="1.1" xmlns="http://www.w3.org/2000/svg" xmlns:xlink="http://www.w3.org/1999/xlink" xml:space="preserve" xmlns:serif="http://www.serif.com/" style="fill-rule:evenodd;clip-rule:evenodd;stroke-linecap:square;stroke-miterlimit:1.5;"><rect id="Artboard1" x="0" y="0" width="24" height="24" style="fill:none;"/><g id="Artboard11" serif:id="Artboard1"><g><path d="M2.745,7.2c1.736,-3.33 5.221,-5.605 9.232,-5.605c4.012,0 7.497,2.275 9.233,5.605l-0.74,0c-1.676,-2.958 -4.853,-4.955 -8.493,-4.955c-3.639,-0 -6.816,1.997 -8.492,4.955l-0.74,-0Zm18.465,9.6c-1.736,3.33 -5.221,5.605 -9.233,5.605c-4.011,-0 -7.496,-2.275 -9.232,-5.605l0.74,0c1.676,2.958 4.853,4.955 8.492,4.955c3.64,0 6.817,-1.997 8.493,-4.955l0.74,-0Z" style="fill:#fff;"/></g><path d="M13.718,4.746c0.236,0.568 0.482,1.132 0.737,1.692c0.792,0.349 1.499,0.864 2.076,1.508c0.611,0.07 1.224,0.129 1.838,0.179c0.603,0.991 0.966,2.11 1.061,3.267c-0.467,0.4 -0.928,0.809 -1.382,1.225c-0.087,0.86 -0.358,1.692 -0.792,2.439c0.122,0.604 0.255,1.205 0.398,1.803c-0.757,0.881 -1.709,1.572 -2.78,2.019c-0.525,-0.32 -1.056,-0.632 -1.591,-0.935c-0.846,0.182 -1.72,0.182 -2.566,-0c-0.535,0.303 -1.066,0.615 -1.591,0.935c-1.071,-0.447 -2.023,-1.138 -2.78,-2.019c0.143,-0.598 0.276,-1.199 0.398,-1.803c-0.434,-0.747 -0.705,-1.579 -0.792,-2.439c-0.454,-0.416 -0.915,-0.825 -1.382,-1.225c0.095,-1.157 0.458,-2.276 1.061,-3.267c0.614,-0.05 1.227,-0.109 1.838,-0.179c0.577,-0.644 1.284,-1.159 2.076,-1.508c0.255,-0.56 0.501,-1.124 0.737,-1.692c1.13,-0.268 2.306,-0.268 3.436,-0Zm-1.718,4.706c1.407,-0 2.548,1.141 2.548,2.548c0,1.407 -1.141,2.548 -2.548,2.548c-1.407,0 -2.548,-1.141 -2.548,-2.548c-0,-1.407 1.141,-2.548 2.548,-2.548Z" style="fill:#f00;"/><clipPath id="_clip1"><path d="M13.718,4.746c0.236,0.568 0.482,1.132 0.737,1.692c0.792,0.349 1.499,0.864 2.076,1.508c0.611,0.07 1.224,0.129 1.838,0.179c0.603,0.991 0.966,2.11 1.061,3.267c-0.467,0.4 -0.928,0.809 -1.382,1.225c-0.087,0.86 -0.358,1.692 -0.792,2.439c0.122,0.604 0.255,1.205 0.398,1.803c-0.757,0.881 -1.709,1.572 -2.78,2.019c-0.525,-0.32 -1.056,-0.632 -1.591,-0.935c-0.846,0.182 -1.72,0.182 -2.566,-0c-0.535,0.303 -1.066,0.615 -1.591,0.935c-1.071,-0.447 -2.023,-1.138 -2.78,-2.019c0.143,-0.598 0.276,-1.199 0.398,-1.803c-0.434,-0.747 -0.705,-1.579 -0.792,-2.439c-0.454,-0.416 -0.915,-0.825 -1.382,-1.225c0.095,-1.157 0.458,-2.276 1.061,-3.267c0.614,-0.05 1.227,-0.109 1.838,-0.179c0.577,-0.644 1.284,-1.159 2.076,-1.508c0.255,-0.56 0.501,-1.124 0.737,-1.692c1.13,-0.268 2.306,-0.268 3.436,-0Zm-1.718,4.706c1.407,-0 2.548,1.141 2.548,2.548c0,1.407 -1.141,2.548 -2.548,2.548c-1.407,0 -2.548,-1.141 -2.548,-2.548c-0,-1.407 1.141,-2.548 2.548,-2.548Z"/></clipPath><g clip-path="url(#_clip1)"><path d="M13.718,4.746c0.236,0.568 0.482,1.132 0.737,1.692c0.792,0.349 1.499,0.864 2.076,1.508c0.611,0.07 1.224,0.129 1.838,0.179c0.603,0.991 0.966,2.11 1.061,3.267c-0.467,0.4 -0.928,0.809 -1.382,1.225c-0.087,0.86 -0.358,1.692 -0.792,2.439c0.122,0.604 0.255,1.205 0.398,1.803c-0.757,0.881 -1.709,1.572 -2.78,2.019c-0.525,-0.32 -1.056,-0.632 -1.591,-0.935c-0.846,0.182 -1.72,0.182 -2.566,-0c-0.535,0.303 -1.066,0.615 -1.591,0.935c-1.071,-0.447 -2.023,-1.138 -2.78,-2.019c0.143,-0.598 0.276,-1.199 0.398,-1.803c-0.434,-0.747 -0.705,-1.579 -0.792,-2.439c-0.454,-0.416 -0.915,-0.825 -1.382,-1.225c0.095,-1.157 0.458,-2.276 1.061,-3.267c0.614,-0.05 1.227,-0.109 1.838,-0.179c0.577,-0.644 1.284,-1.159 2.076,-1.508c0.255,-0.56 0.501,-1.124 0.737,-1.692c1.13,-0.268 2.306,-0.268 3.436,-0Zm-1.718,4.706c1.407,-0 2.548,1.141 2.548,2.548c0,1.407 -1.141,2.548 -2.548,2.548c-1.407,0 -2.548,-1.141 -2.548,-2.548c-0,-1.407 1.141,-2.548 2.548,-2.548Z" style="fill:#f00;stroke:#fff;stroke-width:2.5px;"/></g></g></svg>