<?xml version="1.0" encoding="UTF-8" standalone="no"?><!DOCTYPE svg PUBLIC "-//W3C//DTD SVG 1.1//EN" "http://www.w3.org/Graphics/SVG/1.1/DTD/svg11.dtd"><svg width="100%" height="100%" viewBox="0 0 24 24" version="1.1" xmlns="http://www.w3.org/2000/svg" xmlns:xlink="http://www.w3.org/1999/xlink" xml:space="preserve" xmlns:serif="http://www.serif.com/" style="fill-rule:evenodd;clip-rule:evenodd;stroke-linecap:square;stroke-miterlimit:1.5;"><rect id="Artboard1" x="0" y="0" width="24" height="24" style="fill:none;"/><g id="Artboard11" serif:id="Artboard1"><g><path d="M2.745,7.2c1.736,-3.33 5.221,-5.605 9.232,-5.605c4.012,0 7.497,2.275 9.233,5.605l-0.74,0c-1.676,-2.958 -4.853,-4.955 -8.493,-4.955c-3.639,-0 -6.816,1.997 -8.492,4.955l-0.74,-0Zm18.465,9.6c-1.736,3.33 -5.221,5.605 -9.233,5.605c-4.011,-0 -7.496,-2.275 -9.232,-5.605l0.74,0c1.676,2.958 4.853,4.955 8.492,4.955c3.64,0 6.817,-1.997 8.493,-4.955l0.74,-0Z" style="fill:#fff;"/></g><path d="M2.16,13.596l-0,-3.192l13.759,0l-3.313,-2.964l5.097,0l5.097,4.56l-5.097,4.56l-5.097,0l3.313,-2.964l-13.759,-0Z" style="fill:#fff;"/><path d="M12.606,16.56l5.097,-4.56l-5.097,-4.56l5.097,0l5.097,4.56l-5.097,4.56l-5.097,0Z" style="fill:#fff;"/><clipPath id="_clip1"><path d="M12.606,16.56l5.097,-4.56l-5.097,-4.56l5.097,0l5.097,4.56l-5.097,4.56l-5.097,0Z"/></clipPath><g clip-path="url(#_clip1)"><path d="M12.606,16.56l5.097,-4.56l-5.097,-4.56l5.097,0l5.097,4.56l-5.097,4.56l-5.097,0Z" style="fill:#f00;stroke:#fff;stroke-width:2px;"/></g><path d="M6.639,12.944c-0.047,-0.286 -0.026,-0.537 0.063,-0.751c0.089,-0.215 0.213,-0.405 0.372,-0.573c0.158,-0.167 0.322,-0.324 0.49,-0.471c0.169,-0.146 0.312,-0.296 0.428,-0.448c0.116,-0.152 0.174,-0.319 0.174,-0.5c0,-0.25 -0.084,-0.451 -0.252,-0.601c-0.168,-0.15 -0.402,-0.225 -0.702,-0.225c-0.235,0 -0.451,0.049 -0.648,0.145c-0.196,0.097 -0.381,0.227 -0.556,0.39l-0.676,-0.618c0.242,-0.263 0.528,-0.477 0.858,-0.643c0.33,-0.166 0.698,-0.249 1.105,-0.249c0.39,0 0.737,0.065 1.041,0.194c0.305,0.129 0.545,0.317 0.72,0.562c0.176,0.246 0.264,0.546 0.264,0.9c-0,0.278 -0.059,0.516 -0.178,0.716c-0.118,0.199 -0.264,0.378 -0.438,0.538c-0.175,0.16 -0.344,0.316 -0.509,0.468c-0.164,0.152 -0.298,0.321 -0.4,0.507c-0.103,0.186 -0.138,0.406 -0.106,0.659l-1.05,0Zm0.585,2.656c-0.252,-0 -0.465,-0.086 -0.639,-0.258c-0.174,-0.173 -0.261,-0.397 -0.261,-0.674c-0,-0.279 0.087,-0.502 0.261,-0.669c0.174,-0.166 0.387,-0.25 0.639,-0.25c0.255,0 0.468,0.084 0.641,0.25c0.173,0.167 0.26,0.39 0.26,0.669c-0,0.277 -0.087,0.501 -0.26,0.674c-0.173,0.172 -0.386,0.258 -0.641,0.258Z" style="fill:#f00;fill-rule:nonzero;"/></g></svg>