<?xml version="1.0" encoding="UTF-8" standalone="no"?><!DOCTYPE svg PUBLIC "-//W3C//DTD SVG 1.1//EN" "http://www.w3.org/Graphics/SVG/1.1/DTD/svg11.dtd"><svg width="100%" height="100%" viewBox="0 0 24 24" version="1.1" xmlns="http://www.w3.org/2000/svg" xmlns:xlink="http://www.w3.org/1999/xlink" xml:space="preserve" xmlns:serif="http://www.serif.com/" style="fill-rule:evenodd;clip-rule:evenodd;stroke-linejoin:round;stroke-miterlimit:2;"><rect id="Artboard1" x="0" y="0" width="24" height="24" style="fill:none;"/><g id="Artboard11" serif:id="Artboard1"><g><path d="M2.745,7.2c1.736,-3.33 5.221,-5.605 9.232,-5.605c4.012,0 7.497,2.275 9.233,5.605l-0.74,0c-1.676,-2.958 -4.853,-4.955 -8.493,-4.955c-3.639,-0 -6.816,1.997 -8.492,4.955l-0.74,-0Zm18.465,9.6c-1.736,3.33 -5.221,5.605 -9.233,5.605c-4.011,-0 -7.496,-2.275 -9.232,-5.605l0.74,0c1.676,2.958 4.853,4.955 8.492,4.955c3.64,0 6.817,-1.997 8.493,-4.955l0.74,-0Z" style="fill:#fff;"/></g><path d="M7.219,18.171l-0,-4.628l-4.474,-0l-0,-3.086l4.474,0l-0,-4.628l3.188,0l-0,4.628l4.474,0l-0,3.086l-4.474,-0l-0,4.628l-3.188,-0Z" style="fill:#fff;fill-rule:nonzero;"/><path d="M17.439,15.156l0,-0.936l1.764,-0l0,-4.157l-1.409,-0l-0,-0.721c0.266,-0.038 0.5,-0.082 0.7,-0.129c0.201,-0.048 0.382,-0.104 0.545,-0.169c0.163,-0.064 0.318,-0.139 0.467,-0.224l0.844,0l-0,5.4l1.545,-0l0,0.936l-4.456,-0Z" style="fill:#f00;fill-rule:nonzero;"/></g></svg>