<?xml version="1.0" encoding="UTF-8" standalone="no"?><!DOCTYPE svg PUBLIC "-//W3C//DTD SVG 1.1//EN" "http://www.w3.org/Graphics/SVG/1.1/DTD/svg11.dtd"><svg width="100%" height="100%" viewBox="0 0 2630 1000" version="1.1" xmlns="http://www.w3.org/2000/svg" xmlns:xlink="http://www.w3.org/1999/xlink" xml:space="preserve" xmlns:serif="http://www.serif.com/" style="fill-rule:evenodd;clip-rule:evenodd;stroke-linejoin:round;stroke-miterlimit:2;"><rect id="Artboard3" x="0" y="0" width="2630" height="1000" style="fill:none;"/><path d="M1031.04,453.433c-17.733,0 -34.183,-2.742 -49.35,-8.225c-15.166,-5.483 -27.358,-13.883 -36.575,-25.2c-9.216,-11.317 -13.825,-25.842 -13.825,-43.575l0,-4.025c0,-1.283 0.117,-2.742 0.35,-4.375l67.9,0c-0.233,0.933 -0.35,1.633 -0.35,2.1l0,2.1c0,4.2 0.992,8.167 2.975,11.9c1.984,3.733 5.309,6.825 9.975,9.275c4.667,2.45 11.2,3.675 19.6,3.675c9.567,0 16.684,-0.7 21.35,-2.1c4.667,-1.4 7.817,-3.267 9.45,-5.6c1.634,-2.333 2.45,-4.783 2.45,-7.35c0,-4.9 -2.333,-8.692 -7,-11.375c-4.666,-2.683 -10.791,-4.9 -18.375,-6.65c-7.583,-1.75 -15.925,-3.558 -25.025,-5.425c-9.1,-1.867 -18.258,-4.375 -27.475,-7.525c-9.216,-3.15 -17.616,-7.408 -25.2,-12.775c-7.583,-5.367 -13.708,-12.425 -18.375,-21.175c-4.666,-8.75 -7,-19.775 -7,-33.075c0,-17.033 4.667,-31.267 14,-42.7c9.334,-11.433 21.759,-20.125 37.275,-26.075c15.517,-5.95 32.609,-8.925 51.275,-8.925c17.967,0 34.242,2.625 48.825,7.875c14.584,5.25 26.25,13.242 35,23.975c8.75,10.733 13.125,24.617 13.125,41.65l0,4.2l-67.2,0l0,-1.4c0,-4.2 -0.933,-8.05 -2.8,-11.55c-1.866,-3.5 -4.958,-6.3 -9.275,-8.4c-4.316,-2.1 -9.975,-3.15 -16.975,-3.15c-6.533,0 -11.958,0.642 -16.275,1.925c-4.316,1.283 -7.525,2.975 -9.625,5.075c-2.1,2.1 -3.15,4.667 -3.15,7.7c0,5.133 2.334,9.158 7,12.075c4.667,2.917 10.85,5.308 18.55,7.175c7.7,1.867 16.217,3.733 25.55,5.6c9.334,1.867 18.609,4.258 27.825,7.175c9.217,2.917 17.675,6.942 25.375,12.075c7.7,5.133 13.884,11.842 18.55,20.125c4.667,8.283 7,18.725 7,31.325c0,19.833 -4.725,35.875 -14.175,48.125c-9.45,12.25 -22.4,21.233 -38.85,26.95c-16.45,5.717 -35.291,8.575 -56.525,8.575Zm228.55,0c-18.9,0 -35.175,-3.383 -48.825,-10.15c-13.65,-6.767 -24.091,-16.275 -31.325,-28.525c-7.233,-12.25 -10.85,-26.425 -10.85,-42.525l0,-162.4l73.85,0l0,162.75c0,7.7 2.742,14 8.225,18.9c5.484,4.9 12.192,7.35 20.125,7.35c7.934,0 14.584,-2.45 19.95,-7.35c5.367,-4.9 8.05,-11.2 8.05,-18.9l0,-162.75l73.85,0l0,162.4c0,16.1 -4.2,30.275 -12.6,42.525c-8.4,12.25 -19.95,21.758 -34.65,28.525c-14.7,6.767 -31.616,10.15 -50.75,10.15l-15.05,0Zm151.2,-3.5l0,-240.1l128.8,0c11.9,0 22.867,2.1 32.9,6.3c10.034,4.2 18.025,10.442 23.975,18.725c5.95,8.283 8.925,18.608 8.925,30.975c0,11.2 -1.866,20.708 -5.6,28.525c-3.733,7.817 -8.633,14.175 -14.7,19.075c-6.066,4.9 -12.716,8.633 -19.95,11.2l0,1.4c5.6,1.4 11.142,3.5 16.625,6.3c5.484,2.8 10.442,6.475 14.875,11.025c4.434,4.55 7.934,9.917 10.5,16.1c2.567,6.183 3.85,13.358 3.85,21.525c0,13.767 -3.383,25.842 -10.15,36.225c-6.766,10.383 -15.516,18.433 -26.25,24.15c-10.733,5.717 -22.283,8.575 -34.65,8.575l-129.15,0Zm67.55,-53.9l40.25,0c4.434,0 8.284,-0.933 11.55,-2.8c3.267,-1.867 5.775,-4.608 7.525,-8.225c1.75,-3.617 2.625,-7.992 2.625,-13.125c0,-4.667 -0.991,-8.342 -2.975,-11.025c-1.983,-2.683 -4.55,-4.667 -7.7,-5.95c-3.15,-1.283 -6.591,-1.925 -10.325,-1.925l-40.95,0l0,43.05Zm0,-94.15l40.25,0c4.434,0 7.934,-1.05 10.5,-3.15c2.567,-2.1 4.375,-4.9 5.425,-8.4c1.05,-3.5 1.575,-7.117 1.575,-10.85c0,-7 -1.691,-11.842 -5.075,-14.525c-3.383,-2.683 -7.525,-4.025 -12.425,-4.025l-40.25,0l0,40.95Zm334.6,151.55c-10.733,0 -19.716,-1.458 -26.95,-4.375c-7.233,-2.917 -12.775,-7.642 -16.625,-14.175c-3.85,-6.533 -5.775,-15.4 -5.775,-26.6c0,-3.5 -0.233,-7.7 -0.7,-12.6c-0.466,-4.9 -1.691,-9.625 -3.675,-14.175c-1.983,-4.55 -5.075,-8.4 -9.275,-11.55c-4.2,-3.15 -10.033,-4.725 -17.5,-4.725l-20.3,0l0,84.7l-71.75,0l0,-240.1l134.4,0c11.434,0 22.225,2.275 32.375,6.825c10.15,4.55 18.434,11.2 24.85,19.95c6.417,8.75 9.625,19.658 9.625,32.725c0,10.967 -1.983,20.825 -5.95,29.575c-3.966,8.75 -9.216,16.1 -15.75,22.05c-6.533,5.95 -13.65,10.442 -21.35,13.475l0,1.75c6.767,2.1 12.6,5.017 17.5,8.75c4.9,3.733 8.867,8.108 11.9,13.125c3.034,5.017 5.309,10.208 6.825,15.575c1.517,5.367 2.275,10.617 2.275,15.75c0,3.5 0.117,7.525 0.35,12.075c0.234,4.55 0.875,8.925 1.925,13.125c1.05,4.2 2.8,7.933 5.25,11.2c2.45,3.267 5.892,5.483 10.325,6.65l0,14.35c-6.3,2.567 -13.183,4.317 -20.65,5.25c-7.466,0.933 -14.583,1.4 -21.35,1.4Zm-100.8,-141.75l35.7,0c3.5,0 6.709,-1.108 9.625,-3.325c2.917,-2.217 5.192,-5.192 6.825,-8.925c1.634,-3.733 2.45,-8.05 2.45,-12.95c0,-7.467 -1.75,-12.95 -5.25,-16.45c-3.5,-3.5 -7.7,-5.25 -12.6,-5.25l-36.75,0l0,46.9Zm262.85,141.75c-14.466,0 -28.058,-2.742 -40.775,-8.225c-12.716,-5.483 -23.858,-13.008 -33.425,-22.575c-9.566,-9.567 -17.091,-20.708 -22.575,-33.425c-5.483,-12.717 -8.225,-26.308 -8.225,-40.775l0,-36.4c0,-14.467 2.742,-28.058 8.225,-40.775c5.484,-12.717 13.009,-23.858 22.575,-33.425c9.567,-9.567 20.709,-17.092 33.425,-22.575c12.717,-5.483 26.309,-8.225 40.775,-8.225l19.6,0c14.467,0 28.059,2.742 40.775,8.225c12.717,5.483 23.859,13.008 33.425,22.575c9.567,9.567 17.092,20.708 22.575,33.425c5.484,12.717 8.225,26.308 8.225,40.775l0,36.4c0,14.467 -2.741,28.058 -8.225,40.775c-5.483,12.717 -13.008,23.858 -22.575,33.425c-9.566,9.567 -20.708,17.092 -33.425,22.575c-12.716,5.483 -26.308,8.225 -40.775,8.225l-19.6,0Zm9.8,-54.6c5.367,0 10.209,-0.933 14.525,-2.8c4.317,-1.867 8.109,-4.375 11.375,-7.525c3.267,-3.15 5.775,-6.825 7.525,-11.025c1.75,-4.2 2.625,-8.75 2.625,-13.65l0,-67.2c0,-4.9 -0.875,-9.45 -2.625,-13.65c-1.75,-4.2 -4.258,-7.933 -7.525,-11.2c-3.266,-3.267 -7.058,-5.775 -11.375,-7.525c-4.316,-1.75 -9.158,-2.625 -14.525,-2.625c-5.133,0 -9.916,0.933 -14.35,2.8c-4.433,1.867 -8.283,4.375 -11.55,7.525c-3.266,3.15 -5.775,6.825 -7.525,11.025c-1.75,4.2 -2.625,8.75 -2.625,13.65l0,67.2c0,4.9 0.875,9.45 2.625,13.65c1.75,4.2 4.259,7.933 7.525,11.2c3.267,3.267 7.117,5.775 11.55,7.525c4.434,1.75 9.217,2.625 14.35,2.625Zm234.15,54.6c-17.733,0 -34.183,-2.742 -49.35,-8.225c-15.166,-5.483 -27.358,-13.883 -36.575,-25.2c-9.216,-11.317 -13.825,-25.842 -13.825,-43.575l0,-4.025c0,-1.283 0.117,-2.742 0.35,-4.375l67.9,0c-0.233,0.933 -0.35,1.633 -0.35,2.1l0,2.1c0,4.2 0.992,8.167 2.975,11.9c1.984,3.733 5.309,6.825 9.975,9.275c4.667,2.45 11.2,3.675 19.6,3.675c9.567,0 16.684,-0.7 21.35,-2.1c4.667,-1.4 7.817,-3.267 9.45,-5.6c1.634,-2.333 2.45,-4.783 2.45,-7.35c0,-4.9 -2.333,-8.692 -7,-11.375c-4.666,-2.683 -10.791,-4.9 -18.375,-6.65c-7.583,-1.75 -15.925,-3.558 -25.025,-5.425c-9.1,-1.867 -18.258,-4.375 -27.475,-7.525c-9.216,-3.15 -17.616,-7.408 -25.2,-12.775c-7.583,-5.367 -13.708,-12.425 -18.375,-21.175c-4.666,-8.75 -7,-19.775 -7,-33.075c0,-17.033 4.667,-31.267 14,-42.7c9.334,-11.433 21.759,-20.125 37.275,-26.075c15.517,-5.95 32.609,-8.925 51.275,-8.925c17.967,0 34.242,2.625 48.825,7.875c14.584,5.25 26.25,13.242 35,23.975c8.75,10.733 13.125,24.617 13.125,41.65l0,4.2l-67.2,0l0,-1.4c0,-4.2 -0.933,-8.05 -2.8,-11.55c-1.866,-3.5 -4.958,-6.3 -9.275,-8.4c-4.316,-2.1 -9.975,-3.15 -16.975,-3.15c-6.533,0 -11.958,0.642 -16.275,1.925c-4.316,1.283 -7.525,2.975 -9.625,5.075c-2.1,2.1 -3.15,4.667 -3.15,7.7c0,5.133 2.334,9.158 7,12.075c4.667,2.917 10.85,5.308 18.55,7.175c7.7,1.867 16.217,3.733 25.55,5.6c9.334,1.867 18.609,4.258 27.825,7.175c9.217,2.917 17.675,6.942 25.375,12.075c7.7,5.133 13.884,11.842 18.55,20.125c4.667,8.283 7,18.725 7,31.325c0,19.833 -4.725,35.875 -14.175,48.125c-9.45,12.25 -22.4,21.233 -38.85,26.95c-16.45,5.717 -35.291,8.575 -56.525,8.575Zm139.3,-3.5l0,-240.1l180.25,0l-7,56l-101.15,0l0,35l97.3,0l0,53.55l-97.3,0l0,39.55l101.15,0l7,56l-180.25,0Zm-1332.24,343.734c-17.243,-0 -33.239,-2.666 -47.986,-7.998c-14.748,-5.332 -26.603,-13.5 -35.565,-24.504c-8.962,-11.004 -13.443,-25.127 -13.443,-42.371l0,-3.914c0,-1.247 0.113,-2.666 0.34,-4.254l66.024,0c-0.226,0.908 -0.34,1.588 -0.34,2.042l0,2.042c0,4.084 0.964,7.941 2.893,11.571c1.928,3.631 5.162,6.637 9.699,9.019c4.538,2.383 10.891,3.574 19.059,3.574c9.302,-0 16.222,-0.681 20.76,-2.042c4.538,-1.362 7.601,-3.177 9.189,-5.446c1.588,-2.268 2.382,-4.651 2.382,-7.147c0,-4.764 -2.269,-8.451 -6.806,-11.06c-4.538,-2.609 -10.494,-4.765 -17.868,-6.467c-7.374,-1.701 -15.485,-3.46 -24.333,-5.275c-8.849,-1.815 -17.754,-4.254 -26.716,-7.317c-8.962,-3.063 -17.13,-7.203 -24.504,-12.422c-7.374,-5.218 -13.33,-12.082 -17.867,-20.59c-4.538,-8.508 -6.807,-19.228 -6.807,-32.161c-0,-16.563 4.538,-30.403 13.613,-41.52c9.076,-11.118 21.157,-19.569 36.245,-25.355c15.088,-5.786 31.708,-8.678 49.859,-8.678c17.47,-0 33.295,2.552 47.476,7.657c14.18,5.105 25.525,12.876 34.033,23.313c8.508,10.436 12.762,23.936 12.762,40.499l0,4.084l-65.343,-0l-0,-1.361c-0,-4.084 -0.908,-7.828 -2.723,-11.231c-1.815,-3.404 -4.821,-6.126 -9.018,-8.168c-4.198,-2.042 -9.7,-3.063 -16.507,-3.063c-6.352,-0 -11.627,0.624 -15.825,1.872c-4.197,1.247 -7.317,2.892 -9.359,4.934c-2.042,2.042 -3.063,4.538 -3.063,7.488c0,4.991 2.269,8.905 6.807,11.741c4.537,2.836 10.55,5.162 18.037,6.977c7.487,1.815 15.769,3.63 24.844,5.445c9.076,1.815 18.095,4.141 27.057,6.977c8.962,2.836 17.186,6.75 24.674,11.741c7.487,4.992 13.499,11.515 18.037,19.569c4.538,8.055 6.807,18.208 6.807,30.46c-0,19.285 -4.595,34.884 -13.784,46.795c-9.189,11.912 -21.781,20.647 -37.776,26.206c-15.996,5.559 -34.317,8.338 -54.964,8.338Zm190.245,-3.403l-0,-89.507l-77.255,-143.96l80.318,-0l35.054,76.574l1.702,0l35.734,-76.574l73.171,-0l-76.914,143.96l-0,89.507l-71.81,-0Zm251.164,3.403c-17.243,-0 -33.239,-2.666 -47.987,-7.998c-14.747,-5.332 -26.602,-13.5 -35.564,-24.504c-8.962,-11.004 -13.443,-25.127 -13.443,-42.371l-0,-3.914c-0,-1.247 0.113,-2.666 0.34,-4.254l66.024,0c-0.227,0.908 -0.34,1.588 -0.34,2.042l-0,2.042c-0,4.084 0.964,7.941 2.893,11.571c1.928,3.631 5.161,6.637 9.699,9.019c4.538,2.383 10.891,3.574 19.059,3.574c9.302,-0 16.222,-0.681 20.76,-2.042c4.538,-1.362 7.6,-3.177 9.189,-5.446c1.588,-2.268 2.382,-4.651 2.382,-7.147c0,-4.764 -2.269,-8.451 -6.807,-11.06c-4.537,-2.609 -10.493,-4.765 -17.867,-6.467c-7.374,-1.701 -15.485,-3.46 -24.334,-5.275c-8.848,-1.815 -17.754,-4.254 -26.716,-7.317c-8.962,-3.063 -17.13,-7.203 -24.503,-12.422c-7.374,-5.218 -13.33,-12.082 -17.868,-20.59c-4.537,-8.508 -6.806,-19.228 -6.806,-32.161c-0,-16.563 4.537,-30.403 13.613,-41.52c9.075,-11.118 21.157,-19.569 36.245,-25.355c15.088,-5.786 31.708,-8.678 49.859,-8.678c17.47,-0 33.295,2.552 47.476,7.657c14.18,5.105 25.524,12.876 34.033,23.313c8.508,10.436 12.762,23.936 12.762,40.499l0,4.084l-65.343,-0l-0,-1.361c-0,-4.084 -0.908,-7.828 -2.723,-11.231c-1.815,-3.404 -4.821,-6.126 -9.019,-8.168c-4.197,-2.042 -9.699,-3.063 -16.506,-3.063c-6.353,-0 -11.628,0.624 -15.825,1.872c-4.198,1.247 -7.317,2.892 -9.359,4.934c-2.042,2.042 -3.063,4.538 -3.063,7.488c-0,4.991 2.269,8.905 6.806,11.741c4.538,2.836 10.551,5.162 18.038,6.977c7.487,1.815 15.769,3.63 24.844,5.445c9.076,1.815 18.094,4.141 27.056,6.977c8.962,2.836 17.187,6.75 24.674,11.741c7.488,4.992 13.5,11.515 18.038,19.569c4.538,8.055 6.806,18.208 6.806,30.46c0,19.285 -4.594,34.884 -13.783,46.795c-9.189,11.912 -21.781,20.647 -37.777,26.206c-15.995,5.559 -34.316,8.338 -54.963,8.338Zm179.694,-3.403l0,-177.313l-58.536,0l-0,-56.154l189.223,-0l0,56.154l-58.877,0l0,177.313l-71.81,-0Zm155.191,-0l0,-233.467l175.27,-0l-6.806,54.453l-98.356,-0l0,34.033l94.612,-0l0,52.07l-94.612,0l0,38.458l98.356,-0l6.806,54.453l-175.27,-0Zm204.199,-0l-0,-233.467l117.073,-0l33.693,124.561l1.361,-0l33.012,-124.561l117.755,-0l-0,233.467l-71.47,-0l0,-149.746l-1.361,0l-40.84,149.746l-82.019,-0l-40.5,-149.746l-1.701,0l-0,149.746l-65.003,-0Zm427.795,3.403c-17.243,-0 -33.239,-2.666 -47.987,-7.998c-14.747,-5.332 -26.602,-13.5 -35.564,-24.504c-8.962,-11.004 -13.443,-25.127 -13.443,-42.371l-0,-3.914c-0,-1.247 0.113,-2.666 0.34,-4.254l66.024,0c-0.227,0.908 -0.34,1.588 -0.34,2.042l-0,2.042c-0,4.084 0.964,7.941 2.893,11.571c1.928,3.631 5.161,6.637 9.699,9.019c4.538,2.383 10.891,3.574 19.059,3.574c9.302,-0 16.222,-0.681 20.76,-2.042c4.538,-1.362 7.601,-3.177 9.189,-5.446c1.588,-2.268 2.382,-4.651 2.382,-7.147c0,-4.764 -2.269,-8.451 -6.806,-11.06c-4.538,-2.609 -10.494,-4.765 -17.868,-6.467c-7.374,-1.701 -15.485,-3.46 -24.333,-5.275c-8.849,-1.815 -17.754,-4.254 -26.716,-7.317c-8.962,-3.063 -17.13,-7.203 -24.504,-12.422c-7.374,-5.218 -13.33,-12.082 -17.868,-20.59c-4.537,-8.508 -6.806,-19.228 -6.806,-32.161c-0,-16.563 4.538,-30.403 13.613,-41.52c9.076,-11.118 21.157,-19.569 36.245,-25.355c15.088,-5.786 31.708,-8.678 49.859,-8.678c17.47,-0 33.295,2.552 47.476,7.657c14.18,5.105 25.525,12.876 34.033,23.313c8.508,10.436 12.762,23.936 12.762,40.499l0,4.084l-65.343,-0l-0,-1.361c-0,-4.084 -0.908,-7.828 -2.723,-11.231c-1.815,-3.404 -4.821,-6.126 -9.019,-8.168c-4.197,-2.042 -9.699,-3.063 -16.506,-3.063c-6.353,-0 -11.628,0.624 -15.825,1.872c-4.197,1.247 -7.317,2.892 -9.359,4.934c-2.042,2.042 -3.063,4.538 -3.063,7.488c-0,4.991 2.269,8.905 6.807,11.741c4.537,2.836 10.55,5.162 18.037,6.977c7.487,1.815 15.769,3.63 24.844,5.445c9.076,1.815 18.094,4.141 27.056,6.977c8.962,2.836 17.187,6.75 24.674,11.741c7.488,4.992 13.5,11.515 18.038,19.569c4.538,8.055 6.807,18.208 6.807,30.46c-0,19.285 -4.595,34.884 -13.784,46.795c-9.189,11.912 -21.781,20.647 -37.777,26.206c-15.995,5.559 -34.316,8.338 -54.963,8.338Z" style="fill:#fff;"/><path d="M759.272,308.133c40.283,3.926 88.916,38.657 99.895,60.623c5.371,10.737 2.009,18.099 -0.47,21.531c-9.675,13.384 -13.725,42.126 -17.297,67.485c-4.765,33.824 -9.664,68.596 -29.354,81.167c-4.409,2.815 -9.558,4.518 -15.616,4.848c-1.279,0.069 -2.517,-0.054 -3.7,-0.328c-2.789,6.445 -5.9,12.659 -9.243,18.73c39.982,57.6 14.797,106.216 -3.699,141.847c-5.383,10.373 -10.47,20.172 -13.065,28.521c-12.959,41.68 -35.261,73.515 -63.857,91.773c-6.069,3.874 -12.419,7.135 -19.025,9.752c-23.683,9.379 -44.793,11.758 -69.237,14.516c-19.742,2.227 -42.12,4.749 -71.861,11.341c-58.123,12.881 -103.644,8.206 -135.3,-13.894c-3.921,-2.739 -7.467,-5.695 -10.726,-8.778c-58.371,29.34 -133.894,25.775 -141.939,21.988c-3.697,-1.743 -6.41,-5.152 -7.241,-9.149c-3.623,-17.497 -15.863,-29.422 -30.038,-43.231c-18.197,-17.729 -38.802,-37.816 -41.036,-72.851c-1.031,-0.546 -2.069,-1.063 -3.093,-1.64c-34.366,-19.339 -63.862,-54.972 -87.668,-105.906c-17.414,-37.265 -25.031,-68.731 -25.345,-70.052c-0.488,-2.04 -0.476,-4.171 0.036,-6.215c2.843,-11.362 22.301,-86.546 52.44,-139.029c-16.452,-19.46 -16.011,-47.725 -15.576,-75.115c0.274,-17.327 0.557,-35.243 -3.916,-48.143c-1.48,-4.265 -0.561,-9.162 2.296,-12.707c3.423,-4.245 20.937,-16.628 40.589,-26.368c19.799,-9.814 49.425,-20.822 78.356,-17.76c6.456,-29.239 22.878,-56.574 48.81,-80.711c29.743,-27.682 61.4,-41.348 62.732,-41.917c4.125,-1.759 8.843,-1.325 12.535,1.151c0.479,0.316 51.116,33.305 125.305,29.619c44.936,-2.233 78.475,11.391 101.968,27.379c22.438,-4.357 113.908,-17.672 174.29,39.849c4.488,4.277 4.856,4.626 13.919,66.876c1.585,10.878 3.325,22.826 5.131,34.798Zm-645.162,161.863c-1.257,3.147 -2.528,6.412 -3.811,9.799c-1.513,3.992 -2.967,7.954 -4.359,11.852l19.324,1.412c-1.667,4.734 -3.356,9.748 -5.063,15.056c-0.668,2.075 -1.32,4.142 -1.958,6.196l-19.937,-0.149c-2.853,8.861 -5.264,16.868 -7.174,23.466l20.638,-1.198c-2.321,8.408 -4.33,16.233 -6.009,23.083l-16.53,2.05c1.772,5.877 4.299,13.707 7.631,22.758l5.575,-1.066c1.96,5.556 4.757,13.042 8.406,21.736l-5.152,1.339c2.984,6.845 6.327,13.978 10.044,21.194l4.616,-1.529c3.178,6.522 6.716,13.324 10.616,20.213l-3.162,1.282c-3.244,-4.737 -6.389,-9.723 -9.433,-14.954c14.338,26.694 33.8,53.875 59.081,71.284c-0.275,-0.435 -0.549,-0.87 -0.821,-1.305c-0.171,-1.856 -0.283,-3.756 -0.331,-5.701l16.396,-10.779c-3.998,-5.496 -7.643,-11.158 -10.951,-16.954l-17.732,10.062c-3.035,-6.56 -5.728,-13.234 -8.092,-19.987l16.777,-8.118c-2.706,-6.195 -5.07,-12.497 -7.109,-18.869l-15.816,6.413c-1.734,-6.943 -3.146,-13.93 -4.251,-20.922l14.884,-4.929c-1.415,-6.564 -2.512,-13.164 -3.306,-19.764l-13.987,3.636c-0.505,-7.046 -0.71,-14.06 -0.627,-21.004l13.121,-2.508c-0.204,-6.649 -0.113,-13.259 0.256,-19.793l-12.265,1.521c0.663,-6.928 1.611,-13.742 2.83,-20.4l11.387,-0.661c0.937,-6.51 2.15,-12.898 3.62,-19.124l-10.443,-0.078c0.472,-1.69 0.961,-3.366 1.469,-5.027c-3.628,-4.617 -6.96,-9.715 -9.971,-15.212l24.243,1.771c1.303,-3.854 2.709,-7.619 4.214,-11.283c-2.099,-2.391 -4.077,-4.971 -5.931,-7.72l-50.907,-7.089Zm18.716,-40.774c-3.146,5.834 -6.435,12.448 -9.851,19.948l31.226,6.454c-2.577,-6.948 -4.615,-14.399 -6.091,-22.184l-15.284,-4.218Zm12.631,-18.4c-0.035,-0.704 -0.065,-1.409 -0.091,-2.115c-0.386,0.546 -0.775,1.105 -1.168,1.677l1.259,0.438Zm26.364,-11.756c-0.169,7.158 0.134,14.315 0.939,21.252l7.151,2.488c0.418,6.893 1.322,13.695 2.739,20.167l-5.587,-1.542c1.927,6.295 4.398,12.126 7.445,17.266c3.018,-4.601 6.201,-8.802 9.523,-12.583l-4.382,-1.21c5.529,-5.159 11.366,-9.385 17.416,-12.654l1.593,0.554c6.576,-4.626 13.488,-7.812 20.588,-9.447l-9.183,-3.884c2.072,-5.05 4.374,-9.995 6.891,-14.823l10.33,5.191c2.184,-4.728 4.596,-9.341 7.222,-13.826l-9.356,-5.495c2.937,-4.578 6.076,-9.024 9.405,-13.325l8.464,5.748c3.038,-4.214 6.275,-8.286 9.694,-12.202l-7.651,-5.962c3.664,-3.967 7.502,-7.777 11.5,-11.418l6.907,6.15c3.739,-3.562 7.643,-6.956 11.699,-10.169l-6.226,-6.32c4.242,-3.244 8.627,-6.311 13.144,-9.189l5.598,6.48c4.275,-2.799 8.683,-5.409 13.209,-7.819l-5.017,-6.64c4.662,-2.436 9.437,-4.68 14.315,-6.718l4.475,6.808c4.639,-1.954 9.379,-3.703 14.204,-5.236l-3.966,-6.99c3.441,-1.102 6.925,-2.104 10.446,-3.002c1.513,-0.386 3.025,-0.751 4.537,-1.094l3.483,7.199c0.479,-0.105 0.959,-0.208 1.44,-0.309c4.425,-0.93 8.835,-1.661 13.223,-2.197l-3.013,-7.429c5.075,-0.683 10.132,-1.127 15.163,-1.337l2.55,7.701c4.907,-0.11 9.776,0.028 14.596,0.41l-2.089,-8.035c1.298,0.068 2.594,0.151 3.888,0.25c2.766,-3.24 5.754,-6.27 8.952,-9.082l3.237,16.937c3.602,-4.418 7.67,-8.362 12.16,-11.817l-1.859,-14.98c4.627,-2.771 9.553,-5.189 14.755,-7.239l0.801,13.804c4.609,-2.222 9.509,-4.055 14.67,-5.488l0.098,-13.149c5.153,-1.206 10.513,-2.097 16.061,-2.665l-0.938,12.839c4.979,-0.596 10.14,-0.871 15.459,-0.819l3.697,-26.55c-1.564,-2.438 -3.657,-4.812 -6.416,-7.022c-3.211,-2.572 -6.451,-4.603 -9.779,-6.146l-1.597,21.869c-0.823,-1.054 -1.853,-2.067 -3.135,-3.007c-4.315,-3.162 -8.648,-5.009 -13.222,-5.83l0.127,-16.944c-5.531,-0.085 -11.461,0.672 -17.974,2.102l0.906,15.607c-1.033,0.218 -2.085,0.461 -3.155,0.727c-4.186,1.04 -8.606,2.406 -13.318,4.044l-1.927,-15.534c-5.28,1.686 -10.914,3.629 -16.964,5.773l3.011,15.751c-3.608,1.436 -7.376,2.968 -11.32,4.58c-1.352,0.553 -2.718,1.111 -4.099,1.673l-4.183,-16.092c-5.284,1.862 -10.776,3.751 -16.48,5.603l5.484,16.561c-4.899,1.909 -9.961,3.822 -15.193,5.695l-6.965,-17.178c-5.556,1.57 -11.294,3.06 -17.218,4.421l8.704,17.988c-5.206,1.648 -10.566,3.227 -16.085,4.702l-10.817,-19.063c-6.39,1.074 -12.978,1.967 -19.767,2.628l13.496,20.528c-6.034,1.275 -12.242,2.402 -18.632,3.346l-16.912,-22.385c-7.99,0.695 -15.337,2.023 -22.091,3.86l18.042,20.886c-7.818,0.775 -14.939,2.19 -21.425,4.112l-16.942,-17.198c-6.671,3.406 -12.554,7.356 -17.738,11.629l15.344,13.66c-6.27,3.509 -11.699,7.551 -16.398,11.884l-13.605,-10.602c-4.67,5.861 -8.414,11.846 -11.402,17.531l11.987,8.139c-4.084,5.937 -7.191,11.919 -9.545,17.459l-10.537,-6.189c-2.049,6.489 -3.651,13.458 -4.774,20.661l9.24,4.643c-1.411,6.364 -2.385,13.115 -2.895,20.01l-8.231,-3.482Zm-46.799,-25.294c0.805,4.939 2.013,9.457 3.801,13.404c1.272,-1.61 2.558,-3.167 3.857,-4.666l-5.678,-2.402c-0.77,-2.065 -1.425,-4.179 -1.98,-6.336Zm-1.248,-48.671c-0.017,3.718 -0.076,7.437 -0.134,11.132c-0.089,5.594 -0.175,11.115 -0.117,16.446l3.545,1.781l0.001,0.037c0.203,5.813 0.338,11.549 0.63,17.035c1.089,-4.998 2.385,-9.941 3.894,-14.798l17.479,8.783c1.583,-7.441 3.665,-14.775 6.264,-21.878l-15.167,-8.908c3.154,-6.657 6.989,-13.596 11.641,-20.514l12.905,8.763c3.397,-6.179 7.506,-12.59 12.464,-18.894l-10.679,-8.322c3.032,-3.225 6.286,-6.38 9.779,-9.43c-5.286,1.23 -10.517,2.923 -15.581,4.909l-19.709,-15.359c-8.504,4.594 -15.515,9.111 -20.145,12.37c2.142,9.718 2.79,20.119 2.912,30.64c0.087,-1.259 0.171,-2.519 0.251,-3.778c0.58,3.6 1.039,7.258 1.411,10.951l-1.644,-0.966Zm70.798,-67.72c-9.491,1.079 -19.03,3.638 -28.046,6.918l26.17,23.299c5.447,-4.824 11.556,-9.368 18.404,-13.441l-16.528,-16.776Zm45.297,-18.895c-1.54,7.759 -2.205,15.683 -1.993,23.764c5.283,-1.666 10.87,-3.077 16.783,-4.187l-4.223,-5.59c5.068,-0.847 10.346,-1.509 15.842,-1.963c2.79,-0.23 5.542,-0.506 8.255,-0.824l3.761,5.722c0.11,-0.005 0.22,-0.01 0.33,-0.014c7.635,-0.313 14.999,-0.963 22.117,-1.884l-4.206,-7.412c6.976,-1.457 13.692,-3.16 20.179,-5.032l4.359,9.01c6.555,-1.362 12.895,-2.918 19.045,-4.603l-4.284,-10.567c6.418,-2.268 12.615,-4.639 18.63,-7.024l3.998,12.072c6.213,-2.019 12.236,-4.108 18.099,-6.186l-3.49,-13.425c6.438,-2.614 12.759,-5.118 18.979,-7.41l2.74,14.333c6.345,-2.237 12.56,-4.352 18.657,-6.202l-1.813,-14.618c6.842,-1.957 13.576,-3.5 20.228,-4.48l0.826,14.242c6.695,-1.271 13.257,-1.993 19.708,-1.951l0.099,-13.344c6.869,0.384 13.674,1.57 20.443,3.734l-0.907,12.414c6.29,1.86 12.49,4.721 18.619,8.802l1.69,-12.132c2.077,1.298 4.154,2.705 6.23,4.227c4.313,3.161 8.042,6.535 11.253,10.059l-2.734,13.226c8.123,11.368 10.18,24.024 9.409,35.081l7.021,-25.442c0.272,0.771 0.527,1.543 0.768,2.315c6.166,-3.371 13.136,-6.637 20.796,-9.392l-7.562,21.74c6.588,-3.058 14.063,-5.881 22.248,-7.936l8.394,-19.844c2.751,-0.453 5.558,-0.82 8.418,-1.089c-1.545,-2.368 -3.196,-4.738 -4.957,-7.094l6.886,-16.279c-3.395,-4.025 -7.101,-7.965 -11.133,-11.753c-1.806,-1.698 -3.741,-3.421 -5.807,-5.149l-5.48,15.758c-1.391,-1.308 -2.822,-2.598 -4.296,-3.866c-3.948,-3.398 -8.509,-6.889 -13.696,-10.235l4.166,-15.096c-6.321,-3.612 -13.353,-6.934 -21.124,-9.7l-2.974,14.389c-6.475,-2.656 -13.565,-4.914 -21.282,-6.55l1.907,-13.688c-7.179,-1.245 -14.833,-1.999 -22.977,-2.132l-0.957,13.093c-6.114,-0.245 -12.532,-0.097 -19.26,0.518c-0.983,0.09 -1.963,0.174 -2.939,0.254l0.1,-13.356c-7.976,0.026 -15.668,-0.311 -23.05,-0.938l0.883,15.223c-7.707,0.024 -15.158,-0.266 -22.329,-0.81l-2.172,-17.506c-8.93,-1.586 -17.254,-3.544 -24.91,-5.696l3.915,20.482c-8.829,-1.407 -17.093,-3.152 -24.73,-5.081l-6.434,-24.75c-10.446,-4.275 -18.414,-8.394 -23.539,-11.282c-1.593,0.807 -3.466,1.786 -5.569,2.936l8.164,24.653c-7.039,-2.585 -13.049,-5.135 -17.925,-7.378c-2.687,1.659 -5.72,3.617 -8.989,5.867l-3.69,-9.101c-6.627,4.702 -13.659,10.233 -20.542,16.589l4.014,8.296c-3.396,3.01 -6.813,6.25 -10.17,9.716c-2.754,2.844 -5.351,5.715 -7.79,8.614l-4.109,-7.24c-5.833,7.397 -10.687,15.005 -14.557,22.813l3.823,5.814c-4.594,8.321 -7.971,16.84 -10.104,25.552l-3.079,-4.077Zm483.739,8.892c-1.633,-10.738 -3.089,-19.709 -4.035,-24.003c-39.12,-35.266 -94.753,-36.726 -126.937,-33.913c0.768,0.815 1.527,1.638 2.278,2.469c5.596,0.056 11.652,0.306 18.029,0.847l-6.626,13.187c5.093,6.987 9.64,14.324 13.552,21.85l8.497,-14.467c4.562,7.697 8.521,15.615 11.791,23.608l-10.176,14.985c1.503,4.696 2.739,9.399 3.686,14.073c2.775,1.432 5.523,2.993 8.243,4.684l11.735,-15.06c5.984,3.702 11.879,7.937 17.675,12.712l-12.91,14.501c5.004,4.288 9.897,9.056 14.672,14.303l14.213,-14.002c1.333,1.377 2.659,2.786 3.979,4.225c3.582,3.905 7.376,7.672 11.325,11.328l-15.922,13.754c4.731,4.945 9.741,9.716 14.908,14.359l18.01,-13.607c1.885,1.504 3.785,2.994 5.694,4.471c-0.512,-2.491 -1.03,-5.025 -1.553,-7.599l7.412,-5.6c0.736,8.214 1.529,17.054 2.362,26.014l-15.631,10.276c3.978,3.284 7.974,6.525 11.941,9.742c1.838,1.49 3.671,2.976 5.494,4.46l4.3,-2.44c-3.543,-20.492 -7.372,-46.264 -11.584,-75.191c-0.026,-0.179 -0.053,-0.359 -0.079,-0.539l-9.278,8.015c-0.871,-4.388 -1.754,-8.86 -2.65,-13.407l-0,-0.002c-0.9,-4.566 -1.82,-9.246 -2.735,-13.866l10.32,-10.167Zm79.749,201.897c3.679,23.277 3.159,42.981 -0.141,60.46c6.023,-12.466 9.515,-37.273 12.063,-55.371c3.911,-27.763 7.947,-56.408 19.432,-75.321c-6.893,-10.953 -40.887,-37.614 -71.199,-43.743c0.644,3.949 1.286,7.804 1.925,11.52c5.596,2.835 11.077,6.055 16.306,9.513l-13.403,6.486c1.957,10.108 3.815,18.152 5.455,22.736l23.696,-9.608l0.155,0.513c5.953,6.321 11.329,12.939 15.975,19.97l-27.202,9.007c4.54,6.601 8.355,13.561 11.235,21.018l21.508,-5.591c-4.287,6.739 -7.623,16.523 -10.432,27.384l-5.373,1.027Zm-23.886,26.663c-0.208,-6.805 -0.879,-14.011 -2.072,-21.702l-0.86,0.165c-0.582,-3.044 -1.259,-6.167 -2.034,-9.374c-0.963,-3.983 -2.43,-7.78 -4.312,-11.433l1.555,-0.405c-2.958,-6.6 -7.012,-12.883 -11.875,-18.962l-3.122,1.034c-1.174,-1.252 -2.385,-2.494 -3.629,-3.729c-4.162,-4.132 -8.688,-8.159 -13.467,-12.134l4.603,-1.866c-5.296,-5.008 -10.994,-9.944 -16.909,-14.879l-5.608,2.714c-3.485,-2.619 -7.025,-5.242 -10.586,-7.885c-2.231,-1.655 -4.47,-3.318 -6.711,-4.99l6.183,-3.509c-5.269,-4.275 -10.574,-8.6 -15.83,-13.035l-6.481,4.26c-5.018,-3.932 -9.991,-7.963 -14.865,-12.135l6.663,-5.034c-4.621,-4.267 -9.136,-8.674 -13.48,-13.266l-6.841,5.909c-3.425,-3.313 -6.766,-6.726 -10.003,-10.255c-0.864,-0.942 -1.729,-1.865 -2.597,-2.768l7.027,-6.923c-4.379,-4.881 -8.846,-9.26 -13.395,-13.133l-6.966,7.825c-4.985,-3.961 -10.032,-7.292 -15.142,-9.968l6.838,-8.776c-5.666,-3.309 -11.442,-5.886 -17.317,-7.723l-6.811,10.029c-4.107,-0.93 -8.254,-1.445 -12.441,-1.531c-2.467,-0.05 -4.882,0.044 -7.24,0.26l7.118,-12.119c-7.434,-0.29 -14.511,0.533 -21.067,2.025l-10.375,20.648c4.654,2.21 9.299,4.603 13.912,7.173l7.806,-13.289c4.914,2.519 9.804,5.215 14.648,8.084l-9.006,13.262c4.37,2.808 8.69,5.775 12.942,8.896l10.258,-13.164c4.632,3.135 9.201,6.431 13.689,9.883l-11.56,12.984c4.015,3.354 7.946,6.852 11.775,10.488l12.908,-12.716c4.267,3.725 8.434,7.599 12.484,11.619l-14.297,12.35c3.57,3.869 7.021,7.87 10.336,11.997l15.72,-11.876c3.787,4.296 7.438,8.732 10.934,13.304l-17.167,11.286c3.004,4.346 5.856,8.812 8.538,13.394l18.627,-10.569c3.16,4.827 6.148,9.786 8.945,14.872l-20.084,9.719c2.3,4.751 4.418,9.612 6.336,14.577l21.519,-8.725c2.371,5.275 4.539,10.67 6.484,16.182l-22.909,7.586c0.407,1.395 0.798,2.797 1.173,4.206c0.984,3.694 1.872,7.421 2.666,11.178l24.22,-6.296c1.509,5.604 2.825,11.278 3.949,17.008l-25.441,4.863c0.726,5.187 1.28,10.416 1.662,15.676l26.562,-3.295c0.734,5.759 1.281,11.561 1.641,17.393l-27.569,1.6c0.044,5.203 -0.075,10.425 -0.356,15.655l28.449,0.213c-0.009,5.811 -0.2,11.64 -0.571,17.473l-29.189,-2.132c-0.589,5.139 -1.333,10.277 -2.231,15.402l29.774,4.147c-0.724,5.778 -1.625,11.549 -2.702,17.301l-30.197,-6.242c-1.183,5.015 -2.515,10.008 -3.993,14.97l30.444,8.402c-1.42,5.668 -3.013,11.305 -4.78,16.901l-30.504,-10.61c-1.748,4.835 -3.639,9.63 -5.671,14.378l30.37,12.846c-1.709,4.454 -3.532,8.872 -5.467,13.249c-0.447,1.011 -0.899,2.017 -1.356,3.019l-30.034,-15.091c-0.193,0.388 -0.387,0.775 -0.582,1.162c-2.14,4.245 -4.377,8.402 -6.705,12.467l29.49,17.321c-2.808,5.265 -5.758,10.392 -8.843,15.375l-28.73,-19.509c-2.852,4.354 -5.814,8.585 -8.879,12.686l27.75,21.624c-3.493,4.879 -7.122,9.591 -10.876,14.128l-26.548,-23.636c-3.389,3.973 -6.88,7.799 -10.464,11.471l25.129,25.508c-2.294,2.391 -4.625,4.721 -6.993,6.99c-0.428,3.526 -0.959,6.995 -1.591,10.404l-27.787,-32.167c-1.845,1.64 -3.71,3.242 -5.595,4.804c-0.525,3.74 -1.176,7.405 -1.951,10.992l16.792,22.226c6.896,-0.576 13.777,-1.764 20.478,-3.612l-0.243,-0.282c0.728,-0.083 1.456,-0.174 2.183,-0.273c26.807,-7.949 50.429,-26.644 60.036,-59.159c11.59,-39.234 29.603,-67.517 45.495,-92.469c18.478,-29.014 34.106,-53.552 36.538,-88.682c0.262,-4.548 0.277,-9.271 0.018,-14.205l0.24,-0.03Zm-89.234,254.619c-4.405,3.952 -9.163,7.564 -14.26,10.818c-0.941,0.601 -1.894,1.189 -2.857,1.766l25.039,25.416c-1.685,0.948 -3.399,1.866 -5.144,2.753c-5.365,2.729 -10.988,5.133 -16.803,7.2l-22.493,-26.039c-6.725,2.532 -13.776,4.53 -21.012,5.978l19.945,26.399c-8.036,1.515 -16.248,2.439 -24.491,2.746l-17.403,-26.472c-7.46,0.341 -14.966,0.117 -22.379,-0.689l17.315,30.514c-4.578,5.755 -9.638,11.097 -15.163,15.995l-19.106,-39.485c-4.274,4.985 -8.974,9.577 -14.08,13.745l15.719,38.765c-2.446,1.525 -4.956,2.981 -7.532,4.365c-2.399,1.289 -4.848,2.513 -7.345,3.672c-1.608,0.096 -3.24,0.199 -4.899,0.31l-11.98,-36.18c-2.235,1.26 -4.526,2.456 -6.872,3.584c-3.44,1.655 -6.984,3.16 -10.623,4.515l7.785,29.948c-6.559,0.702 -13.542,1.58 -21.045,2.703l-5.207,-27.244c-6.146,1.35 -12.495,2.328 -19.018,2.93l3.361,27.089c-7.245,0.721 -14.238,1.133 -20.978,1.239l-1.604,-27.633c-6.269,-0.111 -12.661,-0.541 -19.152,-1.292l-0.21,28.066c23.562,6.685 53.915,6.15 89.505,-1.737c31.117,-6.896 54.239,-9.503 74.637,-11.803c23.483,-2.648 42.031,-4.741 62.411,-12.813c30.087,-11.912 53.96,-41.986 67.236,-84.68c3.292,-10.593 8.906,-21.408 14.848,-32.856c16.508,-31.803 33.522,-64.591 11.811,-104.53c-1.088,1.715 -2.179,3.431 -3.274,5.152c-2.524,3.963 -5.062,7.948 -7.588,11.994c1.668,6.819 2.505,13.42 2.67,19.804l-12.076,-4.2c-3.368,5.844 -6.651,11.894 -9.784,18.252l19.76,8.358c-1.555,7.388 -3.863,14.435 -6.602,21.142l-21.487,-10.796c-2.477,6.227 -4.786,12.77 -6.881,19.7l18.745,11.009c-2.923,5.34 -5.918,10.414 -8.759,15.223c-0.788,1.335 -1.571,2.659 -2.34,3.971l-15.171,-10.302c-3.114,6.445 -6.769,12.476 -10.941,18.062l15.645,12.191c-0.231,0.566 -0.449,1.126 -0.654,1.68c-2.605,7.014 -5.489,13.696 -8.633,20.024l-20.586,-18.327Zm-281.203,81.339c3.563,4.332 8.05,8.651 13.7,12.596c1.514,1.056 3.08,2.061 4.699,3.015l1.649,-22.578c-6.111,-1.257 -12.264,-2.783 -18.441,-4.569l-1.607,11.536Zm-26.499,-50.165c5.209,2.401 10.415,4.604 15.604,6.606l0.461,-2.229c5.312,2.392 10.615,4.585 15.896,6.575l-0.177,1.268c5.612,1.727 11.185,3.212 16.701,4.451l0.01,-0.128c0.579,0.174 1.158,0.345 1.736,0.513c33.826,7.298 65.406,5.307 90.377,-6.705c3.401,-1.636 6.645,-3.444 9.73,-5.421l-9.022,-27.244c-5.164,1.132 -10.223,1.989 -15.171,2.6l8.166,31.415c-6.009,0.486 -11.865,0.648 -17.555,0.533l-5.887,-30.801c-5.226,0.14 -10.306,0.014 -15.231,-0.335l3.711,29.912c-5.918,-0.715 -11.613,-1.707 -17.066,-2.913l-1.671,-28.801c-5.096,-0.862 -9.989,-1.948 -14.667,-3.203l-0.206,27.523c-5.642,-1.814 -10.941,-3.814 -15.869,-5.902l1.909,-26.126c-4.82,-1.776 -9.341,-3.697 -13.545,-5.68l-3.431,24.636c-3.622,-1.921 -6.926,-3.822 -9.892,-5.634c-1.437,-0.878 -2.86,-1.774 -4.267,-2.688l4.763,-23.044c-3.373,-1.958 -6.43,-3.887 -9.151,-5.712c-0.965,-0.647 -1.922,-1.303 -2.871,-1.968l-5.894,21.357c-4.222,-3.29 -8.256,-6.723 -12.075,-10.264l6.825,-19.621c-3.576,-2.981 -6.988,-6.077 -10.212,-9.258l-7.54,17.823c-3.496,-3.871 -6.733,-7.818 -9.685,-11.801l8.008,-15.936c-2.947,-3.466 -5.666,-6.991 -8.132,-10.541l-8.168,13.906c-1.708,-2.951 -3.246,-5.899 -4.602,-8.826c-1.726,0.035 -3.46,0.044 -5.203,0.027l11.077,-16.311c-2.162,-4.033 -3.967,-8.051 -5.378,-12.004l-21.392,27.45c-5.379,-0.574 -10.602,-1.461 -15.665,-2.659l27.294,-30.658c-5.007,-0.044 -10.083,-0.334 -15.219,-0.878l-27.236,26.831c-4.935,-1.919 -9.693,-4.176 -14.271,-6.769l26.282,-22.704c-5.036,-1.248 -9.871,-2.847 -14.501,-4.794l-24.871,18.791c-4.086,-3.156 -8,-6.627 -11.738,-10.409l23.279,-15.304c-4.163,-2.613 -8.123,-5.565 -11.875,-8.851l-21.736,12.333c-0.712,-0.92 -1.417,-1.853 -2.114,-2.8c-2.415,-3.281 -4.686,-6.672 -6.818,-10.157l20.365,-9.854c-2.782,-3.269 -5.417,-6.767 -7.906,-10.495c-0.283,-0.424 -0.564,-0.851 -0.842,-1.279l-19.159,7.768c-2.285,-4.734 -4.359,-9.591 -6.233,-14.538l18.114,-5.998c-2.186,-4.386 -4.145,-8.903 -5.893,-13.519l-17.245,4.483c-1.485,-5.082 -2.786,-10.223 -3.916,-15.39l16.544,-3.163c-1.339,-4.765 -2.484,-9.596 -3.452,-14.463l-15.991,1.983c-0.813,-5.29 -1.46,-10.575 -1.957,-15.821l15.554,-0.903c-0.637,-4.986 -1.107,-9.975 -1.426,-14.934l-32.326,-0.242c-1.489,5.609 -2.74,11.408 -3.732,17.352l19.979,-1.16c-1.443,5.353 -2.645,10.915 -3.588,16.638l-18.544,2.301c-0.453,5.941 -0.651,11.973 -0.576,18.054l17.117,-3.272c-0.405,5.706 -0.561,11.513 -0.452,17.378l-15.626,4.062c0.621,6.041 1.521,12.089 2.718,18.104l14.024,-4.644c0.636,5.831 1.542,11.676 2.733,17.495l-12.286,4.981c1.787,5.858 3.88,11.645 6.295,17.321l10.407,-5.035c1.757,5.682 3.808,11.298 6.167,16.807l-8.41,4.772c3.013,5.317 6.352,10.49 10.03,15.482l6.346,-4.171c2.941,5.18 6.194,10.217 9.773,15.075l-4.268,3.224c4.669,4.841 9.298,8.81 13.961,12.142l1.836,-1.585c2.793,2.936 5.552,5.541 8.294,7.864c11.125,5.938 22.735,9.298 35.789,13.076c15.758,4.561 33.358,9.655 52.617,20.477l0.197,-0.393c4.853,1.769 9.829,3.781 14.93,6.113l-1.171,2.767c4.778,2.902 9.576,5.638 14.384,8.207l1.258,-3.618c0.779,0.437 1.56,0.882 2.344,1.336c4.068,2.356 8.147,4.599 12.23,6.726l-0.832,3.018Zm-119.189,57.749c2.964,4.828 5.516,10.028 7.477,15.734c18.987,0.941 67.909,-0.029 109.223,-18.987c-3.398,-5.874 -5.952,-11.775 -7.753,-17.386l-1.751,6.345c-3.836,1.549 -7.731,2.953 -11.662,4.222c-2.969,-1.523 -5.931,-3.095 -8.883,-4.716l8.775,-25.23c-5.367,-2.769 -10.707,-5.717 -16.008,-8.843l-10.385,24.551c-6.34,-2.992 -12.484,-5.314 -18.482,-7.248l13.428,-26.724c-5.472,-3.145 -10.814,-5.753 -16.053,-7.992l-17.181,29.251l-1.114,-0.274c-9.278,3.052 -18.468,5.257 -27.555,6.623l28.515,-41.993c-5.047,-1.621 -10.02,-3.06 -14.945,-4.486l-1.046,-0.303c-1.442,0.443 -2.88,0.864 -4.316,1.264l-36.032,46.238c5.476,5.343 10.971,10.784 16.002,16.69l3.302,-4.863c1.476,1.313 2.973,2.637 4.483,3.984c4.204,3.752 8.416,7.552 12.508,11.507l-1.864,3.174c-3.077,-0.135 -5.981,-0.319 -8.683,-0.538Zm-54.692,-64.793c3.319,6.834 7.826,12.872 13.034,18.701l22.174,-24.906c-9.434,0.63 -18.687,0.246 -27.741,-1.151l-7.467,7.356Zm-17.1,-42.535c7.495,3.724 15.144,6.438 22.984,8.156l5.701,-4.925c-4.93,-3.909 -9.856,-8.439 -14.772,-13.742l-13.913,10.511Zm9.586,-230.036c-0.477,0.902 -0.948,1.82 -1.412,2.754c-2.087,4.19 -4.012,8.604 -5.763,13.208l26.427,1.931c-0.031,-5.139 0.087,-10.207 0.335,-15.165l-19.587,-2.728Zm22.516,-27.826c-4.492,3.164 -8.91,7.534 -13.1,12.983l11.359,2.348c0.563,-5.292 1.266,-10.39 2.078,-15.238l-0.337,-0.093Zm32.064,-19.734c-0.465,1.402 -0.904,2.813 -1.318,4.231c-0.881,3.019 -1.682,6.051 -2.406,9.091l15.778,5.488c-0.498,1.731 -0.955,3.474 -1.371,5.227c-0.557,2.352 -1.065,4.711 -1.527,7.073l-15.597,-4.305c-0.75,4.523 -1.341,9.045 -1.784,13.547l15.384,3.18c-0.53,4.163 -0.922,8.321 -1.186,12.461l-15.096,-2.102c-0.157,4.537 -0.17,9.034 -0.049,13.472l14.731,1.077c-0.013,4.17 0.099,8.304 0.327,12.387l-14.287,-0.107c0.398,4.492 0.93,8.897 1.584,13.196l13.748,-0.798c0.473,4.133 1.063,8.192 1.757,12.158l-13.096,1.625c0.969,4.401 2.067,8.648 3.278,12.714l12.299,-2.351c0.974,4.059 2.059,7.988 3.241,11.765l-11.298,2.937c1.671,4.247 3.474,8.207 5.384,11.835l9.983,-3.306c1.572,3.924 3.254,7.617 5.025,11.042l-8.134,3.298c2.658,3.618 5.52,6.914 8.583,9.884l5.765,-2.789c0.358,0.513 0.718,1.016 1.08,1.508c2.097,2.848 4.326,5.464 6.685,7.844l-3.131,1.777c3.846,2.517 7.932,4.635 12.252,6.35l0.398,-0.262c0.517,0.345 1.039,0.681 1.566,1.008c5.648,2.05 11.681,3.432 18.09,4.14c27.634,3.055 49.525,-2.639 66.592,-11.986l18.675,-27.502c-2.136,0.157 -4.29,0.235 -6.455,0.235l-20.443,26.233c-2.67,-0.624 -5.327,-1.344 -7.961,-2.16l21.655,-24.323c-2.335,-0.172 -4.675,-0.433 -7.012,-0.782l-22.64,22.304c-2.69,-1.056 -5.347,-2.215 -7.961,-3.478l23.372,-20.189c-2.48,-0.565 -4.946,-1.229 -7.39,-1.992l-23.824,17.999c-2.603,-1.525 -5.149,-3.161 -7.626,-4.908l23.973,-15.76c-2.531,-1.022 -5.026,-2.153 -7.472,-3.392l-23.83,13.522c-2.421,-2.024 -4.737,-4.138 -6.948,-6.337l23.422,-11.334c-2.441,-1.526 -4.817,-3.169 -7.112,-4.927l-22.77,9.233c-2.076,-2.473 -4.036,-5.035 -5.877,-7.683l21.898,-7.251c-2.212,-2.059 -4.302,-4.21 -6.268,-6.449l-20.842,5.418c-1.62,-2.856 -3.117,-5.796 -4.487,-8.816l19.674,-3.761c-1.78,-2.512 -3.426,-5.114 -4.935,-7.802l-18.46,2.29c-1.105,-3.145 -2.084,-6.364 -2.935,-9.653l17.254,-1.002c-1.24,-2.866 -2.341,-5.813 -3.302,-8.835l-16.099,-0.121c-0.581,-3.335 -1.038,-6.734 -1.371,-10.192l15.023,1.098c-0.669,-3.103 -1.202,-6.274 -1.6,-9.508l-14.038,-1.955c-0.082,-3.446 -0.045,-6.943 0.111,-10.488l13.152,2.718c-0.123,-3.238 -0.118,-6.532 0.017,-9.876l-12.362,-3.411c0.377,-3.499 0.867,-7.04 1.471,-10.62l11.66,4.056c0.374,-3.304 0.869,-6.651 1.485,-10.036l-11.037,-4.668l0.219,-0.958c0.748,-3.227 1.653,-6.43 2.71,-9.601l10.271,5.161c0.514,-2.077 1.071,-4.166 1.673,-6.266c0.364,-1.269 0.757,-2.533 1.178,-3.789l-9.131,-5.363c1.491,-3.34 3.152,-6.632 4.975,-9.867l8.062,5.475c1.476,-3.16 3.134,-6.264 4.967,-9.302l-7.156,-5.576c2.082,-3.028 4.312,-5.992 6.683,-8.883l6.387,5.686c2.099,-2.805 4.352,-5.538 6.751,-8.188l-5.726,-5.812c2.561,-2.65 5.249,-5.223 8.059,-7.709l5.149,5.961c2.581,-2.389 5.289,-4.692 8.117,-6.901l-4.635,-6.134c2.938,-2.229 5.984,-4.37 9.133,-6.416l4.163,6.332c2.939,-1.939 5.983,-3.781 9.123,-5.52l-3.718,-6.554c3.257,-1.804 6.57,-3.494 9.932,-5.07l3.295,6.809c3.228,-1.49 6.503,-2.861 9.819,-4.114l-10.716,-26.427c-4.74,0.292 -9.154,0.834 -13.154,1.503l10.215,21.112c-4.278,0.459 -8.243,1.133 -11.823,1.901l-11.423,-20.131c-4.326,1.191 -8.588,2.6 -12.771,4.211l12.529,19.059c-3.868,1.252 -7.67,2.697 -11.391,4.321l-13.526,-17.902c-4.065,2.036 -8.032,4.267 -11.885,6.678l14.403,16.673c-3.607,2.006 -7.118,4.183 -10.519,6.518l-15.155,-15.382c-3.652,2.792 -7.172,5.753 -10.541,8.868l15.767,14.038c-3.21,2.678 -6.294,5.503 -9.236,8.464l-16.229,-12.648c-3.088,3.45 -6.005,7.042 -8.734,10.761l16.523,11.22c-2.677,3.257 -5.195,6.637 -7.538,10.127l-16.63,-9.768c-2.357,3.992 -4.504,8.097 -6.426,12.298l16.532,8.307c-1.997,3.726 -3.8,7.548 -5.397,11.451l-16.21,-6.857Zm148.703,-93.605c-4.45,-0.709 -8.783,-1.129 -12.955,-1.322l7.659,23.13c3.392,-1.014 6.817,-1.909 10.268,-2.683l-4.972,-19.125Zm24.756,6.933c-4.083,-1.675 -8.136,-3.052 -12.13,-4.171l2.753,14.405c3.482,-0.531 6.982,-0.942 10.494,-1.233l-1.117,-9.001Zm22.459,-32.287c-4.497,1.848 -8.806,4.285 -12.749,7.457l0.028,0.484c4.284,1.75 8.492,3.718 12.617,5.901l0.104,-13.842Zm27.229,-5.128c-4.484,0.08 -9.126,0.463 -13.754,1.286l-1.801,24.652c3.7,2.432 7.32,5.049 10.85,7.849l1.629,-11.699c3.671,2.44 7.276,5.042 10.81,7.803l-2.567,12.421c3.041,2.852 6.003,5.852 8.88,8.998l3.609,-13.077c2.951,2.665 5.844,5.449 8.674,8.352l0.444,0.148l-3.73,10.726c3.285,1.283 6.453,2.611 9.507,3.984l4.634,-10.954c3.534,1.372 6.943,2.801 10.233,4.282l-5.6,11.145c3.125,1.62 6.116,3.29 8.977,5.008l6.634,-11.295c3.383,1.768 6.624,3.598 9.727,5.484l-7.739,11.396c2.877,2.012 5.603,4.079 8.183,6.195l8.918,-11.444c3.127,2.218 6.092,4.5 8.906,6.84l-10.173,11.425c2.503,2.428 4.84,4.91 7.021,7.442l11.5,-11.33c2.732,2.68 5.293,5.422 7.692,8.218l-12.897,11.14c1.995,2.805 3.823,5.659 5.496,8.554l14.351,-10.842c0.228,0.318 0.454,0.636 0.678,0.955c1.953,2.779 3.77,5.602 5.458,8.465l-15.838,10.412c1.413,3.072 2.673,6.18 3.791,9.318l17.319,-9.827c1.619,3.388 3.081,6.818 4.397,10.283l-18.76,9.077c0.85,3.194 1.571,6.41 2.176,9.639l20.13,-8.162c1.046,3.552 1.956,7.131 2.744,10.726l-21.402,7.087c0.381,3.193 0.662,6.392 0.855,9.59l22.556,-5.863c0.555,3.607 1.001,7.221 1.352,10.836l-23.582,4.507c0.03,3.125 -0.013,6.241 -0.117,9.343l24.472,-3.036c0.17,3.602 0.257,7.195 0.272,10.77l-25.228,1.464c-0.215,3.045 -0.48,6.068 -0.783,9.062l25.855,0.194c-0.118,3.593 -0.296,7.157 -0.522,10.683l-26.362,-1.925c-0.394,2.988 -0.853,5.94 -1.377,8.853l26.831,3.736c-0.395,3.591 -0.877,7.135 -1.445,10.63l-27.176,-5.618c-0.672,2.922 -1.412,5.8 -2.217,8.634l27.38,7.556c-0.777,3.553 -1.647,7.049 -2.608,10.486l-27.429,-9.54c-0.969,2.834 -2.006,5.618 -3.111,8.351l27.31,11.552c-1.196,3.466 -2.489,6.865 -3.876,10.193l-27.013,-13.573c-1.282,2.713 -2.634,5.368 -4.056,7.964l26.527,15.581c-1.642,3.309 -3.383,6.54 -5.222,9.689l-25.845,-17.55c-1.605,2.544 -3.281,5.024 -5.027,7.436l24.967,19.456c-2.095,3.068 -4.291,6.045 -6.585,8.928l-23.893,-21.273c-1.925,2.322 -3.921,4.57 -5.987,6.744l22.632,22.973c-2.53,2.734 -5.158,5.366 -7.883,7.895l-21.194,-24.536c-2.225,2.041 -4.52,4.002 -6.881,5.882l19.597,25.939c-2.176,1.729 -4.404,3.399 -6.683,5.006c-0.774,0.546 -1.554,1.085 -2.34,1.617l-17.861,-27.168c-1.2,0.824 -2.416,1.63 -3.646,2.415c-1.32,0.843 -2.657,1.663 -4.011,2.46l16.007,28.21c-3.225,1.84 -6.537,3.568 -9.933,5.181l-14.061,-29.059c-2.698,1.345 -5.456,2.604 -8.273,3.774l12.043,29.7c-3.493,1.343 -7.026,2.548 -10.587,3.615l-9.972,-30.117c-2.886,0.97 -5.795,1.836 -8.721,2.599l7.882,30.322c-3.643,0.8 -7.302,1.462 -10.967,1.987l-5.795,-30.315c-2.992,0.564 -5.993,1.024 -8.994,1.381l3.734,30.099c-3.703,0.252 -7.399,0.365 -11.076,0.34l-1.722,-29.677c-3.041,0.15 -6.075,0.195 -9.091,0.134l-0.217,29.05c-3.674,-0.305 -7.316,-0.751 -10.915,-1.334l2.062,-28.22c-3.03,-0.277 -6.033,-0.662 -9.001,-1.154l-3.786,27.188c-3.549,-0.874 -7.038,-1.89 -10.456,-3.046l5.366,-25.961c-2.948,-0.722 -5.848,-1.555 -8.692,-2.498l-9.984,36.18c3.19,2.567 6.582,5.071 10.168,7.477l2.166,-10.479c3.073,2.824 6.425,5.615 10.04,8.322l-1.227,8.811c3.552,1.939 7.464,3.88 11.712,5.718l0.518,-7.082c3.357,2.048 7.336,4.263 11.877,6.432l-0.04,5.319c4.076,1.322 8.376,2.507 12.886,3.491l-0.206,-3.552c4.135,1.473 8.565,2.817 13.265,3.938l0.225,1.814c4.357,0.494 8.87,0.784 13.529,0.826l-0.033,-0.172c0.51,0.062 1.022,0.121 1.537,0.177c12.085,-0.028 25.134,-1.728 38.981,-5.842c43.6,-12.956 83.004,-48.93 108.099,-98.709c12.825,-25.435 20.966,-52.775 24.204,-80.149l-0.621,-0.045c0.283,-4.608 0.424,-9.21 0.423,-13.796l1.416,0.011c0.269,-4.654 0.394,-9.3 0.376,-13.928l-2.23,0.129c-0.293,-4.604 -0.733,-9.183 -1.321,-13.726l3.05,-0.378c-0.318,-4.686 -0.789,-9.344 -1.413,-13.964l-3.864,0.739c-0.898,-4.52 -1.949,-8.994 -3.154,-13.412l4.656,-1.21c-0.754,-3.66 -1.609,-7.289 -2.565,-10.882c-0.253,-0.95 -0.515,-1.897 -0.786,-2.841l-5.426,1.797c-1.562,-4.319 -3.319,-8.557 -5.254,-12.707l6.162,-2.499c-1.706,-4.406 -3.605,-8.731 -5.678,-12.971l-6.806,3.293c-2.267,-3.954 -4.695,-7.816 -7.268,-11.582l7.343,-4.166c-2.404,-4.055 -4.966,-8.019 -7.67,-11.883l-7.765,5.105c-2.815,-3.53 -5.756,-6.959 -8.807,-10.283l8.067,-6.094c-2.962,-3.651 -6.049,-7.199 -9.244,-10.636l-8.245,7.122c-3.231,-3.086 -6.554,-6.063 -9.955,-8.926l8.3,-8.177c-3.408,-3.223 -6.91,-6.329 -10.487,-9.312l-8.233,9.247c-3.552,-2.639 -7.166,-5.158 -10.828,-7.553l8.042,-10.321c-3.778,-2.776 -7.618,-5.418 -11.503,-7.92l-7.733,11.389c-3.814,-2.18 -7.661,-4.226 -11.524,-6.131l7.306,-12.438c-4.1,-2.291 -8.228,-4.424 -12.367,-6.393l-6.762,13.457c-4.038,-1.681 -8.076,-3.204 -12.095,-4.564l6.104,-14.428c-4.386,-1.721 -8.762,-3.25 -13.104,-4.578l-5.334,15.335c-4.228,-1.085 -8.414,-1.975 -12.532,-2.665l4.456,-16.149c-1.742,-0.369 -3.475,-0.703 -5.197,-1.001c-2.559,-0.443 -5.403,-0.857 -8.452,-1.178l-3.472,16.797c-3.945,-0.29 -8.265,-0.411 -12.715,-0.161l2.404,-17.265Zm66.959,-19.899c-2.97,1.477 -5.68,2.993 -8.095,4.455c1.782,0.647 3.567,1.322 5.354,2.025l2.741,-6.48Zm46.781,-57.321l-10.607,21.11c3.41,-0.137 6.896,-0.11 10.448,0.11c3.643,0.224 7.246,0.661 10.817,1.271c-2.623,-7.162 -6.144,-14.797 -10.658,-22.491Zm-0.623,499.315c-0.223,0.581 -0.449,1.159 -0.678,1.735c0.649,0.073 1.3,0.142 1.953,0.205l-1.275,-1.94Zm-24.595,-9.124c0.015,-0.04 0.031,-0.081 0.046,-0.122c-0.029,0.016 -0.059,0.032 -0.089,0.047l0.043,0.075Zm-14.06,6.619c-4.788,2.03 -9.638,3.827 -14.541,5.377l8.114,20.012c4.399,-4.356 8.305,-9.191 11.705,-14.481l-5.278,-10.908Zm-167.515,-61.213c2.533,2.954 5.322,5.915 8.358,8.84l10.847,-31.186c-2.775,-1.187 -5.479,-2.486 -8.104,-3.897l-11.101,26.243Zm-13.37,-19.786c1.618,3.295 3.642,6.751 6.059,10.287l10.728,-21.35c-0.719,-0.479 -1.43,-0.967 -2.133,-1.465c-3.02,1.196 -6.089,2.278 -9.203,3.247l-5.451,9.281Zm41.335,-70.374l-11.428,19.457c4.626,-3.537 8.781,-7.301 12.495,-11.125l4.728,-9.408c-1.907,0.428 -3.84,0.787 -5.795,1.076Zm14.597,-33.973c0.796,0.212 1.602,0.399 2.417,0.56l3.076,-4.529c0.563,0.291 1.137,0.561 1.722,0.807l-2.418,4.117c0.294,0.039 0.589,0.075 0.884,0.108c0.483,0.053 0.965,0.097 1.446,0.132l1.856,-3.693c0.591,0.197 1.192,0.37 1.8,0.521l-1.384,3.271c0.738,0.01 1.475,-0.001 2.208,-0.033l0.995,-2.859c0.602,0.101 1.211,0.181 1.825,0.238l-0.681,2.467c0.692,-0.069 1.381,-0.157 2.066,-0.264l0.433,-2.099c0.604,0.012 1.205,0.002 1.802,-0.029l-0.245,1.762c0.642,-0.136 1.28,-0.288 1.914,-0.457l0.107,-1.463c0.584,-0.074 1.163,-0.169 1.738,-0.284l-0.009,1.208c0.591,-0.19 1.178,-0.394 1.76,-0.613l-0.058,-0.999c0.552,-0.153 1.098,-0.325 1.638,-0.517l0.104,0.835c0.541,-0.234 1.078,-0.481 1.61,-0.74l-0.138,-0.719c0.51,-0.223 1.013,-0.463 1.508,-0.722l0.168,0.646c0.495,-0.27 0.985,-0.552 1.47,-0.845l-0.203,-0.613c0.46,-0.281 0.913,-0.579 1.356,-0.892l0.25,0.615c0.452,-0.3 0.898,-0.61 1.34,-0.931l-0.314,-0.649c0.234,-0.19 0.465,-0.384 0.694,-0.583c0.168,-0.146 0.334,-0.295 0.498,-0.445l0.401,0.707c0.415,-0.329 0.823,-0.665 1.222,-1.008l-0.515,-0.783c0.354,-0.368 0.695,-0.746 1.023,-1.132l0.659,0.872c0.379,-0.353 0.75,-0.713 1.113,-1.079l-0.837,-0.969c0.296,-0.396 0.579,-0.8 0.849,-1.212l1.05,1.066c0.346,-0.377 0.683,-0.761 1.012,-1.151l-1.3,-1.157c0.238,-0.416 0.463,-0.838 0.676,-1.267l1.586,1.236c0.314,-0.402 0.618,-0.811 0.914,-1.225l-1.909,-1.296c0.182,-0.428 0.351,-0.861 0.508,-1.299l2.267,1.331c0.281,-0.429 0.553,-0.864 0.817,-1.304l-2.657,-1.335c0.128,-0.433 0.244,-0.87 0.347,-1.312l3.078,1.302c0.248,-0.458 0.488,-0.921 0.718,-1.388l-3.524,-1.226c0.077,-0.433 0.143,-0.869 0.197,-1.308l3.993,1.102c0.215,-0.488 0.42,-0.981 0.614,-1.479l-4.48,-0.926l0.003,-0.036c0.029,-0.421 0.047,-0.84 0.054,-1.257l4.981,0.694c0.178,-0.521 0.344,-1.046 0.5,-1.575l-5.491,-0.401c-0.014,-0.426 -0.04,-0.849 -0.077,-1.27l6.006,0.045c0.136,-0.555 0.261,-1.114 0.373,-1.677l-6.52,0.378c-0.058,-0.416 -0.127,-0.828 -0.206,-1.237l7.029,-0.872c0.058,-0.384 0.11,-0.768 0.157,-1.155c0.026,-0.21 0.049,-0.42 0.071,-0.63l-7.524,1.438c-0.1,-0.403 -0.21,-0.803 -0.329,-1.198l8,-2.08c0.035,-0.633 0.053,-1.264 0.056,-1.892l-8.444,2.796c-0.14,-0.389 -0.289,-0.773 -0.447,-1.153l8.85,-3.588c-0.031,-0.669 -0.08,-1.334 -0.147,-1.994l-9.207,4.455c-0.178,-0.372 -0.365,-0.739 -0.561,-1.101l9.504,-5.393c-0.11,-0.699 -0.239,-1.392 -0.388,-2.078l-9.733,6.398c-0.215,-0.353 -0.439,-0.701 -0.672,-1.043l9.883,-7.467c-0.201,-0.72 -0.423,-1.432 -0.665,-2.135l-9.945,8.59c-0.252,-0.333 -0.512,-0.659 -0.781,-0.979l9.909,-9.762c-0.303,-0.729 -0.628,-1.447 -0.976,-2.153l-9.768,10.972c-0.289,-0.31 -0.585,-0.612 -0.89,-0.907l9.515,-12.21c-0.415,-0.721 -0.854,-1.428 -1.315,-2.119l-9.143,13.463c-0.324,-0.283 -0.656,-0.557 -0.996,-0.823l8.646,-14.72c-0.534,-0.693 -1.093,-1.367 -1.674,-2.022l-8.022,15.964c-0.36,-0.252 -0.728,-0.495 -1.102,-0.728l7.267,-17.18c-0.656,-0.639 -1.336,-1.255 -2.038,-1.846l-6.383,18.351c-0.395,-0.217 -0.797,-0.423 -1.205,-0.618l5.371,-19.461c-0.774,-0.557 -1.571,-1.086 -2.39,-1.586l-4.235,20.49c-0.428,-0.175 -0.862,-0.339 -1.302,-0.49l2.983,-21.422c-0.881,-0.447 -1.784,-0.86 -2.706,-1.239l-1.625,22.24c-0.458,-0.128 -0.921,-0.244 -1.39,-0.346l0.172,-22.927c-0.97,-0.309 -1.958,-0.58 -2.963,-0.812l1.362,23.473c-0.483,-0.076 -0.972,-0.137 -1.465,-0.184l-2.96,-23.863c-0.433,-0.063 -0.869,-0.119 -1.308,-0.167c-0.612,-0.068 -1.223,-0.121 -1.834,-0.159l4.605,24.093c-0.509,-0.018 -1.017,-0.02 -1.523,-0.006l-6.279,-24.155c-1.082,0.022 -2.159,0.09 -3.228,0.202l7.961,24.043c-0.524,0.047 -1.044,0.111 -1.561,0.192l-9.631,-23.752c-1.079,0.209 -2.148,0.465 -3.204,0.767l11.266,23.282c-0.528,0.118 -1.052,0.254 -1.569,0.408l-12.846,-22.638c-1.038,0.398 -2.06,0.842 -3.064,1.332l14.349,21.826c-0.521,0.194 -1.036,0.406 -1.543,0.636l-15.758,-20.857c-0.294,0.176 -0.585,0.357 -0.875,0.542c-0.658,0.42 -1.304,0.86 -1.94,1.321l17.058,19.747c-0.502,0.271 -0.994,0.561 -1.478,0.868l-18.232,-18.506c-0.861,0.746 -1.683,1.526 -2.467,2.336l19.268,17.154c-0.469,0.348 -0.928,0.713 -1.376,1.096l-20.147,-15.7c-0.716,0.885 -1.39,1.8 -2.02,2.742l20.856,14.163c-0.429,0.423 -0.841,0.861 -1.235,1.311l-21.385,-12.561c-0.543,0.995 -1.041,2.014 -1.493,3.055l21.731,10.92c-0.369,0.491 -0.718,0.995 -1.048,1.511l-21.891,-9.26c-0.353,1.067 -0.659,2.153 -0.917,3.255l21.871,7.607c-0.295,0.55 -0.568,1.112 -0.818,1.684l-21.675,-5.982c-0.04,0.279 -0.077,0.56 -0.111,0.841c-0.101,0.831 -0.174,1.662 -0.22,2.49l21.316,4.406c-0.208,0.597 -0.393,1.203 -0.554,1.817l-20.8,-2.897c0.035,1.105 0.12,2.203 0.252,3.292l20.135,1.471c-0.113,0.628 -0.203,1.263 -0.268,1.904l-19.33,-0.145c0.225,1.059 0.496,2.107 0.813,3.141l18.397,-1.068c-0.016,0.65 -0.006,1.297 0.03,1.94l-17.355,2.153c0.396,0.978 0.834,1.941 1.314,2.886l16.225,-3.101c0.087,0.647 0.201,1.288 0.339,1.923l-15.03,3.907c0.538,0.87 1.114,1.723 1.728,2.554l13.797,-4.569c0.191,0.625 0.407,1.242 0.648,1.849l-12.548,5.088c0.654,0.754 1.335,1.478 2.041,2.171l11.303,-5.469c0.288,0.584 0.601,1.158 0.938,1.72l-10.076,5.717c0.734,0.616 1.49,1.202 2.266,1.758l8.881,-5.839c0.376,0.528 0.775,1.043 1.195,1.544l-7.731,5.841c0.783,0.475 1.583,0.921 2.4,1.336l6.64,-5.735c0.455,0.464 0.926,0.907 1.413,1.33l-5.619,5.536c0.802,0.338 1.618,0.648 2.446,0.93l4.68,-5.256c0.517,0.382 1.048,0.743 1.591,1.082l-3.83,4.915Zm-40.322,7.305c1.278,0.261 2.557,0.485 3.835,0.673c-0.585,-0.612 -1.16,-1.235 -1.724,-1.871l-2.111,1.198Zm-13.977,-4.386c2.289,0.985 4.624,1.847 6.984,2.584l6.157,-2.979c-0.954,-1.251 -1.857,-2.53 -2.708,-3.835l-10.433,4.23Zm-13.353,-7.597c2.089,1.529 4.269,2.932 6.518,4.206l14.823,-4.908c-0.773,-1.405 -1.491,-2.835 -2.152,-4.286l-19.189,4.988Zm-11.463,-10.729c1.675,2.007 3.484,3.919 5.426,5.731l9.23,-1.764c0.695,0.822 1.416,1.623 2.165,2.404c-0.188,-0.902 -0.361,-1.809 -0.518,-2.719l12.515,-2.392c-0.558,-1.53 -1.056,-3.081 -1.493,-4.649l-11.787,1.462c-0.188,-1.86 -0.313,-3.731 -0.373,-5.612l11.027,-0.64c-0.316,-1.619 -0.569,-3.252 -0.758,-4.898l-10.254,-0.077c0.033,-0.889 0.08,-1.78 0.142,-2.672c0.068,-0.977 0.152,-1.95 0.254,-2.918l9.486,0.693c-0.059,-1.665 -0.053,-3.338 0.019,-5.017l-8.732,-1.216c0.321,-1.84 0.705,-3.661 1.149,-5.462l7.994,1.652c0,-0.006 0.001,-0.012 0.002,-0.017c0.203,-1.68 0.47,-3.342 0.798,-4.984l-7.274,-2.008c0.567,-1.766 1.195,-3.508 1.883,-5.225l6.584,2.29c0.466,-1.64 0.994,-3.257 1.585,-4.847l-5.934,-2.511c0.801,-1.657 1.659,-3.286 2.573,-4.884l5.332,2.679c0.721,-1.548 1.503,-3.066 2.346,-4.55l-4.782,-2.809c1.012,-1.518 2.079,-3.003 3.198,-4.454l4.288,2.912c0.957,-1.411 1.972,-2.786 3.044,-4.121l-3.851,-3.001c1.198,-1.354 2.445,-2.672 3.74,-3.952l3.469,3.088c1.162,-1.236 2.378,-2.432 3.645,-3.584l-3.136,-3.183c1.366,-1.184 2.764,-2.317 4.191,-3.398l2.848,3.296c1.345,-1.047 2.723,-2.037 4.13,-2.969l-2.59,-3.429c1.494,-0.984 3.016,-1.915 4.563,-2.793l2.359,3.588c1.477,-0.821 2.98,-1.581 4.506,-2.281l-2.145,-3.781c1.595,-0.769 3.213,-1.484 4.852,-2.145l1.941,4.012c1.567,-0.574 3.154,-1.087 4.759,-1.537l-1.738,-4.285c1.666,-0.545 3.35,-1.036 5.049,-1.471l1.523,4.599c1.613,-0.32 3.239,-0.579 4.877,-0.775l-1.289,-4.955c1.705,-0.319 3.423,-0.584 5.151,-0.792l1.023,5.349c1.614,-0.069 3.235,-0.079 4.862,-0.028l-0.717,-5.777c1.713,-0.096 3.434,-0.138 5.163,-0.125l0.361,6.23c0.117,0.013 0.233,0.025 0.35,0.038c1.476,0.163 2.936,0.376 4.376,0.635l0.05,-6.704c1.714,0.12 3.413,0.293 5.093,0.517l-0.526,7.196c1.52,0.391 3.016,0.836 4.485,1.332l1.071,-7.695c1.67,0.331 3.32,0.713 4.948,1.145l-1.692,8.189c1.411,0.594 2.795,1.237 4.148,1.927l2.392,-8.666c1.6,0.534 3.177,1.117 4.729,1.747l-3.169,9.112c1.277,0.771 2.524,1.584 3.738,2.438l4.026,-9.517c1.508,0.726 2.99,1.496 4.443,2.31l-4.956,9.864c1.125,0.915 2.218,1.867 3.276,2.854l5.959,-10.145c1.397,0.901 2.764,1.843 4.099,2.825l-7.026,10.346c0.963,1.028 1.892,2.087 2.784,3.176l8.15,-10.459c1.269,1.059 2.505,2.156 3.705,3.288l-9.324,10.473c0.795,1.111 1.555,2.248 2.278,3.409l10.537,-10.381c1.126,1.2 2.216,2.434 3.267,3.699l-11.78,10.176c0.628,1.166 1.219,2.354 1.774,3.561l13.038,-9.851c0.97,1.323 1.901,2.676 2.79,4.057l-14.304,9.403c0.463,1.198 0.89,2.413 1.28,3.642l15.56,-8.829c0.801,1.428 1.56,2.883 2.275,4.361l-16.794,8.126c0.305,1.208 0.574,2.429 0.808,3.66l17.991,-7.295c0.621,1.514 1.197,3.051 1.727,4.607l-19.137,6.337c0.155,1.199 0.277,2.408 0.363,3.625l20.217,-5.255c0.431,1.579 0.815,3.176 1.151,4.79l-21.216,4.055c0.017,1.177 0.001,2.359 -0.049,3.547l22.12,-2.744c0.234,1.622 0.419,3.259 0.554,4.908l-22.915,1.33c-0.05,0.521 -0.106,1.042 -0.17,1.565c-0.075,0.625 -0.16,1.249 -0.253,1.869l23.591,0.177c0.033,1.642 0.017,3.295 -0.051,4.957l-24.137,-1.764c-0.226,1.11 -0.482,2.21 -0.765,3.3l24.549,3.419c-0.168,1.659 -0.386,3.306 -0.653,4.939l-24.823,-5.131c-0.336,1.06 -0.698,2.109 -1.086,3.147l24.953,6.887c-0.371,1.633 -0.792,3.251 -1.262,4.85l-24.93,-8.671c-0.437,1.006 -0.899,1.999 -1.387,2.98l24.749,10.469c-0.575,1.583 -1.2,3.145 -1.873,4.686l-24.407,-12.264c-0.532,0.946 -1.089,1.879 -1.67,2.798l23.903,14.04c-0.775,1.506 -1.599,2.987 -2.469,4.443l-23.24,-15.781c-0.622,0.883 -1.268,1.751 -1.937,2.604l22.418,17.469c-0.967,1.404 -1.981,2.78 -3.04,4.125l-21.443,-19.091c-0.709,0.815 -1.439,1.615 -2.19,2.398l20.324,20.631c-1.145,1.278 -2.335,2.523 -3.568,3.735l-19.068,-22.074c-0.79,0.745 -1.601,1.472 -2.432,2.182l17.687,23.411c-1.318,1.143 -2.668,2.239 -4.045,3.286l-16.19,-24.627c-0.874,0.676 -1.763,1.327 -2.664,1.954l14.587,25.708c-1.465,0.972 -2.958,1.893 -4.476,2.762l-12.89,-26.639c-0.952,0.594 -1.917,1.161 -2.893,1.701l11.384,28.077c-1.125,2.244 -2.278,4.42 -3.45,6.528l-10.941,-33.043c-1.029,0.501 -2.068,0.973 -3.118,1.417l10.014,38.523c-1.561,2.525 -3.143,4.94 -4.732,7.244l-8.481,-44.369c-0.925,1.783 -1.869,3.52 -2.828,5.211l5.794,46.707c-2.161,2.793 -4.304,5.385 -6.394,7.778l-2.829,-48.735c-1.368,2.187 -2.757,4.287 -4.158,6.301l-0.326,43.67c2.444,0.057 4.906,0.027 7.379,-0.092l-0.022,-0.373c1.379,0.064 2.765,0.094 4.158,0.091c10.269,-0.904 20.648,-3.336 30.592,-7.353c16.493,-6.662 41.804,-21.904 57.292,-55.465l-0.095,-0.047c0.831,-2.199 1.613,-4.476 2.343,-6.834l0.585,0.247c0.862,-2.185 1.682,-4.441 2.458,-6.768l-1.118,-0.389c0.559,-2.251 1.072,-4.569 1.534,-6.956l1.683,0.464c0.629,-2.262 1.217,-4.587 1.76,-6.976l-2.269,-0.469c0.326,-2.273 0.608,-4.603 0.843,-6.992l2.866,0.399c0.421,-2.325 0.801,-4.705 1.138,-7.144l-3.457,-0.252c0.15,-2.36 0.276,-4.695 0.375,-7.003l3.958,0.029c0.268,-2.467 0.505,-4.908 0.707,-7.323l-4.453,0.258c0.04,-2.394 0.044,-4.758 0.008,-7.092l4.963,-0.615c0.139,-2.563 0.234,-5.095 0.28,-7.595l-5.488,1.049c-0.134,-2.446 -0.319,-4.855 -0.563,-7.227l6.035,-1.569c-0.065,-2.669 -0.192,-5.299 -0.388,-7.89l-6.599,2.185c-0.398,-2.472 -0.869,-4.898 -1.422,-7.279l7.176,-2.91c-0.375,-2.734 -0.838,-5.421 -1.396,-8.06l-7.756,3.754c-0.767,-2.409 -1.632,-4.765 -2.603,-7.067l8.318,-4.719c-0.806,-2.688 -1.725,-5.322 -2.766,-7.899l-8.83,5.804c-1.203,-2.208 -2.523,-4.361 -3.968,-6.457l9.257,-6.994c-1.306,-2.483 -2.745,-4.909 -4.324,-7.277l-9.563,8.261c-1.622,-1.892 -3.363,-3.725 -5.228,-5.501l9.718,-9.573c-1.779,-2.148 -3.692,-4.243 -5.749,-6.283l-9.697,10.892c-1.932,-1.526 -3.972,-3.005 -6.123,-4.436l9.493,-12.183c-2.14,-1.771 -4.406,-3.495 -6.802,-5.172l-9.11,13.414c-2.116,-1.2 -4.325,-2.363 -6.63,-3.489l8.558,-14.571c-2.381,-1.426 -4.873,-2.813 -7.478,-4.161l-7.861,15.643c-2.217,-0.943 -4.512,-1.856 -6.887,-2.741l7.033,-16.628c-2.539,-1.144 -5.174,-2.257 -7.907,-3.338l-6.097,17.528c-1.788,-0.588 -3.618,-1.161 -5.489,-1.72c-0.518,-0.155 -1.037,-0.306 -1.556,-0.454l5.065,-18.353c-0.283,-0.098 -0.566,-0.196 -0.851,-0.294c-2.452,-0.844 -4.923,-1.611 -7.409,-2.3l-3.96,19.158c-2.41,-0.523 -4.831,-0.968 -7.258,-1.336l2.766,-19.857c-2.857,-0.586 -5.727,-1.072 -8.606,-1.46l-1.493,20.442c-2.46,-0.215 -4.922,-0.351 -7.382,-0.41l0.156,-20.903c-2.929,-0.191 -5.86,-0.282 -8.789,-0.271l1.232,21.233c-2.471,0.099 -4.936,0.276 -7.39,0.532l-2.659,-21.429c-2.944,0.214 -5.88,0.531 -8.799,0.95l4.107,21.485c-2.444,0.415 -4.872,0.909 -7.281,1.482l-5.563,-21.4c-2.899,0.626 -5.776,1.355 -8.625,2.186l7.01,21.17c-2.373,0.731 -4.722,1.541 -7.042,2.429l-8.434,-20.798c-2.788,1.035 -5.542,2.173 -8.255,3.411l9.815,20.285c-2.257,1.042 -4.482,2.162 -6.669,3.358l-11.141,-19.632c-2.647,1.455 -5.205,2.997 -7.666,4.618l12.378,18.828c-2.122,1.365 -4.17,2.792 -6.135,4.277l-13.506,-17.876c-2.375,1.869 -4.636,3.817 -6.775,5.835l14.499,16.785c-1.885,1.681 -3.673,3.419 -5.356,5.21l-15.335,-15.567c-1.982,2.27 -3.818,4.609 -5.5,7.005l15.987,14.233c-1.54,1.993 -2.956,4.036 -4.239,6.121l-16.432,-12.805c-1.427,2.634 -2.673,5.321 -3.728,8.049l16.643,11.301c-1.049,2.273 -1.943,4.585 -2.669,6.927l-16.64,-9.774c-0.764,2.875 -1.428,5.71 -1.994,8.502l16.863,8.473c-0.501,2.426 -0.931,4.817 -1.287,7.172l-17.004,-7.193c-0.383,2.847 -0.657,5.644 -0.823,8.389l16.962,5.899c-0.217,2.382 -0.354,4.721 -0.41,7.016l-16.718,-4.614c0.061,2.788 0.243,5.514 0.545,8.175l16.255,3.36c0.117,2.32 0.323,4.588 0.622,6.8l-15.566,-2.168c0.577,2.657 1.287,5.237 2.129,7.738l14.646,1.07c0.513,2.207 1.129,4.349 1.847,6.423l-13.509,-0.101c1.143,2.405 2.426,4.721 3.847,6.944l12.188,-0.707c0.963,1.999 2.039,3.921 3.227,5.763l-10.736,1.331Zm91.562,-172.933c1.659,-0.024 3.318,-0.021 4.979,0.008c-1.718,-1.063 -3.436,-2.066 -5.153,-3.01l0.174,3.002Zm-6.187,271.69c2.399,0.425 4.833,0.758 7.295,0.999l2.659,-36.403c-2.024,2.595 -4.045,5.016 -6.035,7.267l-3.919,28.137Zm-14.182,-3.732c2.282,0.815 4.62,1.536 7.004,2.162l3.927,-19c-2.579,2.538 -5.028,4.759 -7.267,6.673c-0.372,0.318 -0.745,0.633 -1.119,0.946l-2.545,9.219Zm217.498,-427.303l0.367,-0.626c2.103,0.431 4.219,0.899 6.345,1.407c-2.251,-0.306 -4.49,-0.565 -6.712,-0.781Zm69.182,30.317l0.404,0.325l-0.268,0.301l-0.136,-0.626Zm-582.891,83.808c0.288,-5.269 0.458,-10.468 0.343,-15.423l11.47,7.789c-4.389,2.628 -8.371,5.242 -11.813,7.634Zm22.15,359.62c-1.485,-1.581 -2.954,-3.206 -4.406,-4.874l0.815,-0.394c1.173,1.763 2.37,3.52 3.591,5.268Z" style="fill:#fff;"/></svg>