<?xml version="1.0" encoding="UTF-8" standalone="no"?><!DOCTYPE svg PUBLIC "-//W3C//DTD SVG 1.1//EN" "http://www.w3.org/Graphics/SVG/1.1/DTD/svg11.dtd"><svg width="100%" height="100%" viewBox="0 0 632 240" version="1.1" xmlns="http://www.w3.org/2000/svg" xmlns:xlink="http://www.w3.org/1999/xlink" xml:space="preserve" xmlns:serif="http://www.serif.com/" style="fill-rule:evenodd;clip-rule:evenodd;stroke-linejoin:round;stroke-miterlimit:2;"><rect id="Artboard3" x="0" y="0" width="631.2" height="240" style="fill:none;"/><path d="M182.225,73.952c9.668,0.942 21.34,9.278 23.975,14.549c1.289,2.577 0.482,4.344 -0.113,5.168c-2.322,3.212 -3.294,10.11 -4.151,16.196c-1.144,8.118 -2.319,16.463 -7.045,19.48c-1.058,0.676 -2.294,1.085 -3.748,1.164c-0.307,0.016 -0.604,-0.013 -0.888,-0.079c-0.669,1.547 -1.416,3.038 -2.218,4.495c9.596,13.824 3.551,25.492 -0.888,34.044c-1.292,2.489 -2.513,4.841 -3.136,6.845c-3.11,10.003 -8.462,17.643 -15.325,22.025c-1.457,0.93 -2.981,1.713 -4.566,2.341c-5.684,2.251 -10.75,2.822 -16.617,3.484c-4.738,0.534 -10.109,1.139 -17.247,2.721c-13.949,3.092 -24.874,1.97 -32.472,-3.334c-0.941,-0.658 -1.792,-1.367 -2.574,-2.107c-14.009,7.042 -32.135,6.186 -34.065,5.277c-0.888,-0.418 -1.539,-1.236 -1.738,-2.196c-0.87,-4.199 -3.807,-7.061 -7.209,-10.375c-4.367,-4.255 -9.313,-9.076 -9.849,-17.484c-0.247,-0.131 -0.496,-0.255 -0.742,-0.394c-8.248,-4.641 -15.327,-13.193 -21.04,-25.417c-4.18,-8.944 -6.008,-16.496 -6.083,-16.813c-0.117,-0.489 -0.114,-1.001 0.008,-1.491c0.683,-2.727 5.353,-20.771 12.586,-33.367c-3.948,-4.671 -3.843,-11.454 -3.738,-18.028c0.065,-4.158 0.133,-8.458 -0.94,-11.554c-0.355,-1.024 -0.135,-2.199 0.551,-3.05c0.821,-1.019 5.025,-3.991 9.741,-6.328c4.752,-2.356 11.862,-4.998 18.806,-4.263c1.549,-7.017 5.49,-13.577 11.714,-19.37c7.138,-6.644 14.736,-9.924 15.056,-10.06c0.99,-0.422 2.122,-0.318 3.008,0.276c0.115,0.076 12.268,7.993 30.073,7.108c10.785,-0.535 18.834,2.734 24.473,6.571c5.385,-1.045 27.338,-4.241 41.829,9.564c1.077,1.027 1.166,1.11 3.341,16.05c0.38,2.611 0.798,5.479 1.231,8.352Zm-154.839,38.847c-0.301,0.755 -0.606,1.539 -0.914,2.352c-0.363,0.958 -0.712,1.909 -1.047,2.844l4.638,0.339c-0.4,1.136 -0.805,2.34 -1.215,3.614c-0.16,0.498 -0.317,0.994 -0.47,1.487l-4.784,-0.036c-0.685,2.127 -1.264,4.048 -1.722,5.632l4.953,-0.288c-0.557,2.018 -1.039,3.896 -1.442,5.54l-3.968,0.492c0.426,1.411 1.032,3.29 1.832,5.462l1.338,-0.256c0.47,1.334 1.142,3.13 2.017,5.217l-1.236,0.321c0.716,1.643 1.518,3.355 2.41,5.087l1.108,-0.367c0.763,1.565 1.612,3.198 2.548,4.851l-0.759,0.308c-0.778,-1.137 -1.533,-2.334 -2.264,-3.589c3.442,6.406 8.112,12.93 14.18,17.108c-0.066,-0.104 -0.132,-0.209 -0.197,-0.314c-0.041,-0.445 -0.068,-0.901 -0.08,-1.368l3.935,-2.587c-0.959,-1.319 -1.834,-2.677 -2.628,-4.068l-4.256,2.414c-0.728,-1.574 -1.374,-3.176 -1.942,-4.797l4.027,-1.948c-0.65,-1.487 -1.217,-2.999 -1.706,-4.528l-3.796,1.539c-0.416,-1.667 -0.755,-3.343 -1.02,-5.022l3.572,-1.182c-0.34,-1.576 -0.603,-3.16 -0.794,-4.744l-3.357,0.873c-0.121,-1.691 -0.17,-3.375 -0.15,-5.041l3.149,-0.602c-0.049,-1.596 -0.027,-3.182 0.061,-4.751l-2.943,0.366c0.159,-1.663 0.386,-3.298 0.679,-4.896l2.733,-0.159c0.225,-1.562 0.516,-3.096 0.869,-4.59l-2.507,-0.019c0.114,-0.405 0.231,-0.807 0.353,-1.206c-0.871,-1.108 -1.671,-2.332 -2.393,-3.651l5.818,0.425c0.313,-0.925 0.65,-1.828 1.012,-2.708c-0.504,-0.574 -0.979,-1.193 -1.424,-1.853l-12.218,-1.701Zm4.492,-9.786c-0.755,1.4 -1.544,2.988 -2.364,4.788l7.494,1.549c-0.618,-1.668 -1.107,-3.456 -1.462,-5.324l-3.668,-1.013Zm3.032,-4.416c-0.009,-0.169 -0.016,-0.338 -0.022,-0.507c-0.093,0.131 -0.186,0.265 -0.281,0.402l0.303,0.105Zm6.327,-2.821c-0.041,1.718 0.032,3.435 0.225,5.1l1.717,0.597c0.1,1.655 0.317,3.287 0.657,4.84l-1.341,-0.37c0.462,1.511 1.056,2.911 1.787,4.144c0.724,-1.104 1.488,-2.112 2.286,-3.02l-1.052,-0.29c1.327,-1.238 2.728,-2.252 4.18,-3.037l0.382,0.133c1.578,-1.11 3.237,-1.875 4.941,-2.267l-2.204,-0.933c0.497,-1.212 1.05,-2.398 1.654,-3.557l2.479,1.246c0.524,-1.135 1.103,-2.242 1.733,-3.318l-2.245,-1.319c0.705,-1.099 1.458,-2.166 2.257,-3.198l2.032,1.379c0.729,-1.011 1.505,-1.988 2.326,-2.928l-1.836,-1.431c0.879,-0.952 1.8,-1.867 2.76,-2.74l1.658,1.476c0.897,-0.855 1.834,-1.67 2.807,-2.441l-1.494,-1.517c1.018,-0.778 2.071,-1.514 3.155,-2.205l1.343,1.555c1.026,-0.672 2.084,-1.298 3.17,-1.876l-1.204,-1.594c1.119,-0.585 2.265,-1.123 3.436,-1.612l1.074,1.633c1.113,-0.468 2.251,-0.888 3.409,-1.256l-0.952,-1.678c0.826,-0.264 1.662,-0.505 2.507,-0.72c0.363,-0.093 0.726,-0.18 1.089,-0.263l0.836,1.728c0.115,-0.025 0.23,-0.05 0.345,-0.074c1.062,-0.223 2.121,-0.399 3.174,-0.527l-0.723,-1.783c1.218,-0.164 2.432,-0.271 3.639,-0.321l0.612,1.848c1.178,-0.026 2.346,0.007 3.503,0.098l-0.501,-1.928c0.311,0.016 0.622,0.036 0.933,0.06c0.663,-0.778 1.381,-1.505 2.148,-2.18l0.777,4.065c0.864,-1.06 1.841,-2.007 2.918,-2.836l-0.446,-3.595c1.111,-0.665 2.293,-1.246 3.541,-1.737l0.193,3.312c1.106,-0.533 2.282,-0.973 3.521,-1.317l0.023,-3.155c1.237,-0.29 2.523,-0.504 3.855,-0.64l-0.225,3.081c1.195,-0.143 2.433,-0.209 3.71,-0.196l0.887,-6.372c-0.375,-0.585 -0.878,-1.155 -1.54,-1.685c-0.77,-0.618 -1.548,-1.105 -2.347,-1.476l-0.383,5.249c-0.197,-0.253 -0.445,-0.496 -0.752,-0.722c-1.036,-0.759 -2.076,-1.202 -3.174,-1.399l0.031,-4.066c-1.328,-0.021 -2.751,0.161 -4.314,0.504l0.217,3.746c-0.248,0.052 -0.5,0.11 -0.757,0.174c-1.005,0.25 -2.065,0.578 -3.196,0.971l-0.463,-3.728c-1.267,0.404 -2.619,0.871 -4.071,1.385l0.723,3.78c-0.866,0.345 -1.77,0.713 -2.717,1.1c-0.325,0.132 -0.652,0.266 -0.984,0.401l-1.004,-3.862c-1.268,0.447 -2.586,0.9 -3.955,1.345l1.316,3.974c-1.176,0.459 -2.39,0.918 -3.646,1.367l-1.672,-4.122c-1.333,0.376 -2.71,0.734 -4.132,1.061l2.089,4.317c-1.25,0.395 -2.536,0.774 -3.861,1.128l-2.596,-4.575c-1.533,0.258 -3.114,0.472 -4.744,0.631l3.239,4.927c-1.448,0.305 -2.938,0.576 -4.471,0.802l-4.059,-5.372c-1.918,0.167 -3.681,0.486 -5.302,0.926l4.33,5.013c-1.876,0.186 -3.585,0.526 -5.142,0.987l-4.066,-4.127c-1.601,0.817 -3.013,1.765 -4.257,2.79l3.682,3.279c-1.504,0.842 -2.807,1.812 -3.935,2.852l-3.265,-2.544c-1.121,1.406 -2.02,2.843 -2.737,4.207l2.877,1.953c-0.98,1.425 -1.726,2.861 -2.291,4.191l-2.529,-1.486c-0.491,1.557 -0.876,3.23 -1.145,4.959l2.217,1.114c-0.338,1.527 -0.572,3.148 -0.694,4.803l-1.976,-0.836Zm-11.232,-6.071c0.194,1.186 0.483,2.27 0.913,3.217c0.305,-0.386 0.613,-0.76 0.925,-1.12l-1.363,-0.576c-0.184,-0.496 -0.342,-1.003 -0.475,-1.521Zm-0.299,-11.681c-0.004,0.893 -0.018,1.785 -0.032,2.672c-0.022,1.342 -0.042,2.668 -0.028,3.947l0.85,0.427l0.001,0.009c0.048,1.395 0.081,2.772 0.151,4.089c0.261,-1.2 0.572,-2.386 0.934,-3.552l4.195,2.108c0.38,-1.786 0.88,-3.546 1.504,-5.251l-3.64,-2.138c0.756,-1.597 1.677,-3.263 2.793,-4.923l3.098,2.103c0.815,-1.483 1.801,-3.021 2.991,-4.534l-2.563,-1.998c0.728,-0.774 1.509,-1.531 2.347,-2.263c-1.269,0.295 -2.524,0.702 -3.74,1.178l-4.73,-3.686c-2.041,1.103 -3.723,2.187 -4.835,2.969c0.515,2.332 0.67,4.829 0.699,7.354c0.021,-0.303 0.041,-0.605 0.061,-0.907c0.139,0.864 0.249,1.742 0.338,2.628l-0.394,-0.232Zm16.991,-16.253c-2.278,0.259 -4.567,0.874 -6.731,1.661l6.281,5.592c1.307,-1.158 2.773,-2.249 4.417,-3.226l-3.967,-4.027Zm10.871,-4.534c-0.369,1.862 -0.529,3.764 -0.478,5.703c1.268,-0.4 2.609,-0.739 4.028,-1.005l-1.013,-1.342c1.216,-0.203 2.483,-0.362 3.802,-0.471c0.669,-0.055 1.33,-0.121 1.981,-0.197l0.903,1.373c0.026,-0.001 0.052,-0.002 0.079,-0.003c1.832,-0.075 3.6,-0.232 5.308,-0.452l-1.01,-1.78c1.675,-0.349 3.286,-0.758 4.843,-1.207l1.047,2.162c1.573,-0.327 3.094,-0.7 4.57,-1.105l-1.028,-2.536c1.54,-0.544 3.028,-1.113 4.471,-1.685l0.96,2.897c1.491,-0.485 2.936,-0.986 4.344,-1.485l-0.838,-3.222c1.545,-0.627 3.062,-1.228 4.555,-1.778l0.658,3.44c1.522,-0.537 3.014,-1.045 4.477,-1.489l-0.435,-3.508c1.642,-0.47 3.258,-0.84 4.855,-1.075l0.198,3.418c1.607,-0.305 3.182,-0.478 4.73,-0.468l0.024,-3.203c1.648,0.092 3.281,0.377 4.906,0.896l-0.218,2.98c1.51,0.446 2.998,1.133 4.469,2.112l0.406,-2.912c0.498,0.312 0.997,0.65 1.495,1.015c1.035,0.759 1.93,1.568 2.7,2.414l-0.656,3.174c1.95,2.729 2.444,5.766 2.259,8.42l1.685,-6.106c0.065,0.185 0.126,0.37 0.184,0.555c1.48,-0.809 3.153,-1.593 4.991,-2.254l-1.815,5.218c1.581,-0.734 3.375,-1.412 5.339,-1.905l2.015,-4.762c0.66,-0.109 1.334,-0.197 2.021,-0.262c-0.371,-0.568 -0.768,-1.137 -1.19,-1.702l1.652,-3.907c-0.814,-0.966 -1.704,-1.912 -2.671,-2.821c-0.434,-0.407 -0.898,-0.821 -1.394,-1.236l-1.316,3.782c-0.333,-0.314 -0.677,-0.623 -1.03,-0.928c-0.948,-0.815 -2.043,-1.653 -3.288,-2.456l1,-3.623c-1.517,-0.867 -3.204,-1.664 -5.069,-2.328l-0.714,3.453c-1.554,-0.637 -3.256,-1.179 -5.108,-1.572l0.458,-3.285c-1.723,-0.299 -3.56,-0.48 -5.515,-0.511l-0.229,3.142c-1.468,-0.059 -3.008,-0.024 -4.623,0.124c-0.236,0.022 -0.471,0.042 -0.705,0.061l0.024,-3.205c-1.914,0.006 -3.76,-0.075 -5.532,-0.226l0.212,3.654c-1.85,0.006 -3.638,-0.064 -5.359,-0.194l-0.521,-4.202c-2.144,-0.381 -4.141,-0.85 -5.979,-1.367l0.94,4.916c-2.119,-0.338 -4.102,-0.757 -5.935,-1.22l-1.545,-5.94c-2.507,-1.026 -4.419,-2.014 -5.649,-2.707c-0.382,0.193 -0.832,0.428 -1.336,0.704l1.959,5.917c-1.689,-0.62 -3.132,-1.232 -4.302,-1.771c-0.645,0.399 -1.373,0.868 -2.157,1.408l-0.886,-2.184c-1.591,1.129 -3.278,2.456 -4.93,3.982l0.963,1.99c-0.815,0.723 -1.635,1.501 -2.441,2.332c-0.66,0.683 -1.284,1.372 -1.869,2.068l-0.986,-1.738c-1.4,1.776 -2.565,3.601 -3.494,5.475l0.917,1.396c-1.102,1.997 -1.913,4.041 -2.424,6.132l-0.74,-0.978Zm116.098,2.134c-0.392,-2.578 -0.741,-4.73 -0.968,-5.761c-9.389,-8.464 -22.741,-8.814 -30.465,-8.139c0.184,0.195 0.366,0.393 0.546,0.592c1.343,0.014 2.797,0.074 4.327,0.204l-1.59,3.165c1.222,1.677 2.314,3.437 3.253,5.244l2.039,-3.472c1.095,1.847 2.045,3.747 2.83,5.665l-2.443,3.597c0.361,1.127 0.658,2.255 0.885,3.377c0.666,0.344 1.326,0.719 1.978,1.124l2.817,-3.614c1.436,0.889 2.851,1.905 4.242,3.051l-3.098,3.48c1.2,1.029 2.375,2.174 3.521,3.433l3.411,-3.361c0.32,0.331 0.638,0.669 0.955,1.014c0.859,0.938 1.77,1.842 2.718,2.719l-3.822,3.301c1.136,1.187 2.338,2.332 3.578,3.446l4.323,-3.265c0.452,0.361 0.908,0.718 1.366,1.073c-0.123,-0.598 -0.247,-1.206 -0.372,-1.824l1.779,-1.344c0.176,1.971 0.366,4.093 0.567,6.243l-3.752,2.466c0.955,0.789 1.914,1.566 2.866,2.338c0.441,0.358 0.881,0.715 1.318,1.071l1.032,-0.586c-0.85,-4.918 -1.769,-11.103 -2.78,-18.045c-0.006,-0.043 -0.012,-0.087 -0.019,-0.13l-2.227,1.924c-0.208,-1.053 -0.42,-2.127 -0.636,-3.218l0,-0c-0.215,-1.096 -0.436,-2.219 -0.656,-3.328l2.477,-2.44Zm19.14,48.455c0.883,5.586 0.758,10.316 -0.034,14.51c1.445,-2.992 2.283,-8.945 2.895,-13.289c0.939,-6.663 1.907,-13.538 4.664,-18.077c-1.655,-2.628 -9.813,-9.027 -17.088,-10.498c0.154,0.948 0.309,1.873 0.462,2.765c1.343,0.68 2.658,1.453 3.913,2.283l-3.216,1.556c0.469,2.427 0.915,4.357 1.309,5.457l5.687,-2.306l0.037,0.123c1.429,1.517 2.719,3.106 3.834,4.793l-6.528,2.162c1.089,1.584 2.005,3.255 2.696,5.044l5.162,-1.342c-1.029,1.618 -1.83,3.966 -2.504,6.572l-1.289,0.247Zm-5.733,6.399c-0.05,-1.633 -0.211,-3.362 -0.497,-5.208l-0.207,0.039c-0.139,-0.73 -0.302,-1.48 -0.488,-2.249c-0.231,-0.956 -0.583,-1.868 -1.035,-2.745l0.374,-0.097c-0.71,-1.584 -1.683,-3.091 -2.85,-4.55l-0.75,0.248c-0.281,-0.301 -0.572,-0.599 -0.871,-0.895c-0.999,-0.992 -2.085,-1.958 -3.232,-2.913l1.105,-0.447c-1.271,-1.202 -2.639,-2.387 -4.058,-3.571l-1.346,0.651c-0.837,-0.629 -1.686,-1.258 -2.541,-1.892c-0.535,-0.398 -1.073,-0.797 -1.61,-1.198l1.484,-0.842c-1.265,-1.026 -2.538,-2.064 -3.8,-3.129l-1.555,1.023c-1.204,-0.944 -2.398,-1.911 -3.568,-2.912l1.599,-1.209c-1.109,-1.024 -2.192,-2.081 -3.235,-3.184l-1.642,1.419c-0.822,-0.795 -1.624,-1.615 -2.4,-2.462c-0.208,-0.226 -0.415,-0.447 -0.624,-0.664l1.687,-1.661c-1.051,-1.172 -2.123,-2.223 -3.215,-3.152l-1.672,1.878c-1.196,-0.951 -2.407,-1.75 -3.634,-2.393l1.641,-2.106c-1.36,-0.794 -2.746,-1.412 -4.156,-1.853l-1.634,2.407c-0.986,-0.224 -1.981,-0.347 -2.986,-0.368c-0.592,-0.012 -1.172,0.011 -1.738,0.063l1.708,-2.909c-1.784,-0.069 -3.482,0.128 -5.056,0.486l-2.49,4.956c1.117,0.53 2.232,1.104 3.339,1.721l1.874,-3.189c1.179,0.604 2.352,1.251 3.515,1.94l-2.161,3.183c1.048,0.674 2.085,1.386 3.106,2.135l2.462,-3.159c1.111,0.752 2.208,1.543 3.285,2.371l-2.774,3.117c0.963,0.805 1.907,1.644 2.826,2.517l3.097,-3.052c1.025,0.894 2.025,1.824 2.997,2.788l-3.432,2.964c0.857,0.929 1.686,1.889 2.481,2.88l3.773,-2.851c0.909,1.031 1.785,2.096 2.624,3.193l-4.12,2.709c0.721,1.043 1.405,2.115 2.049,3.215l4.471,-2.537c0.758,1.159 1.475,2.349 2.146,3.569l-4.82,2.333c0.552,1.14 1.06,2.307 1.521,3.498l5.164,-2.094c0.57,1.266 1.09,2.561 1.557,3.884l-5.499,1.821c0.098,0.334 0.192,0.671 0.282,1.009c0.236,0.887 0.449,1.781 0.64,2.683l5.813,-1.511c0.362,1.345 0.678,2.706 0.947,4.082l-6.105,1.167c0.174,1.245 0.307,2.5 0.398,3.762l6.375,-0.791c0.176,1.382 0.308,2.775 0.394,4.175l-6.616,0.384c0.01,1.248 -0.019,2.501 -0.086,3.757l6.828,0.051c-0.002,1.395 -0.048,2.793 -0.137,4.193l-7.005,-0.511c-0.142,1.233 -0.321,2.466 -0.536,3.696l7.146,0.995c-0.174,1.387 -0.39,2.772 -0.649,4.153l-7.247,-1.498c-0.284,1.203 -0.604,2.401 -0.958,3.592l7.306,2.017c-0.341,1.36 -0.723,2.713 -1.147,4.056l-7.321,-2.546c-0.42,1.16 -0.873,2.311 -1.361,3.45l7.289,3.084c-0.41,1.068 -0.848,2.129 -1.312,3.179c-0.108,0.243 -0.216,0.484 -0.326,0.725l-7.208,-3.622c-0.046,0.093 -0.093,0.186 -0.14,0.279c-0.513,1.019 -1.05,2.016 -1.609,2.992l7.078,4.157c-0.674,1.263 -1.382,2.494 -2.122,3.69l-6.896,-4.682c-0.684,1.045 -1.395,2.06 -2.131,3.044l6.66,5.19c-0.838,1.171 -1.709,2.302 -2.61,3.391l-6.371,-5.673c-0.814,0.954 -1.651,1.872 -2.512,2.753l6.031,6.122c-0.55,0.574 -1.11,1.133 -1.678,1.678c-0.103,0.846 -0.23,1.679 -0.382,2.497l-6.669,-7.72c-0.443,0.393 -0.89,0.778 -1.343,1.153c-0.126,0.897 -0.282,1.777 -0.468,2.638l4.03,5.334c1.655,-0.138 3.307,-0.423 4.915,-0.867l-0.058,-0.067c0.174,-0.021 0.349,-0.042 0.523,-0.066c6.434,-1.908 12.103,-6.395 14.409,-14.198c2.782,-9.416 7.105,-16.204 10.919,-22.193c4.435,-6.963 8.185,-12.852 8.769,-21.283c0.063,-1.092 0.067,-2.226 0.004,-3.41l0.058,-0.007Zm-21.416,61.109c-1.057,0.948 -2.199,1.815 -3.423,2.596c-0.225,0.144 -0.454,0.285 -0.685,0.424l6.009,6.1c-0.404,0.227 -0.816,0.448 -1.234,0.66c-1.288,0.655 -2.638,1.232 -4.033,1.728l-5.398,-6.249c-1.614,0.608 -3.307,1.087 -5.043,1.435l4.786,6.336c-1.928,0.363 -3.899,0.585 -5.877,0.659l-4.177,-6.354c-1.791,0.082 -3.592,0.028 -5.371,-0.165l4.156,7.323c-1.099,1.382 -2.314,2.664 -3.64,3.839l-4.585,-9.476c-1.026,1.196 -2.154,2.298 -3.379,3.298l3.772,9.304c-0.587,0.366 -1.189,0.715 -1.807,1.048c-0.576,0.309 -1.164,0.603 -1.763,0.881c-0.386,0.023 -0.778,0.048 -1.176,0.074l-2.875,-8.683c-0.536,0.303 -1.086,0.59 -1.649,0.86c-0.826,0.397 -1.677,0.759 -2.55,1.084l1.868,7.187c-1.574,0.169 -3.25,0.38 -5.05,0.649l-1.25,-6.538c-1.475,0.324 -2.999,0.558 -4.564,0.703l0.806,6.501c-1.738,0.173 -3.417,0.272 -5.034,0.298l-0.385,-6.632c-1.505,-0.027 -3.039,-0.13 -4.597,-0.311l-0.05,6.736c5.655,1.605 12.939,1.476 21.481,-0.416c7.468,-1.656 13.017,-2.281 17.913,-2.833c5.636,-0.636 10.087,-1.138 14.979,-3.075c7.22,-2.859 12.95,-10.077 16.136,-20.324c0.79,-2.542 2.138,-5.137 3.564,-7.885c3.962,-7.633 8.045,-15.502 2.834,-25.087c-0.261,0.411 -0.523,0.823 -0.786,1.236c-0.605,0.951 -1.214,1.908 -1.821,2.879c0.401,1.636 0.602,3.221 0.641,4.753l-2.898,-1.008c-0.808,1.402 -1.596,2.854 -2.348,4.38l4.742,2.006c-0.373,1.773 -0.927,3.465 -1.584,5.074l-5.157,-2.591c-0.595,1.495 -1.149,3.065 -1.651,4.728l4.498,2.642c-0.701,1.282 -1.42,2.5 -2.102,3.654c-0.189,0.32 -0.377,0.638 -0.562,0.953l-3.641,-2.472c-0.747,1.546 -1.624,2.994 -2.625,4.334l3.754,2.926c-0.055,0.136 -0.107,0.27 -0.157,0.403c-0.625,1.684 -1.317,3.287 -2.072,4.806l-4.94,-4.398Zm-67.489,19.521c0.855,1.04 1.932,2.076 3.288,3.023c0.363,0.254 0.739,0.495 1.128,0.724l0.396,-5.419c-1.467,-0.302 -2.944,-0.668 -4.426,-1.097l-0.386,2.769Zm-6.36,-12.04c1.251,0.577 2.5,1.105 3.745,1.586l0.111,-0.535c1.275,0.574 2.548,1.1 3.815,1.578l-0.042,0.304c1.346,0.415 2.684,0.771 4.008,1.069l0.002,-0.031c0.139,0.041 0.278,0.082 0.417,0.123c8.118,1.751 15.697,1.274 21.69,-1.609c0.817,-0.393 1.595,-0.827 2.336,-1.301l-2.166,-6.539c-1.239,0.272 -2.453,0.477 -3.641,0.624l1.96,7.54c-1.442,0.116 -2.848,0.155 -4.213,0.128l-1.413,-7.393c-1.254,0.034 -2.473,0.004 -3.655,-0.08l0.89,7.179c-1.42,-0.172 -2.787,-0.41 -4.096,-0.699l-0.401,-6.912c-1.223,-0.207 -2.397,-0.468 -3.52,-0.769l-0.049,6.605c-1.354,-0.435 -2.626,-0.915 -3.809,-1.416l0.458,-6.27c-1.156,-0.427 -2.241,-0.888 -3.251,-1.364l-0.823,5.913c-0.869,-0.461 -1.662,-0.917 -2.374,-1.352c-0.345,-0.211 -0.686,-0.426 -1.024,-0.645l1.143,-5.531c-0.81,-0.47 -1.543,-0.933 -2.196,-1.371c-0.232,-0.155 -0.462,-0.313 -0.689,-0.472l-1.415,5.126c-1.013,-0.79 -1.981,-1.614 -2.898,-2.464l1.638,-4.709c-0.858,-0.715 -1.677,-1.458 -2.451,-2.222l-1.809,4.278c-0.839,-0.929 -1.616,-1.876 -2.325,-2.832l1.922,-3.825c-0.707,-0.832 -1.359,-1.678 -1.951,-2.53l-1.961,3.338c-0.41,-0.709 -0.779,-1.416 -1.104,-2.119c-0.414,0.009 -0.831,0.011 -1.249,0.007l2.659,-3.915c-0.519,-0.968 -0.952,-1.932 -1.291,-2.881l-5.134,6.588c-1.291,-0.138 -2.545,-0.35 -3.76,-0.638l6.551,-7.358c-1.202,-0.01 -2.42,-0.08 -3.653,-0.211l-6.537,6.44c-1.184,-0.461 -2.326,-1.002 -3.425,-1.625l6.308,-5.449c-1.209,-0.299 -2.369,-0.683 -3.48,-1.15l-5.969,4.51c-0.981,-0.758 -1.92,-1.591 -2.817,-2.499l5.587,-3.673c-0.999,-0.627 -1.95,-1.335 -2.85,-2.124l-5.217,2.96c-0.171,-0.221 -0.34,-0.445 -0.507,-0.672c-0.58,-0.787 -1.125,-1.601 -1.637,-2.438l4.888,-2.365c-0.668,-0.784 -1.3,-1.624 -1.897,-2.518c-0.068,-0.102 -0.136,-0.204 -0.203,-0.307l-4.598,1.864c-0.548,-1.136 -1.046,-2.302 -1.496,-3.489l4.348,-1.44c-0.525,-1.052 -0.995,-2.136 -1.415,-3.244l-4.138,1.076c-0.357,-1.22 -0.669,-2.454 -0.94,-3.694l3.97,-0.759c-0.321,-1.143 -0.596,-2.303 -0.828,-3.471l-3.838,0.476c-0.195,-1.27 -0.35,-2.538 -0.47,-3.797l3.733,-0.217c-0.153,-1.196 -0.265,-2.394 -0.342,-3.584l-7.758,-0.058c-0.358,1.346 -0.658,2.738 -0.896,4.164l4.795,-0.278c-0.346,1.285 -0.635,2.62 -0.861,3.993l-4.451,0.552c-0.108,1.426 -0.156,2.874 -0.138,4.333l4.108,-0.785c-0.097,1.369 -0.134,2.763 -0.108,4.171l-3.75,0.975c0.149,1.45 0.365,2.901 0.652,4.345l3.366,-1.115c0.152,1.399 0.37,2.802 0.655,4.199l-2.948,1.195c0.429,1.406 0.931,2.795 1.511,4.157l2.497,-1.208c0.422,1.364 0.914,2.711 1.48,4.033l-2.018,1.146c0.723,1.276 1.524,2.517 2.407,3.716l1.523,-1.002c0.706,1.244 1.487,2.453 2.346,3.618l-1.024,0.774c1.12,1.162 2.231,2.115 3.35,2.914l0.441,-0.38c0.67,0.705 1.332,1.33 1.99,1.887c2.67,1.425 5.457,2.232 8.59,3.139c3.782,1.094 8.006,2.317 12.628,4.914l0.047,-0.094c1.165,0.424 2.359,0.907 3.583,1.467l-0.281,0.664c1.147,0.696 2.299,1.353 3.452,1.97l0.302,-0.869c0.187,0.105 0.375,0.212 0.563,0.321c0.976,0.565 1.955,1.104 2.935,1.614l-0.2,0.724Zm-28.605,13.86c0.711,1.159 1.324,2.407 1.795,3.776c4.556,0.226 16.298,-0.007 26.213,-4.556c-0.815,-1.41 -1.428,-2.827 -1.861,-4.173l-0.42,1.523c-0.921,0.372 -1.855,0.708 -2.799,1.013c-0.712,-0.366 -1.423,-0.743 -2.132,-1.132l2.106,-6.055c-1.288,-0.665 -2.57,-1.372 -3.842,-2.122l-2.492,5.892c-1.522,-0.718 -2.996,-1.276 -4.436,-1.74l3.223,-6.413c-1.313,-0.755 -2.595,-1.381 -3.853,-1.919l-4.123,7.021l-0.267,-0.066c-2.227,0.732 -4.433,1.261 -6.614,1.59l6.844,-10.079c-1.211,-0.389 -2.405,-0.734 -3.587,-1.076l-0.251,-0.073c-0.346,0.106 -0.691,0.207 -1.036,0.303l-8.647,11.097c1.314,1.283 2.633,2.588 3.84,4.006l0.793,-1.167c0.354,0.315 0.713,0.633 1.075,0.956c1.009,0.9 2.02,1.812 3.002,2.762l-0.447,0.761c-0.739,-0.032 -1.435,-0.076 -2.084,-0.129Zm-13.126,-15.55c0.797,1.64 1.878,3.089 3.128,4.488l5.322,-5.977c-2.264,0.151 -4.485,0.059 -6.658,-0.277l-1.792,1.766Zm-4.104,-10.208c1.799,0.893 3.635,1.545 5.516,1.957l1.368,-1.182c-1.183,-0.938 -2.365,-2.025 -3.545,-3.298l-3.339,2.523Zm2.301,-55.209c-0.115,0.216 -0.228,0.437 -0.339,0.661c-0.501,1.005 -0.963,2.065 -1.383,3.17l6.342,0.463c-0.007,-1.233 0.021,-2.45 0.081,-3.639l-4.701,-0.655Zm5.403,-6.678c-1.078,0.759 -2.138,1.808 -3.144,3.115l2.727,0.564c0.135,-1.27 0.303,-2.493 0.498,-3.657l-0.081,-0.022Zm7.696,-4.737c-0.112,0.337 -0.217,0.676 -0.316,1.016c-0.212,0.724 -0.404,1.452 -0.578,2.182l3.787,1.317c-0.12,0.415 -0.229,0.834 -0.329,1.254c-0.134,0.565 -0.256,1.131 -0.367,1.698l-3.743,-1.033c-0.18,1.085 -0.322,2.17 -0.428,3.251l3.692,0.763c-0.127,0.999 -0.221,1.997 -0.285,2.991l-3.623,-0.505c-0.037,1.089 -0.04,2.168 -0.012,3.234l3.536,0.258c-0.003,1.001 0.024,1.993 0.078,2.973l-3.428,-0.026c0.095,1.078 0.223,2.136 0.38,3.167l3.299,-0.191c0.114,0.992 0.255,1.966 0.422,2.918l-3.143,0.39c0.232,1.056 0.496,2.075 0.787,3.051l2.951,-0.564c0.234,0.974 0.494,1.917 0.778,2.823l-2.711,0.705c0.401,1.02 0.833,1.97 1.292,2.841l2.396,-0.794c0.377,0.942 0.781,1.828 1.206,2.65l-1.952,0.792c0.637,0.868 1.324,1.659 2.06,2.372l1.383,-0.669c0.086,0.123 0.172,0.243 0.259,0.361c0.504,0.684 1.038,1.312 1.605,1.883l-0.752,0.427c0.923,0.604 1.904,1.112 2.941,1.523l0.095,-0.062c0.124,0.083 0.25,0.163 0.376,0.242c1.356,0.492 2.804,0.823 4.342,0.993c6.632,0.733 11.886,-0.633 15.982,-2.877l4.482,-6.6c-0.513,0.038 -1.03,0.057 -1.549,0.057l-4.907,6.296c-0.641,-0.15 -1.278,-0.323 -1.91,-0.519l5.197,-5.838c-0.561,-0.041 -1.122,-0.104 -1.683,-0.187l-5.434,5.353c-0.645,-0.254 -1.283,-0.532 -1.91,-0.835l5.609,-4.845c-0.595,-0.136 -1.187,-0.295 -1.774,-0.478l-5.717,4.32c-0.625,-0.367 -1.236,-0.759 -1.831,-1.178l5.754,-3.783c-0.608,-0.245 -1.206,-0.517 -1.793,-0.814l-5.72,3.245c-0.581,-0.486 -1.136,-0.993 -1.667,-1.521l5.621,-2.72c-0.586,-0.366 -1.156,-0.76 -1.707,-1.182l-5.464,2.216c-0.499,-0.594 -0.969,-1.209 -1.411,-1.844l5.256,-1.74c-0.531,-0.495 -1.033,-1.011 -1.505,-1.548l-5.002,1.3c-0.389,-0.685 -0.748,-1.391 -1.077,-2.116l4.722,-0.902c-0.427,-0.603 -0.822,-1.228 -1.184,-1.873l-4.431,0.55c-0.265,-0.755 -0.5,-1.528 -0.704,-2.317l4.141,-0.24c-0.298,-0.688 -0.562,-1.396 -0.793,-2.121l-3.864,-0.029c-0.139,-0.8 -0.249,-1.616 -0.328,-2.446l3.605,0.263c-0.16,-0.744 -0.289,-1.505 -0.384,-2.281l-3.369,-0.47c-0.02,-0.827 -0.011,-1.666 0.027,-2.517l3.156,0.653c-0.029,-0.778 -0.028,-1.568 0.004,-2.371l-2.967,-0.818c0.091,-0.84 0.208,-1.69 0.353,-2.549l2.799,0.973c0.09,-0.793 0.208,-1.596 0.356,-2.408l-2.649,-1.121l0.053,-0.229c0.179,-0.775 0.397,-1.544 0.65,-2.305l2.465,1.239c0.123,-0.498 0.257,-1 0.402,-1.504c0.087,-0.305 0.181,-0.608 0.283,-0.909l-2.192,-1.288c0.358,-0.801 0.756,-1.591 1.194,-2.367l1.935,1.313c0.354,-0.758 0.752,-1.503 1.192,-2.232l-1.718,-1.338c0.5,-0.727 1.035,-1.438 1.605,-2.132l1.532,1.365c0.504,-0.674 1.045,-1.33 1.621,-1.966l-1.375,-1.395c0.615,-0.636 1.26,-1.253 1.934,-1.85l1.236,1.431c0.62,-0.573 1.27,-1.126 1.948,-1.656l-1.112,-1.472c0.705,-0.535 1.436,-1.049 2.192,-1.54l0.999,1.519c0.705,-0.465 1.436,-0.907 2.19,-1.325l-0.893,-1.572c0.782,-0.433 1.577,-0.839 2.384,-1.217l0.791,1.634c0.774,-0.358 1.56,-0.687 2.356,-0.987l-2.572,-6.343c-1.137,0.07 -2.196,0.2 -3.157,0.361l2.452,5.067c-1.027,0.11 -1.978,0.272 -2.838,0.456l-2.741,-4.831c-1.038,0.285 -2.061,0.623 -3.065,1.01l3.007,4.574c-0.928,0.301 -1.841,0.648 -2.734,1.037l-3.246,-4.296c-0.976,0.489 -1.928,1.024 -2.853,1.603l3.457,4.001c-0.866,0.482 -1.708,1.004 -2.525,1.565l-3.637,-3.692c-0.876,0.67 -1.721,1.381 -2.53,2.128l3.785,3.369c-0.771,0.643 -1.511,1.321 -2.217,2.032l-3.895,-3.036c-0.741,0.828 -1.441,1.69 -2.096,2.583l3.965,2.692c-0.642,0.782 -1.246,1.594 -1.809,2.431l-3.991,-2.344c-0.566,0.958 -1.081,1.943 -1.542,2.951l3.967,1.994c-0.479,0.894 -0.912,1.811 -1.295,2.748l-3.89,-1.646Zm35.688,-22.465c-1.068,-0.17 -2.107,-0.271 -3.109,-0.317l1.838,5.551c0.814,-0.243 1.636,-0.458 2.465,-0.644l-1.194,-4.59Zm5.942,1.664c-0.98,-0.402 -1.953,-0.732 -2.911,-1.001l0.661,3.457c0.835,-0.127 1.675,-0.226 2.518,-0.296l-0.268,-2.16Zm5.39,-7.749c-1.079,0.444 -2.113,1.029 -3.06,1.79l0.007,0.116c1.028,0.42 2.038,0.892 3.028,1.416l0.025,-3.322Zm6.535,-1.231c-1.076,0.02 -2.19,0.112 -3.301,0.309l-0.432,5.917c0.888,0.583 1.757,1.212 2.604,1.883l0.391,-2.807c0.881,0.585 1.746,1.21 2.594,1.872l-0.616,2.981c0.73,0.685 1.441,1.405 2.131,2.16l0.867,-3.139c0.708,0.64 1.402,1.308 2.081,2.005l0.107,0.036l-0.895,2.574c0.788,0.308 1.548,0.626 2.281,0.956l1.112,-2.629c0.849,0.329 1.667,0.672 2.456,1.028l-1.344,2.674c0.75,0.389 1.468,0.79 2.155,1.202l1.592,-2.71c0.812,0.424 1.59,0.863 2.334,1.316l-1.857,2.735c0.691,0.483 1.345,0.979 1.964,1.487l2.14,-2.747c0.751,0.532 1.463,1.08 2.138,1.641l-2.442,2.743c0.601,0.582 1.162,1.178 1.685,1.786l2.76,-2.72c0.656,0.644 1.271,1.302 1.846,1.973l-3.095,2.673c0.479,0.674 0.918,1.358 1.319,2.053l3.444,-2.602c0.055,0.077 0.109,0.153 0.163,0.229c0.469,0.667 0.905,1.345 1.31,2.032l-3.801,2.499c0.339,0.737 0.641,1.483 0.91,2.236l4.156,-2.358c0.389,0.813 0.74,1.636 1.056,2.468l-4.503,2.178c0.204,0.767 0.377,1.539 0.523,2.314l4.831,-1.959c0.251,0.852 0.469,1.711 0.658,2.574l-5.136,1.701c0.091,0.766 0.159,1.534 0.205,2.301l5.413,-1.407c0.134,0.866 0.241,1.733 0.325,2.601l-5.66,1.082c0.007,0.75 -0.003,1.498 -0.028,2.242l5.873,-0.729c0.041,0.865 0.062,1.727 0.066,2.585l-6.055,0.351c-0.052,0.731 -0.115,1.457 -0.188,2.175l6.205,0.047c-0.028,0.862 -0.071,1.718 -0.125,2.564l-6.327,-0.462c-0.094,0.717 -0.205,1.425 -0.33,2.124l6.439,0.897c-0.095,0.862 -0.21,1.713 -0.347,2.551l-6.522,-1.348c-0.161,0.701 -0.339,1.392 -0.532,2.072l6.571,1.814c-0.186,0.852 -0.395,1.691 -0.626,2.516l-6.583,-2.289c-0.232,0.68 -0.481,1.348 -0.747,2.004l6.555,2.772c-0.287,0.832 -0.597,1.648 -0.93,2.447l-6.483,-3.258c-0.308,0.651 -0.633,1.288 -0.974,1.912l6.367,3.739c-0.394,0.794 -0.812,1.57 -1.254,2.325l-6.202,-4.212c-0.386,0.611 -0.788,1.206 -1.207,1.785l5.992,4.669c-0.503,0.737 -1.03,1.451 -1.58,2.143l-5.735,-5.105c-0.462,0.557 -0.941,1.096 -1.436,1.618l5.431,5.514c-0.607,0.656 -1.238,1.288 -1.892,1.894l-5.086,-5.888c-0.534,0.49 -1.085,0.96 -1.652,1.412l4.704,6.225c-0.523,0.415 -1.057,0.816 -1.604,1.201c-0.186,0.131 -0.373,0.261 -0.562,0.388l-4.287,-6.52c-0.288,0.198 -0.579,0.391 -0.875,0.58c-0.316,0.202 -0.637,0.399 -0.962,0.59l3.841,6.77c-0.774,0.442 -1.568,0.857 -2.383,1.244l-3.375,-6.974c-0.648,0.323 -1.31,0.625 -1.985,0.905l2.89,7.129c-0.839,0.322 -1.686,0.611 -2.541,0.867l-2.394,-7.228c-0.692,0.233 -1.39,0.441 -2.093,0.624l1.892,7.277c-0.874,0.192 -1.752,0.351 -2.632,0.477l-1.391,-7.276c-0.718,0.136 -1.438,0.246 -2.158,0.332l0.896,7.224c-0.889,0.06 -1.776,0.087 -2.658,0.081l-0.414,-7.122c-0.73,0.036 -1.457,0.046 -2.181,0.032l-0.053,6.972c-0.881,-0.073 -1.755,-0.18 -2.619,-0.32l0.495,-6.773c-0.727,-0.067 -1.448,-0.159 -2.16,-0.277l-0.909,6.525c-0.852,-0.21 -1.689,-0.454 -2.51,-0.731l1.288,-6.231c-0.707,-0.173 -1.403,-0.373 -2.086,-0.599l-2.396,8.683c0.766,0.616 1.58,1.217 2.44,1.795l0.52,-2.516c0.738,0.678 1.542,1.348 2.41,1.998l-0.295,2.114c0.853,0.466 1.792,0.932 2.811,1.373l0.124,-1.7c0.806,0.492 1.761,1.023 2.851,1.544l-0.01,1.276c0.979,0.318 2.011,0.602 3.093,0.838l-0.049,-0.852c0.992,0.353 2.055,0.676 3.183,0.945l0.054,0.435c1.046,0.119 2.129,0.188 3.247,0.198l-0.008,-0.041c0.123,0.015 0.246,0.029 0.369,0.043c2.9,-0.007 6.032,-0.415 9.356,-1.402c10.463,-3.11 19.92,-11.744 25.943,-23.691c3.078,-6.104 5.032,-12.666 5.809,-19.235l-0.149,-0.011c0.068,-1.106 0.102,-2.21 0.102,-3.311l0.34,0.002c0.064,-1.117 0.094,-2.232 0.09,-3.342l-0.535,0.031c-0.071,-1.105 -0.176,-2.204 -0.317,-3.295l0.732,-0.09c-0.077,-1.125 -0.19,-2.243 -0.339,-3.352l-0.928,0.178c-0.215,-1.085 -0.468,-2.159 -0.757,-3.219l1.118,-0.291c-0.181,-0.878 -0.387,-1.749 -0.616,-2.611c-0.061,-0.228 -0.124,-0.455 -0.189,-0.682l-1.302,0.431c-0.375,-1.036 -0.796,-2.053 -1.261,-3.049l1.479,-0.6c-0.41,-1.058 -0.865,-2.096 -1.363,-3.113l-1.633,0.79c-0.544,-0.949 -1.127,-1.876 -1.744,-2.78l1.762,-1c-0.577,-0.973 -1.192,-1.924 -1.841,-2.851l-1.864,1.225c-0.675,-0.847 -1.381,-1.67 -2.113,-2.468l1.936,-1.463c-0.711,-0.876 -1.452,-1.727 -2.219,-2.552l-1.978,1.709c-0.776,-0.741 -1.573,-1.455 -2.39,-2.142l1.992,-1.963c-0.818,-0.773 -1.658,-1.519 -2.517,-2.235l-1.975,2.22c-0.853,-0.634 -1.72,-1.238 -2.599,-1.813l1.93,-2.477c-0.907,-0.666 -1.828,-1.3 -2.761,-1.901l-1.856,2.733c-0.915,-0.523 -1.838,-1.014 -2.765,-1.471l1.753,-2.985c-0.984,-0.55 -1.975,-1.062 -2.968,-1.534l-1.623,3.229c-0.969,-0.403 -1.938,-0.769 -2.903,-1.095l1.465,-3.463c-1.053,-0.413 -2.103,-0.78 -3.145,-1.098l-1.28,3.68c-1.015,-0.26 -2.019,-0.474 -3.008,-0.64l1.07,-3.875c-0.418,-0.089 -0.834,-0.169 -1.248,-0.241c-0.614,-0.106 -1.296,-0.205 -2.028,-0.282l-0.833,4.031c-0.947,-0.07 -1.984,-0.099 -3.052,-0.039l0.577,-4.144Zm16.07,-4.775c-0.713,0.354 -1.363,0.718 -1.943,1.069c0.428,0.155 0.856,0.317 1.285,0.486l0.658,-1.555Zm11.228,-13.757l-2.546,5.066c0.818,-0.033 1.655,-0.026 2.508,0.026c0.874,0.054 1.739,0.159 2.596,0.306c-0.63,-1.719 -1.475,-3.552 -2.558,-5.398Zm-0.15,119.835c-0.053,0.14 -0.107,0.279 -0.163,0.417c0.156,0.017 0.313,0.034 0.469,0.049l-0.306,-0.466Zm-5.903,-2.189c0.004,-0.01 0.008,-0.02 0.011,-0.03c-0.007,0.004 -0.014,0.008 -0.021,0.012l0.01,0.018Zm-3.374,1.588c-1.149,0.487 -2.313,0.919 -3.49,1.291l1.948,4.803c1.055,-1.046 1.993,-2.206 2.809,-3.476l-1.267,-2.618Zm-40.204,-14.691c0.608,0.709 1.278,1.42 2.006,2.122l2.604,-7.485c-0.666,-0.285 -1.316,-0.597 -1.945,-0.935l-2.665,6.298Zm-3.208,-4.749c0.388,0.791 0.874,1.621 1.454,2.469l2.574,-5.124c-0.172,-0.115 -0.343,-0.232 -0.511,-0.351c-0.725,0.287 -1.462,0.546 -2.209,0.779l-1.308,2.227Zm9.92,-16.889l-2.743,4.669c1.11,-0.849 2.108,-1.752 2.999,-2.67l1.135,-2.258c-0.458,0.103 -0.922,0.189 -1.391,0.259Zm3.503,-8.154c0.191,0.051 0.385,0.096 0.58,0.135l0.739,-1.087c0.135,0.07 0.273,0.134 0.413,0.193l-0.58,0.988c0.07,0.01 0.141,0.018 0.212,0.026c0.116,0.013 0.231,0.024 0.347,0.032l0.445,-0.886c0.142,0.047 0.286,0.088 0.432,0.125l-0.332,0.785c0.177,0.002 0.354,-0 0.53,-0.008l0.239,-0.686c0.144,0.024 0.29,0.043 0.438,0.057l-0.164,0.592c0.166,-0.017 0.332,-0.038 0.496,-0.064l0.104,-0.503c0.145,0.003 0.289,0 0.433,-0.007l-0.059,0.423c0.154,-0.033 0.307,-0.069 0.459,-0.11l0.026,-0.351c0.14,-0.018 0.279,-0.041 0.417,-0.068l-0.002,0.29c0.142,-0.046 0.282,-0.095 0.422,-0.148l-0.014,-0.239c0.133,-0.037 0.264,-0.078 0.393,-0.124l0.025,0.2c0.13,-0.056 0.259,-0.115 0.387,-0.178l-0.033,-0.172c0.122,-0.054 0.243,-0.111 0.362,-0.173l0.04,0.155c0.119,-0.065 0.236,-0.133 0.353,-0.203l-0.049,-0.147c0.11,-0.068 0.219,-0.139 0.325,-0.214l0.06,0.147c0.109,-0.072 0.216,-0.146 0.322,-0.223l-0.076,-0.156c0.057,-0.046 0.112,-0.092 0.167,-0.14c0.04,-0.035 0.08,-0.071 0.12,-0.107l0.096,0.17c0.1,-0.079 0.197,-0.16 0.293,-0.242l-0.123,-0.188c0.084,-0.088 0.166,-0.179 0.245,-0.272l0.158,0.21c0.091,-0.085 0.18,-0.171 0.267,-0.259l-0.2,-0.233c0.071,-0.095 0.138,-0.192 0.203,-0.291l0.252,0.256c0.083,-0.09 0.164,-0.182 0.243,-0.276l-0.312,-0.278c0.057,-0.1 0.111,-0.201 0.162,-0.304l0.381,0.297c0.075,-0.097 0.148,-0.195 0.219,-0.294l-0.458,-0.311c0.044,-0.103 0.084,-0.207 0.122,-0.312l0.544,0.319c0.068,-0.103 0.133,-0.207 0.196,-0.313l-0.637,-0.32c0.03,-0.104 0.058,-0.209 0.083,-0.315l0.738,0.313c0.06,-0.11 0.118,-0.221 0.173,-0.333l-0.846,-0.295c0.019,-0.104 0.034,-0.208 0.048,-0.314l0.958,0.265c0.051,-0.117 0.1,-0.236 0.147,-0.355l-1.075,-0.222l0.001,-0.009c0.007,-0.101 0.011,-0.202 0.013,-0.302l1.195,0.167c0.043,-0.125 0.083,-0.251 0.12,-0.378l-1.318,-0.096c-0.003,-0.103 -0.009,-0.204 -0.018,-0.305l1.441,0.011c0.033,-0.134 0.063,-0.268 0.09,-0.403l-1.565,0.091c-0.014,-0.1 -0.031,-0.199 -0.05,-0.297l1.687,-0.209c0.014,-0.092 0.027,-0.185 0.038,-0.277c0.006,-0.051 0.012,-0.101 0.017,-0.152l-1.806,0.345c-0.024,-0.096 -0.05,-0.192 -0.079,-0.287l1.92,-0.499c0.009,-0.152 0.013,-0.304 0.014,-0.454l-2.027,0.671c-0.033,-0.094 -0.069,-0.186 -0.107,-0.277l2.124,-0.861c-0.007,-0.161 -0.019,-0.32 -0.035,-0.479l-2.21,1.07c-0.043,-0.09 -0.088,-0.178 -0.135,-0.265l2.281,-1.294c-0.026,-0.168 -0.057,-0.334 -0.093,-0.499l-2.336,1.536c-0.051,-0.085 -0.105,-0.169 -0.161,-0.251l2.372,-1.792c-0.048,-0.172 -0.101,-0.343 -0.16,-0.512l-2.386,2.062c-0.061,-0.08 -0.123,-0.159 -0.188,-0.235l2.378,-2.343c-0.072,-0.175 -0.151,-0.348 -0.234,-0.517l-2.344,2.633c-0.07,-0.074 -0.141,-0.147 -0.214,-0.217l2.284,-2.931c-0.1,-0.173 -0.205,-0.343 -0.316,-0.508l-2.194,3.231c-0.078,-0.068 -0.158,-0.134 -0.239,-0.198l2.075,-3.533c-0.128,-0.166 -0.262,-0.328 -0.402,-0.485l-1.925,3.832c-0.087,-0.061 -0.175,-0.119 -0.265,-0.175l1.744,-4.123c-0.157,-0.154 -0.32,-0.302 -0.489,-0.444l-1.532,4.405c-0.094,-0.052 -0.191,-0.102 -0.289,-0.149l1.289,-4.67c-0.186,-0.134 -0.377,-0.261 -0.573,-0.381l-1.017,4.918c-0.103,-0.042 -0.207,-0.082 -0.312,-0.118l0.716,-5.141c-0.212,-0.107 -0.428,-0.207 -0.65,-0.297l-0.39,5.337c-0.11,-0.031 -0.221,-0.058 -0.333,-0.083l0.041,-5.502c-0.233,-0.074 -0.47,-0.14 -0.711,-0.195l0.327,5.633c-0.116,-0.018 -0.234,-0.033 -0.352,-0.044l-0.71,-5.727c-0.104,-0.015 -0.209,-0.028 -0.314,-0.04c-0.147,-0.016 -0.294,-0.029 -0.44,-0.038l1.105,5.782c-0.123,-0.004 -0.244,-0.005 -0.366,-0.001l-1.507,-5.798c-0.26,0.006 -0.518,0.022 -0.775,0.049l1.911,5.77c-0.125,0.012 -0.25,0.027 -0.374,0.046l-2.312,-5.7c-0.259,0.05 -0.515,0.111 -0.769,0.184l2.704,5.588c-0.127,0.028 -0.252,0.061 -0.377,0.097l-3.083,-5.433c-0.249,0.096 -0.494,0.203 -0.735,0.32l3.444,5.238c-0.125,0.047 -0.249,0.098 -0.371,0.153l-3.781,-5.006c-0.071,0.043 -0.141,0.086 -0.21,0.13c-0.158,0.101 -0.314,0.207 -0.466,0.318l4.094,4.739c-0.121,0.065 -0.239,0.134 -0.355,0.208l-4.376,-4.442c-0.206,0.18 -0.404,0.367 -0.592,0.561l4.625,4.117c-0.113,0.084 -0.223,0.171 -0.331,0.263l-4.835,-3.768c-0.172,0.213 -0.333,0.432 -0.485,0.658l5.006,3.399c-0.103,0.102 -0.202,0.207 -0.297,0.315l-5.132,-3.015c-0.13,0.239 -0.25,0.484 -0.358,0.734l5.215,2.62c-0.088,0.118 -0.172,0.239 -0.251,0.363l-5.254,-2.222c-0.085,0.256 -0.158,0.516 -0.22,0.781l5.249,1.826c-0.071,0.132 -0.137,0.266 -0.197,0.404l-5.202,-1.436c-0.009,0.067 -0.018,0.134 -0.026,0.202c-0.024,0.199 -0.042,0.399 -0.053,0.598l5.116,1.057c-0.05,0.143 -0.094,0.289 -0.133,0.436l-4.992,-0.695c0.008,0.265 0.029,0.528 0.06,0.79l4.833,0.353c-0.028,0.151 -0.049,0.303 -0.065,0.457l-4.639,-0.035c0.054,0.254 0.119,0.506 0.195,0.754l4.416,-0.257c-0.004,0.156 -0.002,0.312 0.007,0.466l-4.165,0.517c0.095,0.235 0.2,0.466 0.315,0.693l3.894,-0.745c0.021,0.155 0.048,0.309 0.081,0.462l-3.607,0.937c0.129,0.209 0.268,0.414 0.415,0.613l3.311,-1.096c0.046,0.15 0.098,0.298 0.156,0.444l-3.012,1.221c0.157,0.181 0.321,0.354 0.49,0.521l2.713,-1.313c0.069,0.14 0.144,0.278 0.225,0.413l-2.418,1.372c0.176,0.148 0.357,0.289 0.543,0.422l2.132,-1.401c0.09,0.126 0.186,0.25 0.287,0.37l-1.856,1.402c0.188,0.114 0.38,0.221 0.576,0.321l1.594,-1.377c0.109,0.112 0.222,0.218 0.339,0.32l-1.349,1.328c0.193,0.081 0.389,0.156 0.588,0.223l1.123,-1.261c0.124,0.092 0.251,0.178 0.381,0.259l-0.919,1.18Zm-9.677,1.753c0.307,0.063 0.614,0.117 0.92,0.162c-0.14,-0.147 -0.278,-0.297 -0.413,-0.449l-0.507,0.287Zm-3.354,-1.052c0.549,0.236 1.109,0.443 1.676,0.62l1.477,-0.715c-0.229,-0.3 -0.445,-0.607 -0.65,-0.921l-2.503,1.016Zm-3.205,-1.824c0.501,0.367 1.024,0.704 1.564,1.01l3.558,-1.178c-0.186,-0.337 -0.358,-0.68 -0.517,-1.029l-4.605,1.197Zm-2.751,-2.574c0.402,0.481 0.836,0.94 1.302,1.375l2.215,-0.423c0.167,0.197 0.34,0.389 0.52,0.577c-0.045,-0.217 -0.087,-0.435 -0.125,-0.653l3.004,-0.574c-0.134,-0.367 -0.254,-0.74 -0.358,-1.116l-2.829,0.351c-0.045,-0.446 -0.075,-0.895 -0.09,-1.347l2.647,-0.153c-0.076,-0.389 -0.137,-0.781 -0.182,-1.176l-2.461,-0.018c0.008,-0.214 0.019,-0.428 0.034,-0.642c0.016,-0.234 0.037,-0.468 0.061,-0.7l2.277,0.166c-0.015,-0.399 -0.013,-0.801 0.004,-1.204l-2.096,-0.292c0.078,-0.441 0.17,-0.878 0.276,-1.311l1.919,0.397c-0,-0.001 0,-0.003 0,-0.004c0.049,-0.403 0.113,-0.802 0.192,-1.196l-1.746,-0.482c0.136,-0.424 0.287,-0.842 0.452,-1.254l1.58,0.549c0.112,-0.393 0.239,-0.781 0.381,-1.163l-1.425,-0.602c0.192,-0.398 0.398,-0.789 0.618,-1.173l1.279,0.643c0.173,-0.371 0.361,-0.736 0.563,-1.092l-1.147,-0.674c0.243,-0.364 0.499,-0.721 0.767,-1.069l1.03,0.699c0.229,-0.339 0.473,-0.669 0.73,-0.989l-0.924,-0.72c0.287,-0.325 0.587,-0.641 0.897,-0.949l0.833,0.741c0.279,-0.296 0.571,-0.583 0.875,-0.86l-0.753,-0.764c0.328,-0.284 0.663,-0.556 1.006,-0.815l0.683,0.791c0.323,-0.252 0.654,-0.489 0.992,-0.713l-0.622,-0.823c0.359,-0.236 0.724,-0.459 1.095,-0.67l0.566,0.861c0.355,-0.197 0.715,-0.379 1.082,-0.547l-0.515,-0.908c0.383,-0.184 0.771,-0.356 1.165,-0.515l0.465,0.963c0.376,-0.138 0.757,-0.261 1.142,-0.369l-0.417,-1.028c0.4,-0.131 0.804,-0.249 1.212,-0.353l0.366,1.104c0.387,-0.077 0.777,-0.139 1.17,-0.186l-0.309,-1.19c0.409,-0.076 0.821,-0.14 1.236,-0.19l0.246,1.284c0.387,-0.017 0.776,-0.019 1.166,-0.007l-0.172,-1.386c0.411,-0.023 0.825,-0.033 1.239,-0.03l0.087,1.495c0.028,0.003 0.056,0.006 0.084,0.009c0.354,0.04 0.705,0.09 1.05,0.153l0.012,-1.609c0.412,0.028 0.819,0.07 1.223,0.124l-0.126,1.727c0.364,0.094 0.723,0.2 1.076,0.319l0.257,-1.846c0.401,0.079 0.797,0.171 1.187,0.275l-0.406,1.965c0.339,0.142 0.671,0.297 0.996,0.462l0.574,-2.079c0.384,0.128 0.762,0.268 1.135,0.419l-0.761,2.187c0.307,0.185 0.606,0.38 0.897,0.585l0.967,-2.284c0.362,0.174 0.717,0.359 1.066,0.554l-1.19,2.368c0.271,0.219 0.533,0.448 0.787,0.684l1.43,-2.434c0.335,0.216 0.663,0.442 0.984,0.678l-1.686,2.483c0.231,0.246 0.453,0.501 0.668,0.762l1.956,-2.51c0.304,0.254 0.601,0.517 0.889,0.789l-2.238,2.513c0.191,0.267 0.373,0.54 0.547,0.819l2.529,-2.492c0.27,0.288 0.531,0.584 0.784,0.888l-2.827,2.442c0.15,0.28 0.292,0.565 0.425,0.855l3.13,-2.365c0.232,0.318 0.456,0.643 0.669,0.974l-3.433,2.257c0.111,0.288 0.214,0.579 0.307,0.874l3.735,-2.119c0.192,0.343 0.374,0.692 0.546,1.047l-4.031,1.95c0.073,0.29 0.138,0.583 0.194,0.878l4.318,-1.75c0.149,0.363 0.287,0.732 0.414,1.105l-4.593,1.521c0.038,0.288 0.067,0.578 0.088,0.87l4.852,-1.261c0.103,0.379 0.195,0.762 0.276,1.149l-5.092,0.974c0.004,0.282 0,0.566 -0.012,0.851l5.309,-0.659c0.056,0.39 0.101,0.782 0.133,1.178l-5.499,0.319c-0.013,0.125 -0.026,0.251 -0.041,0.376c-0.018,0.15 -0.039,0.3 -0.061,0.449l5.662,0.042c0.008,0.394 0.004,0.791 -0.013,1.19l-5.792,-0.423c-0.055,0.266 -0.116,0.53 -0.184,0.792l5.892,0.82c-0.041,0.398 -0.093,0.793 -0.157,1.185l-5.958,-1.231c-0.08,0.254 -0.167,0.506 -0.26,0.755l5.989,1.653c-0.09,0.392 -0.191,0.78 -0.303,1.164l-5.983,-2.081c-0.105,0.241 -0.216,0.48 -0.333,0.715l5.939,2.513c-0.138,0.38 -0.288,0.755 -0.449,1.124l-5.858,-2.943c-0.128,0.227 -0.261,0.451 -0.401,0.672l5.737,3.369c-0.186,0.362 -0.383,0.717 -0.592,1.066l-5.578,-3.787c-0.149,0.212 -0.304,0.42 -0.465,0.625l5.38,4.193c-0.232,0.337 -0.475,0.667 -0.729,0.99l-5.147,-4.582c-0.17,0.195 -0.345,0.387 -0.525,0.575l4.878,4.952c-0.275,0.306 -0.561,0.605 -0.857,0.896l-4.576,-5.298c-0.19,0.179 -0.384,0.354 -0.584,0.524l4.245,5.619c-0.316,0.274 -0.64,0.537 -0.97,0.788l-3.886,-5.91c-0.21,0.162 -0.423,0.318 -0.639,0.469l3.5,6.17c-0.351,0.233 -0.71,0.454 -1.074,0.663l-3.093,-6.394c-0.229,0.143 -0.461,0.279 -0.695,0.409l2.732,6.738c-0.27,0.538 -0.546,1.061 -0.828,1.567l-2.626,-7.931c-0.246,0.121 -0.496,0.234 -0.748,0.34l2.404,9.246c-0.375,0.606 -0.755,1.186 -1.136,1.739l-2.036,-10.649c-0.222,0.428 -0.448,0.845 -0.678,1.251l1.39,11.209c-0.518,0.671 -1.033,1.293 -1.534,1.867l-0.679,-11.696c-0.329,0.525 -0.662,1.029 -0.998,1.512l-0.078,10.481c0.586,0.013 1.177,0.006 1.771,-0.023l-0.006,-0.089c0.331,0.015 0.664,0.023 0.998,0.022c2.465,-0.217 4.956,-0.801 7.342,-1.765c3.959,-1.599 10.033,-5.257 13.75,-13.311l-0.022,-0.012c0.199,-0.527 0.387,-1.074 0.562,-1.64l0.14,0.059c0.207,-0.524 0.404,-1.065 0.59,-1.624l-0.268,-0.093c0.134,-0.541 0.257,-1.097 0.368,-1.67l0.404,0.112c0.151,-0.543 0.292,-1.101 0.422,-1.675l-0.544,-0.112c0.078,-0.546 0.146,-1.105 0.202,-1.678l0.688,0.095c0.101,-0.557 0.192,-1.129 0.273,-1.714l-0.83,-0.061c0.036,-0.566 0.067,-1.126 0.09,-1.68l0.95,0.007c0.065,-0.592 0.121,-1.178 0.17,-1.758l-1.069,0.062c0.01,-0.574 0.011,-1.142 0.002,-1.702l1.191,-0.148c0.034,-0.615 0.056,-1.222 0.068,-1.822l-1.318,0.252c-0.032,-0.588 -0.076,-1.166 -0.135,-1.735l1.449,-0.377c-0.016,-0.64 -0.046,-1.271 -0.093,-1.893l-1.584,0.524c-0.096,-0.593 -0.209,-1.175 -0.342,-1.747l1.723,-0.698c-0.09,-0.656 -0.201,-1.301 -0.335,-1.934l-1.862,0.9c-0.184,-0.578 -0.391,-1.143 -0.624,-1.696l1.996,-1.132c-0.194,-0.645 -0.414,-1.277 -0.664,-1.896l-2.119,1.393c-0.289,-0.53 -0.606,-1.047 -0.953,-1.55l2.222,-1.678c-0.313,-0.596 -0.659,-1.178 -1.038,-1.747l-2.295,1.983c-0.389,-0.454 -0.807,-0.894 -1.254,-1.32l2.332,-2.298c-0.427,-0.516 -0.886,-1.018 -1.38,-1.508l-2.327,2.614c-0.464,-0.366 -0.953,-0.721 -1.47,-1.064l2.279,-2.924c-0.514,-0.425 -1.058,-0.839 -1.633,-1.242l-2.186,3.22c-0.508,-0.288 -1.038,-0.567 -1.591,-0.838l2.054,-3.497c-0.572,-0.342 -1.17,-0.675 -1.795,-0.998l-1.887,3.754c-0.532,-0.226 -1.083,-0.445 -1.653,-0.658l1.688,-3.99c-0.609,-0.275 -1.242,-0.542 -1.898,-0.802l-1.463,4.207c-0.429,-0.141 -0.868,-0.279 -1.317,-0.413c-0.124,-0.037 -0.249,-0.073 -0.374,-0.109l1.216,-4.404c-0.068,-0.024 -0.136,-0.048 -0.204,-0.071c-0.589,-0.203 -1.182,-0.387 -1.778,-0.552l-0.951,4.598c-0.578,-0.126 -1.159,-0.232 -1.742,-0.321l0.664,-4.765c-0.685,-0.141 -1.374,-0.258 -2.065,-0.351l-0.359,4.906c-0.59,-0.051 -1.181,-0.084 -1.771,-0.098l0.037,-5.017c-0.703,-0.046 -1.406,-0.067 -2.109,-0.065l0.296,5.096c-0.594,0.024 -1.185,0.066 -1.774,0.128l-0.638,-5.143c-0.707,0.051 -1.411,0.127 -2.112,0.228l0.986,5.156c-0.587,0.1 -1.17,0.218 -1.748,0.356l-1.335,-5.136c-0.696,0.15 -1.386,0.325 -2.07,0.524l1.683,5.081c-0.57,0.176 -1.134,0.37 -1.691,0.583l-2.024,-4.991c-0.669,0.248 -1.33,0.521 -1.981,0.818l2.356,4.869c-0.542,0.25 -1.076,0.519 -1.601,0.806l-2.674,-4.712c-0.635,0.349 -1.249,0.719 -1.84,1.108l2.971,4.519c-0.509,0.328 -1.001,0.67 -1.472,1.027l-3.242,-4.291c-0.57,0.449 -1.112,0.916 -1.626,1.401l3.48,4.028c-0.452,0.404 -0.881,0.821 -1.285,1.25l-3.681,-3.735c-0.475,0.544 -0.916,1.106 -1.32,1.681l3.837,3.416c-0.37,0.478 -0.709,0.968 -1.017,1.469l-3.944,-3.074c-0.342,0.633 -0.641,1.278 -0.895,1.932l3.995,2.713c-0.252,0.545 -0.467,1.1 -0.641,1.662l-3.994,-2.346c-0.183,0.69 -0.342,1.371 -0.478,2.041l4.047,2.033c-0.12,0.582 -0.223,1.156 -0.309,1.721l-4.081,-1.726c-0.092,0.683 -0.158,1.355 -0.197,2.013l4.071,1.416c-0.052,0.572 -0.085,1.133 -0.099,1.684l-4.012,-1.107c0.014,0.669 0.058,1.323 0.131,1.962l3.901,0.806c0.028,0.557 0.077,1.101 0.149,1.632l-3.736,-0.52c0.139,0.637 0.309,1.257 0.511,1.857l3.515,0.257c0.123,0.529 0.271,1.044 0.444,1.541l-3.243,-0.024c0.275,0.577 0.583,1.133 0.924,1.667l2.925,-0.17c0.231,0.48 0.489,0.941 0.774,1.383l-2.576,0.32Zm21.974,-41.504c0.399,-0.006 0.797,-0.006 1.195,0.002c-0.412,-0.256 -0.824,-0.496 -1.236,-0.723l0.041,0.721Zm-1.484,65.205c0.575,0.102 1.16,0.182 1.75,0.24l0.639,-8.737c-0.486,0.623 -0.971,1.204 -1.449,1.744l-0.94,6.753Zm-3.404,-0.896c0.548,0.196 1.109,0.369 1.681,0.519l0.942,-4.56c-0.619,0.609 -1.206,1.143 -1.744,1.602c-0.089,0.076 -0.178,0.152 -0.268,0.227l-0.611,2.212Zm52.199,-102.552l0.089,-0.15c0.504,0.103 1.012,0.215 1.522,0.337c-0.54,-0.073 -1.077,-0.136 -1.611,-0.187Zm16.604,7.276l0.097,0.078l-0.064,0.072l-0.033,-0.15Zm-139.894,20.114c0.069,-1.265 0.11,-2.513 0.083,-3.702l2.753,1.87c-1.054,0.63 -2.01,1.258 -2.836,1.832Zm5.316,86.309c-0.356,-0.38 -0.709,-0.77 -1.057,-1.17l0.195,-0.095c0.282,0.423 0.569,0.845 0.862,1.265Zm211.105,-57.552c-4.139,-0 -7.978,-0.64 -11.517,-1.92c-3.54,-1.28 -6.385,-3.24 -8.536,-5.881c-2.151,-2.641 -3.226,-6.031 -3.226,-10.169l-0,-0.939c0,-0.3 0.027,-0.64 0.082,-1.021l15.845,-0c-0.054,0.218 -0.081,0.381 -0.081,0.49l-0,0.49c-0,0.98 0.231,1.906 0.694,2.777c0.463,0.871 1.239,1.593 2.328,2.165c1.089,0.571 2.614,0.857 4.574,0.857c2.233,0 3.893,-0.163 4.982,-0.49c1.089,-0.327 1.825,-0.762 2.206,-1.307c0.381,-0.544 0.572,-1.116 0.572,-1.715c-0,-1.144 -0.545,-2.028 -1.634,-2.655c-1.089,-0.626 -2.519,-1.143 -4.288,-1.552c-1.77,-0.408 -3.717,-0.83 -5.84,-1.266c-2.124,-0.435 -4.261,-1.021 -6.412,-1.756c-2.151,-0.735 -4.111,-1.729 -5.881,-2.981c-1.77,-1.252 -3.199,-2.9 -4.288,-4.942c-1.089,-2.042 -1.634,-4.614 -1.634,-7.718c0,-3.975 1.089,-7.297 3.267,-9.965c2.178,-2.668 5.078,-4.697 8.699,-6.085c3.621,-1.389 7.61,-2.083 11.966,-2.083c4.193,-0 7.991,0.613 11.395,1.838c3.403,1.225 6.125,3.09 8.167,5.595c2.042,2.505 3.063,5.745 3.063,9.72l0,0.98l-15.682,-0l-0,-0.327c-0,-0.98 -0.218,-1.879 -0.653,-2.695c-0.436,-0.817 -1.158,-1.471 -2.165,-1.961c-1.007,-0.49 -2.328,-0.735 -3.961,-0.735c-1.525,0 -2.791,0.15 -3.798,0.449c-1.008,0.3 -1.757,0.695 -2.247,1.185c-0.49,0.49 -0.735,1.089 -0.735,1.797c0,1.198 0.545,2.137 1.634,2.818c1.089,0.68 2.532,1.238 4.329,1.674c1.797,0.436 3.784,0.871 5.962,1.307c2.179,0.436 4.343,0.994 6.494,1.674c2.151,0.681 4.125,1.62 5.922,2.818c1.797,1.198 3.24,2.764 4.329,4.697c1.089,1.933 1.633,4.37 1.633,7.31c0,4.629 -1.102,8.372 -3.308,11.231c-2.205,2.859 -5.227,4.955 -9.066,6.289c-3.839,1.334 -8.236,2.002 -13.191,2.002Zm53.336,-0c-4.41,-0 -8.209,-0.79 -11.394,-2.369c-3.186,-1.579 -5.622,-3.798 -7.31,-6.657c-1.688,-2.859 -2.532,-6.167 -2.532,-9.924l-0,-37.899l17.234,-0l-0,37.981c-0,1.797 0.64,3.267 1.919,4.41c1.28,1.144 2.846,1.716 4.697,1.716c1.851,-0 3.403,-0.572 4.656,-1.716c1.252,-1.143 1.878,-2.613 1.878,-4.41l0,-37.981l17.235,-0l-0,37.899c-0,3.757 -0.981,7.065 -2.941,9.924c-1.96,2.859 -4.656,5.078 -8.086,6.657c-3.431,1.579 -7.378,2.369 -11.844,2.369l-3.512,-0Zm35.286,-0.817l-0,-56.032l30.058,-0c2.777,-0 5.336,0.49 7.678,1.47c2.341,0.98 4.206,2.437 5.595,4.37c1.388,1.933 2.082,4.342 2.082,7.228c0,2.614 -0.435,4.833 -1.306,6.657c-0.872,1.824 -2.015,3.308 -3.431,4.452c-1.416,1.143 -2.968,2.015 -4.656,2.614l0,0.326c1.307,0.327 2.6,0.817 3.88,1.47c1.28,0.654 2.437,1.512 3.471,2.573c1.035,1.062 1.852,2.315 2.451,3.758c0.599,1.443 0.898,3.117 0.898,5.023c0,3.213 -0.789,6.031 -2.368,8.454c-1.58,2.423 -3.622,4.301 -6.126,5.636c-2.505,1.334 -5.201,2.001 -8.087,2.001l-30.139,-0Zm15.764,-12.579l9.393,0c1.035,0 1.933,-0.218 2.695,-0.653c0.763,-0.436 1.348,-1.076 1.756,-1.92c0.409,-0.844 0.613,-1.865 0.613,-3.063c0,-1.089 -0.231,-1.946 -0.694,-2.573c-0.463,-0.626 -1.062,-1.089 -1.797,-1.388c-0.735,-0.3 -1.538,-0.449 -2.41,-0.449l-9.556,-0l-0,10.046Zm-0,-21.972l9.393,0c1.035,0 1.851,-0.245 2.45,-0.735c0.599,-0.49 1.021,-1.143 1.266,-1.96c0.245,-0.817 0.368,-1.661 0.368,-2.532c-0,-1.634 -0.395,-2.764 -1.184,-3.39c-0.79,-0.626 -1.757,-0.939 -2.9,-0.939l-9.393,-0l-0,9.556Zm78.085,35.368c-2.505,-0 -4.601,-0.341 -6.289,-1.021c-1.688,-0.681 -2.981,-1.784 -3.88,-3.308c-0.898,-1.525 -1.348,-3.594 -1.348,-6.208c0,-0.817 -0.054,-1.797 -0.163,-2.941c-0.109,-1.143 -0.395,-2.246 -0.858,-3.308c-0.462,-1.061 -1.184,-1.96 -2.164,-2.695c-0.98,-0.735 -2.342,-1.103 -4.084,-1.103l-4.737,0l-0,19.767l-16.745,-0l0,-56.032l31.365,-0c2.668,-0 5.187,0.531 7.556,1.592c2.368,1.062 4.301,2.614 5.799,4.656c1.497,2.042 2.246,4.588 2.246,7.637c-0,2.559 -0.463,4.86 -1.389,6.902c-0.925,2.042 -2.15,3.757 -3.675,5.146c-1.525,1.388 -3.186,2.437 -4.983,3.145l0,0.408c1.58,0.49 2.941,1.171 4.084,2.042c1.144,0.871 2.07,1.892 2.777,3.063c0.708,1.171 1.239,2.382 1.593,3.635c0.354,1.252 0.531,2.477 0.531,3.675c0,0.817 0.027,1.756 0.082,2.818c0.054,1.062 0.204,2.083 0.449,3.063c0.245,0.98 0.653,1.852 1.225,2.614c0.572,0.762 1.375,1.279 2.41,1.552l-0,3.349c-1.47,0.599 -3.077,1.007 -4.819,1.225c-1.743,0.218 -3.404,0.327 -4.983,0.327Zm-23.523,-33.081l8.331,0c0.817,0 1.565,-0.258 2.246,-0.776c0.681,-0.517 1.212,-1.211 1.593,-2.082c0.381,-0.872 0.572,-1.879 0.572,-3.023c-0,-1.742 -0.409,-3.022 -1.226,-3.838c-0.816,-0.817 -1.797,-1.226 -2.94,-1.226l-8.576,0l-0,10.945Zm61.341,33.081c-3.376,-0 -6.548,-0.64 -9.516,-1.92c-2.968,-1.28 -5.568,-3.036 -7.8,-5.268c-2.233,-2.233 -3.989,-4.833 -5.269,-7.801c-1.279,-2.967 -1.919,-6.139 -1.919,-9.515l-0,-8.495c-0,-3.376 0.64,-6.548 1.919,-9.516c1.28,-2.967 3.036,-5.567 5.269,-7.8c2.232,-2.233 4.832,-3.989 7.8,-5.268c2.968,-1.28 6.14,-1.92 9.516,-1.92l4.574,0c3.376,0 6.548,0.64 9.515,1.92c2.968,1.279 5.568,3.035 7.801,5.268c2.232,2.233 3.989,4.833 5.268,7.8c1.28,2.968 1.92,6.14 1.92,9.516l-0,8.495c-0,3.376 -0.64,6.548 -1.92,9.515c-1.279,2.968 -3.036,5.568 -5.268,7.801c-2.233,2.232 -4.833,3.988 -7.801,5.268c-2.967,1.28 -6.139,1.92 -9.515,1.92l-4.574,-0Zm2.287,-12.742c1.252,-0 2.382,-0.218 3.389,-0.654c1.008,-0.436 1.893,-1.021 2.655,-1.756c0.762,-0.735 1.348,-1.593 1.756,-2.573c0.409,-0.98 0.613,-2.042 0.613,-3.185l-0,-15.683c-0,-1.143 -0.204,-2.205 -0.613,-3.185c-0.408,-0.98 -0.994,-1.852 -1.756,-2.614c-0.762,-0.762 -1.647,-1.348 -2.655,-1.756c-1.007,-0.409 -2.137,-0.613 -3.389,-0.613c-1.198,0 -2.314,0.218 -3.349,0.654c-1.035,0.435 -1.933,1.021 -2.695,1.756c-0.763,0.735 -1.348,1.593 -1.757,2.573c-0.408,0.98 -0.612,2.042 -0.612,3.185l-0,15.683c-0,1.143 0.204,2.205 0.612,3.185c0.409,0.98 0.994,1.852 1.757,2.614c0.762,0.762 1.66,1.348 2.695,1.756c1.035,0.408 2.151,0.613 3.349,0.613Zm54.643,12.742c-4.138,-0 -7.977,-0.64 -11.517,-1.92c-3.539,-1.28 -6.384,-3.24 -8.535,-5.881c-2.151,-2.641 -3.226,-6.031 -3.226,-10.169l-0,-0.939c-0,-0.3 0.027,-0.64 0.081,-1.021l15.846,-0c-0.054,0.218 -0.082,0.381 -0.082,0.49l0,0.49c0,0.98 0.232,1.906 0.695,2.777c0.463,0.871 1.239,1.593 2.328,2.165c1.089,0.571 2.613,0.857 4.574,0.857c2.232,0 3.893,-0.163 4.982,-0.49c1.089,-0.327 1.824,-0.762 2.205,-1.307c0.382,-0.544 0.572,-1.116 0.572,-1.715c0,-1.144 -0.544,-2.028 -1.633,-2.655c-1.089,-0.626 -2.519,-1.143 -4.289,-1.552c-1.769,-0.408 -3.716,-0.83 -5.84,-1.266c-2.123,-0.435 -4.261,-1.021 -6.411,-1.756c-2.151,-0.735 -4.112,-1.729 -5.881,-2.981c-1.77,-1.252 -3.2,-2.9 -4.289,-4.942c-1.089,-2.042 -1.633,-4.614 -1.633,-7.718c-0,-3.975 1.089,-7.297 3.267,-9.965c2.178,-2.668 5.078,-4.697 8.699,-6.085c3.621,-1.389 7.61,-2.083 11.966,-2.083c4.193,-0 7.991,0.613 11.394,1.838c3.403,1.225 6.126,3.09 8.168,5.595c2.042,2.505 3.063,5.745 3.063,9.72l0,0.98l-15.682,-0l-0,-0.327c-0,-0.98 -0.218,-1.879 -0.654,-2.695c-0.435,-0.817 -1.157,-1.471 -2.164,-1.961c-1.008,-0.49 -2.328,-0.735 -3.962,-0.735c-1.524,0 -2.79,0.15 -3.798,0.449c-1.007,0.3 -1.756,0.695 -2.246,1.185c-0.49,0.49 -0.735,1.089 -0.735,1.797c-0,1.198 0.544,2.137 1.633,2.818c1.09,0.68 2.533,1.238 4.329,1.674c1.797,0.436 3.785,0.871 5.963,1.307c2.178,0.436 4.343,0.994 6.494,1.674c2.15,0.681 4.124,1.62 5.921,2.818c1.797,1.198 3.24,2.764 4.329,4.697c1.089,1.933 1.634,4.37 1.634,7.31c-0,4.629 -1.103,8.372 -3.308,11.231c-2.205,2.859 -5.228,4.955 -9.067,6.289c-3.838,1.334 -8.236,2.002 -13.191,2.002Zm27.445,-0.817l18.704,-56.032l21.318,-0l18.705,56.032l-17.806,-0l-3.349,-9.965l-17.806,-0l-3.267,9.965l-16.499,-0Zm23.687,-21.809l9.964,0l-4.737,-16.989l-0.408,0l-4.819,16.989Zm-328.351,104.305c-4.139,-0 -7.978,-0.64 -11.517,-1.92c-3.54,-1.279 -6.385,-3.24 -8.536,-5.881c-2.151,-2.64 -3.226,-6.03 -3.226,-10.169l0,-0.939c0,-0.299 0.027,-0.64 0.082,-1.021l15.845,0c-0.054,0.218 -0.081,0.381 -0.081,0.49l-0,0.49c-0,0.98 0.231,1.906 0.694,2.777c0.463,0.872 1.239,1.593 2.328,2.165c1.089,0.572 2.614,0.857 4.574,0.857c2.233,0 3.893,-0.163 4.982,-0.49c1.089,-0.326 1.825,-0.762 2.206,-1.306c0.381,-0.545 0.572,-1.117 0.572,-1.716c-0,-1.143 -0.545,-2.028 -1.634,-2.654c-1.089,-0.627 -2.519,-1.144 -4.288,-1.552c-1.77,-0.409 -3.717,-0.831 -5.84,-1.266c-2.124,-0.436 -4.261,-1.021 -6.412,-1.756c-2.151,-0.735 -4.111,-1.729 -5.881,-2.982c-1.77,-1.252 -3.199,-2.899 -4.288,-4.941c-1.089,-2.042 -1.634,-4.615 -1.634,-7.719c0,-3.975 1.089,-7.297 3.267,-9.965c2.178,-2.668 5.078,-4.696 8.699,-6.085c3.621,-1.388 7.61,-2.083 11.966,-2.083c4.193,0 7.991,0.613 11.395,1.838c3.403,1.225 6.125,3.09 8.167,5.595c2.042,2.505 3.063,5.745 3.063,9.72l0,0.98l-15.682,0l-0,-0.327c-0,-0.98 -0.218,-1.878 -0.653,-2.695c-0.436,-0.817 -1.158,-1.47 -2.165,-1.96c-1.007,-0.49 -2.328,-0.735 -3.961,-0.735c-1.525,-0 -2.791,0.149 -3.798,0.449c-1.008,0.299 -1.757,0.694 -2.247,1.184c-0.49,0.49 -0.735,1.089 -0.735,1.797c0,1.198 0.545,2.137 1.634,2.818c1.089,0.681 2.532,1.239 4.329,1.674c1.797,0.436 3.784,0.872 5.962,1.307c2.179,0.436 4.343,0.994 6.494,1.675c2.151,0.68 4.125,1.62 5.922,2.818c1.797,1.198 3.24,2.763 4.329,4.696c1.089,1.933 1.633,4.37 1.633,7.31c0,4.629 -1.102,8.373 -3.308,11.231c-2.205,2.859 -5.227,4.956 -9.066,6.29c-3.839,1.334 -8.236,2.001 -13.191,2.001Zm45.658,-0.817l0,-21.482l-18.541,-34.55l19.276,0l8.413,18.378l0.409,-0l8.576,-18.378l17.561,0l-18.459,34.55l-0,21.482l-17.235,0Zm60.28,0.817c-4.139,-0 -7.978,-0.64 -11.517,-1.92c-3.54,-1.279 -6.385,-3.24 -8.536,-5.881c-2.15,-2.64 -3.226,-6.03 -3.226,-10.169l0,-0.939c0,-0.299 0.027,-0.64 0.082,-1.021l15.846,0c-0.055,0.218 -0.082,0.381 -0.082,0.49l-0,0.49c-0,0.98 0.231,1.906 0.694,2.777c0.463,0.872 1.239,1.593 2.328,2.165c1.089,0.572 2.614,0.857 4.574,0.857c2.233,0 3.893,-0.163 4.983,-0.49c1.089,-0.326 1.824,-0.762 2.205,-1.306c0.381,-0.545 0.572,-1.117 0.572,-1.716c-0,-1.143 -0.545,-2.028 -1.634,-2.654c-1.089,-0.627 -2.518,-1.144 -4.288,-1.552c-1.77,-0.409 -3.717,-0.831 -5.84,-1.266c-2.124,-0.436 -4.261,-1.021 -6.412,-1.756c-2.151,-0.735 -4.111,-1.729 -5.881,-2.982c-1.77,-1.252 -3.199,-2.899 -4.288,-4.941c-1.089,-2.042 -1.634,-4.615 -1.634,-7.719c0,-3.975 1.089,-7.297 3.267,-9.965c2.179,-2.668 5.078,-4.696 8.699,-6.085c3.621,-1.388 7.61,-2.083 11.966,-2.083c4.193,0 7.991,0.613 11.395,1.838c3.403,1.225 6.126,3.09 8.168,5.595c2.042,2.505 3.063,5.745 3.063,9.72l-0,0.98l-15.683,0l0,-0.327c0,-0.98 -0.218,-1.878 -0.653,-2.695c-0.436,-0.817 -1.157,-1.47 -2.165,-1.96c-1.007,-0.49 -2.328,-0.735 -3.961,-0.735c-1.525,-0 -2.791,0.149 -3.798,0.449c-1.008,0.299 -1.757,0.694 -2.247,1.184c-0.49,0.49 -0.735,1.089 -0.735,1.797c0,1.198 0.545,2.137 1.634,2.818c1.089,0.681 2.532,1.239 4.329,1.674c1.797,0.436 3.784,0.872 5.962,1.307c2.179,0.436 4.343,0.994 6.494,1.675c2.151,0.68 4.125,1.62 5.922,2.818c1.797,1.198 3.24,2.763 4.329,4.696c1.089,1.933 1.633,4.37 1.633,7.31c0,4.629 -1.102,8.373 -3.308,11.231c-2.205,2.859 -5.227,4.956 -9.066,6.29c-3.839,1.334 -8.236,2.001 -13.191,2.001Zm43.126,-0.817l0,-42.555l-14.048,0l-0,-13.477l45.413,0l0,13.477l-14.13,0l-0,42.555l-17.235,0Zm37.246,0l0,-56.032l42.065,0l-1.634,13.069l-23.605,-0l0,8.168l22.707,-0l-0,12.497l-22.707,-0l0,9.229l23.605,0l1.634,13.069l-42.065,0Zm49.008,0l-0,-56.032l28.097,0l8.087,29.895l0.326,-0l7.923,-29.895l28.261,0l0,56.032l-17.152,0l-0,-35.939l-0.327,0l-9.802,35.939l-19.684,0l-9.72,-35.939l-0.408,0l-0,35.939l-15.601,0Zm102.671,0.817c-4.139,-0 -7.978,-0.64 -11.517,-1.92c-3.54,-1.279 -6.385,-3.24 -8.536,-5.881c-2.15,-2.64 -3.226,-6.03 -3.226,-10.169l0,-0.939c0,-0.299 0.027,-0.64 0.082,-1.021l15.846,0c-0.055,0.218 -0.082,0.381 -0.082,0.49l-0,0.49c-0,0.98 0.231,1.906 0.694,2.777c0.463,0.872 1.239,1.593 2.328,2.165c1.089,0.572 2.614,0.857 4.574,0.857c2.233,0 3.893,-0.163 4.982,-0.49c1.09,-0.326 1.825,-0.762 2.206,-1.306c0.381,-0.545 0.572,-1.117 0.572,-1.716c-0,-1.143 -0.545,-2.028 -1.634,-2.654c-1.089,-0.627 -2.518,-1.144 -4.288,-1.552c-1.77,-0.409 -3.717,-0.831 -5.84,-1.266c-2.124,-0.436 -4.261,-1.021 -6.412,-1.756c-2.151,-0.735 -4.111,-1.729 -5.881,-2.982c-1.77,-1.252 -3.199,-2.899 -4.288,-4.941c-1.089,-2.042 -1.634,-4.615 -1.634,-7.719c0,-3.975 1.089,-7.297 3.267,-9.965c2.179,-2.668 5.078,-4.696 8.699,-6.085c3.621,-1.388 7.61,-2.083 11.966,-2.083c4.193,0 7.991,0.613 11.395,1.838c3.403,1.225 6.126,3.09 8.168,5.595c2.042,2.505 3.062,5.745 3.062,9.72l0,0.98l-15.682,0l0,-0.327c0,-0.98 -0.218,-1.878 -0.653,-2.695c-0.436,-0.817 -1.157,-1.47 -2.165,-1.96c-1.007,-0.49 -2.328,-0.735 -3.961,-0.735c-1.525,-0 -2.791,0.149 -3.798,0.449c-1.008,0.299 -1.757,0.694 -2.247,1.184c-0.49,0.49 -0.735,1.089 -0.735,1.797c0,1.198 0.545,2.137 1.634,2.818c1.089,0.681 2.532,1.239 4.329,1.674c1.797,0.436 3.784,0.872 5.962,1.307c2.179,0.436 4.343,0.994 6.494,1.675c2.151,0.68 4.125,1.62 5.922,2.818c1.797,1.198 3.24,2.763 4.329,4.696c1.089,1.933 1.633,4.37 1.633,7.31c0,4.629 -1.102,8.373 -3.308,11.231c-2.205,2.859 -5.227,4.956 -9.066,6.29c-3.839,1.334 -8.236,2.001 -13.191,2.001Z" style="fill:#fff;"/></svg>