<?xml version="1.0" encoding="UTF-8" standalone="no"?><!DOCTYPE svg PUBLIC "-//W3C//DTD SVG 1.1//EN" "http://www.w3.org/Graphics/SVG/1.1/DTD/svg11.dtd"><svg width="100%" height="100%" viewBox="0 0 632 240" version="1.1" xmlns="http://www.w3.org/2000/svg" xmlns:xlink="http://www.w3.org/1999/xlink" xml:space="preserve" xmlns:serif="http://www.serif.com/" style="fill-rule:evenodd;clip-rule:evenodd;stroke-linejoin:round;stroke-miterlimit:2;"><rect id="Artboard3" x="0" y="0" width="631.2" height="240" style="fill:none;"/><g><path d="M182.225,73.952c-0.433,-2.873 -0.851,-5.741 -1.231,-8.352c-2.175,-14.94 -2.264,-15.023 -3.341,-16.05c-14.491,-13.805 -36.444,-10.609 -41.829,-9.564c-5.639,-3.837 -13.688,-7.106 -24.473,-6.571c-17.805,0.885 -29.958,-7.032 -30.073,-7.108c-0.886,-0.594 -2.018,-0.698 -3.008,-0.276c-0.32,0.136 -7.918,3.416 -15.056,10.06c-6.224,5.793 -10.165,12.353 -11.714,19.37c-6.944,-0.735 -14.054,1.907 -18.806,4.263c-4.716,2.337 -8.92,5.309 -9.741,6.328c-0.686,0.851 -0.906,2.026 -0.551,3.05c1.073,3.096 1.005,7.396 0.94,11.554c-0.105,6.574 -0.21,13.357 3.738,18.028c-7.233,12.596 -11.903,30.64 -12.586,33.367c-0.122,0.49 -0.125,1.002 -0.008,1.491c0.075,0.317 1.903,7.869 6.083,16.813c5.713,12.224 12.792,20.776 21.04,25.417c0.246,0.139 0.495,0.263 0.742,0.394c0.536,8.408 5.482,13.229 9.849,17.484c3.402,3.314 6.339,6.176 7.209,10.375c0.199,0.96 0.85,1.778 1.738,2.196c1.93,0.909 20.056,1.765 34.065,-5.277c0.782,0.74 1.633,1.449 2.574,2.107c7.598,5.304 18.523,6.426 32.472,3.334c7.138,-1.582 12.509,-2.187 17.247,-2.721c5.867,-0.662 10.933,-1.233 16.617,-3.484c1.585,-0.628 3.109,-1.411 4.566,-2.341c6.863,-4.382 12.215,-12.022 15.325,-22.025c0.623,-2.004 1.844,-4.356 3.136,-6.845c4.439,-8.552 10.484,-20.22 0.888,-34.044c0.802,-1.457 1.549,-2.948 2.218,-4.495c0.284,0.066 0.581,0.095 0.888,0.079c1.454,-0.079 2.69,-0.488 3.748,-1.164c4.726,-3.017 5.901,-11.362 7.045,-19.48c0.857,-6.086 1.829,-12.984 4.151,-16.196c0.595,-0.824 1.402,-2.591 0.113,-5.168c-2.635,-5.271 -14.307,-13.607 -23.975,-14.549Zm-9.527,-20.342c0.423,1.922 1.272,7.749 2.029,12.953c1.129,7.754 2.144,14.563 3.076,19.717c-0.872,-0.717 -1.756,-1.435 -2.646,-2.157c-4.351,-3.528 -8.85,-7.177 -12.38,-11.388c-3.327,-3.97 -6.904,-6.935 -10.697,-8.892c-1.306,-6.442 -4.891,-13.108 -9.847,-18.372c7.724,-0.675 21.076,-0.325 30.465,8.139Zm5.544,85.315c-3.814,5.989 -8.137,12.777 -10.919,22.193c-3.588,12.145 -15.324,16.256 -25.41,15.114c0.972,-2.435 1.664,-5.073 2.059,-7.888c5.778,-4.788 10.789,-11.123 14.554,-18.592c6.849,-13.582 8.677,-29.255 5.018,-43.001c-4.721,-17.733 -20.025,-30.692 -34.489,-35.945c2.85,-1.725 7.411,-3.766 12.682,-3.441c5.777,0.356 11.215,3.531 16.163,9.435c3.914,4.672 8.65,8.512 13.231,12.226c7.099,5.758 13.805,11.195 15.147,18.269c2.78,14.648 -1.993,22.142 -8.036,31.63Zm-94.833,39.292c-5.411,-3.445 -10.309,-4.863 -14.63,-6.113c-5.95,-1.722 -10.65,-3.083 -15.676,-9.004c-11.642,-13.715 -11.351,-34.314 -5.168,-46.731c1.702,-3.419 3.739,-5.962 5.838,-7.406c-1.719,10.16 -1.416,24.937 5.464,35.242c4.143,6.206 9.989,9.767 17.375,10.584c1.949,0.216 3.861,0.279 5.729,0.197c1.46,5.651 6.568,12.102 13.369,16.661c5.729,3.842 17.633,9.607 32.976,5.049c2.566,-0.763 5.073,-1.808 7.498,-3.1c-2.005,5.3 -5.604,9.286 -10.63,11.704c-10.901,5.244 -27.05,2.529 -42.145,-7.083Zm-40.089,-93.886c2.248,-5.98 8.323,-16.106 23.75,-16.738c11.168,-0.457 20.209,-3.697 27.474,-6.301c10.001,-3.584 15.46,-5.262 20.609,-1.137c3.433,2.75 2.568,6.553 2.018,8.1c-8.044,-0.423 -14.711,2.179 -18.747,7.409c-4.268,-0.738 -8.736,-0.654 -13.27,0.299c-13.564,2.85 -24.908,12.748 -29.479,25.511c-4.219,0.729 -8.191,3.733 -11.393,8.613c-3.923,-6.618 -3.874,-18.01 -0.962,-25.756Zm83.609,86.326c-12.85,3.817 -22.838,-1.024 -27.648,-4.249c-5.731,-3.842 -9.385,-8.719 -10.592,-12.309c1.442,-0.347 2.849,-0.79 4.215,-1.331c7.232,5.122 18.007,6.077 27.363,2.298c1.824,-0.736 3.548,-1.626 5.164,-2.658c8.506,-5.431 14.037,-14.799 15.451,-26.489c1.636,-13.528 0.615,-30.028 -21.701,-38.096c-4.002,-4.67 -8.743,-8.111 -13.941,-10.214c4.534,-3.725 11.144,-3.334 15.024,-2.663c14.555,2.52 32.434,15.729 37.158,33.474c3.268,12.279 1.611,26.329 -4.55,38.546c-6.023,11.947 -15.48,20.581 -25.943,23.691Zm-65.872,-65.348c3.319,-11.375 13.507,-20.69 25.349,-23.179c4.738,-0.995 12.704,-1.48 20.586,3.402c-6.064,-0.108 -12.113,1.271 -17.526,4.096c-7.133,3.725 -12.305,9.64 -14.195,16.235c-3.431,11.972 -0.861,22.354 7.05,28.483c5.603,4.341 13.23,5.8 19.433,4.01c-4.162,5.379 -11.786,11.561 -24.383,10.168c-5.455,-0.603 -9.779,-3.241 -12.85,-7.842c-4.651,-6.966 -7.445,-21.73 -3.464,-35.373Zm43.117,25.677c-2.414,-0.266 -4.569,-1.454 -6.07,-3.344c-1.501,-1.889 -2.167,-4.255 -1.876,-6.66c0.29,-2.406 1.504,-4.563 3.416,-6.075c0.249,-0.198 0.507,-0.381 0.772,-0.55c1.762,-1.125 3.837,-1.613 5.936,-1.381c4.982,0.551 8.546,5.039 7.946,10.005c-0.291,2.405 -1.504,4.563 -3.416,6.075c-1.911,1.511 -4.295,2.197 -6.708,1.93Zm9.309,3.923c0.448,-0.286 0.885,-0.597 1.308,-0.932c3.243,-2.564 5.301,-6.223 5.794,-10.302c1.018,-8.42 -5.027,-16.031 -13.475,-16.966c-4.093,-0.452 -8.133,0.711 -11.375,3.275c-3.243,2.565 -5.301,6.224 -5.794,10.303c-0.493,4.079 0.637,8.09 3.182,11.295c0.295,0.371 0.606,0.725 0.93,1.064c-2.755,-0.405 -5.533,-1.522 -7.814,-3.29c-5.875,-4.551 -7.608,-12.299 -4.881,-21.817c1.411,-4.924 5.422,-9.418 11.006,-12.334c7.287,-3.803 15.989,-4.429 23.873,-1.715c17.686,6.086 20.13,17.088 18.359,31.734c-1.911,15.801 -11.257,21.821 -16.661,24.003c-6.235,2.519 -13.182,2.441 -18.513,0.01c0.81,-0.572 1.6,-1.182 2.366,-1.837c2.433,-2.079 5.894,-5.668 8.641,-10.984c1.062,-0.387 2.086,-0.889 3.054,-1.507Zm-46.097,-94.111c4.604,-4.32 9.544,-7.096 11.908,-8.294c4.143,2.335 16.023,8.017 32.313,7.208c12.047,-0.599 20.007,4.379 24.564,8.66c4.332,4.071 7.097,8.867 8.613,13.006c-0.857,-0.147 -1.722,-0.252 -2.596,-0.306c-8.207,-0.506 -14.925,3.249 -18.256,5.582c0.335,-3.629 -0.57,-8.052 -4.781,-11.425c-8.137,-6.518 -16.74,-3.435 -26.701,0.134c-7.212,2.585 -15.387,5.514 -25.58,5.932c-3.672,0.15 -6.913,0.741 -9.78,1.645c-0.212,-8.086 3.237,-15.52 10.296,-22.142Zm-37.712,39.898c0.061,-3.897 0.125,-7.903 -0.672,-11.515c3.632,-2.556 13.369,-8.335 21.757,-7.453c-0.024,1.296 0.026,2.604 0.158,3.921c-7.814,4.542 -11.688,11.639 -13.524,16.521c-0.742,1.975 -1.317,4.026 -1.73,6.109c-1.657,1.146 -3.242,2.739 -4.745,4.643c-1.384,-3.055 -1.319,-7.535 -1.244,-12.226Zm-8.838,52.06c0.619,-2.341 2.651,-9.73 5.636,-17.605c3.205,-8.457 6.073,-13.748 8.416,-17.061c0.267,7.258 2.403,14.008 6.14,18.263c-5.999,14.606 -5.475,35.885 7.223,50.843c2.313,2.726 4.639,4.692 6.963,6.179c-3.639,-0.193 -7.099,-1.216 -10.436,-3.091c-15.539,-8.733 -22.721,-33.006 -23.942,-37.528Zm35.816,56.368c-3.317,-3.231 -6.265,-6.107 -7.456,-10.306c5.529,1.391 11.391,1.149 17.511,-0.732c0.084,0.024 0.168,0.048 0.251,0.073c4.107,1.188 8.353,2.417 13.003,5.378c2.839,1.808 5.736,3.399 8.654,4.771c0.004,0.086 0.009,0.171 0.02,0.257c0.272,2.154 1.086,4.753 2.576,7.33c-9.915,4.549 -21.657,4.782 -26.213,4.556c-1.652,-4.805 -5.048,-8.114 -8.346,-11.327Zm124.88,-23.008c-1.426,2.748 -2.774,5.343 -3.564,7.885c-3.186,10.247 -8.916,17.465 -16.136,20.324c-4.892,1.937 -9.343,2.439 -14.979,3.075c-4.896,0.552 -10.445,1.177 -17.913,2.833c-11.974,2.653 -21.477,1.839 -27.484,-2.355c-2.97,-2.074 -4.601,-4.578 -5.495,-6.603c3.249,1.093 6.485,1.895 9.658,2.383c8.456,1.302 16.286,0.373 22.646,-2.686c1.029,-0.494 2.013,-1.043 2.952,-1.642c2.985,-1.906 5.508,-4.331 7.522,-7.197c0.055,0.013 0.109,0.029 0.165,0.039c6.672,1.201 13.881,0.355 19.778,-2.32c1.251,-0.567 2.435,-1.208 3.552,-1.922c5.424,-3.463 9.25,-8.613 11.163,-15.086c2.528,-8.558 6.42,-14.669 10.183,-20.579c0.263,-0.413 0.525,-0.825 0.786,-1.236c5.211,9.585 1.128,17.454 -2.834,25.087Zm14.135,-57.069c-0.612,4.344 -1.45,10.297 -2.895,13.289c0.874,-4.627 0.935,-9.905 -0.272,-16.268c-0.909,-4.792 -3.355,-8.741 -6.605,-12.332c0.015,-0.391 -0.036,-0.79 -0.176,-1.181c-0.71,-1.968 -1.592,-6.654 -2.476,-12.083c7.275,1.471 15.433,7.87 17.088,10.498c-2.757,4.539 -3.725,11.414 -4.664,18.077Z" style="fill:#fff;fill-rule:nonzero;"/><clipPath id="_clip1"><path d="M176.166,80.631c-0.254,-2.683 -0.494,-5.359 -0.712,-7.795c-1.247,-13.943 -1.324,-14.026 -2.264,-15.039c-12.637,-13.62 -32.997,-11.96 -38.005,-11.31c-4.994,-3.881 -12.235,-7.379 -22.185,-7.52c-16.428,-0.232 -27.21,-8.27 -27.312,-8.347c-0.785,-0.601 -1.822,-0.764 -2.754,-0.432c-0.301,0.107 -7.457,2.692 -14.361,8.414c-6.019,4.99 -9.976,10.824 -11.756,17.221c-6.352,-1.089 -13.027,0.934 -17.518,2.832c-4.458,1.884 -8.476,4.384 -9.283,5.277c-0.674,0.747 -0.936,1.82 -0.661,2.788c0.832,2.926 0.552,6.898 0.282,10.739c-0.428,6.073 -0.868,12.339 2.529,16.891c-7.291,11.22 -12.498,27.63 -13.264,30.111c-0.138,0.447 -0.166,0.92 -0.083,1.379c0.053,0.298 1.354,7.389 4.748,15.905c4.64,11.641 10.722,19.966 18.077,24.744c0.219,0.143 0.442,0.272 0.663,0.408c0.069,7.807 4.375,12.556 8.179,16.748c2.963,3.265 5.521,6.085 6.109,10.019c0.136,0.899 0.693,1.694 1.489,2.133c1.73,0.955 18.365,2.815 31.61,-2.87c0.682,0.73 1.429,1.436 2.262,2.099c6.723,5.353 16.718,7.035 29.71,4.999c6.647,-1.042 11.619,-1.285 16.006,-1.5c5.431,-0.266 10.121,-0.495 15.465,-2.241c1.49,-0.487 2.932,-1.121 4.319,-1.895c6.536,-3.647 11.847,-10.396 15.213,-19.463c0.675,-1.816 1.917,-3.919 3.231,-6.144c4.516,-7.646 10.667,-18.078 2.535,-31.427c0.812,-1.3 1.574,-2.635 2.268,-4.026c0.258,0.077 0.53,0.122 0.813,0.125c1.342,0.013 2.5,-0.292 3.507,-0.855c4.501,-2.511 6.004,-10.158 7.466,-17.597c1.096,-5.577 2.338,-11.899 4.637,-14.732c0.589,-0.726 1.421,-2.313 0.365,-4.771c-2.159,-5.031 -12.478,-13.427 -21.325,-14.868Z" clip-rule="nonzero"/></clipPath><g clip-path="url(#_clip1)"><path d="M45.317,35.115l2.943,-2.005l59.772,90.92l-53.698,-94.634l3.125,-1.706l3.18,-1.604l47.393,97.944l-40.886,-100.833l3.321,-1.284l3.361,-1.175l34.204,103.292l-27.375,-105.308l3.46,-0.839l3.486,-0.725l20.429,106.872l-13.395,-107.98l3.54,-0.38l3.551,-0.265l6.304,108.625l0.814,-108.804l3.559,0.085l3.555,0.201l-7.928,108.518l15.009,-107.767l3.518,0.548l3.498,0.664l-22.025,106.555l28.947,-104.886l3.416,1.003l3.382,1.114l-35.745,102.769l42.389,-100.211l3.257,1.441l3.207,1.546l-48.853,97.224l55.107,-93.82l3.04,1.853l2.978,1.952l-61.125,90.015l66.882,-85.825l2.772,2.234l2.698,2.324l-72.352,81.267l77.512,-76.361l2.457,2.577l2.371,2.656l-82.34,71.128l86.816,-65.59l2.099,2.875l2.005,2.943l-90.92,59.772l94.634,-53.697l1.707,3.125l1.603,3.179l-97.944,47.393l100.834,-40.886l1.283,3.321l1.175,3.362l-103.292,34.203l105.308,-27.374l0.839,3.46l0.726,3.486l-106.873,20.428l107.98,-13.395l0.38,3.54l0.265,3.551l-108.625,6.304l108.805,0.814l-0.085,3.56l-0.202,3.555l-108.518,-7.929l107.767,15.009l-0.548,3.518l-0.664,3.498l-106.555,-22.025l104.887,28.947l-1.004,3.416l-1.114,3.382l-102.769,-35.745l100.211,42.39l-1.441,3.256l-1.546,3.207l-97.224,-48.853l93.821,55.107l-1.854,3.041l-1.951,2.978l-90.016,-61.126l85.825,66.882l-2.234,2.772l-2.324,2.698l-81.267,-72.352l76.361,77.512l-2.577,2.457l-2.656,2.372l-71.128,-82.341l65.59,86.816l-2.875,2.1l-2.943,2.004l-59.772,-90.92l53.697,94.635l-3.125,1.706l-3.179,1.603l-47.393,-97.944l40.886,100.834l-3.321,1.284l-3.362,1.174l-34.203,-103.292l27.375,105.308l-3.461,0.839l-3.485,0.726l-20.429,-106.873l13.395,107.98l-3.54,0.381l-3.551,0.264l-6.304,-108.625l-0.814,108.805l-3.559,-0.085l-3.555,-0.201l7.928,-108.519l-15.009,107.768l-3.518,-0.549l-3.498,-0.663l22.025,-106.556l-28.947,104.887l-3.416,-1.003l-3.382,-1.115l35.745,-102.769l-42.39,100.211l-3.256,-1.44l-3.207,-1.547l48.853,-97.224l-55.107,93.821l-3.04,-1.853l-2.978,-1.952l61.125,-90.016l-66.882,85.826l-2.772,-2.235l-2.698,-2.324l72.352,-81.267l-77.512,76.361l-2.457,-2.577l-2.371,-2.656l82.34,-71.128l-86.816,65.591l-2.1,-2.876l-2.004,-2.943l90.92,-59.772l-94.635,53.698l-1.706,-3.125l-1.603,-3.179l97.944,-47.394l-100.834,40.886l-1.284,-3.321l-1.174,-3.361l103.292,-34.204l-105.308,27.375l-0.839,-3.46l-0.726,-3.486l106.873,-20.429l-107.98,13.395l-0.381,-3.54l-0.264,-3.551l108.625,-6.304l-108.805,-0.813l0.085,-3.56l0.201,-3.555l108.519,7.928l-107.768,-15.008l0.549,-3.518l0.664,-3.499l106.555,22.025l-104.887,-28.946l1.004,-3.417l1.114,-3.381l102.769,35.744l-100.211,-42.389l1.44,-3.256l1.547,-3.208l97.224,48.853l-93.821,-55.107l1.853,-3.04l1.952,-2.978l90.016,61.125l-85.825,-66.881l2.234,-2.773l2.324,-2.697l81.267,72.351l-76.361,-77.512l2.577,-2.457l2.656,-2.371l71.128,82.34l-65.591,-86.816l2.876,-2.099Z" style="fill:#fff;"/></g><path d="M174.069,76.244c-2.917,-2.258 -5.742,-4.634 -8.163,-7.274c-3.524,-3.841 -7.236,-6.763 -11.087,-8.794c-1.376,-4.506 -3.719,-9.022 -6.769,-13.102c6.636,-0.064 14.755,1.131 21.356,6.118c0.592,2.546 1.559,7.476 2.439,11.947l0,0c0.783,3.973 1.525,7.704 2.224,11.105Zm-64.64,74.718c1.99,-2.251 4.195,-5.259 6.075,-9.071c0.849,-0.426 1.671,-0.917 2.458,-1.472c0.542,-0.383 1.068,-0.795 1.576,-1.237c3.902,-3.397 6.248,-8.109 6.605,-13.27c0.738,-10.654 -7.33,-19.922 -17.983,-20.66c-5.161,-0.357 -10.154,1.316 -14.055,4.713c-3.902,3.397 -6.248,8.109 -6.605,13.27c-0.125,1.81 -0.001,3.599 0.36,5.328c-3.716,-3.873 -4.615,-9.875 -2.945,-17.08c0.996,-4.297 4.338,-8.239 9.008,-10.952c6.464,-3.755 14.365,-4.642 21.676,-2.457c6.552,1.959 10.976,4.637 13.8,8.115c4.256,5.242 4.798,12.135 4.236,20.242c-0.999,14.427 -9.03,20.338 -13.818,22.523c-3.341,1.524 -6.969,2.193 -10.388,2.008Zm-64.885,-61.527c1.735,-5.445 6.727,-14.712 20.475,-15.848c11.871,-0.981 21.335,-4.81 28.931,-7.914c3.847,-1.572 6.993,-2.829 9.724,-3.508c3.142,-0.781 5.581,-0.729 7.997,1.041c0.829,0.608 1.219,1.344 1.375,2.055c-7.266,0.582 -13.237,3.443 -17.255,8.149c-4.219,-0.323 -8.554,0.051 -12.907,1.162c-14.337,3.656 -26.029,14.465 -30.836,28.114c-2.774,0.996 -5.414,2.789 -7.776,5.341c-1.693,-5.798 -1.469,-13.129 0.272,-18.592Zm-1.005,80.924c-3.674,-3.026 -6.798,-6.897 -9.418,-10.867c-5.411,-8.2 -8.661,-16.912 -9.849,-20.416c0.666,-3.067 2.247,-9.885 4.576,-17.128c1.056,-3.285 2.083,-6.098 3.068,-8.508c1.167,3.373 2.746,6.393 4.675,8.847c-4.379,14.324 -3.154,33.305 6.948,48.072Zm46.603,25.823c0.302,1.144 0.722,2.355 1.273,3.594c-7.247,2.925 -15.038,3.748 -19.634,3.912c-2.266,-4.246 -5.669,-7.39 -9.049,-10.407c-1.364,-1.218 -2.686,-2.357 -3.845,-3.569c3.734,-0.053 7.548,-0.712 11.428,-1.988c3.763,0.926 7.672,1.945 11.987,4.445c2.586,1.497 5.207,2.835 7.84,4.013Zm23.872,6.065c8.176,0.398 15.622,-1.133 21.714,-4.407c1.157,-0.622 2.26,-1.304 3.307,-2.043c2.728,-1.924 5.08,-4.234 7.029,-6.881c7.024,0.587 14.304,-0.773 20.26,-3.802c1.407,-0.715 2.733,-1.514 3.979,-2.393c6.081,-4.289 10.229,-10.452 12.062,-18.076c1.473,-6.125 3.711,-11.034 6.113,-15.527c0.828,5.809 -1.804,11.099 -4.17,16.285c-1.414,3.097 -2.729,6.03 -3.455,8.871c-2.424,9.485 -7.111,16.435 -13.552,19.32l-0,0c-4.632,2.075 -8.919,2.702 -14.334,3.544c-5.101,0.793 -10.882,1.695 -18.619,3.76c-8.044,2.146 -14.951,2.671 -20.334,1.349Zm24.366,-145.445c-4.946,0.465 -9.234,2.151 -12.551,3.965c-0.939,-3.011 -2.823,-6.002 -6.172,-8.457c-9.771,-7.161 -19.535,-3.753 -30.817,0.856c-6.987,2.855 -14.896,6.127 -24.933,6.956c-2.175,0.18 -4.206,0.495 -6.106,0.922c0.655,-5.724 3.484,-11.123 8.363,-16.162c3.376,-3.486 7.009,-6.02 9.451,-7.528c5.722,2.633 17.954,7.023 33.728,5.58c11.09,-1.014 18.681,3.263 23.088,7.056c2.448,2.108 4.416,4.464 5.949,6.812Zm-40.52,105.125c8.203,3.518 18.577,3.419 27.564,-0.681c2.036,-0.929 3.948,-2.029 5.731,-3.286c9.259,-6.53 15.039,-17.324 15.958,-30.595c0.635,-9.163 -0.012,-19.45 -6.003,-27.974c-3.914,-5.569 -10.104,-10.453 -19.863,-13.698c-2.659,-2.727 -5.546,-5.019 -8.606,-6.86c2.45,-0.379 4.9,-0.172 6.67,0.06c13.992,1.837 31.686,13.753 37.051,30.543c3.754,11.749 2.816,25.405 -2.519,37.471c-5.13,11.602 -13.586,20.275 -23.351,23.643c-11.655,4.019 -21.08,-0.086 -25.662,-2.885c-2.856,-1.745 -5.212,-3.757 -6.97,-5.738Zm34.097,22.302c-0.809,0.633 -1.685,1.204 -2.625,1.709c-10.084,5.42 -25.48,3.098 -40.259,-5.461c-6.086,-3.524 -11.493,-4.881 -16.27,-6.054c-5.538,-1.36 -9.96,-2.342 -14.847,-7.604c-10.586,-11.397 -12.143,-28.554 -8.432,-40.631c0.672,8.782 3.074,18.158 8.359,25.338c5.223,7.096 12.285,10.993 20.983,11.596c1.284,0.089 2.552,0.12 3.801,0.094c2.642,5.704 8.154,11.723 15.12,15.978c6.228,3.805 18.662,9.259 34.17,5.035Zm-25.54,-53.812l-0.001,-0.001c-1.561,-0.107 -2.986,-0.817 -4.012,-1.997c-1.028,-1.18 -1.534,-2.69 -1.426,-4.25c0.108,-1.561 0.818,-2.986 1.998,-4.013l0.002,-0.002c0.154,-0.135 0.315,-0.261 0.481,-0.378c1.095,-0.772 2.412,-1.139 3.767,-1.045c3.222,0.223 5.661,3.026 5.439,6.248c-0.109,1.561 -0.818,2.986 -1.998,4.013c-1.179,1.027 -2.69,1.533 -4.25,1.425Zm-42.48,-20.355c2.524,-10.652 11.489,-19.645 22.287,-22.399c1.328,-0.339 2.946,-0.646 4.768,-0.78c-1.316,0.583 -2.604,1.239 -3.855,1.966l-0.001,-0c-8.027,4.665 -13.586,11.837 -15.382,19.584c-3.268,14.096 0.591,25.972 10.123,32.725c3.848,2.726 8.389,4.341 12.91,4.817c-3.667,2.442 -8.559,4.115 -14.987,3.67c-4.571,-0.317 -8.281,-2.384 -11.036,-6.127c-4.732,-6.429 -7.931,-20.353 -4.827,-33.456Zm132.703,-12.625c-1.374,-2.565 -3.146,-4.9 -5.205,-7.087l-0.269,-0.89l0,-0c-0.48,-1.155 -1.061,-3.293 -1.697,-5.98c3.785,1.589 7.312,3.942 9.257,5.708c-0.956,2.443 -1.605,5.26 -2.086,8.249Zm-165.992,-8.269c-0.07,-1.317 -0.103,-2.694 -0.151,-4.089c-0.121,-3.447 -0.267,-6.97 -0.876,-10.265c2.967,-2.082 7.725,-4.94 12.686,-6.094c-6.043,5.279 -9.12,11.86 -10.635,16.612c-0.401,1.257 -0.742,2.538 -1.024,3.836Zm148.995,48.052c-3.743,6.583 -7.959,14.057 -10.414,24.266c-2.18,9.066 -9.729,13.229 -17.346,13.949c0.197,-0.986 0.358,-1.994 0.483,-3.021c5.595,-5.36 10.353,-12.17 13.834,-20.044c6.675,-15.095 7.762,-32.244 3.032,-47.046c-5.143,-16.097 -18.169,-28.226 -31.713,-34.739c1.203,-0.27 2.489,-0.422 3.838,-0.395c5.109,0.105 9.965,2.867 14.593,7.912c4.417,4.818 9.652,8.728 14.727,12.494c3.657,2.713 7.22,5.341 10.072,8.172c2.469,2.451 4.403,5.022 5.132,8.039c3.346,13.843 -0.965,21.139 -6.238,30.413Z"/></g><g transform="matrix(0.185738,0,0,0.185738,45.9524,31.4789)"><g transform="matrix(439.755,0,0,439.755,942,383)"><path d="M0.31,0.01c-0.051,0 -0.098,-0.008 -0.141,-0.024c-0.043,-0.015 -0.078,-0.039 -0.104,-0.072c-0.027,-0.032 -0.04,-0.073 -0.04,-0.124l0,-0.011c0,-0.004 0,-0.008 0.001,-0.013l0.194,0c-0.001,0.003 -0.001,0.005 -0.001,0.006l0,0.006c0,0.012 0.003,0.023 0.009,0.034c0.005,0.011 0.015,0.02 0.028,0.027c0.013,0.007 0.032,0.01 0.056,0.01c0.027,0 0.048,-0.002 0.061,-0.006c0.013,-0.004 0.022,-0.009 0.027,-0.016c0.005,-0.007 0.007,-0.014 0.007,-0.021c0,-0.014 -0.007,-0.025 -0.02,-0.032c-0.013,-0.008 -0.031,-0.014 -0.052,-0.019c-0.022,-0.005 -0.046,-0.011 -0.072,-0.016c-0.026,-0.005 -0.052,-0.013 -0.079,-0.022c-0.026,-0.009 -0.05,-0.021 -0.071,-0.036c-0.022,-0.015 -0.04,-0.035 -0.053,-0.06c-0.013,-0.025 -0.02,-0.057 -0.02,-0.095c0,-0.049 0.013,-0.089 0.04,-0.122c0.027,-0.033 0.062,-0.057 0.107,-0.074c0.044,-0.017 0.093,-0.026 0.146,-0.026c0.051,0 0.098,0.008 0.14,0.023c0.041,0.015 0.075,0.037 0.1,0.068c0.025,0.031 0.037,0.07 0.037,0.119l0,0.012l-0.192,-0l0,-0.004c0,-0.012 -0.003,-0.023 -0.008,-0.033c-0.005,-0.01 -0.014,-0.018 -0.026,-0.024c-0.013,-0.006 -0.029,-0.009 -0.049,-0.009c-0.019,0 -0.034,0.002 -0.046,0.006c-0.013,0.003 -0.022,0.008 -0.028,0.014c-0.006,0.006 -0.009,0.013 -0.009,0.022c0,0.015 0.007,0.026 0.02,0.034c0.013,0.009 0.031,0.016 0.053,0.021c0.022,0.005 0.046,0.011 0.073,0.016c0.027,0.005 0.053,0.012 0.08,0.02c0.026,0.009 0.05,0.02 0.072,0.035c0.022,0.015 0.04,0.034 0.053,0.057c0.013,0.024 0.02,0.054 0.02,0.09c-0,0.057 -0.014,0.102 -0.041,0.137c-0.027,0.035 -0.064,0.061 -0.111,0.077c-0.047,0.017 -0.1,0.025 -0.161,0.025Z" style="fill:#fff;fill-rule:nonzero;"/></g><g transform="matrix(439.755,0,0,439.755,1228.28,383)"><path d="M0.312,0.01c-0.054,0 -0.1,-0.01 -0.139,-0.029c-0.039,-0.019 -0.069,-0.047 -0.09,-0.082c-0.021,-0.034 -0.031,-0.075 -0.031,-0.121l0,-0.464l0.211,0l0,0.465c0,0.022 0.008,0.04 0.024,0.054c0.015,0.014 0.034,0.021 0.057,0.021c0.023,0 0.042,-0.007 0.057,-0.021c0.015,-0.014 0.023,-0.032 0.023,-0.054l-0,-0.465l0.211,0l0,0.464c0,0.046 -0.012,0.087 -0.036,0.122c-0.024,0.035 -0.057,0.062 -0.099,0.081c-0.042,0.019 -0.09,0.029 -0.145,0.029l-0.043,0Z" style="fill:#fff;fill-rule:nonzero;"/></g><g transform="matrix(439.755,0,0,439.755,1530.39,383)"><path d="M0.057,-0l0,-0.686l0.368,0c0.034,0 0.065,0.006 0.094,0.018c0.029,0.012 0.051,0.03 0.069,0.053c0.016,0.024 0.025,0.054 0.025,0.089c-0,0.032 -0.005,0.059 -0.016,0.082c-0.011,0.022 -0.025,0.04 -0.042,0.054c-0.017,0.014 -0.036,0.025 -0.057,0.032l-0,0.004c0.016,0.004 0.032,0.01 0.047,0.018c0.016,0.008 0.03,0.018 0.043,0.031c0.013,0.013 0.023,0.029 0.03,0.046c0.007,0.018 0.011,0.039 0.011,0.062c-0,0.039 -0.01,0.074 -0.029,0.103c-0.019,0.03 -0.044,0.053 -0.075,0.069c-0.031,0.017 -0.064,0.025 -0.099,0.025l-0.369,-0Zm0.193,-0.154l0.115,-0c0.013,-0 0.024,-0.003 0.033,-0.008c0.009,-0.005 0.016,-0.013 0.021,-0.024c0.005,-0.01 0.008,-0.022 0.008,-0.037c-0,-0.013 -0.003,-0.024 -0.009,-0.032c-0.005,-0.007 -0.013,-0.013 -0.022,-0.017c-0.009,-0.003 -0.018,-0.005 -0.029,-0.005l-0.117,-0l-0,0.123Zm-0,-0.269l0.115,0c0.013,0 0.023,-0.003 0.03,-0.009c0.007,-0.006 0.012,-0.014 0.015,-0.024c0.003,-0.01 0.005,-0.02 0.005,-0.031c-0,-0.02 -0.005,-0.034 -0.015,-0.041c-0.009,-0.008 -0.021,-0.012 -0.035,-0.012l-0.115,0l-0,0.117Z" style="fill:#fff;fill-rule:nonzero;"/></g><g transform="matrix(439.755,0,0,439.755,1818.87,383)"><path d="M0.55,0.01c-0.031,0 -0.056,-0.004 -0.077,-0.013c-0.021,-0.008 -0.037,-0.021 -0.048,-0.04c-0.011,-0.019 -0.016,-0.044 -0.016,-0.076c0,-0.01 -0.001,-0.022 -0.002,-0.036c-0.001,-0.014 -0.005,-0.027 -0.011,-0.041c-0.005,-0.012 -0.014,-0.023 -0.026,-0.033c-0.012,-0.009 -0.029,-0.013 -0.05,-0.013l-0.058,0l0,0.242l-0.205,0l0,-0.686l0.384,0c0.033,0 0.064,0.007 0.092,0.02c0.029,0.012 0.053,0.031 0.072,0.056c0.018,0.025 0.027,0.057 0.027,0.094c0,0.031 -0.006,0.06 -0.017,0.085c-0.011,0.024 -0.026,0.045 -0.045,0.063c-0.019,0.017 -0.039,0.029 -0.061,0.038l0,0.005c0.019,0.006 0.036,0.014 0.05,0.025c0.014,0.011 0.025,0.023 0.034,0.037c0.009,0.015 0.015,0.03 0.02,0.045c0.004,0.015 0.006,0.03 0.006,0.045c0,0.01 0,0.022 0.001,0.035c0.001,0.013 0.003,0.025 0.006,0.037c0.002,0.012 0.008,0.023 0.014,0.032c0.007,0.009 0.017,0.016 0.03,0.019l0,0.041c-0.018,0.007 -0.038,0.012 -0.059,0.015c-0.021,0.003 -0.042,0.004 -0.061,0.004Zm-0.288,-0.405l0.102,0c0.01,0 0.019,-0.003 0.028,-0.009c0.008,-0.007 0.014,-0.015 0.019,-0.026c0.005,-0.011 0.007,-0.023 0.007,-0.037c-0,-0.021 -0.005,-0.037 -0.015,-0.047c-0.01,-0.01 -0.022,-0.015 -0.036,-0.015l-0.105,0l0,0.134Z" style="fill:#fff;fill-rule:nonzero;"/></g><g transform="matrix(439.755,0,0,439.755,2118.78,383)"><path d="M0.331,0.01c-0.041,0 -0.08,-0.008 -0.117,-0.024c-0.036,-0.015 -0.068,-0.037 -0.095,-0.064c-0.027,-0.027 -0.049,-0.059 -0.065,-0.096c-0.015,-0.036 -0.023,-0.075 -0.023,-0.116l-0,-0.104c-0,-0.041 0.008,-0.08 0.023,-0.117c0.016,-0.036 0.038,-0.068 0.065,-0.095c0.027,-0.027 0.059,-0.049 0.095,-0.065c0.037,-0.015 0.076,-0.023 0.117,-0.023l0.056,0c0.041,0 0.08,0.008 0.117,0.024c0.036,0.015 0.068,0.037 0.095,0.064c0.027,0.027 0.049,0.059 0.065,0.096c0.015,0.036 0.023,0.075 0.023,0.116l0,0.104c0,0.041 -0.008,0.08 -0.023,0.117c-0.016,0.036 -0.038,0.068 -0.065,0.095c-0.027,0.027 -0.059,0.049 -0.095,0.065c-0.037,0.015 -0.076,0.023 -0.117,0.023l-0.056,0Zm0.028,-0.156c0.015,0 0.029,-0.003 0.041,-0.008c0.013,-0.005 0.024,-0.012 0.033,-0.021c0.009,-0.009 0.016,-0.02 0.021,-0.032c0.005,-0.012 0.008,-0.025 0.008,-0.039l-0,-0.192c-0,-0.014 -0.003,-0.027 -0.008,-0.039c-0.005,-0.012 -0.012,-0.023 -0.021,-0.032c-0.009,-0.009 -0.02,-0.016 -0.033,-0.021c-0.012,-0.005 -0.026,-0.008 -0.041,-0.008c-0.015,0 -0.028,0.003 -0.041,0.008c-0.013,0.005 -0.024,0.013 -0.033,0.022c-0.009,0.009 -0.017,0.019 -0.022,0.031c-0.005,0.012 -0.007,0.025 -0.007,0.039l0,0.192c0,0.014 0.003,0.027 0.008,0.039c0.005,0.012 0.012,0.023 0.021,0.032c0.009,0.009 0.02,0.017 0.033,0.022c0.013,0.005 0.026,0.007 0.041,0.007Z" style="fill:#fff;fill-rule:nonzero;"/></g><g transform="matrix(439.755,0,0,439.755,2434.53,383)"><path d="M0.31,0.01c-0.051,0 -0.098,-0.008 -0.141,-0.024c-0.043,-0.015 -0.078,-0.039 -0.104,-0.072c-0.027,-0.032 -0.04,-0.073 -0.04,-0.124l0,-0.011c0,-0.004 0,-0.008 0.001,-0.013l0.194,0c-0.001,0.003 -0.001,0.005 -0.001,0.006l0,0.006c0,0.012 0.003,0.023 0.009,0.034c0.005,0.011 0.015,0.02 0.028,0.027c0.013,0.007 0.032,0.01 0.056,0.01c0.027,0 0.048,-0.002 0.061,-0.006c0.013,-0.004 0.022,-0.009 0.027,-0.016c0.005,-0.007 0.007,-0.014 0.007,-0.021c0,-0.014 -0.007,-0.025 -0.02,-0.032c-0.013,-0.008 -0.031,-0.014 -0.052,-0.019c-0.022,-0.005 -0.046,-0.011 -0.072,-0.016c-0.026,-0.005 -0.052,-0.013 -0.079,-0.022c-0.026,-0.009 -0.05,-0.021 -0.071,-0.036c-0.022,-0.015 -0.04,-0.035 -0.053,-0.06c-0.013,-0.025 -0.02,-0.057 -0.02,-0.095c0,-0.049 0.013,-0.089 0.04,-0.122c0.027,-0.033 0.062,-0.057 0.107,-0.074c0.044,-0.017 0.093,-0.026 0.146,-0.026c0.051,0 0.098,0.008 0.14,0.023c0.041,0.015 0.075,0.037 0.1,0.068c0.025,0.031 0.037,0.07 0.037,0.119l0,0.012l-0.192,-0l0,-0.004c0,-0.012 -0.003,-0.023 -0.008,-0.033c-0.005,-0.01 -0.014,-0.018 -0.026,-0.024c-0.013,-0.006 -0.029,-0.009 -0.049,-0.009c-0.019,0 -0.034,0.002 -0.046,0.006c-0.013,0.003 -0.022,0.008 -0.028,0.014c-0.006,0.006 -0.009,0.013 -0.009,0.022c0,0.015 0.007,0.026 0.02,0.034c0.013,0.009 0.031,0.016 0.053,0.021c0.022,0.005 0.046,0.011 0.073,0.016c0.027,0.005 0.053,0.012 0.08,0.02c0.026,0.009 0.05,0.02 0.072,0.035c0.022,0.015 0.04,0.034 0.053,0.057c0.013,0.024 0.02,0.054 0.02,0.09c-0,0.057 -0.014,0.102 -0.041,0.137c-0.027,0.035 -0.064,0.061 -0.111,0.077c-0.047,0.017 -0.1,0.025 -0.161,0.025Z" style="fill:#fff;fill-rule:nonzero;"/></g><g transform="matrix(439.755,0,0,439.755,2720.81,383)"><path d="M-0.005,-0l0.229,-0.686l0.261,0l0.229,0.686l-0.218,-0l-0.041,-0.122l-0.218,0l-0.04,0.122l-0.202,-0Zm0.29,-0.267l0.122,0l-0.058,-0.208l-0.005,0l-0.059,0.208Z" style="fill:#fff;fill-rule:nonzero;"/></g><g transform="matrix(439.755,0,0,439.755,942,822.755)"><path d="M0.31,0.01c-0.051,0 -0.098,-0.008 -0.141,-0.024c-0.043,-0.015 -0.078,-0.039 -0.104,-0.072c-0.027,-0.032 -0.04,-0.073 -0.04,-0.124l0,-0.011c0,-0.004 0,-0.008 0.001,-0.013l0.194,0c-0.001,0.003 -0.001,0.005 -0.001,0.006l0,0.006c0,0.012 0.003,0.023 0.009,0.034c0.005,0.011 0.015,0.02 0.028,0.027c0.013,0.007 0.032,0.01 0.056,0.01c0.027,0 0.048,-0.002 0.061,-0.006c0.013,-0.004 0.022,-0.009 0.027,-0.016c0.005,-0.007 0.007,-0.014 0.007,-0.021c0,-0.014 -0.007,-0.025 -0.02,-0.032c-0.013,-0.008 -0.031,-0.014 -0.052,-0.019c-0.022,-0.005 -0.046,-0.011 -0.072,-0.016c-0.026,-0.005 -0.052,-0.013 -0.079,-0.022c-0.026,-0.009 -0.05,-0.021 -0.071,-0.036c-0.022,-0.015 -0.04,-0.035 -0.053,-0.06c-0.013,-0.025 -0.02,-0.057 -0.02,-0.095c0,-0.049 0.013,-0.089 0.04,-0.122c0.027,-0.033 0.062,-0.057 0.107,-0.074c0.044,-0.017 0.093,-0.026 0.146,-0.026c0.051,0 0.098,0.008 0.14,0.023c0.041,0.015 0.075,0.037 0.1,0.068c0.025,0.031 0.037,0.07 0.037,0.119l0,0.012l-0.192,-0l0,-0.004c0,-0.012 -0.003,-0.023 -0.008,-0.033c-0.005,-0.01 -0.014,-0.018 -0.026,-0.024c-0.013,-0.006 -0.029,-0.009 -0.049,-0.009c-0.019,0 -0.034,0.002 -0.046,0.006c-0.013,0.003 -0.022,0.008 -0.028,0.014c-0.006,0.006 -0.009,0.013 -0.009,0.022c0,0.015 0.007,0.026 0.02,0.034c0.013,0.009 0.031,0.016 0.053,0.021c0.022,0.005 0.046,0.011 0.073,0.016c0.027,0.005 0.053,0.012 0.08,0.02c0.026,0.009 0.05,0.02 0.072,0.035c0.022,0.015 0.04,0.034 0.053,0.057c0.013,0.024 0.02,0.054 0.02,0.09c-0,0.057 -0.014,0.102 -0.041,0.137c-0.027,0.035 -0.064,0.061 -0.111,0.077c-0.047,0.017 -0.1,0.025 -0.161,0.025Z" style="fill:#fff;fill-rule:nonzero;"/></g><g transform="matrix(439.755,0,0,439.755,1228.28,822.755)"><path d="M0.218,-0l0,-0.263l-0.227,-0.423l0.236,-0l0.103,0.225l0.005,-0l0.105,-0.225l0.215,-0l-0.226,0.423l-0,0.263l-0.211,-0Z" style="fill:#fff;fill-rule:nonzero;"/></g><g transform="matrix(439.755,0,0,439.755,1512.36,822.755)"><path d="M0.31,0.01c-0.051,0 -0.098,-0.008 -0.141,-0.024c-0.043,-0.015 -0.078,-0.039 -0.104,-0.072c-0.027,-0.032 -0.04,-0.073 -0.04,-0.124l0,-0.011c0,-0.004 0,-0.008 0.001,-0.013l0.194,0c-0.001,0.003 -0.001,0.005 -0.001,0.006l0,0.006c0,0.012 0.003,0.023 0.009,0.034c0.005,0.011 0.015,0.02 0.028,0.027c0.013,0.007 0.032,0.01 0.056,0.01c0.027,0 0.048,-0.002 0.061,-0.006c0.013,-0.004 0.022,-0.009 0.027,-0.016c0.005,-0.007 0.007,-0.014 0.007,-0.021c0,-0.014 -0.007,-0.025 -0.02,-0.032c-0.013,-0.008 -0.031,-0.014 -0.052,-0.019c-0.022,-0.005 -0.046,-0.011 -0.072,-0.016c-0.026,-0.005 -0.052,-0.013 -0.079,-0.022c-0.026,-0.009 -0.05,-0.021 -0.071,-0.036c-0.022,-0.015 -0.04,-0.035 -0.053,-0.06c-0.013,-0.025 -0.02,-0.057 -0.02,-0.095c0,-0.049 0.013,-0.089 0.04,-0.122c0.027,-0.033 0.062,-0.057 0.107,-0.074c0.044,-0.017 0.093,-0.026 0.146,-0.026c0.051,0 0.098,0.008 0.14,0.023c0.041,0.015 0.075,0.037 0.1,0.068c0.025,0.031 0.037,0.07 0.037,0.119l0,0.012l-0.192,-0l0,-0.004c0,-0.012 -0.003,-0.023 -0.008,-0.033c-0.005,-0.01 -0.014,-0.018 -0.026,-0.024c-0.013,-0.006 -0.029,-0.009 -0.049,-0.009c-0.019,0 -0.034,0.002 -0.046,0.006c-0.013,0.003 -0.022,0.008 -0.028,0.014c-0.006,0.006 -0.009,0.013 -0.009,0.022c0,0.015 0.007,0.026 0.02,0.034c0.013,0.009 0.031,0.016 0.053,0.021c0.022,0.005 0.046,0.011 0.073,0.016c0.027,0.005 0.053,0.012 0.08,0.02c0.026,0.009 0.05,0.02 0.072,0.035c0.022,0.015 0.04,0.034 0.053,0.057c0.013,0.024 0.02,0.054 0.02,0.09c-0,0.057 -0.014,0.102 -0.041,0.137c-0.027,0.035 -0.064,0.061 -0.111,0.077c-0.047,0.017 -0.1,0.025 -0.161,0.025Z" style="fill:#fff;fill-rule:nonzero;"/></g><g transform="matrix(439.755,0,0,439.755,1798.64,822.755)"><path d="M0.187,-0l0,-0.521l-0.172,0l0,-0.165l0.556,0l0,0.165l-0.173,0l0,0.521l-0.211,-0Z" style="fill:#fff;fill-rule:nonzero;"/></g><g transform="matrix(439.755,0,0,439.755,2056.34,822.755)"><path d="M0.057,-0l0,-0.686l0.515,0l-0.02,0.16l-0.289,0l-0,0.1l0.278,0l-0,0.153l-0.278,0l-0,0.113l0.289,0l0.02,0.16l-0.515,0Z" style="fill:#fff;fill-rule:nonzero;"/></g><g transform="matrix(439.755,0,0,439.755,2320.19,822.755)"><path d="M0.057,-0l0,-0.686l0.344,0l0.099,0.366l0.004,0l0.097,-0.366l0.346,0l0,0.686l-0.21,-0l-0,-0.44l-0.004,0l-0.12,0.44l-0.241,-0l-0.119,-0.44l-0.005,0l-0,0.44l-0.191,-0Z" style="fill:#fff;fill-rule:nonzero;"/></g><g transform="matrix(439.755,0,0,439.755,2761.7,822.755)"><path d="M0.31,0.01c-0.051,0 -0.098,-0.008 -0.141,-0.024c-0.043,-0.015 -0.078,-0.039 -0.104,-0.072c-0.027,-0.032 -0.04,-0.073 -0.04,-0.124l0,-0.011c0,-0.004 0,-0.008 0.001,-0.013l0.194,0c-0.001,0.003 -0.001,0.005 -0.001,0.006l0,0.006c0,0.012 0.003,0.023 0.009,0.034c0.005,0.011 0.015,0.02 0.028,0.027c0.013,0.007 0.032,0.01 0.056,0.01c0.027,0 0.048,-0.002 0.061,-0.006c0.013,-0.004 0.022,-0.009 0.027,-0.016c0.005,-0.007 0.007,-0.014 0.007,-0.021c0,-0.014 -0.007,-0.025 -0.02,-0.032c-0.013,-0.008 -0.031,-0.014 -0.052,-0.019c-0.022,-0.005 -0.046,-0.011 -0.072,-0.016c-0.026,-0.005 -0.052,-0.013 -0.079,-0.022c-0.026,-0.009 -0.05,-0.021 -0.071,-0.036c-0.022,-0.015 -0.04,-0.035 -0.053,-0.06c-0.013,-0.025 -0.02,-0.057 -0.02,-0.095c0,-0.049 0.013,-0.089 0.04,-0.122c0.027,-0.033 0.062,-0.057 0.107,-0.074c0.044,-0.017 0.093,-0.026 0.146,-0.026c0.051,0 0.098,0.008 0.14,0.023c0.041,0.015 0.075,0.037 0.1,0.068c0.025,0.031 0.037,0.07 0.037,0.119l0,0.012l-0.192,-0l0,-0.004c0,-0.012 -0.003,-0.023 -0.008,-0.033c-0.005,-0.01 -0.014,-0.018 -0.026,-0.024c-0.013,-0.006 -0.029,-0.009 -0.049,-0.009c-0.019,0 -0.034,0.002 -0.046,0.006c-0.013,0.003 -0.022,0.008 -0.028,0.014c-0.006,0.006 -0.009,0.013 -0.009,0.022c0,0.015 0.007,0.026 0.02,0.034c0.013,0.009 0.031,0.016 0.053,0.021c0.022,0.005 0.046,0.011 0.073,0.016c0.027,0.005 0.053,0.012 0.08,0.02c0.026,0.009 0.05,0.02 0.072,0.035c0.022,0.015 0.04,0.034 0.053,0.057c0.013,0.024 0.02,0.054 0.02,0.09c-0,0.057 -0.014,0.102 -0.041,0.137c-0.027,0.035 -0.064,0.061 -0.111,0.077c-0.047,0.017 -0.1,0.025 -0.161,0.025Z" style="fill:#fff;fill-rule:nonzero;"/></g></g></svg>