<?xml version="1.0" encoding="UTF-8" standalone="no"?><!DOCTYPE svg PUBLIC "-//W3C//DTD SVG 1.1//EN" "http://www.w3.org/Graphics/SVG/1.1/DTD/svg11.dtd"><svg width="100%" height="100%" viewBox="0 0 24 24" version="1.1" xmlns="http://www.w3.org/2000/svg" xmlns:xlink="http://www.w3.org/1999/xlink" xml:space="preserve" xmlns:serif="http://www.serif.com/" style="fill-rule:evenodd;clip-rule:evenodd;stroke-linejoin:round;stroke-miterlimit:2;"><rect id="Artboard1" x="0" y="0" width="24" height="24" style="fill:none;"/><g id="Artboard11" serif:id="Artboard1"><g><g><path d="M19.247,11.341l-0,-1.318l-6.395,0l0,1.318l6.395,0Zm-0,2.636l-0,-1.318l-6.395,-0l0,1.318l6.395,-0Z" style="fill:#fff;fill-rule:nonzero;"/><g><path d="M12,15.567l0,-7.647l-2.369,0l0,0.8l1.356,0l0,6.047l-1.356,-0l0,0.8l2.369,0Z" style="fill:#fff;fill-rule:nonzero;"/><path d="M4.32,15.567l-0,-7.647l2.369,0l-0,0.8l-1.356,0l-0,6.047l1.356,-0l-0,0.8l-2.369,0Z" style="fill:#fff;fill-rule:nonzero;"/></g><path d="M22.212,13.977c-0.398,-0 -0.756,-0.078 -1.076,-0.234c-0.319,-0.156 -0.572,-0.381 -0.758,-0.675c-0.186,-0.295 -0.279,-0.651 -0.279,-1.068c-0,-0.417 0.103,-0.773 0.309,-1.068c0.207,-0.294 0.478,-0.519 0.815,-0.675c0.337,-0.156 0.699,-0.234 1.087,-0.234c0.296,0 0.569,0.046 0.818,0.136c0.249,0.091 0.452,0.211 0.608,0.362l-0.589,0.8c-0.141,-0.096 -0.273,-0.162 -0.396,-0.2c-0.123,-0.038 -0.245,-0.057 -0.366,-0.057c-0.186,0 -0.352,0.038 -0.498,0.114c-0.146,0.075 -0.259,0.183 -0.339,0.324c-0.081,0.141 -0.121,0.307 -0.121,0.498c-0,0.191 0.039,0.357 0.117,0.498c0.078,0.141 0.186,0.249 0.324,0.324c0.139,0.076 0.296,0.114 0.472,0.114c0.186,-0 0.356,-0.033 0.509,-0.099c0.153,-0.065 0.293,-0.138 0.419,-0.218l0.513,0.815c-0.232,0.191 -0.488,0.329 -0.77,0.414c-0.281,0.086 -0.548,0.129 -0.799,0.129Z" style="fill:#ff0c00;fill-rule:nonzero;"/><path d="M8.417,14.414c-0.171,0 -0.34,-0.041 -0.506,-0.124c-0.166,-0.083 -0.322,-0.208 -0.468,-0.374l-0.03,0l-0.106,0.408l-1.011,-0l0,-5.251l1.298,-0l0,1.222l-0.045,0.543l0.03,0c0.131,-0.121 0.278,-0.214 0.441,-0.279c0.164,-0.065 0.331,-0.098 0.502,-0.098c0.307,-0 0.572,0.079 0.796,0.238c0.224,0.158 0.397,0.379 0.521,0.664c0.123,0.284 0.185,0.619 0.185,1.007c-0,0.432 -0.077,0.802 -0.231,1.109c-0.153,0.307 -0.352,0.539 -0.596,0.698c-0.244,0.158 -0.504,0.237 -0.78,0.237Zm-0.31,-1.056c0.106,0 0.203,-0.03 0.291,-0.09c0.088,-0.061 0.159,-0.161 0.215,-0.302c0.055,-0.141 0.083,-0.332 0.083,-0.574c-0,-0.206 -0.022,-0.373 -0.064,-0.501c-0.043,-0.129 -0.105,-0.223 -0.185,-0.283c-0.081,-0.061 -0.184,-0.091 -0.31,-0.091c-0.1,0 -0.193,0.02 -0.279,0.061c-0.085,0.04 -0.173,0.11 -0.264,0.211l0,1.388c0.081,0.065 0.165,0.112 0.253,0.14c0.088,0.027 0.175,0.041 0.26,0.041Z" style="fill:#ff0c00;fill-rule:nonzero;"/><path d="M1.462,14.217c-0.261,-0 -0.483,-0.054 -0.664,-0.162c-0.181,-0.109 -0.319,-0.251 -0.415,-0.427c-0.095,-0.176 -0.143,-0.367 -0.143,-0.573c0,-0.423 0.182,-0.746 0.547,-0.97c0.365,-0.223 0.977,-0.358 1.837,-0.403c-0.015,-0.091 -0.053,-0.165 -0.113,-0.223c-0.06,-0.058 -0.142,-0.1 -0.245,-0.128c-0.103,-0.028 -0.225,-0.042 -0.366,-0.042c-0.106,0 -0.214,0.012 -0.325,0.034c-0.11,0.023 -0.227,0.058 -0.35,0.106c-0.124,0.048 -0.261,0.107 -0.412,0.177l-0.452,-0.845c0.191,-0.105 0.385,-0.196 0.581,-0.271c0.196,-0.076 0.395,-0.132 0.596,-0.17c0.201,-0.038 0.407,-0.057 0.618,-0.057c0.357,0 0.668,0.062 0.932,0.185c0.264,0.123 0.469,0.314 0.615,0.574c0.146,0.259 0.219,0.594 0.219,1.007l-0,2.097l-1.056,0l-0.091,-0.392l-0.03,-0c-0.186,0.136 -0.387,0.25 -0.604,0.343c-0.216,0.093 -0.442,0.14 -0.679,0.14Zm0.423,-0.996c0.151,-0 0.286,-0.029 0.407,-0.087c0.121,-0.058 0.232,-0.124 0.332,-0.2l0,-0.483c-0.307,0.01 -0.543,0.038 -0.709,0.083c-0.166,0.046 -0.28,0.105 -0.343,0.178c-0.063,0.072 -0.095,0.152 -0.095,0.237c0,0.056 0.015,0.105 0.046,0.147c0.03,0.043 0.075,0.075 0.135,0.095c0.061,0.02 0.136,0.03 0.227,0.03Z" style="fill:#ff0c00;fill-rule:nonzero;"/></g><path d="M2.745,7.2c1.736,-3.33 5.221,-5.605 9.232,-5.605c4.012,0 7.497,2.275 9.233,5.605l-0.74,0c-1.676,-2.958 -4.853,-4.955 -8.493,-4.955c-3.639,-0 -6.816,1.997 -8.492,4.955l-0.74,-0Zm18.465,9.6c-1.736,3.33 -5.221,5.605 -9.233,5.605c-4.011,-0 -7.496,-2.275 -9.232,-5.605l0.74,0c1.676,2.958 4.853,4.955 8.492,4.955c3.64,0 6.817,-1.997 8.493,-4.955l0.74,-0Z" style="fill:#fff;"/></g></g></svg>