<?xml version="1.0" encoding="UTF-8" standalone="no"?><!DOCTYPE svg PUBLIC "-//W3C//DTD SVG 1.1//EN" "http://www.w3.org/Graphics/SVG/1.1/DTD/svg11.dtd"><svg width="100%" height="100%" viewBox="0 0 24 24" version="1.1" xmlns="http://www.w3.org/2000/svg" xmlns:xlink="http://www.w3.org/1999/xlink" xml:space="preserve" xmlns:serif="http://www.serif.com/" style="fill-rule:evenodd;clip-rule:evenodd;stroke-linejoin:round;stroke-miterlimit:2;"><rect id="Artboard1" x="0" y="0" width="24" height="24" style="fill:none;"/><g id="Artboard11" serif:id="Artboard1"><g><rect x="5.605" y="10.38" width="12.744" height="3.24" style="fill:#fff;fill-rule:nonzero;"/><path d="M1.839,13.977c-0.262,-0 -0.483,-0.054 -0.664,-0.162c-0.181,-0.109 -0.32,-0.251 -0.415,-0.427c-0.096,-0.176 -0.144,-0.367 -0.144,-0.573c0,-0.423 0.183,-0.746 0.547,-0.97c0.365,-0.223 0.977,-0.358 1.837,-0.403c-0.015,-0.091 -0.052,-0.165 -0.113,-0.223c-0.06,-0.058 -0.142,-0.1 -0.245,-0.128c-0.103,-0.028 -0.225,-0.042 -0.366,-0.042c-0.105,0 -0.214,0.012 -0.324,0.034c-0.111,0.023 -0.228,0.058 -0.351,0.106c-0.123,0.048 -0.26,0.107 -0.411,0.177l-0.453,-0.845c0.191,-0.105 0.385,-0.196 0.581,-0.271c0.196,-0.076 0.395,-0.132 0.596,-0.17c0.201,-0.038 0.407,-0.057 0.619,-0.057c0.357,0 0.667,0.062 0.931,0.185c0.265,0.123 0.47,0.314 0.615,0.574c0.146,0.259 0.219,0.594 0.219,1.007l0,2.097l-1.056,0l-0.091,-0.392l-0.03,-0c-0.186,0.136 -0.387,0.25 -0.603,0.343c-0.217,0.093 -0.443,0.14 -0.679,0.14Zm0.422,-0.996c0.151,-0 0.287,-0.029 0.407,-0.087c0.121,-0.058 0.232,-0.124 0.332,-0.2l0,-0.483c-0.306,0.01 -0.543,0.038 -0.709,0.083c-0.166,0.046 -0.28,0.105 -0.343,0.178c-0.063,0.072 -0.094,0.152 -0.094,0.237c-0,0.056 0.015,0.105 0.045,0.147c0.03,0.043 0.075,0.075 0.136,0.095c0.06,0.02 0.136,0.03 0.226,0.03Z" style="fill:#ff0c00;fill-rule:nonzero;"/><path d="M21.777,14.671c-0.171,-0 -0.34,-0.042 -0.506,-0.125c-0.166,-0.083 -0.322,-0.207 -0.468,-0.373l-0.03,-0l-0.105,0.407l-1.011,0l-0,-5.251l1.297,0l0,1.222l-0.045,0.544l0.03,-0c0.131,-0.121 0.278,-0.214 0.442,-0.28c0.163,-0.065 0.33,-0.098 0.501,-0.098c0.307,0 0.572,0.08 0.796,0.238c0.224,0.158 0.398,0.38 0.521,0.664c0.123,0.284 0.185,0.62 0.185,1.007c-0,0.433 -0.077,0.802 -0.23,1.109c-0.154,0.307 -0.353,0.54 -0.596,0.698c-0.244,0.159 -0.505,0.238 -0.781,0.238Zm-0.31,-1.056c0.106,-0 0.203,-0.031 0.291,-0.091c0.088,-0.06 0.159,-0.161 0.215,-0.302c0.055,-0.141 0.083,-0.332 0.083,-0.573c-0,-0.206 -0.022,-0.374 -0.064,-0.502c-0.043,-0.128 -0.105,-0.222 -0.185,-0.283c-0.081,-0.06 -0.184,-0.09 -0.31,-0.09c-0.1,-0 -0.193,0.02 -0.279,0.06c-0.085,0.04 -0.173,0.111 -0.264,0.211l0,1.389c0.081,0.065 0.165,0.111 0.253,0.139c0.088,0.028 0.175,0.042 0.26,0.042Z" style="fill:#ff0c00;fill-rule:nonzero;"/><path d="M2.745,7.2c1.736,-3.33 5.221,-5.605 9.232,-5.605c4.012,0 7.497,2.275 9.233,5.605l-0.74,0c-1.676,-2.958 -4.853,-4.955 -8.493,-4.955c-3.639,-0 -6.816,1.997 -8.492,4.955l-0.74,-0Zm18.465,9.6c-1.736,3.33 -5.221,5.605 -9.233,5.605c-4.011,-0 -7.496,-2.275 -9.232,-5.605l0.74,0c1.676,2.958 4.853,4.955 8.492,4.955c3.64,0 6.817,-1.997 8.493,-4.955l0.74,-0Z" style="fill:#fff;"/></g></g></svg>